<svg xmlns="http://www.w3.org/2000/svg" width="20" height="22"><path fill="currentColor" d="M17 10.25V5l-2.462 1.237a4.79 4.79 0 0 1 .128 1.097C14.667 9.912 12.578 12 10 12S5.333 9.912 5.333 7.333c0-.385.047-.747.128-1.097l-3.628-1.82L10 .333l8.167 4.083v5.833H17zM10 8.5L7.667 7.333A2.34 2.34 0 0 0 10 9.667a2.34 2.34 0 0 0 2.333-2.333L10 8.5zm3.208-4.177l-3.022-1.54-3.138 1.598 3.033 1.54 3.127-1.598zM10 13.167c3.115 0 9.333 1.552 9.333 4.667v3.5H.667v-3.5c0-3.115 6.218-4.667 9.333-4.667zm0 2.217c-3.5 0-7.117 1.703-7.117 2.45v1.283h14.233v-1.283c0-.747-3.652-2.45-7.117-2.45z"/></svg>