<svg xmlns="http://www.w3.org/2000/svg" width="28" height="28" fill="none"><rect width="28" height="28" rx="4" fill="#fff"/><path d="M11.033 20a9.28 9.28 0 0 0 6.62-2.718 9.28 9.28 0 0 0 2.718-6.62v-.429c.637-.467 1.188-1.04 1.629-1.694a6.77 6.77 0 0 1-1.884.516c.689-.41 1.205-1.056 1.455-1.818-.642.385-1.346.656-2.08.8-.495-.527-1.149-.876-1.862-.994a3.29 3.29 0 0 0-2.083.343c-.638.34-1.145.881-1.444 1.539s-.373 1.396-.211 2.1a9.3 9.3 0 0 1-6.764-3.425 3.28 3.28 0 0 0 1.018 4.363 3.25 3.25 0 0 1-1.455-.407v.036c-.005.753.249 1.485.719 2.074s1.127.999 1.863 1.162c-.474.128-.971.148-1.455.058a3.28 3.28 0 0 0 3.04 2.247c-1.157.931-2.595 1.444-4.08 1.454-.26-.008-.52-.029-.778-.066a9.29 9.29 0 0 0 5.033 1.454" fill="#774c88"/></svg>