<svg xmlns="http://www.w3.org/2000/svg" width="28" height="28" fill="none" xmlns:v="https://vecta.io/nano"><rect width="28" height="28" rx="4" fill="#fff"/><path fill-rule="evenodd" d="M20.159 18.826a3.65 3.65 0 0 0 1.167-1.267 3.61 3.61 0 0 0 .451-1.655c0-2.133-2.098-3.862-4.685-3.862s-4.686 1.73-4.686 3.862 2.098 3.863 4.686 3.863a5.59 5.59 0 0 0 1.53-.212l.137-.02a.5.5 0 0 1 .249.071l1.026.586.09.029c.02 0 .041-.004.06-.012s.036-.019.051-.034.026-.032.034-.05.012-.039.012-.059l-.025-.113-.211-.779-.017-.099c0-.049.012-.098.035-.142a.31.31 0 0 1 .097-.11v.001zM11.845 7.777c-3.106 0-5.622 2.075-5.622 4.636a4.33 4.33 0 0 0 .542 1.985 4.38 4.38 0 0 0 1.401 1.519.37.37 0 0 1 .116.132c.027.053.042.111.041.17l-.019.118-.253.935-.031.135c0 .049.02.096.055.131a.19.19 0 0 0 .132.055l.109-.035 1.231-.704a.59.59 0 0 1 .298-.085l.166.024c.597.169 1.215.255 1.835.255l.308-.008c-.125-.366-.188-.75-.189-1.136 0-2.335 2.296-4.228 5.128-4.228l.305.008c-.423-2.215-2.748-3.908-5.553-3.908h0zm3.685 7.51a.63.63 0 0 1-.347-.104.62.62 0 0 1-.23-.277.61.61 0 0 1-.036-.357c.024-.12.084-.23.171-.317s.199-.145.32-.169a.63.63 0 0 1 .361.035c.114.047.212.126.28.228s.105.221.105.344c0 .081-.016.162-.047.237a.62.62 0 0 1-.136.201c-.058.057-.127.103-.203.134a.63.63 0 0 1-.239.047h0zm3.124 0a.63.63 0 0 1-.348-.104.62.62 0 0 1-.231-.277.61.61 0 0 1-.036-.357c.024-.12.083-.23.171-.317s.199-.146.32-.17a.63.63 0 0 1 .361.035c.114.047.212.126.281.228s.105.221.105.344c0 .164-.066.321-.183.437a.63.63 0 0 1-.441.181zM9.97 11.671c-.148 0-.293-.043-.417-.125s-.219-.197-.276-.333-.072-.285-.042-.429a.74.74 0 0 1 .206-.38c.105-.104.239-.174.384-.203s.296-.014.433.043a.75.75 0 0 1 .336.274c.082.122.126.266.126.413 0 .097-.019.194-.057.284a.74.74 0 0 1-.163.241.75.75 0 0 1-.243.161c-.091.037-.189.056-.287.056h0zm3.748 0c-.148 0-.293-.043-.417-.125s-.22-.197-.276-.333-.072-.285-.043-.429a.74.74 0 0 1 .206-.38c.105-.104.239-.174.384-.203s.296-.014.433.043a.75.75 0 0 1 .336.274c.082.122.126.266.126.413 0 .097-.019.194-.057.284a.74.74 0 0 1-.163.241.75.75 0 0 1-.243.161c-.091.037-.188.056-.287.056h0z" fill="#491060" fill-opacity=".75"/></svg>