<svg xmlns="http://www.w3.org/2000/svg" width="28" height="28" fill="none" xmlns:v="https://vecta.io/nano"><rect width="28" height="28" rx="4" fill="#fff"/><path d="M12.445 16.333L16.481 14l-4.037-2.333v4.667zm8.991-6.09c.101.366.171.856.218 1.478l.078 1.626.047.653c0 1.703-.124 2.956-.342 3.757a1.82 1.82 0 0 1-1.346 1.346c-.366.101-1.034.171-2.061.218l-2.792.078-1.237.047c-3.259 0-5.289-.125-6.09-.342a1.82 1.82 0 0 1-1.346-1.346c-.101-.366-.171-.856-.218-1.478l-.078-1.626L6.222 14c0-1.703.124-2.955.342-3.757A1.82 1.82 0 0 1 7.91 8.898c.366-.101 1.034-.171 2.061-.218l2.792-.078L14 8.556c3.259 0 5.289.124 6.09.342a1.82 1.82 0 0 1 1.346 1.346h0z" fill="#491060" fill-opacity=".75"/></svg>