<svg width="2651" height="328" viewBox="102 29 2651 328" fill="none" xmlns="http://www.w3.org/2000/svg">
<path d="M536.93 342.14C534.71 340.34 534.67 340.05 535.78 333.39C537.29 324.4 537.68 314.85 536.6 313.15C534.43 309.68 535.04 287.31 538.07 259.5C538.61 254.55 539.42 245.1 539.87 238.5C540.33 231.9 541.25 225.15 541.93 223.5C542.61 221.82 543.13 216.32 543.1 211C543.06 202.39 543.5 198.96 545.53 192.33C546.19 190.18 546.16 190.17 542.62 191.83C540.66 192.75 538.8 194.25 538.48 195.17C537.82 197.13 532.86 201.59 523.9 208.29C520.38 210.93 515.25 214.88 512.5 217.07C509.75 219.27 504.4 223.13 500.61 225.65C494.2 229.91 493.37 230.19 488.65 229.74C484.42 229.33 483.11 228.7 480.79 225.91C477.35 221.8 477.27 219.37 480.48 216.02C481.84 214.6 483.56 211.65 484.31 209.47C485.07 207.23 486.94 204.63 488.58 203.5C490.36 202.29 493.16 198.19 495.76 193C498.1 188.33 502.22 181.94 504.9 178.8C507.58 175.67 510.71 171.58 511.87 169.72C513.02 167.85 517.11 163.53 520.95 160.11C524.79 156.7 529.13 151.79 530.59 149.2C532.64 145.56 534.79 143.6 540.13 140.5C543.91 138.3 547.28 135.65 547.61 134.62C547.95 133.58 552 128.99 556.62 124.41L565.01 116.09L561.58 115.45C556.2 114.44 552.82 115.48 535.5 123.5C523.34 129.13 520.48 130.19 515.16 131.05C502.99 133.03 498.33 134.46 494 137.53C489.42 140.78 478.66 145 474.95 145C473.82 145 468.76 146.76 463.7 148.9C450.2 154.64 446.7 155.41 443.03 153.51C437.45 150.63 436.65 148.21 437.63 137.27C438.49 127.73 438.56 127.53 441.9 125.28C444.48 123.55 446.75 122.99 451.4 122.96C454.75 122.93 459.3 122.21 461.5 121.36C463.7 120.5 468.58 119.42 472.35 118.95C476.12 118.48 480.17 117.47 481.35 116.69C482.54 115.91 485.08 115.04 487 114.75C488.93 114.46 491.4 113.97 492.5 113.67C493.6 113.36 497.65 112.25 501.5 111.19C505.35 110.13 513.65 108.73 519.95 108.08C526.25 107.43 534.55 106.02 538.4 104.96C542.26 103.89 548.36 102.72 551.96 102.37C555.55 102.01 560.3 100.92 562.5 99.9498C566.16 98.3298 574.11 95.6798 587.69 91.5698C590.54 90.7098 593.72 89.9998 594.76 89.9998C595.79 89.9998 599.05 88.1998 602 85.9998C604.95 83.7998 608.17 81.9998 609.16 81.9998C610.16 81.9998 612.42 83.2998 614.19 84.8798L617.42 87.7698L614.81 91.7198C612.53 95.1498 606.99 99.7298 582.61 118.33C572.11 126.33 567.77 130.45 564.59 135.42C560.84 141.29 551.23 150.32 543.08 155.64C535.16 160.82 522 177.64 522 182.6C522 183.92 522.25 185 522.55 185C524.56 185 533.09 180.14 537.75 176.34C540.8 173.86 546.71 170.15 550.89 168.1C555.08 166.05 560.3 163.25 562.5 161.89C564.7 160.53 570.51 157.86 575.4 155.96C582.03 153.38 585.73 151.19 589.9 147.39C596.95 140.96 601.37 138.63 604.86 139.5C609.09 140.55 611 142.92 611 147.08C611 150.22 610.37 151.37 607.27 153.93C605.22 155.62 603.07 157 602.5 157C599.8 157 578.79 168.35 575.08 171.81C568.09 178.33 566.83 181.73 565.9 196.5C565.45 203.65 564.59 212.88 563.99 217C563.38 221.12 562.8 228.55 562.69 233.5L562.5 242.5H572.22C580.82 242.5 582.18 242.75 584.08 244.64C586.19 246.75 586.2 246.88 584.54 251.87C582.63 257.63 583.2 261 586.09 261C589.94 261 590.32 257.22 590.41 218.16L590.5 180.83L593.42 178.31C598.35 174.08 605.02 176.33 608.78 183.5C611.51 188.69 612.99 228.11 610.98 242.01C610.46 245.58 610.03 252.61 610.02 257.63C610.01 264.31 609.62 267.07 608.57 267.94C607.06 269.2 605.74 274.38 603.9 286.24C602.65 294.29 596.08 307.7 590.19 314.21C585.23 319.71 577.08 323.22 568 323.78C559.27 324.32 557.9 325.21 554.35 332.72C549.47 343.03 542.61 346.74 536.93 342.14ZM570.77 306.38C584.04 292.53 588.77 275.83 581.38 268.89C579.22 266.86 577.84 266.51 571.96 266.5C562.7 266.5 561.35 267.82 561.92 276.29C562.52 285.12 562.41 291.4 561.52 300.05C560.85 306.5 560.99 307.85 562.44 309.3C564.95 311.8 565.89 311.47 570.77 306.38ZM2578.31 341.04C2576.94 339.45 2575.83 339.2 2572.3 339.68C2563.4 340.9 2561.04 333.72 2568.04 326.72C2570.27 324.5 2573.51 320.84 2575.25 318.59C2577 316.34 2582.45 310.65 2587.37 305.95C2595.29 298.39 2596.24 297.1 2595.66 294.8C2595.11 292.57 2594.31 292.1 2590.25 291.56C2582.68 290.55 2576.73 292.2 2570.45 297.04C2567.38 299.41 2564.11 301.4 2563.18 301.48C2562.26 301.55 2560.28 302.41 2558.8 303.39C2552.49 307.54 2549.96 301.85 2554.28 293.24C2555.61 290.6 2557 286.82 2557.37 284.82C2557.75 282.83 2558.72 280.65 2559.53 279.98C2560.34 279.31 2561 277.75 2561 276.53C2561 272.84 2564.04 271 2570.13 271C2575 271 2575.95 270.64 2578.73 267.75C2581.9 264.46 2586 255.55 2586 251.96C2586 249.7 2582.66 246 2580.62 246C2579.86 246 2579 246.89 2578.71 247.99C2578.01 250.67 2574.09 252 2566.89 252C2561.87 252 2560.51 251.6 2558.45 249.55C2555.79 246.89 2555.23 242.88 2557.28 241.18C2557.99 240.6 2559.84 239.89 2561.4 239.6C2565.36 238.89 2567.83 236.36 2569.07 231.74C2570.51 226.38 2569.78 225 2565.48 225C2559.41 225 2552 220.36 2552 216.57C2552 213.21 2554.57 210.38 2561.95 205.6C2571.52 199.41 2577 194.22 2579.2 189.27C2580.87 185.5 2580.92 184.75 2579.64 182.27L2578.2 179.49L2568.31 180.4C2555.85 181.54 2552.5 180.4 2552.5 175C2552.5 170.76 2554.86 169.36 2563.57 168.43C2576.36 167.07 2580.85 161.2 2575.91 152.28C2571.27 143.91 2564.96 139.4 2557.45 139.1C2554.73 139 2549.8 138.7 2546.5 138.44C2542.53 138.13 2539.96 138.4 2538.91 139.24C2536.94 140.8 2522.85 163.21 2519.92 169.44C2517.66 174.26 2513.58 178.28 2508.5 180.7C2506.31 181.75 2504.38 184.23 2501.67 189.49C2497.62 197.36 2488.1 208.54 2482.51 212C2480.62 213.16 2477.01 217.23 2474.48 221.03C2469.3 228.82 2461.07 236.55 2457.12 237.33C2455.63 237.63 2453.48 237.2 2452.13 236.33C2450.07 235 2449.82 234.2 2450.21 230.15C2450.86 223.42 2454.58 218.3 2466.1 208.31C2471.68 203.46 2477.48 198.15 2479 196.5C2490.05 184.46 2494.54 178.84 2496.6 174.45C2497.9 171.68 2500.32 168.4 2501.98 167.17C2503.64 165.94 2505 164.47 2505 163.9C2505 163.33 2507.91 159.14 2511.46 154.59C2518.69 145.32 2532.48 123.19 2536.53 114.35C2537.99 111.15 2540.72 106.84 2542.59 104.77C2544.47 102.69 2546 100.51 2546 99.9098C2546 99.3098 2548.26 96.2898 2551.01 93.1998C2555.68 87.9598 2557.98 83.1498 2557.99 78.5998C2558 75.5498 2562.12 64.8398 2564.95 60.4998C2566.51 58.1198 2568.5 56.3698 2569.87 56.1698C2573.2 55.6898 2576.16 58.7798 2575.89 62.4598C2575.77 64.1298 2576 67.7998 2576.41 70.6098C2577.29 76.6698 2576.09 80.0598 2569.63 89.8498C2567.22 93.5098 2564.91 97.6198 2564.51 98.9998C2564.11 100.38 2560 107.84 2555.39 115.59C2550.77 123.33 2547 130.03 2547 130.46C2547 131.78 2553.07 130.17 2561.5 126.62C2581.4 118.23 2589.68 116.33 2596.38 118.62C2601.79 120.46 2604.41 123.12 2603.54 125.88C2603.19 126.99 2601.06 129.61 2598.81 131.7C2585.23 144.32 2585.69 143.73 2586.32 147.61C2587.12 152.49 2589.43 155.76 2593.45 157.68C2596.58 159.17 2597.4 159.13 2606.35 157.04C2618.3 154.24 2632.22 154.45 2638.49 157.54C2642.88 159.7 2646.44 164.32 2647.99 169.88C2649.67 175.91 2650.33 200.64 2649.09 211.43C2647.41 226.09 2645.8 231.51 2638.96 245.5C2634.28 255.08 2629.65 260.28 2624.18 262.1C2621.32 263.05 2620.21 262.87 2616.18 260.8C2609.28 257.26 2609.42 254.95 2616.98 247.67C2620.31 244.46 2623.76 240.41 2624.65 238.67C2625.54 236.93 2628.17 233.45 2630.49 230.94C2636.59 224.37 2637.4 221.06 2637.38 203C2637.36 183.07 2635.84 177.81 2629 174.02C2625.39 172.03 2622.92 171.49 2616.5 171.34C2598.71 170.91 2594.09 173.01 2593.23 181.91C2592.61 188.36 2593.61 189.28 2600.28 188.42C2605.7 187.72 2608 188.95 2608 192.54C2608 195.56 2604.82 202.87 2600.38 210.07C2598.41 213.26 2597.11 216.37 2597.49 216.98C2598.47 218.57 2596.12 221.01 2593.63 220.97C2592.46 220.95 2590.63 220.28 2589.56 219.47C2588.49 218.66 2586.82 218 2585.83 218C2583.25 218 2580.84 223.37 2581.2 228.31C2581.5 232.45 2581.55 232.5 2585.65 232.8C2588.42 233 2591.84 232.25 2595.87 230.55C2605.62 226.45 2611.48 227.24 2614.37 233.04C2615.76 235.82 2615.73 236.45 2614.05 240.29C2613.04 242.61 2610.01 246.98 2607.32 250C2596.86 261.77 2594.37 265.71 2593.1 272.47C2591.99 278.44 2593.16 279.3 2603.45 280.1C2612.38 280.8 2618.1 283.45 2621.34 288.39C2625.45 294.68 2624.17 308.04 2618.81 314.68C2617.12 316.78 2614.89 320.36 2613.87 322.64C2612.84 324.92 2609.28 329.31 2605.94 332.39C2601.13 336.85 2599.21 338 2596.58 338C2594.71 338 2591.69 339.08 2589.6 340.5C2585.16 343.51 2580.61 343.73 2578.31 341.04ZM2597.78 314.44C2599.01 313.58 2600.71 311.52 2601.57 309.86L2603.14 306.83L2599.82 307.11C2595.72 307.45 2592 310.58 2592 313.67C2592 316.44 2594.46 316.77 2597.78 314.44ZM155.85 331.48C154.39 330.69 151.24 327.44 148.85 324.25L144.5 318.47L144.63 299.46C144.73 284.86 145.14 279.36 146.38 275.7C148.11 270.61 148.47 266.39 147.25 265.68C146.84 265.44 144.02 266.07 141 267.07C137.98 268.08 132.2 269.63 128.17 270.53C119.56 272.46 115.84 271.53 113.43 266.86C112.09 264.27 112.13 263.66 113.94 260.11C116.39 255.31 123.71 249.11 135.35 241.94C151.29 232.14 154.88 227.58 155.6 216.25C155.78 213.37 156.34 210.22 156.85 209.25C157.38 208.26 157.63 195.66 157.44 180C157.1 151.82 156.84 149.74 152.51 139.59C151.48 137.17 151.06 134.47 151.43 132.52C152.08 129.06 157.94 122 160.17 122C161.73 122 172.5 134.56 175.67 140.07C180.65 148.74 182 155.19 182 170.38C182 181.35 181.62 185.67 180.39 188.62C179.07 191.77 178.99 193.07 179.94 195.71C180.68 197.76 180.77 199.58 180.19 200.72C178.42 204.17 178 211.62 179.46 213.61C180.81 215.45 180.91 215.45 183.65 213.41C186.52 211.27 189.63 204.52 191.89 195.5C193.42 189.44 195.26 187.23 199.45 186.44C205.5 185.31 214.01 193.33 213.99 200.14C213.98 203.65 207.23 210.9 195.62 219.86C180.95 231.19 175.21 238.99 176.48 245.88C177.43 251.03 177.49 255.68 176.67 262C174.56 278.33 174.6 279.37 177.49 282.8C179.52 285.21 180.99 286 183.49 286C186.29 286 186.97 285.52 187.88 282.91C189.09 279.43 192.57 274.8 198.59 268.67C203.88 263.27 205.81 260.03 206.57 255.3C207.18 251.47 207.18 251.46 201.84 248.98C198.9 247.62 196.5 246.05 196.5 245.51C196.5 244.96 200.12 242.49 204.55 240.01C208.98 237.53 214.89 233.85 217.69 231.83C220.48 229.82 226.2 226.32 230.39 224.06C234.58 221.8 240.76 218.17 244.13 216C247.5 213.82 250.64 212.28 251.11 212.57C252.39 213.36 265.88 206.33 270.82 202.29C275.95 198.09 279.97 192.32 280.61 188.21C281.17 184.67 277.92 181.51 269.1 177.04C266.02 175.48 262.41 173.04 261.09 171.61C258.82 169.18 258.75 168.78 259.97 165.08C260.69 162.91 264.25 157.24 267.89 152.48C271.52 147.72 275.17 142.59 276 141.07C276.83 139.56 278.92 136.55 280.65 134.39C282.39 132.22 283.96 129.56 284.15 128.48C284.48 126.63 283.96 126.51 276 126.66C268.89 126.8 265.98 127.41 258.16 130.41C253.03 132.39 247.98 134 246.95 134C244.37 134 243 131.02 243 125.43C243 116.66 248.97 111 258.21 111C264.66 111 278.54 107.22 284.07 103.96C290.36 100.25 294.22 99.2898 301.5 99.6298C313.96 100.2 317.6 102.35 318.98 109.91C319.98 115.37 318.33 117.84 305.38 130.32C293.6 141.68 289.73 147.26 289.73 152.9C289.73 159.01 291.91 162.45 296.01 162.79C297.93 162.96 302.88 164.16 307 165.46C311.12 166.77 316.22 168.12 318.33 168.48C321.48 169.01 322.4 169.72 323.59 172.56C324.51 174.76 324.8 177.43 324.39 179.99C323.48 185.65 324.94 187 331.99 187C339.4 187 347.11 188.46 354 191.18C366.09 195.94 367.87 199.6 361.18 205.9C352.71 213.88 333.22 217.13 318.54 213.01C305.79 209.43 290.54 211.03 286.08 216.4C284.99 217.72 282.41 218.91 256.5 230.05C234.57 239.48 228.47 242.77 224.12 247.49C220.36 251.57 220 252.42 220 257.33C220 261.66 219.47 263.4 217.25 266.27C215.74 268.24 212.64 272.24 210.37 275.17C207.96 278.29 205.95 282.14 205.54 284.47C204.49 290.35 202.4 293.7 198 296.62C195.83 298.05 192.94 301.14 191.57 303.47C189 307.85 185.22 311 182.54 311C180.72 311 180.71 311.1 182 314.51C182.93 316.95 182.49 317.65 176.06 323.94C170.75 329.13 168.06 331 164.62 331.87C159.1 333.25 159.12 333.26 155.85 331.48ZM1595.67 327.33C1593.21 324.88 1599.8 315.02 1614.83 298.66C1619.96 293.07 1625.72 286.25 1627.63 283.5C1639.43 266.48 1642.35 261.98 1644.7 257.19C1646.13 254.25 1649.04 250.45 1651.16 248.75C1653.27 247.06 1655.87 244.19 1656.93 242.39C1657.99 240.6 1660.24 238.41 1661.93 237.54C1664.15 236.39 1666.12 233.73 1669 228C1671.2 223.62 1673 219.23 1673 218.24C1673 217.24 1675.96 212.88 1679.57 208.53C1695.27 189.65 1693.09 183.29 1670.6 182.33C1665.15 182.1 1659.86 181.46 1658.85 180.92C1654.06 178.35 1659.35 173.41 1667.8 172.56C1670.94 172.24 1676.59 171 1680.37 169.79C1684.15 168.59 1688.78 167.71 1690.66 167.84C1695.16 168.14 1699.59 163.89 1700.49 158.4C1700.84 156.26 1702.27 150.77 1703.66 146.21C1705.37 140.65 1706.05 136.54 1705.72 133.71C1705.28 129.79 1708.31 113.81 1709.94 111.5C1714.02 105.69 1713.83 91.0998 1709.56 82.9398C1707.78 79.5298 1707.05 76.9298 1707.44 75.3698C1708.9 69.5698 1723.15 74.6198 1728.72 82.8998C1731.61 87.1998 1733.35 93.5798 1732.55 96.9198C1732.21 98.3398 1731.68 109.09 1731.38 120.82L1730.82 142.14L1726.91 149.04C1724.76 152.83 1723 157.1 1723 158.52C1723 162.33 1726.82 165.21 1735.38 167.85C1743.36 170.31 1746.94 172.83 1756.58 182.76C1762.05 188.4 1769.21 201.51 1770.88 208.96C1771.76 212.9 1771.61 213.64 1769.31 216.66C1766.93 219.79 1766.84 220.29 1767.98 224.25C1770.29 232.34 1770.3 234.92 1768 241.21C1765.28 248.68 1763.44 251.78 1758.12 257.82C1755.85 260.39 1752.31 265.28 1750.25 268.68C1748.19 272.08 1743.35 278.16 1739.5 282.18C1735.65 286.21 1731.57 290.7 1730.42 292.16C1729.28 293.63 1726.73 295.5 1724.75 296.33C1722.78 297.16 1720.66 298.77 1720.05 299.92C1719.43 301.06 1718.16 302 1717.21 302.01C1716.27 302.01 1714.17 302.71 1712.53 303.56C1710.9 304.41 1708.43 305.01 1707.03 304.9C1703.58 304.61 1695.33 305.99 1690.6 307.65C1687.12 308.87 1686.38 308.82 1683.6 307.21C1679.85 305.02 1678.13 300.57 1678.06 292.82C1677.99 286.27 1679.25 282.23 1681.64 281.31C1682.61 280.94 1685.29 281.78 1688.05 283.33C1698.74 289.34 1702.84 286.53 1720.25 261.25C1722.31 258.25 1724 254.93 1724 253.87C1724 251.08 1728.55 242.51 1733.05 236.81C1738.16 230.35 1738.78 227.53 1737.87 214.81C1737.12 204.3 1735.78 199.8 1732.15 195.67C1729.9 193.1 1724.44 191 1720.03 191C1715.22 191 1712.73 193.7 1712.41 199.27C1712.21 202.66 1710.64 205.79 1704.5 215C1697.44 225.61 1692 235.63 1692 238.06C1692 238.61 1689.86 241.21 1687.25 243.84C1684.64 246.47 1678 253.56 1672.5 259.6C1667 265.63 1660.31 272.35 1657.63 274.53C1654.95 276.71 1651.35 279.78 1649.63 281.35C1647.91 282.92 1645.32 284.81 1643.88 285.56C1642.44 286.3 1639.78 289.3 1637.96 292.21C1633.62 299.16 1628.34 304.73 1623.96 307C1622.01 308.01 1616.33 313.14 1611.34 318.42C1603.84 326.33 1601.75 328 1599.3 328C1597.67 328 1596.03 327.7 1595.67 327.33ZM1947.22 314.72C1938.05 310.86 1932 304.4 1932 298.48C1932 296.37 1936.82 292 1939.17 292C1940.86 292 1944.49 294.07 1950.76 298.62C1956.37 302.69 1980.84 298.24 1982.55 292.84C1982.85 291.9 1985.53 289.51 1988.51 287.54C1994.3 283.69 1997 280.61 1997 277.84C1997 276.89 1999.25 273.55 2002 270.4C2005.97 265.87 2007.01 263.95 2007.04 261.09C2007.07 259.12 2007.74 255.7 2008.53 253.5C2009.32 251.3 2009.98 248.47 2009.98 247.2C2009.99 245.94 2010.62 243.69 2011.39 242.2C2012.15 240.72 2013.33 235.37 2014.02 230.31C2015.12 222.22 2015.07 220.64 2013.63 217.04C2012.46 214.1 2012 209.77 2012 201.56C2012 192.51 2011.6 189.24 2010.06 185.65C2007.29 179.18 2004.44 177.67 1994.47 177.39C1989.9 177.26 1985.26 176.67 1984.15 176.08C1980.82 174.3 1979.28 174.83 1978.65 177.99C1978.25 180.01 1974.3 184.84 1966.46 192.92C1960.08 199.49 1953.88 206.8 1952.68 209.18C1951.07 212.38 1949.83 213.58 1947.9 213.8C1946.06 214.02 1941.54 218.05 1932.4 227.64C1925.31 235.09 1918.94 242.23 1918.26 243.51C1917.58 244.78 1913.89 247.91 1910.06 250.46C1903 255.15 1898.69 259.74 1895.53 265.91C1894.57 267.79 1892.68 270.49 1891.33 271.91C1889.97 273.34 1888.24 275.67 1887.48 277.11C1886.72 278.54 1884.69 280.3 1882.98 281.01C1880.17 282.17 1879.65 282.09 1877.74 280.19C1875.77 278.21 1875.74 277.95 1877.27 276.25C1878.18 275.25 1880.54 271.19 1882.53 267.22C1885.28 261.72 1887.81 258.52 1893.16 253.75C1897.21 250.15 1901.14 245.59 1902.43 243C1903.66 240.52 1907.54 233.32 1911.04 227C1914.54 220.68 1921.13 208.3 1925.69 199.5C1930.24 190.7 1934.96 181.59 1936.18 179.25L1938.4 175.01L1936.37 172.3C1935.08 170.56 1931.49 168.46 1926.42 166.47C1914.94 161.95 1911.04 159.74 1905.09 154.39C1896.39 146.57 1893.07 139.85 1896.49 137.01C1898.68 135.19 1902.3 136.5 1907.5 141C1913.29 146.01 1915.44 146.54 1922.05 144.58C1924.97 143.71 1930.15 143 1933.56 143C1936.97 143 1941.27 142.36 1943.13 141.57C1948.02 139.5 1957.52 130.63 1958.95 126.79C1959.62 124.98 1960.83 122.28 1961.63 120.78C1963.88 116.55 1965.98 108.88 1965.99 104.8C1966 100.76 1963.92 91.9798 1961.37 85.3098C1957.71 75.7198 1963.01 75.7398 1983 85.3698C1985.36 86.5098 1987.6 89.8898 1988.54 93.7598C1991.28 104.98 1992.35 107.96 1995.27 112.37C2001.32 121.49 2001.24 121.15 1999.01 129.19C1997.91 133.19 1997 137.66 1997 139.13C1997 142.51 2002.98 148 2006.67 148C2008.1 148 2010.77 148.93 2012.61 150.07C2014.47 151.22 2018.54 152.39 2021.73 152.7C2028.24 153.34 2032.66 155.46 2033.72 158.47C2034.53 160.72 2034.52 160.57 2035.68 201.92C2036.7 238.49 2035.9 246.52 2029.78 261.33C2025.5 271.7 2015.45 290.2 2013.75 290.87C2013.23 291.07 2010.58 293.2 2007.87 295.62C2005.15 298.03 2002.39 300 2001.72 300.01C2000.4 300.02 1995.98 304.18 1990.57 310.5C1987.22 314.42 1987 314.51 1978.83 315.16C1954.57 317.1 1952.8 317.07 1947.22 314.72ZM2223.74 314.26C2220.08 313.98 2218.61 313.34 2217.43 311.53C2215.99 309.33 2216.11 308.71 2219.44 301.7C2221.39 297.59 2223.61 293.98 2224.38 293.68C2225.38 293.3 2225.64 291.92 2225.32 288.83C2224.93 285.09 2225.58 283.13 2230.06 274.5C2232.91 269 2236.24 263.32 2237.45 261.88C2238.66 260.44 2240.26 257.74 2241.01 255.88C2241.75 254.02 2244.78 248.84 2247.73 244.37C2253.31 235.9 2255.26 229.9 2252.9 228.44C2250.42 226.9 2242.17 227.74 2237.5 230C2233.43 231.97 2221.03 244.57 2220.99 246.78C2220.98 247.17 2217.57 251.05 2213.4 255.4C2205.42 263.72 2199 272.29 2199 274.61C2199 276.52 2192.26 283.82 2188.87 285.56C2185.07 287.53 2180.64 287.36 2178.66 285.17C2176.83 283.15 2176.48 280.44 2177.94 279.54C2178.45 279.22 2179.82 276.38 2180.99 273.23C2182.24 269.86 2184.53 266.18 2186.56 264.3C2188.45 262.54 2190 260.67 2190 260.14C2190 259.61 2191.8 256.9 2194 254.12C2196.2 251.34 2198 248.88 2198 248.66C2198 247.94 2220.72 225.57 2225.4 221.68C2227.93 219.58 2230 217.09 2230 216.16C2230 215.22 2231.62 213.58 2233.61 212.51C2235.6 211.44 2238.78 208.66 2240.69 206.34C2242.59 204.02 2246.35 200.7 2249.03 198.98C2253.54 196.09 2256 192.67 2254.6 191.26C2254.02 190.69 2242.45 193.75 2240.5 194.99C2239.95 195.34 2236.12 196.92 2232 198.5C2222.3 202.2 2215.79 206.05 2214.36 208.92C2213.73 210.18 2212.32 211.73 2211.23 212.36C2200.78 218.39 2192.81 223.34 2189.39 225.92C2182.8 230.89 2173.99 233.31 2164.5 232.75C2159.59 232.46 2154.76 231.5 2152 230.27C2143.28 226.4 2133 214.99 2133 209.19C2133 207.29 2137.2 202 2138.71 202C2139.15 202 2141.74 203.18 2144.45 204.63C2149.23 207.17 2149.76 207.23 2161.94 206.68C2174.98 206.08 2183.71 204.25 2188 201.23C2191.24 198.95 2194.55 197.42 2199.5 195.94C2201.7 195.27 2205.44 193.44 2207.8 191.87C2210.17 190.29 2212.47 189 2212.92 189C2213.38 189 2218.64 187.39 2224.62 185.43C2230.61 183.46 2237.98 181.41 2241 180.87C2250.15 179.24 2249.64 179.74 2249.19 172.61C2248.84 167.11 2249.14 165.62 2251.39 161.78C2254 157.32 2254.7 152.66 2253.13 150.18C2252.45 149.1 2251.2 149.09 2246.21 150.12C2234.61 152.51 2221 148.61 2221 142.89C2221 138.65 2232.94 131.93 2243.25 130.38C2251.83 129.09 2256.79 120.41 2257.09 106.15C2257.23 99.5498 2256.89 97.5598 2255.13 94.7098C2253.96 92.8098 2253 90.3698 2253 89.2698C2253 87.9698 2251.1 86.0198 2247.5 83.6298C2241.34 79.5398 2240.52 77.0098 2244.51 74.3998C2246.52 73.0898 2248.88 72.8398 2256.49 73.1798C2267.31 73.6498 2269.02 74.4998 2275.34 82.5898C2282.48 91.7198 2283.72 96.0098 2281.51 104C2279.61 110.91 2279.39 110.5 2286.03 112.35C2290 113.45 2293.3 115.15 2295.22 117.06C2297.85 119.69 2298.13 120.51 2297.52 123.76C2296.44 129.5 2292.16 134.92 2284.32 140.47C2274 147.77 2272.59 149.89 2272.15 158.71L2271.78 166L2277.64 166.04C2280.86 166.07 2285.12 166.67 2287.1 167.37C2291.85 169.07 2294.46 167.97 2296.88 163.23C2297.97 161.11 2299.57 158.77 2300.44 158.05C2301.31 157.33 2303.43 153.78 2305.16 150.17C2306.88 146.56 2310.19 141.55 2312.51 139.05C2314.82 136.55 2317.31 133.38 2318.02 132C2318.74 130.62 2320.64 127.86 2322.24 125.86C2323.84 123.86 2327.53 118.24 2330.44 113.37C2334.98 105.77 2336.78 103.76 2343.11 99.2498C2355.16 90.6698 2356.35 90.0098 2359.8 89.9998C2363.72 89.9998 2368 93.7598 2368 97.2098C2368 99.8398 2364.18 107.4 2359.81 113.41C2356.14 118.46 2354.44 122.4 2353.49 128.1C2353.09 130.52 2351.91 133.69 2350.88 135.15C2349.85 136.61 2349 138.88 2349 140.19C2349 142.95 2346.58 149.98 2341.51 162C2338.1 170.07 2336.94 176.48 2338.45 178.92C2338.83 179.53 2340.73 180.7 2342.68 181.51C2344.63 182.33 2347.77 184.34 2349.65 186C2351.72 187.82 2354.18 189 2355.89 189C2359.56 189 2364 193.11 2364 196.5C2364 197.93 2364.66 200.38 2365.47 201.95C2368.04 206.91 2366.78 214.3 2362.04 222C2361.53 222.82 2360.87 224.69 2360.57 226.15C2360.26 227.6 2357.37 232.33 2354.15 236.65C2346.37 247.05 2346.09 248.45 2350.84 252.95C2352.9 254.9 2356.37 257.12 2358.55 257.88C2360.72 258.64 2364.44 260.55 2366.8 262.13C2369.17 263.71 2371.75 265 2372.55 265C2373.34 265 2375.67 266.58 2377.71 268.5C2379.75 270.42 2381.89 272 2382.46 272.01C2385.46 272.02 2391.53 274.44 2393.49 276.4C2395.59 278.5 2404.4 281.9 2411.85 283.49C2416.19 284.41 2422.5 290.73 2423.35 295C2424.38 300.15 2421.51 304.9 2415.01 308.77C2407.78 313.07 2404.27 314.04 2393.5 314.68L2384.5 315.22L2379.46 311.74C2372.54 306.95 2366.53 304 2363.73 304C2360.61 304 2358.42 302.28 2355.18 297.29C2345.95 283.06 2340.49 275.82 2335.18 270.75C2331.86 267.59 2328.68 265 2328.11 265C2327.54 265 2325.59 266.47 2323.78 268.27C2316.21 275.82 2309.31 279.31 2302.02 279.3C2295.45 279.3 2292.24 277.15 2293.58 273.65C2294.29 271.8 2299.31 268.21 2306.48 264.43C2313.19 260.88 2317.39 255.87 2316.4 252.58C2316.06 251.44 2313.95 248.9 2311.72 246.94L2307.66 243.38L2310.74 241.19C2312.43 239.98 2314.5 239 2315.35 239C2316.19 239 2317.19 238.51 2317.56 237.9C2318.32 236.67 2322.24 237.06 2329.16 239.03L2333.81 240.36L2339.16 234.52C2346.22 226.8 2351.63 213.68 2350.5 207C2349.42 200.61 2348.21 199.74 2339.39 199.05C2330.9 198.38 2325.64 196.37 2321.88 192.37C2318.46 188.73 2317.87 176.08 2320.83 169.82C2321.95 167.44 2323.66 162.8 2324.64 159.5C2325.61 156.2 2326.99 152.38 2327.7 151C2328.41 149.62 2328.99 147.95 2328.99 147.28C2329 146.61 2330.12 142.62 2331.5 138.4C2334.48 129.26 2334.57 128 2332.17 128C2329.83 128 2326.82 131.31 2323.98 137C2322.74 139.48 2320.64 142.8 2319.31 144.39C2317.98 145.98 2315.78 149.47 2314.43 152.14C2313.07 154.81 2311.58 157 2311.1 157C2310.63 157 2309.65 158.46 2308.93 160.25C2308.21 162.04 2305.26 166.88 2302.39 171.01C2299.52 175.14 2294.31 184.37 2290.81 191.51C2287.31 198.66 2282.64 206.98 2280.43 210C2276.04 216 2268.98 232.84 2268.99 237.28C2269 238.8 2268.11 243.53 2267.01 247.78C2265.85 252.29 2264.84 260.27 2264.57 267C2264.03 280.53 2261.92 288.27 2256.54 296.37C2252.78 302.04 2245.53 308.15 2241 309.48C2239.62 309.88 2236.53 311.29 2234.12 312.6C2231.72 313.92 2229.47 314.92 2229.12 314.82C2228.78 314.72 2226.36 314.47 2223.74 314.26ZM2245.42 290.51C2247.72 288.22 2249.09 285.75 2249.46 283.26C2249.77 281.19 2250.53 277.48 2251.15 275C2253.17 266.91 2253.27 265.32 2251.74 264.73C2249.18 263.75 2245.6 266.39 2244.53 270.04C2243.96 271.97 2242.57 274.89 2241.43 276.53C2236.14 284.12 2234.72 290.31 2237.75 292.61C2240.42 294.63 2241.63 294.3 2245.42 290.51ZM2265.75 216.54C2269.33 213.32 2272.04 209.43 2275.48 202.59C2280.01 193.58 2280.68 189.95 2277.78 190.04C2277.08 190.06 2275.6 191.97 2274.5 194.29C2273.1 197.22 2269.69 200.77 2263.21 206C2249.45 217.12 2247.67 221 2256.36 221C2260.19 221 2261.45 220.4 2265.75 216.54ZM290.64 301.74C289.27 300.36 287.65 297.27 287.04 294.86C286.44 292.46 285.27 288.98 284.43 287.13C282.94 283.8 282.89 283.79 280.84 285.63C279.7 286.66 277.26 289.84 275.42 292.71C271.24 299.23 265.51 302.5 259.85 301.59C252.86 300.47 244.72 296.78 240.33 292.74C234.58 287.44 234.49 283.86 239.88 274.94C244.68 267.01 247.47 264.85 253.74 264.25C257.65 263.88 259.67 264.31 263.78 266.39C270.02 269.55 273.17 269.64 281.28 266.89C286.05 265.27 288.92 264.91 293.6 265.34C296.96 265.65 300.11 265.53 300.6 265.07C301.1 264.62 303.67 263.06 306.32 261.6C310.75 259.17 311.47 259.06 315.2 260.18C317.44 260.85 320.33 262.54 321.62 263.95C322.92 265.35 325.79 268.45 327.99 270.83C334.55 277.92 333.07 283.43 322.75 290.3C319.86 292.23 316.38 295.01 315 296.5C311.34 300.45 306.15 302.77 299.25 303.55C293.61 304.19 292.96 304.05 290.64 301.74ZM1279.5 289.83C1278.4 289.22 1274.12 285.47 1270 281.5C1259.42 271.32 1247.33 264.07 1240.83 264.01C1239.91 264.01 1237.88 262.93 1236.33 261.63C1234.77 260.33 1232.03 258.94 1230.24 258.55C1226.36 257.7 1221.41 255.37 1218.12 252.83C1216.75 251.79 1214.08 251 1211.88 251C1207.97 251 1193.34 247.42 1191.5 246.01C1190.45 245.21 1178.72 241.81 1163.59 237.92C1153.4 235.3 1148.8 232.25 1150.62 229.31C1151.48 227.92 1152.86 227.54 1156.62 227.67C1159.3 227.76 1163.75 227.91 1166.5 227.99C1169.25 228.08 1172.48 227.78 1173.68 227.32C1174.87 226.87 1180.5 226.81 1186.18 227.19C1191.85 227.57 1199.49 228.04 1203.14 228.23C1206.79 228.42 1210.45 229.13 1211.27 229.81C1212.09 230.49 1216.75 231.54 1221.63 232.16C1226.51 232.77 1231.13 233.77 1231.89 234.37C1232.66 234.98 1236.03 235.76 1239.39 236.1C1252.03 237.39 1281.66 246.03 1283.47 248.95C1283.73 249.38 1286.05 250.31 1288.61 251.03C1294.19 252.59 1298.51 256.67 1302.25 263.88C1305.51 270.17 1305.73 274.25 1303 277.73C1301.9 279.13 1301 280.9 1301 281.67C1301 283.98 1297.89 288.01 1294.9 289.55C1291.61 291.25 1282.37 291.42 1279.5 289.83ZM776.5 277.29C775.4 277.02 774.07 276.4 773.55 275.9C773.03 275.41 771.34 275 769.81 275C767.84 275 765.67 273.68 762.52 270.57C760.05 268.14 757.21 265.89 756.22 265.57C755.22 265.25 752.66 262.63 750.52 259.75C748.38 256.86 745.27 253.04 743.62 251.25C738.61 245.84 741.84 244.68 766.5 243.02C785.92 241.7 791.06 241.02 794.36 239.32C795.97 238.48 798.27 238.1 799.64 238.45C800.98 238.78 804.42 238.35 807.29 237.49C812.26 235.99 826.48 233 835.9 231.48C844.85 230.04 852.93 225 857.98 217.71C860.19 214.52 862 211.53 862 211.06C862 210.6 868.46 204.1 876.36 196.62C888.27 185.34 891.26 181.92 893.92 176.52C896.17 171.95 897.03 168.91 896.81 166.33C896.36 160.96 893.81 160.42 876.54 162C865.72 162.99 860.94 163.02 855.9 162.14C852.29 161.51 846.22 160.99 842.42 160.99C832.79 160.97 830.98 160.35 831.07 157.13C831.18 152.95 832.12 151.53 838.68 145.7C843.4 141.49 845.86 140.04 849.18 139.52C851.55 139.15 856.3 137.92 859.71 136.8C863.13 135.68 866.6 135.02 867.44 135.34C868.27 135.66 870.62 135.22 872.66 134.37C874.69 133.52 877.61 133.07 879.13 133.38C880.69 133.69 884.37 133.08 887.6 131.96C890.74 130.88 894.72 130 896.43 130C899.76 130 912 135.84 919.54 141.03C924.65 144.54 926.02 147.17 925.96 153.32C925.91 158.04 921.91 168.22 919.85 168.84C917.53 169.55 913.94 173.33 912.3 176.79C910.57 180.42 903.16 187.07 883.21 202.85C870.83 212.65 866.01 217.77 864.57 222.64C864.05 224.39 864.51 224.98 867.12 225.89C871.07 227.27 878.51 227.33 880.99 226.01C883.55 224.64 897.94 224.05 900.99 225.2C903.15 226.01 903.84 225.68 906.28 222.63C909.87 218.15 915.15 216.23 918.29 218.25C919.5 219.03 923.39 220.24 926.93 220.92C930.46 221.61 936.39 223.27 940.11 224.61C943.83 225.95 947.23 226.96 947.68 226.86C948.69 226.63 953.6 227.82 957.15 229.16C963.33 231.49 966.74 239.36 963.89 244.73C961.15 249.9 938.84 257.43 931.64 255.62C930.39 255.31 925.04 254.81 919.75 254.5C914.46 254.2 908.54 253.29 906.6 252.48C901.61 250.39 893.74 250.64 876.8 253.43C857.29 256.64 846.6 259.4 835.06 264.21C829.8 266.41 823.47 268.61 821 269.11C818.53 269.6 814.8 270.68 812.73 271.5C810.66 272.33 806.11 273 802.63 273C797.8 273 795.18 273.59 791.6 275.5C787.09 277.9 781.69 278.54 776.5 277.29ZM1547.5 271.42C1545.85 270.56 1543.83 269.26 1543 268.52C1542.18 267.79 1539.66 266.7 1537.4 266.1C1532.17 264.7 1525.51 259.89 1523.54 256.07C1521.54 252.22 1521.52 246.4 1523.5 245.64C1524.32 245.32 1527.58 245.54 1530.74 246.13C1537.12 247.31 1544.27 246.69 1548.63 244.58C1550.21 243.82 1553.75 242.22 1556.5 241.04C1559.25 239.86 1562.48 238.41 1563.67 237.82C1564.87 237.23 1567.07 237.05 1568.56 237.43C1570.88 238.01 1573.49 236.61 1586.39 227.89C1607.95 213.32 1610 211.53 1610 207.3C1610 205.39 1611.09 200.61 1612.41 196.67C1614.08 191.71 1615.03 186.02 1615.5 178.21C1616.21 166.26 1615.64 164 1611.88 164C1610.43 164 1610 164.74 1610 167.25C1609.99 172 1604.8 177.2 1597.43 179.85C1587.18 183.53 1586.47 184.09 1586.82 188.19C1587.25 193.14 1581.42 204.39 1574.61 211.75C1571.8 214.79 1571.18 215 1564.94 215C1559.59 215 1557.7 214.56 1555.38 212.78C1551.66 209.92 1551.03 208.99 1551.02 206.21C1551.01 204.96 1550.27 202.82 1549.39 201.46C1547.95 199.28 1547.94 198.75 1549.24 196.75C1550.3 195.13 1550.44 193.9 1549.74 192.34C1549.13 190.96 1549.12 186.23 1549.72 179.24C1550.47 170.52 1551.11 167.65 1552.88 165.16C1554.75 162.54 1554.95 161.49 1554.16 158.62C1553.49 156.18 1553.63 153.52 1554.67 149.35C1555.47 146.13 1557.2 138.77 1558.52 133C1559.83 127.22 1561.85 120.7 1563 118.5C1564.79 115.09 1565 113.49 1564.44 107.68C1563.84 101.47 1563.99 100.64 1566.07 98.4298C1569.08 95.2198 1569.88 95.3398 1574.35 99.6798C1580.78 105.93 1581.43 108 1581.13 121.19C1580.85 133.39 1581.49 136.12 1585.08 138.04C1586.61 138.86 1588.32 138.72 1592.11 137.46C1595.43 136.36 1598.53 136.02 1601.31 136.44C1603.61 136.79 1607.07 137.17 1609 137.29L1612.5 137.5L1612.29 129.37C1612.07 121.27 1609.11 108.04 1606.91 105.39C1606.28 104.63 1605.24 104 1604.61 104C1602.49 104 1596 97.8798 1596 95.8798C1596 94.7998 1597.17 92.7398 1598.59 91.3198C1601.05 88.8598 1601.59 88.7498 1608.92 89.2598C1613.83 89.5898 1618.12 90.5298 1620.65 91.8198C1626.07 94.5798 1632 101.3 1632 104.67C1632 106.14 1632.73 108.15 1633.63 109.14C1634.94 110.59 1635.35 113.88 1635.68 125.72C1635.91 133.85 1636.47 143.88 1636.92 148C1637.76 155.69 1636.67 192.32 1635.45 197.25C1634.92 199.38 1635.12 200 1636.35 200C1637.22 200 1638.41 200.9 1639 202C1639.92 203.73 1639.21 204.94 1633.79 210.82C1630.33 214.57 1623.48 222.02 1618.57 227.38C1608.89 237.95 1606.44 239.84 1604.69 238.09C1604.09 237.49 1603.03 237 1602.33 237C1600.83 237 1589.67 246.73 1575.79 260.15C1566.52 269.11 1565.35 269.92 1559.45 271.4C1551.64 273.36 1551.22 273.37 1547.5 271.42ZM1591.63 162C1594.09 153.75 1592.94 147 1589.07 147C1586.37 147 1585.92 149.15 1586.65 158.63C1587.17 165.37 1587.61 167.03 1588.79 166.79C1589.61 166.63 1590.89 164.48 1591.63 162ZM1080.63 268.93C1076.56 265.72 1077.1 262.08 1082.4 257.2C1084.82 254.97 1088.67 252.19 1090.95 251.03C1096.75 248.07 1102.46 242.65 1105.01 237.7C1106.2 235.39 1108.64 231.93 1110.43 230C1114.28 225.86 1128.34 206.17 1130.68 201.65C1131.57 199.92 1133.96 196.25 1135.98 193.5C1138 190.75 1141.05 185.52 1142.76 181.88C1144.47 178.24 1148.32 171.49 1151.31 166.88C1157.44 157.45 1161.87 148.9 1164.46 141.5C1165.42 138.75 1166.59 135.6 1167.05 134.5C1167.51 133.4 1168.81 128.68 1169.95 124C1172.76 112.42 1177.13 106.7 1180.55 110.12C1181.83 111.4 1182.15 114.14 1182.17 124.11C1182.21 137.11 1181.14 143.28 1176.8 155.07C1174.59 161.1 1166.16 175.17 1163.94 176.54C1163.42 176.86 1163 178.03 1163 179.15C1163 181.45 1157.26 192.26 1152.46 199C1150.7 201.48 1148.56 204.85 1147.72 206.5C1146.87 208.15 1143.62 212.43 1140.5 216C1137.38 219.57 1133.95 224.2 1132.88 226.27C1131.01 229.9 1122.52 239.59 1106.39 256.5C1102.2 260.9 1098.03 265.34 1097.13 266.37C1093.1 271.01 1084.89 272.28 1080.63 268.93ZM2526 268.34C2520.24 266.04 2518.01 260.42 2517.98 248.13C2517.96 242.83 2517.47 236.48 2516.88 234C2516.29 231.52 2515.7 226.57 2515.56 223C2515.42 219.43 2514.95 213.26 2514.51 209.29C2513.51 200.18 2515.05 194.25 2519.92 188.51C2521.89 186.18 2524 183.43 2524.6 182.4C2526.36 179.4 2528.62 182.16 2529.33 188.16C2529.67 190.99 2531.03 196.27 2532.35 199.9C2533.68 203.53 2537.06 213.48 2539.86 222L2544.96 237.5L2543.98 246.78C2542.96 256.56 2540.93 261.88 2536.74 265.79C2534.25 268.11 2528.73 269.42 2526 268.34ZM2703.34 187.45C2703.02 186.6 2700.63 184.83 2698.05 183.52C2695.46 182.21 2692.04 179.44 2690.46 177.35C2686.84 172.61 2668.6 154.89 2665.79 153.39C2664.64 152.77 2662.3 150.44 2660.6 148.21C2657.5 144.15 2641.9 131 2640.19 131C2639.69 131 2635.66 127.2 2631.23 122.57C2626.39 117.48 2621.19 113.12 2618.15 111.58C2615.38 110.17 2611.66 107.22 2609.89 105.01C2608.12 102.81 2606.25 101 2605.75 101C2603.72 101 2589 93.5998 2589.02 92.5898C2589.06 89.3898 2590.78 88.7198 2597.15 89.3998C2608.22 90.5898 2624.74 97.3698 2628.96 102.45C2629.67 103.3 2631.23 104 2632.43 104C2635.22 104 2637.74 105.95 2638.17 108.45C2638.36 109.57 2640.5 111.47 2643.16 112.88C2645.71 114.24 2650.66 117.75 2654.15 120.68C2663.77 128.75 2680.6 139.87 2689 143.7C2693.12 145.58 2698.55 148.17 2701.06 149.47C2703.57 150.76 2707.74 152.14 2710.32 152.53C2712.91 152.91 2715.27 153.63 2715.57 154.12C2715.87 154.6 2716.89 155 2717.84 155C2720.71 155 2733.32 161.53 2736.35 164.6C2739.74 168.02 2743 174.1 2743 177.01C2743 178.15 2741.9 180.2 2740.55 181.55C2737.65 184.44 2731.58 184.87 2727.01 182.5C2723.33 180.6 2720.04 181.74 2717.05 185.93C2715.07 188.72 2714.36 189 2709.4 189C2705.39 189 2703.78 188.59 2703.34 187.45ZM269.75 85.0298C268.24 83.8298 267 81.8598 267 80.6498C267 77.0698 279.4 61.3498 284.13 58.9398C288.78 56.5598 293.94 56.8298 299.91 59.7398C302.94 61.2298 303.55 62.0798 303.81 65.1998C304.09 68.5798 303.76 69.1298 300.03 71.4798C297.26 73.2298 295.75 74.9898 295.36 76.9398C295.05 78.5198 293.28 81.2798 291.43 83.0698C288.34 86.0598 287.43 86.3598 280.28 86.7698C273.41 87.1598 272.18 86.9598 269.75 85.0298ZM569.6 82.4998C567.01 81.1198 563.68 79.9998 562.2 79.9998C555.17 79.9998 537.35 67.2498 535.73 61.0798C535.09 58.6298 538.91 50.8298 542.73 46.7998C544.13 45.3098 546.88 43.3398 548.82 42.4198C555.4 39.2898 571.77 42.4198 578.85 48.1598C581.48 50.2798 583.3 52.7298 590.68 64.0498L592.99 67.5898L589.38 74.8298C584.12 85.3798 578.85 87.4198 569.6 82.4998Z" fill="#481060"/>
</svg>
