<svg width="2855" height="316" viewBox="0 35 2855 316" fill="none" xmlns="http://www.w3.org/2000/svg">
<path d="M536.93 342.14C534.71 340.34 534.67 340.05 535.78 333.39C537.29 324.4 537.68 314.85 536.6 313.15C534.43 309.68 535.04 287.31 538.07 259.5C538.61 254.55 539.42 245.1 539.87 238.5C540.33 231.9 541.25 225.15 541.93 223.5C542.61 221.82 543.13 216.32 543.1 211C543.06 202.39 543.5 198.96 545.53 192.33C546.19 190.18 546.16 190.17 542.62 191.83C540.66 192.75 538.8 194.25 538.48 195.17C537.82 197.13 532.86 201.59 523.9 208.29C520.38 210.93 515.25 214.88 512.5 217.07C509.75 219.27 504.4 223.13 500.61 225.65C494.2 229.91 493.37 230.19 488.65 229.74C484.42 229.33 483.11 228.7 480.79 225.91C477.35 221.8 477.27 219.37 480.48 216.02C481.84 214.6 483.56 211.65 484.31 209.47C485.07 207.23 486.94 204.63 488.58 203.5C490.36 202.29 493.16 198.19 495.76 193C498.1 188.33 502.22 181.94 504.9 178.8C507.58 175.67 510.71 171.58 511.87 169.72C513.02 167.85 517.11 163.53 520.95 160.11C524.79 156.7 529.13 151.79 530.59 149.2C532.64 145.56 534.79 143.6 540.13 140.5C543.91 138.3 547.28 135.65 547.61 134.62C547.95 133.58 552 128.99 556.62 124.41L565.01 116.09L561.58 115.45C556.2 114.44 552.82 115.48 535.5 123.5C523.34 129.13 520.48 130.19 515.16 131.05C502.99 133.03 498.33 134.46 494 137.53C489.42 140.78 478.66 145 474.95 145C473.82 145 468.76 146.76 463.7 148.9C450.2 154.64 446.7 155.41 443.03 153.51C437.45 150.63 436.65 148.21 437.63 137.27C438.49 127.73 438.56 127.53 441.9 125.28C444.48 123.55 446.75 122.99 451.4 122.96C454.75 122.93 459.3 122.21 461.5 121.36C463.7 120.5 468.58 119.42 472.35 118.95C476.12 118.48 480.17 117.47 481.35 116.69C482.54 115.91 485.08 115.04 487 114.75C488.93 114.46 491.4 113.97 492.5 113.67C493.6 113.36 497.65 112.25 501.5 111.19C505.35 110.13 513.65 108.73 519.95 108.08C526.25 107.43 534.55 106.02 538.4 104.96C542.26 103.89 548.36 102.72 551.96 102.37C555.55 102.01 560.3 100.92 562.5 99.9498C566.16 98.3298 574.11 95.6798 587.69 91.5698C590.54 90.7098 593.72 89.9998 594.76 89.9998C595.79 89.9998 599.05 88.1998 602 85.9998C604.95 83.7998 608.17 81.9998 609.16 81.9998C610.16 81.9998 612.42 83.2998 614.19 84.8798L617.42 87.7698L614.81 91.7198C612.53 95.1498 606.99 99.7298 582.61 118.33C572.11 126.33 567.77 130.45 564.59 135.42C560.84 141.29 551.23 150.32 543.08 155.64C535.16 160.82 522 177.64 522 182.6C522 183.92 522.25 185 522.55 185C524.56 185 533.09 180.14 537.75 176.34C540.8 173.86 546.71 170.15 550.89 168.1C555.08 166.05 560.3 163.25 562.5 161.89C564.7 160.53 570.51 157.86 575.4 155.96C582.03 153.38 585.73 151.19 589.9 147.39C596.95 140.96 601.37 138.63 604.86 139.5C609.09 140.55 611 142.92 611 147.08C611 150.22 610.37 151.37 607.27 153.93C605.22 155.62 603.07 157 602.5 157C599.8 157 578.79 168.35 575.08 171.81C568.09 178.33 566.83 181.73 565.9 196.5C565.45 203.65 564.59 212.88 563.99 217C563.38 221.12 562.8 228.55 562.69 233.5L562.5 242.5H572.22C580.82 242.5 582.18 242.75 584.08 244.64C586.19 246.75 586.2 246.88 584.54 251.87C582.63 257.63 583.2 261 586.09 261C589.94 261 590.32 257.22 590.41 218.16L590.5 180.83L593.42 178.31C598.35 174.08 605.02 176.33 608.78 183.5C611.51 188.69 612.99 228.11 610.98 242.01C610.46 245.58 610.03 252.61 610.02 257.63C610.01 264.31 609.62 267.07 608.57 267.94C607.06 269.2 605.74 274.38 603.9 286.24C602.65 294.29 596.08 307.7 590.19 314.21C585.23 319.71 577.08 323.22 568 323.78C559.27 324.32 557.9 325.21 554.35 332.72C549.47 343.03 542.61 346.74 536.93 342.14ZM570.77 306.38C584.04 292.53 588.77 275.83 581.38 268.89C579.22 266.86 577.84 266.51 571.96 266.5C562.7 266.5 561.35 267.82 561.92 276.29C562.52 285.12 562.41 291.4 561.52 300.05C560.85 306.5 560.99 307.85 562.44 309.3C564.95 311.8 565.89 311.47 570.77 306.38ZM2518.31 341.04C2516.94 339.45 2515.83 339.2 2512.3 339.68C2503.4 340.9 2501.04 333.72 2508.04 326.72C2510.27 324.5 2513.51 320.84 2515.25 318.59C2517 316.34 2522.45 310.65 2527.37 305.95C2535.29 298.39 2536.24 297.1 2535.66 294.8C2535.11 292.57 2534.31 292.1 2530.25 291.56C2522.68 290.55 2516.73 292.2 2510.45 297.04C2507.38 299.41 2504.11 301.4 2503.18 301.48C2502.26 301.55 2500.28 302.41 2498.8 303.39C2492.49 307.54 2489.96 301.85 2494.28 293.24C2495.61 290.6 2497 286.82 2497.37 284.82C2497.75 282.83 2498.72 280.65 2499.53 279.98C2500.34 279.31 2501 277.75 2501 276.53C2501 272.84 2504.04 271 2510.13 271C2515 271 2515.95 270.64 2518.73 267.75C2521.9 264.46 2526 255.55 2526 251.96C2526 249.7 2522.66 246 2520.62 246C2519.86 246 2519 246.89 2518.71 247.99C2518.01 250.67 2514.09 252 2506.89 252C2501.87 252 2500.51 251.6 2498.45 249.55C2495.79 246.89 2495.23 242.88 2497.28 241.18C2497.99 240.6 2499.84 239.89 2501.4 239.6C2505.36 238.89 2507.83 236.36 2509.07 231.74C2510.51 226.38 2509.78 225 2505.48 225C2499.41 225 2492 220.36 2492 216.57C2492 213.21 2494.57 210.38 2501.95 205.6C2511.52 199.41 2517 194.22 2519.2 189.27C2520.87 185.5 2520.92 184.75 2519.64 182.27L2518.2 179.49L2508.31 180.4C2495.85 181.54 2492.5 180.4 2492.5 175C2492.5 170.76 2494.86 169.36 2503.57 168.43C2516.36 167.07 2520.85 161.2 2515.91 152.28C2511.27 143.91 2504.96 139.4 2497.45 139.1C2494.73 139 2489.8 138.7 2486.5 138.44C2482.53 138.13 2479.96 138.4 2478.91 139.24C2476.94 140.8 2462.85 163.21 2459.92 169.44C2457.66 174.26 2453.58 178.28 2448.5 180.7C2446.31 181.75 2444.38 184.23 2441.67 189.49C2437.62 197.36 2428.1 208.54 2422.51 212C2420.62 213.16 2417.01 217.23 2414.48 221.03C2409.3 228.82 2401.07 236.55 2397.12 237.33C2395.63 237.63 2393.48 237.2 2392.13 236.33C2390.07 235 2389.82 234.2 2390.21 230.15C2390.86 223.42 2394.58 218.3 2406.1 208.31C2411.68 203.46 2417.48 198.15 2419 196.5C2430.05 184.46 2434.54 178.84 2436.6 174.45C2437.9 171.68 2440.32 168.4 2441.98 167.17C2443.64 165.94 2445 164.47 2445 163.9C2445 163.33 2447.91 159.14 2451.46 154.59C2458.69 145.32 2472.48 123.19 2476.53 114.35C2477.99 111.15 2480.72 106.84 2482.59 104.77C2484.47 102.69 2486 100.51 2486 99.9098C2486 99.3098 2488.26 96.2898 2491.01 93.1998C2495.68 87.9598 2497.98 83.1498 2497.99 78.5998C2498 75.5498 2502.12 64.8398 2504.95 60.4998C2506.51 58.1198 2508.5 56.3698 2509.87 56.1698C2513.2 55.6898 2516.16 58.7798 2515.89 62.4598C2515.77 64.1298 2516 67.7998 2516.41 70.6098C2517.29 76.6698 2516.09 80.0598 2509.63 89.8498C2507.22 93.5098 2504.91 97.6198 2504.51 98.9998C2504.11 100.38 2500 107.84 2495.39 115.59C2490.77 123.33 2487 130.03 2487 130.46C2487 131.78 2493.07 130.17 2501.5 126.62C2521.4 118.23 2529.68 116.33 2536.38 118.62C2541.79 120.46 2544.41 123.12 2543.54 125.88C2543.19 126.99 2541.06 129.61 2538.81 131.7C2525.23 144.32 2525.69 143.73 2526.32 147.61C2527.12 152.49 2529.43 155.76 2533.45 157.68C2536.58 159.17 2537.4 159.13 2546.35 157.04C2558.3 154.24 2572.22 154.45 2578.49 157.54C2582.88 159.7 2586.44 164.32 2587.99 169.88C2589.67 175.91 2590.33 200.64 2589.09 211.43C2587.41 226.09 2585.8 231.51 2578.96 245.5C2574.28 255.08 2569.65 260.28 2564.18 262.1C2561.32 263.05 2560.21 262.87 2556.18 260.8C2549.28 257.26 2549.42 254.95 2556.98 247.67C2560.31 244.46 2563.76 240.41 2564.65 238.67C2565.54 236.93 2568.17 233.45 2570.49 230.94C2576.59 224.37 2577.4 221.06 2577.38 203C2577.36 183.07 2575.84 177.81 2569 174.02C2565.39 172.03 2562.92 171.49 2556.5 171.34C2538.71 170.91 2534.09 173.01 2533.23 181.91C2532.61 188.36 2533.61 189.28 2540.28 188.42C2545.7 187.72 2548 188.95 2548 192.54C2548 195.56 2544.82 202.87 2540.38 210.07C2538.41 213.26 2537.11 216.37 2537.49 216.98C2538.47 218.57 2536.12 221.01 2533.63 220.97C2532.46 220.95 2530.63 220.28 2529.56 219.47C2528.49 218.66 2526.82 218 2525.83 218C2523.25 218 2520.84 223.37 2521.2 228.31C2521.5 232.45 2521.55 232.5 2525.65 232.8C2528.42 233 2531.84 232.25 2535.87 230.55C2545.62 226.45 2551.48 227.24 2554.37 233.04C2555.76 235.82 2555.73 236.45 2554.05 240.29C2553.04 242.61 2550.01 246.98 2547.32 250C2536.86 261.77 2534.37 265.71 2533.1 272.47C2531.99 278.44 2533.16 279.3 2543.45 280.1C2552.38 280.8 2558.1 283.45 2561.34 288.39C2565.45 294.68 2564.17 308.04 2558.81 314.68C2557.12 316.78 2554.89 320.36 2553.87 322.64C2552.84 324.92 2549.28 329.31 2545.94 332.39C2541.13 336.85 2539.21 338 2536.58 338C2534.71 338 2531.69 339.08 2529.6 340.5C2525.16 343.51 2520.61 343.73 2518.31 341.04ZM2537.78 314.44C2539.01 313.58 2540.71 311.52 2541.57 309.86L2543.14 306.83L2539.82 307.11C2535.72 307.45 2532 310.58 2532 313.67C2532 316.44 2534.46 316.77 2537.78 314.44ZM155.85 331.48C154.39 330.69 151.24 327.44 148.85 324.25L144.5 318.47L144.63 299.46C144.73 284.86 145.14 279.36 146.38 275.7C148.11 270.61 148.47 266.39 147.25 265.68C146.84 265.44 144.02 266.07 141 267.07C137.98 268.08 132.2 269.63 128.17 270.53C119.56 272.46 115.84 271.53 113.43 266.86C112.09 264.27 112.13 263.66 113.94 260.11C116.39 255.31 123.71 249.11 135.35 241.94C151.29 232.14 154.88 227.58 155.6 216.25C155.78 213.37 156.34 210.22 156.85 209.25C157.38 208.26 157.63 195.66 157.44 180C157.1 151.82 156.84 149.74 152.51 139.59C151.48 137.17 151.06 134.47 151.43 132.52C152.08 129.06 157.94 122 160.17 122C161.73 122 172.5 134.56 175.67 140.07C180.65 148.74 182 155.19 182 170.38C182 181.35 181.62 185.67 180.39 188.62C179.07 191.77 178.99 193.07 179.94 195.71C180.68 197.76 180.77 199.58 180.19 200.72C178.42 204.17 178 211.62 179.46 213.61C180.81 215.45 180.91 215.45 183.65 213.41C186.52 211.27 189.63 204.52 191.89 195.5C193.42 189.44 195.26 187.23 199.45 186.44C205.5 185.31 214.01 193.33 213.99 200.14C213.98 203.65 207.23 210.9 195.62 219.86C180.95 231.19 175.21 238.99 176.48 245.88C177.43 251.03 177.49 255.68 176.67 262C174.56 278.33 174.6 279.37 177.49 282.8C179.52 285.21 180.99 286 183.49 286C186.29 286 186.97 285.52 187.88 282.91C189.09 279.43 192.57 274.8 198.59 268.67C203.88 263.27 205.81 260.03 206.57 255.3C207.18 251.47 207.18 251.46 201.84 248.98C198.9 247.62 196.5 246.05 196.5 245.51C196.5 244.96 200.12 242.49 204.55 240.01C208.98 237.53 214.89 233.85 217.69 231.83C220.48 229.82 226.2 226.32 230.39 224.06C234.58 221.8 240.76 218.17 244.13 216C247.5 213.82 250.64 212.28 251.11 212.57C252.39 213.36 265.88 206.33 270.82 202.29C275.95 198.09 279.97 192.32 280.61 188.21C281.17 184.67 277.92 181.51 269.1 177.04C266.02 175.48 262.41 173.04 261.09 171.61C258.82 169.18 258.75 168.78 259.97 165.08C260.69 162.91 264.25 157.24 267.89 152.48C271.52 147.72 275.17 142.59 276 141.07C276.83 139.56 278.92 136.55 280.65 134.39C282.39 132.22 283.96 129.56 284.15 128.48C284.48 126.63 283.96 126.51 276 126.66C268.89 126.8 265.98 127.41 258.16 130.41C253.03 132.39 247.98 134 246.95 134C244.37 134 243 131.02 243 125.43C243 116.66 248.97 111 258.21 111C264.66 111 278.54 107.22 284.07 103.96C290.36 100.25 294.22 99.2898 301.5 99.6298C313.96 100.2 317.6 102.35 318.98 109.91C319.98 115.37 318.33 117.84 305.38 130.32C293.6 141.68 289.73 147.26 289.73 152.9C289.73 159.01 291.91 162.45 296.01 162.79C297.93 162.96 302.88 164.16 307 165.46C311.12 166.77 316.22 168.12 318.33 168.48C321.48 169.01 322.4 169.72 323.59 172.56C324.51 174.76 324.8 177.43 324.39 179.99C323.48 185.65 324.94 187 331.99 187C339.4 187 347.11 188.46 354 191.18C366.09 195.94 367.87 199.6 361.18 205.9C352.71 213.88 333.22 217.13 318.54 213.01C305.79 209.43 290.54 211.03 286.08 216.4C284.99 217.72 282.41 218.91 256.5 230.05C234.57 239.48 228.47 242.77 224.12 247.49C220.36 251.57 220 252.42 220 257.33C220 261.66 219.47 263.4 217.25 266.27C215.74 268.24 212.64 272.24 210.37 275.17C207.96 278.29 205.95 282.14 205.54 284.47C204.49 290.35 202.4 293.7 198 296.62C195.83 298.05 192.94 301.14 191.57 303.47C189 307.85 185.22 311 182.54 311C180.72 311 180.71 311.1 182 314.51C182.93 316.95 182.49 317.65 176.06 323.94C170.75 329.13 168.06 331 164.62 331.87C159.1 333.25 159.12 333.26 155.85 331.48ZM1535.67 327.33C1533.21 324.88 1539.8 315.02 1554.83 298.66C1559.96 293.07 1565.72 286.25 1567.63 283.5C1579.43 266.48 1582.35 261.98 1584.7 257.19C1586.13 254.25 1589.04 250.45 1591.16 248.75C1593.27 247.06 1595.87 244.19 1596.93 242.39C1597.99 240.6 1600.24 238.41 1601.93 237.54C1604.15 236.39 1606.12 233.73 1609 228C1611.2 223.62 1613 219.23 1613 218.24C1613 217.24 1615.96 212.88 1619.57 208.53C1635.27 189.65 1633.09 183.29 1610.6 182.33C1605.15 182.1 1599.86 181.46 1598.85 180.92C1594.06 178.35 1599.35 173.41 1607.8 172.56C1610.94 172.24 1616.59 171 1620.37 169.79C1624.15 168.59 1628.78 167.71 1630.66 167.84C1635.16 168.14 1639.59 163.89 1640.49 158.4C1640.84 156.26 1642.27 150.77 1643.66 146.21C1645.37 140.65 1646.05 136.54 1645.72 133.71C1645.28 129.79 1648.31 113.81 1649.94 111.5C1654.02 105.69 1653.83 91.0998 1649.56 82.9398C1647.78 79.5298 1647.05 76.9298 1647.44 75.3698C1648.9 69.5698 1663.15 74.6198 1668.72 82.8998C1671.61 87.1998 1673.35 93.5798 1672.55 96.9198C1672.21 98.3398 1671.68 109.09 1671.38 120.82L1670.82 142.14L1666.91 149.04C1664.76 152.83 1663 157.1 1663 158.52C1663 162.33 1666.82 165.21 1675.38 167.85C1683.36 170.31 1686.94 172.83 1696.58 182.76C1702.05 188.4 1709.21 201.51 1710.88 208.96C1711.76 212.9 1711.61 213.64 1709.31 216.66C1706.93 219.79 1706.84 220.29 1707.98 224.25C1710.29 232.34 1710.3 234.92 1708 241.21C1705.28 248.68 1703.44 251.78 1698.12 257.82C1695.85 260.39 1692.31 265.28 1690.25 268.68C1688.19 272.08 1683.35 278.16 1679.5 282.18C1675.65 286.21 1671.57 290.7 1670.42 292.16C1669.28 293.63 1666.73 295.5 1664.75 296.33C1662.78 297.16 1660.66 298.77 1660.05 299.92C1659.43 301.06 1658.16 302 1657.21 302.01C1656.27 302.01 1654.17 302.71 1652.53 303.56C1650.9 304.41 1648.43 305.01 1647.03 304.9C1643.58 304.61 1635.33 305.99 1630.6 307.65C1627.12 308.87 1626.38 308.82 1623.6 307.21C1619.85 305.02 1618.13 300.57 1618.06 292.82C1617.99 286.27 1619.25 282.23 1621.64 281.31C1622.61 280.94 1625.29 281.78 1628.05 283.33C1638.74 289.34 1642.84 286.53 1660.25 261.25C1662.31 258.25 1664 254.93 1664 253.87C1664 251.08 1668.55 242.51 1673.05 236.81C1678.16 230.35 1678.78 227.53 1677.87 214.81C1677.12 204.3 1675.78 199.8 1672.15 195.67C1669.9 193.1 1664.44 191 1660.03 191C1655.22 191 1652.73 193.7 1652.41 199.27C1652.21 202.66 1650.64 205.79 1644.5 215C1637.44 225.61 1632 235.63 1632 238.06C1632 238.61 1629.86 241.21 1627.25 243.84C1624.64 246.47 1618 253.56 1612.5 259.6C1607 265.63 1600.31 272.35 1597.63 274.53C1594.95 276.71 1591.35 279.78 1589.63 281.35C1587.91 282.92 1585.32 284.81 1583.88 285.56C1582.44 286.3 1579.78 289.3 1577.96 292.21C1573.62 299.16 1568.34 304.73 1563.96 307C1562.01 308.01 1556.33 313.14 1551.34 318.42C1543.84 326.33 1541.75 328 1539.3 328C1537.67 328 1536.03 327.7 1535.67 327.33ZM1887.22 314.72C1878.05 310.86 1872 304.4 1872 298.48C1872 296.37 1876.82 292 1879.17 292C1880.86 292 1884.49 294.07 1890.76 298.62C1896.37 302.69 1920.84 298.24 1922.55 292.84C1922.85 291.9 1925.53 289.51 1928.51 287.54C1934.3 283.69 1937 280.61 1937 277.84C1937 276.89 1939.25 273.55 1942 270.4C1945.97 265.87 1947.01 263.95 1947.04 261.09C1947.07 259.12 1947.74 255.7 1948.53 253.5C1949.32 251.3 1949.98 248.47 1949.98 247.2C1949.99 245.94 1950.62 243.69 1951.39 242.2C1952.15 240.72 1953.33 235.37 1954.02 230.31C1955.12 222.22 1955.07 220.64 1953.63 217.04C1952.46 214.1 1952 209.77 1952 201.56C1952 192.51 1951.6 189.24 1950.06 185.65C1947.29 179.18 1944.44 177.67 1934.47 177.39C1929.9 177.26 1925.26 176.67 1924.15 176.08C1920.82 174.3 1919.28 174.83 1918.65 177.99C1918.25 180.01 1914.3 184.84 1906.46 192.92C1900.08 199.49 1893.88 206.8 1892.68 209.18C1891.07 212.38 1889.83 213.58 1887.9 213.8C1886.06 214.02 1881.54 218.05 1872.4 227.64C1865.31 235.09 1858.94 242.23 1858.26 243.51C1857.58 244.78 1853.89 247.91 1850.06 250.46C1843 255.15 1838.69 259.74 1835.53 265.91C1834.57 267.79 1832.68 270.49 1831.33 271.91C1829.97 273.34 1828.24 275.67 1827.48 277.11C1826.72 278.54 1824.69 280.3 1822.98 281.01C1820.17 282.17 1819.65 282.09 1817.74 280.19C1815.77 278.21 1815.74 277.95 1817.27 276.25C1818.18 275.25 1820.54 271.19 1822.53 267.22C1825.28 261.72 1827.81 258.52 1833.16 253.75C1837.21 250.15 1841.14 245.59 1842.43 243C1843.66 240.52 1847.54 233.32 1851.04 227C1854.54 220.68 1861.13 208.3 1865.69 199.5C1870.24 190.7 1874.96 181.59 1876.18 179.25L1878.4 175.01L1876.37 172.3C1875.08 170.56 1871.49 168.46 1866.42 166.47C1854.94 161.95 1851.04 159.74 1845.09 154.39C1836.39 146.57 1833.07 139.85 1836.49 137.01C1838.68 135.19 1842.3 136.5 1847.5 141C1853.29 146.01 1855.44 146.54 1862.05 144.58C1864.97 143.71 1870.15 143 1873.56 143C1876.97 143 1881.27 142.36 1883.13 141.57C1888.02 139.5 1897.52 130.63 1898.95 126.79C1899.62 124.98 1900.83 122.28 1901.63 120.78C1903.88 116.55 1905.98 108.88 1905.99 104.8C1906 100.76 1903.92 91.9798 1901.37 85.3098C1897.71 75.7198 1903.01 75.7398 1923 85.3698C1925.36 86.5098 1927.6 89.8898 1928.54 93.7598C1931.28 104.98 1932.35 107.96 1935.27 112.37C1941.32 121.49 1941.24 121.15 1939.01 129.19C1937.91 133.19 1937 137.66 1937 139.13C1937 142.51 1942.98 148 1946.67 148C1948.1 148 1950.77 148.93 1952.61 150.07C1954.47 151.22 1958.54 152.39 1961.73 152.7C1968.24 153.34 1972.66 155.46 1973.72 158.47C1974.53 160.72 1974.52 160.57 1975.68 201.92C1976.7 238.49 1975.9 246.52 1969.78 261.33C1965.5 271.7 1955.45 290.2 1953.75 290.87C1953.23 291.07 1950.58 293.2 1947.87 295.62C1945.15 298.03 1942.39 300 1941.72 300.01C1940.4 300.02 1935.98 304.18 1930.57 310.5C1927.22 314.42 1927 314.51 1918.83 315.16C1894.57 317.1 1892.8 317.07 1887.22 314.72ZM2163.74 314.26C2160.08 313.98 2158.61 313.34 2157.43 311.53C2155.99 309.33 2156.11 308.71 2159.44 301.7C2161.39 297.59 2163.61 293.98 2164.38 293.68C2165.38 293.3 2165.64 291.92 2165.32 288.83C2164.93 285.09 2165.58 283.13 2170.06 274.5C2172.91 269 2176.24 263.32 2177.45 261.88C2178.66 260.44 2180.26 257.74 2181.01 255.88C2181.75 254.02 2184.78 248.84 2187.73 244.37C2193.31 235.9 2195.26 229.9 2192.9 228.44C2190.42 226.9 2182.17 227.74 2177.5 230C2173.43 231.97 2161.03 244.57 2160.99 246.78C2160.98 247.17 2157.57 251.05 2153.4 255.4C2145.42 263.72 2139 272.29 2139 274.61C2139 276.52 2132.26 283.82 2128.87 285.56C2125.07 287.53 2120.64 287.36 2118.66 285.17C2116.83 283.15 2116.48 280.44 2117.94 279.54C2118.45 279.22 2119.82 276.38 2120.99 273.23C2122.24 269.86 2124.53 266.18 2126.56 264.3C2128.45 262.54 2130 260.67 2130 260.14C2130 259.61 2131.8 256.9 2134 254.12C2136.2 251.34 2138 248.88 2138 248.66C2138 247.94 2160.72 225.57 2165.4 221.68C2167.93 219.58 2170 217.09 2170 216.16C2170 215.22 2171.62 213.58 2173.61 212.51C2175.6 211.44 2178.78 208.66 2180.69 206.34C2182.59 204.02 2186.35 200.7 2189.03 198.98C2193.54 196.09 2196 192.67 2194.6 191.26C2194.02 190.69 2182.45 193.75 2180.5 194.99C2179.95 195.34 2176.12 196.92 2172 198.5C2162.3 202.2 2155.79 206.05 2154.36 208.92C2153.73 210.18 2152.32 211.73 2151.23 212.36C2140.78 218.39 2132.81 223.34 2129.39 225.92C2122.8 230.89 2113.99 233.31 2104.5 232.75C2099.59 232.46 2094.76 231.5 2092 230.27C2083.28 226.4 2073 214.99 2073 209.19C2073 207.29 2077.2 202 2078.71 202C2079.15 202 2081.74 203.18 2084.45 204.63C2089.23 207.17 2089.76 207.23 2101.94 206.68C2114.98 206.08 2123.71 204.25 2128 201.23C2131.24 198.95 2134.55 197.42 2139.5 195.94C2141.7 195.27 2145.44 193.44 2147.8 191.87C2150.17 190.29 2152.47 189 2152.92 189C2153.38 189 2158.64 187.39 2164.62 185.43C2170.61 183.46 2177.98 181.41 2181 180.87C2190.15 179.24 2189.64 179.74 2189.19 172.61C2188.84 167.11 2189.14 165.62 2191.39 161.78C2194 157.32 2194.7 152.66 2193.13 150.18C2192.45 149.1 2191.2 149.09 2186.21 150.12C2174.61 152.51 2161 148.61 2161 142.89C2161 138.65 2172.94 131.93 2183.25 130.38C2191.83 129.09 2196.79 120.41 2197.09 106.15C2197.23 99.5498 2196.89 97.5598 2195.13 94.7098C2193.96 92.8098 2193 90.3698 2193 89.2698C2193 87.9698 2191.1 86.0198 2187.5 83.6298C2181.34 79.5398 2180.52 77.0098 2184.51 74.3998C2186.52 73.0898 2188.88 72.8398 2196.49 73.1798C2207.31 73.6498 2209.02 74.4998 2215.34 82.5898C2222.48 91.7198 2223.72 96.0098 2221.51 104C2219.61 110.91 2219.39 110.5 2226.03 112.35C2230 113.45 2233.3 115.15 2235.22 117.06C2237.85 119.69 2238.13 120.51 2237.52 123.76C2236.44 129.5 2232.16 134.92 2224.32 140.47C2214 147.77 2212.59 149.89 2212.15 158.71L2211.78 166L2217.64 166.04C2220.86 166.07 2225.12 166.67 2227.1 167.37C2231.85 169.07 2234.46 167.97 2236.88 163.23C2237.97 161.11 2239.57 158.77 2240.44 158.05C2241.31 157.33 2243.43 153.78 2245.16 150.17C2246.88 146.56 2250.19 141.55 2252.51 139.05C2254.82 136.55 2257.31 133.38 2258.02 132C2258.74 130.62 2260.64 127.86 2262.24 125.86C2263.84 123.86 2267.53 118.24 2270.44 113.37C2274.98 105.77 2276.78 103.76 2283.11 99.2498C2295.16 90.6698 2296.35 90.0098 2299.8 89.9998C2303.72 89.9998 2308 93.7598 2308 97.2098C2308 99.8398 2304.18 107.4 2299.81 113.41C2296.14 118.46 2294.44 122.4 2293.49 128.1C2293.09 130.52 2291.91 133.69 2290.88 135.15C2289.85 136.61 2289 138.88 2289 140.19C2289 142.95 2286.58 149.98 2281.51 162C2278.1 170.07 2276.94 176.48 2278.45 178.92C2278.83 179.53 2280.73 180.7 2282.68 181.51C2284.63 182.33 2287.77 184.34 2289.65 186C2291.72 187.82 2294.18 189 2295.89 189C2299.56 189 2304 193.11 2304 196.5C2304 197.93 2304.66 200.38 2305.47 201.95C2308.04 206.91 2306.78 214.3 2302.04 222C2301.53 222.82 2300.87 224.69 2300.57 226.15C2300.26 227.6 2297.37 232.33 2294.15 236.65C2286.37 247.05 2286.09 248.45 2290.84 252.95C2292.9 254.9 2296.37 257.12 2298.55 257.88C2300.72 258.64 2304.44 260.55 2306.8 262.13C2309.17 263.71 2311.75 265 2312.55 265C2313.34 265 2315.67 266.58 2317.71 268.5C2319.75 270.42 2321.89 272 2322.46 272.01C2325.46 272.02 2331.53 274.44 2333.49 276.4C2335.59 278.5 2344.4 281.9 2351.85 283.49C2356.19 284.41 2362.5 290.73 2363.35 295C2364.38 300.15 2361.51 304.9 2355.01 308.77C2347.78 313.07 2344.27 314.04 2333.5 314.68L2324.5 315.22L2319.46 311.74C2312.54 306.95 2306.53 304 2303.73 304C2300.61 304 2298.42 302.28 2295.18 297.29C2285.95 283.06 2280.49 275.82 2275.18 270.75C2271.86 267.59 2268.68 265 2268.11 265C2267.54 265 2265.59 266.47 2263.78 268.27C2256.21 275.82 2249.31 279.31 2242.02 279.3C2235.45 279.3 2232.24 277.15 2233.58 273.65C2234.29 271.8 2239.31 268.21 2246.48 264.43C2253.19 260.88 2257.39 255.87 2256.4 252.58C2256.06 251.44 2253.95 248.9 2251.72 246.94L2247.66 243.38L2250.74 241.19C2252.43 239.98 2254.5 239 2255.35 239C2256.19 239 2257.19 238.51 2257.56 237.9C2258.32 236.67 2262.24 237.06 2269.16 239.03L2273.81 240.36L2279.16 234.52C2286.22 226.8 2291.63 213.68 2290.5 207C2289.42 200.61 2288.21 199.74 2279.39 199.05C2270.9 198.38 2265.64 196.37 2261.88 192.37C2258.46 188.73 2257.87 176.08 2260.83 169.82C2261.95 167.44 2263.66 162.8 2264.64 159.5C2265.61 156.2 2266.99 152.38 2267.7 151C2268.41 149.62 2268.99 147.95 2268.99 147.28C2269 146.61 2270.12 142.62 2271.5 138.4C2274.48 129.26 2274.57 128 2272.17 128C2269.83 128 2266.82 131.31 2263.98 137C2262.74 139.48 2260.64 142.8 2259.31 144.39C2257.98 145.98 2255.78 149.47 2254.43 152.14C2253.07 154.81 2251.58 157 2251.1 157C2250.63 157 2249.65 158.46 2248.93 160.25C2248.21 162.04 2245.26 166.88 2242.39 171.01C2239.52 175.14 2234.31 184.37 2230.81 191.51C2227.31 198.66 2222.64 206.98 2220.43 210C2216.04 216 2208.98 232.84 2208.99 237.28C2209 238.8 2208.11 243.53 2207.01 247.78C2205.85 252.29 2204.84 260.27 2204.57 267C2204.03 280.53 2201.92 288.27 2196.54 296.37C2192.78 302.04 2185.53 308.15 2181 309.48C2179.62 309.88 2176.53 311.29 2174.12 312.6C2171.72 313.92 2169.47 314.92 2169.12 314.82C2168.78 314.72 2166.36 314.47 2163.74 314.26ZM2185.42 290.51C2187.72 288.22 2189.09 285.75 2189.46 283.26C2189.77 281.19 2190.53 277.48 2191.15 275C2193.17 266.91 2193.27 265.32 2191.74 264.73C2189.18 263.75 2185.6 266.39 2184.53 270.04C2183.96 271.97 2182.57 274.89 2181.43 276.53C2176.14 284.12 2174.72 290.31 2177.75 292.61C2180.42 294.63 2181.63 294.3 2185.42 290.51ZM2205.75 216.54C2209.33 213.32 2212.04 209.43 2215.48 202.59C2220.01 193.58 2220.68 189.95 2217.78 190.04C2217.08 190.06 2215.6 191.97 2214.5 194.29C2213.1 197.22 2209.69 200.77 2203.21 206C2189.45 217.12 2187.67 221 2196.36 221C2200.19 221 2201.45 220.4 2205.75 216.54ZM290.64 301.74C289.27 300.36 287.65 297.27 287.04 294.86C286.44 292.46 285.27 288.98 284.43 287.13C282.94 283.8 282.89 283.79 280.84 285.63C279.7 286.66 277.26 289.84 275.42 292.71C271.24 299.23 265.51 302.5 259.85 301.59C252.86 300.47 244.72 296.78 240.33 292.74C234.58 287.44 234.49 283.86 239.88 274.94C244.68 267.01 247.47 264.85 253.74 264.25C257.65 263.88 259.67 264.31 263.78 266.39C270.02 269.55 273.17 269.64 281.28 266.89C286.05 265.27 288.92 264.91 293.6 265.34C296.96 265.65 300.11 265.53 300.6 265.07C301.1 264.62 303.67 263.06 306.32 261.6C310.75 259.17 311.47 259.06 315.2 260.18C317.44 260.85 320.33 262.54 321.62 263.95C322.92 265.35 325.79 268.45 327.99 270.83C334.55 277.92 333.07 283.43 322.75 290.3C319.86 292.23 316.38 295.01 315 296.5C311.34 300.45 306.15 302.77 299.25 303.55C293.61 304.19 292.96 304.05 290.64 301.74ZM1279.5 289.83C1278.4 289.22 1274.12 285.47 1270 281.5C1259.42 271.32 1247.33 264.07 1240.83 264.01C1239.91 264.01 1237.88 262.93 1236.33 261.63C1234.77 260.33 1232.03 258.94 1230.24 258.55C1226.36 257.7 1221.41 255.37 1218.12 252.83C1216.75 251.79 1214.08 251 1211.88 251C1207.97 251 1193.34 247.42 1191.5 246.01C1190.45 245.21 1178.72 241.81 1163.59 237.92C1153.4 235.3 1148.8 232.25 1150.62 229.31C1151.48 227.92 1152.86 227.54 1156.62 227.67C1159.3 227.76 1163.75 227.91 1166.5 227.99C1169.25 228.08 1172.48 227.78 1173.68 227.32C1174.87 226.87 1180.5 226.81 1186.18 227.19C1191.85 227.57 1199.49 228.04 1203.14 228.23C1206.79 228.42 1210.45 229.13 1211.27 229.81C1212.09 230.49 1216.75 231.54 1221.63 232.16C1226.51 232.77 1231.13 233.77 1231.89 234.37C1232.66 234.98 1236.03 235.76 1239.39 236.1C1252.03 237.39 1281.66 246.03 1283.47 248.95C1283.73 249.38 1286.05 250.31 1288.61 251.03C1294.19 252.59 1298.51 256.67 1302.25 263.88C1305.51 270.17 1305.73 274.25 1303 277.73C1301.9 279.13 1301 280.9 1301 281.67C1301 283.98 1297.89 288.01 1294.9 289.55C1291.61 291.25 1282.37 291.42 1279.5 289.83ZM776.5 277.29C775.4 277.02 774.07 276.4 773.55 275.9C773.03 275.41 771.34 275 769.81 275C767.84 275 765.67 273.68 762.52 270.57C760.05 268.14 757.21 265.89 756.22 265.57C755.22 265.25 752.66 262.63 750.52 259.75C748.38 256.86 745.27 253.04 743.62 251.25C738.61 245.84 741.84 244.68 766.5 243.02C785.92 241.7 791.06 241.02 794.36 239.32C795.97 238.48 798.27 238.1 799.64 238.45C800.98 238.78 804.42 238.35 807.29 237.49C812.26 235.99 826.48 233 835.9 231.48C844.85 230.04 852.93 225 857.98 217.71C860.19 214.52 862 211.53 862 211.06C862 210.6 868.46 204.1 876.36 196.62C888.27 185.34 891.26 181.92 893.92 176.52C896.17 171.95 897.03 168.91 896.81 166.33C896.36 160.96 893.81 160.42 876.54 162C865.72 162.99 860.94 163.02 855.9 162.14C852.29 161.51 846.22 160.99 842.42 160.99C832.79 160.97 830.98 160.35 831.07 157.13C831.18 152.95 832.12 151.53 838.68 145.7C843.4 141.49 845.86 140.04 849.18 139.52C851.55 139.15 856.3 137.92 859.71 136.8C863.13 135.68 866.6 135.02 867.44 135.34C868.27 135.66 870.62 135.22 872.66 134.37C874.69 133.52 877.61 133.07 879.13 133.38C880.69 133.69 884.37 133.08 887.6 131.96C890.74 130.88 894.72 130 896.43 130C899.76 130 912 135.84 919.54 141.03C924.65 144.54 926.02 147.17 925.96 153.32C925.91 158.04 921.91 168.22 919.85 168.84C917.53 169.55 913.94 173.33 912.3 176.79C910.57 180.42 903.16 187.07 883.21 202.85C870.83 212.65 866.01 217.77 864.57 222.64C864.05 224.39 864.51 224.98 867.12 225.89C871.07 227.27 878.51 227.33 880.99 226.01C883.55 224.64 897.94 224.05 900.99 225.2C903.15 226.01 903.84 225.68 906.28 222.63C909.87 218.15 915.15 216.23 918.29 218.25C919.5 219.03 923.39 220.24 926.93 220.92C930.46 221.61 936.39 223.27 940.11 224.61C943.83 225.95 947.23 226.96 947.68 226.86C948.69 226.63 953.6 227.82 957.15 229.16C963.33 231.49 966.74 239.36 963.89 244.73C961.15 249.9 938.84 257.43 931.64 255.62C930.39 255.31 925.04 254.81 919.75 254.5C914.46 254.2 908.54 253.29 906.6 252.48C901.61 250.39 893.74 250.64 876.8 253.43C857.29 256.64 846.6 259.4 835.06 264.21C829.8 266.41 823.47 268.61 821 269.11C818.53 269.6 814.8 270.68 812.73 271.5C810.66 272.33 806.11 273 802.63 273C797.8 273 795.18 273.59 791.6 275.5C787.09 277.9 781.69 278.54 776.5 277.29ZM1487.5 271.42C1485.85 270.56 1483.83 269.26 1483 268.52C1482.18 267.79 1479.66 266.7 1477.4 266.1C1472.17 264.7 1465.51 259.89 1463.54 256.07C1461.54 252.22 1461.52 246.4 1463.5 245.64C1464.32 245.32 1467.58 245.54 1470.74 246.13C1477.12 247.31 1484.27 246.69 1488.63 244.58C1490.21 243.82 1493.75 242.22 1496.5 241.04C1499.25 239.86 1502.48 238.41 1503.67 237.82C1504.87 237.23 1507.07 237.05 1508.56 237.43C1510.88 238.01 1513.49 236.61 1526.39 227.89C1547.95 213.32 1550 211.53 1550 207.3C1550 205.39 1551.09 200.61 1552.41 196.67C1554.08 191.71 1555.03 186.02 1555.5 178.21C1556.21 166.26 1555.64 164 1551.88 164C1550.43 164 1550 164.74 1550 167.25C1549.99 172 1544.8 177.2 1537.43 179.85C1527.18 183.53 1526.47 184.09 1526.82 188.19C1527.25 193.14 1521.42 204.39 1514.61 211.75C1511.8 214.79 1511.18 215 1504.94 215C1499.59 215 1497.7 214.56 1495.38 212.78C1491.66 209.92 1491.03 208.99 1491.02 206.21C1491.01 204.96 1490.27 202.82 1489.39 201.46C1487.95 199.28 1487.94 198.75 1489.24 196.75C1490.3 195.13 1490.44 193.9 1489.74 192.34C1489.13 190.96 1489.12 186.23 1489.72 179.24C1490.47 170.52 1491.11 167.65 1492.88 165.16C1494.75 162.54 1494.95 161.49 1494.16 158.62C1493.49 156.18 1493.63 153.52 1494.67 149.35C1495.47 146.13 1497.2 138.77 1498.52 133C1499.83 127.22 1501.85 120.7 1503 118.5C1504.79 115.09 1505 113.49 1504.44 107.68C1503.84 101.47 1503.99 100.64 1506.07 98.4298C1509.08 95.2198 1509.88 95.3398 1514.35 99.6798C1520.78 105.93 1521.43 108 1521.13 121.19C1520.85 133.39 1521.49 136.12 1525.08 138.04C1526.61 138.86 1528.32 138.72 1532.11 137.46C1535.43 136.36 1538.53 136.02 1541.31 136.44C1543.61 136.79 1547.07 137.17 1549 137.29L1552.5 137.5L1552.29 129.37C1552.07 121.27 1549.11 108.04 1546.91 105.39C1546.28 104.63 1545.24 104 1544.61 104C1542.49 104 1536 97.8798 1536 95.8798C1536 94.7998 1537.17 92.7398 1538.59 91.3198C1541.05 88.8598 1541.59 88.7498 1548.92 89.2598C1553.83 89.5898 1558.12 90.5298 1560.65 91.8198C1566.07 94.5798 1572 101.3 1572 104.67C1572 106.14 1572.73 108.15 1573.63 109.14C1574.94 110.59 1575.35 113.88 1575.68 125.72C1575.91 133.85 1576.47 143.88 1576.92 148C1577.76 155.69 1576.67 192.32 1575.45 197.25C1574.92 199.38 1575.12 200 1576.35 200C1577.22 200 1578.41 200.9 1579 202C1579.92 203.73 1579.21 204.94 1573.79 210.82C1570.33 214.57 1563.48 222.02 1558.57 227.38C1548.89 237.95 1546.44 239.84 1544.69 238.09C1544.09 237.49 1543.03 237 1542.33 237C1540.83 237 1529.67 246.73 1515.79 260.15C1506.52 269.11 1505.35 269.92 1499.45 271.4C1491.64 273.36 1491.22 273.37 1487.5 271.42ZM1531.63 162C1534.09 153.75 1532.94 147 1529.07 147C1526.37 147 1525.92 149.15 1526.65 158.63C1527.17 165.37 1527.61 167.03 1528.79 166.79C1529.61 166.63 1530.89 164.48 1531.63 162ZM1080.63 268.93C1076.56 265.72 1077.1 262.08 1082.4 257.2C1084.82 254.97 1088.67 252.19 1090.95 251.03C1096.75 248.07 1102.46 242.65 1105.01 237.7C1106.2 235.39 1108.64 231.93 1110.43 230C1114.28 225.86 1128.34 206.17 1130.68 201.65C1131.57 199.92 1133.96 196.25 1135.98 193.5C1138 190.75 1141.05 185.52 1142.76 181.88C1144.47 178.24 1148.32 171.49 1151.31 166.88C1157.44 157.45 1161.87 148.9 1164.46 141.5C1165.42 138.75 1166.59 135.6 1167.05 134.5C1167.51 133.4 1168.81 128.68 1169.95 124C1172.76 112.42 1177.13 106.7 1180.55 110.12C1181.83 111.4 1182.15 114.14 1182.17 124.11C1182.21 137.11 1181.14 143.28 1176.8 155.07C1174.59 161.1 1166.16 175.17 1163.94 176.54C1163.42 176.86 1163 178.03 1163 179.15C1163 181.45 1157.26 192.26 1152.46 199C1150.7 201.48 1148.56 204.85 1147.72 206.5C1146.87 208.15 1143.62 212.43 1140.5 216C1137.38 219.57 1133.95 224.2 1132.88 226.27C1131.01 229.9 1122.52 239.59 1106.39 256.5C1102.2 260.9 1098.03 265.34 1097.13 266.37C1093.1 271.01 1084.89 272.28 1080.63 268.93ZM2466 268.34C2460.24 266.04 2458.01 260.42 2457.98 248.13C2457.96 242.83 2457.47 236.48 2456.88 234C2456.29 231.52 2455.7 226.57 2455.56 223C2455.42 219.43 2454.95 213.26 2454.51 209.29C2453.51 200.18 2455.05 194.25 2459.92 188.51C2461.89 186.18 2464 183.43 2464.6 182.4C2466.36 179.4 2468.62 182.16 2469.33 188.16C2469.67 190.99 2471.03 196.27 2472.35 199.9C2473.68 203.53 2477.06 213.48 2479.86 222L2484.96 237.5L2483.98 246.78C2482.96 256.56 2480.93 261.88 2476.74 265.79C2474.25 268.11 2468.73 269.42 2466 268.34ZM2643.34 187.45C2643.02 186.6 2640.63 184.83 2638.05 183.52C2635.46 182.21 2632.04 179.44 2630.46 177.35C2626.84 172.61 2608.6 154.89 2605.79 153.39C2604.64 152.77 2602.3 150.44 2600.6 148.21C2597.5 144.15 2581.9 131 2580.19 131C2579.69 131 2575.66 127.2 2571.23 122.57C2566.39 117.48 2561.19 113.12 2558.15 111.58C2555.38 110.17 2551.66 107.22 2549.89 105.01C2548.12 102.81 2546.25 101 2545.75 101C2543.72 101 2529 93.5998 2529.02 92.5898C2529.06 89.3898 2530.78 88.7198 2537.15 89.3998C2548.22 90.5898 2564.74 97.3698 2568.96 102.45C2569.67 103.3 2571.23 104 2572.43 104C2575.22 104 2577.74 105.95 2578.17 108.45C2578.36 109.57 2580.5 111.47 2583.16 112.88C2585.71 114.24 2590.66 117.75 2594.15 120.68C2603.77 128.75 2620.6 139.87 2629 143.7C2633.12 145.58 2638.55 148.17 2641.06 149.47C2643.57 150.76 2647.74 152.14 2650.32 152.53C2652.91 152.91 2655.27 153.63 2655.57 154.12C2655.87 154.6 2656.89 155 2657.84 155C2660.71 155 2673.32 161.53 2676.35 164.6C2679.74 168.02 2683 174.1 2683 177.01C2683 178.15 2681.9 180.2 2680.55 181.55C2677.65 184.44 2671.58 184.87 2667.01 182.5C2663.33 180.6 2660.04 181.74 2657.05 185.93C2655.07 188.72 2654.36 189 2649.4 189C2645.39 189 2643.78 188.59 2643.34 187.45ZM269.75 85.0298C268.24 83.8298 267 81.8598 267 80.6498C267 77.0698 279.4 61.3498 284.13 58.9398C288.78 56.5598 293.94 56.8298 299.91 59.7398C302.94 61.2298 303.55 62.0798 303.81 65.1998C304.09 68.5798 303.76 69.1298 300.03 71.4798C297.26 73.2298 295.75 74.9898 295.36 76.9398C295.05 78.5198 293.28 81.2798 291.43 83.0698C288.34 86.0598 287.43 86.3598 280.28 86.7698C273.41 87.1598 272.18 86.9598 269.75 85.0298ZM569.6 82.4998C567.01 81.1198 563.68 79.9998 562.2 79.9998C555.17 79.9998 537.35 67.2498 535.73 61.0798C535.09 58.6298 538.91 50.8298 542.73 46.7998C544.13 45.3098 546.88 43.3398 548.82 42.4198C555.4 39.2898 571.77 42.4198 578.85 48.1598C581.48 50.2798 583.3 52.7298 590.68 64.0498L592.99 67.5898L589.38 74.8298C584.12 85.3798 578.85 87.4198 569.6 82.4998Z" fill="#481060"/>
</svg>
