<svg xmlns="http://www.w3.org/2000/svg" width="2987" height="351" viewBox="0 0 2987 351">
<g>
<path d="M 536.93 342.14 C534.71,340.34 534.67,340.05 535.78,333.39 C537.29,324.40 537.68,314.85 536.60,313.15 C534.43,309.68 535.04,287.31 538.07,259.50 C538.61,254.55 539.42,245.10 539.87,238.50 C540.33,231.90 541.25,225.15 541.93,223.50 C542.61,221.82 543.13,216.32 543.10,211.00 C543.06,202.39 543.50,198.96 545.53,192.33 C546.19,190.18 546.16,190.17 542.62,191.83 C540.66,192.75 538.80,194.25 538.48,195.17 C537.82,197.13 532.86,201.59 523.90,208.29 C520.38,210.93 515.25,214.88 512.50,217.07 C509.75,219.27 504.40,223.13 500.61,225.65 C494.20,229.91 493.37,230.19 488.65,229.74 C484.42,229.33 483.11,228.70 480.79,225.91 C477.35,221.80 477.27,219.37 480.48,216.02 C481.84,214.60 483.56,211.65 484.31,209.47 C485.07,207.23 486.94,204.63 488.58,203.50 C490.36,202.29 493.16,198.19 495.76,193.00 C498.10,188.33 502.22,181.94 504.90,178.80 C507.58,175.67 510.71,171.58 511.87,169.72 C513.02,167.85 517.11,163.53 520.95,160.11 C524.79,156.70 529.13,151.79 530.59,149.20 C532.64,145.56 534.79,143.60 540.13,140.50 C543.91,138.30 547.28,135.65 547.61,134.62 C547.95,133.58 552.00,128.99 556.62,124.41 L 565.01 116.09 L 561.58 115.45 C556.20,114.44 552.82,115.48 535.50,123.50 C523.34,129.13 520.48,130.19 515.16,131.05 C502.99,133.03 498.33,134.46 494.00,137.53 C489.42,140.78 478.66,145.00 474.95,145.00 C473.82,145.00 468.76,146.76 463.70,148.90 C450.20,154.64 446.70,155.41 443.03,153.51 C437.45,150.63 436.65,148.21 437.63,137.27 C438.49,127.73 438.56,127.53 441.90,125.28 C444.48,123.55 446.75,122.99 451.40,122.96 C454.75,122.93 459.30,122.21 461.50,121.36 C463.70,120.50 468.58,119.42 472.35,118.95 C476.12,118.48 480.17,117.47 481.35,116.69 C482.54,115.91 485.08,115.04 487.00,114.75 C488.93,114.46 491.40,113.97 492.50,113.67 C493.60,113.36 497.65,112.25 501.50,111.19 C505.35,110.13 513.65,108.73 519.95,108.08 C526.25,107.43 534.55,106.02 538.40,104.96 C542.26,103.89 548.36,102.72 551.96,102.37 C555.55,102.01 560.30,100.92 562.50,99.95 C566.16,98.33 574.11,95.68 587.69,91.57 C590.54,90.71 593.72,90.00 594.76,90.00 C595.79,90.00 599.05,88.20 602.00,86.00 C604.95,83.80 608.17,82.00 609.16,82.00 C610.16,82.00 612.42,83.30 614.19,84.88 L 617.42 87.77 L 614.81 91.72 C612.53,95.15 606.99,99.73 582.61,118.33 C572.11,126.33 567.77,130.45 564.59,135.42 C560.84,141.29 551.23,150.32 543.08,155.64 C535.16,160.82 522.00,177.64 522.00,182.60 C522.00,183.92 522.25,185.00 522.55,185.00 C524.56,185.00 533.09,180.14 537.75,176.34 C540.80,173.86 546.71,170.15 550.89,168.10 C555.08,166.05 560.30,163.25 562.50,161.89 C564.70,160.53 570.51,157.86 575.40,155.96 C582.03,153.38 585.73,151.19 589.90,147.39 C596.95,140.96 601.37,138.63 604.86,139.50 C609.09,140.55 611.00,142.92 611.00,147.08 C611.00,150.22 610.37,151.37 607.27,153.93 C605.22,155.62 603.07,157.00 602.50,157.00 C599.80,157.00 578.79,168.35 575.08,171.81 C568.09,178.33 566.83,181.73 565.90,196.50 C565.45,203.65 564.59,212.88 563.99,217.00 C563.38,221.12 562.80,228.55 562.69,233.50 L 562.50 242.50 L 572.22 242.50 C580.82,242.50 582.18,242.75 584.08,244.64 C586.19,246.75 586.20,246.88 584.54,251.87 C582.63,257.63 583.20,261.00 586.09,261.00 C589.94,261.00 590.32,257.22 590.41,218.16 L 590.50 180.83 L 593.42 178.31 C598.35,174.08 605.02,176.33 608.78,183.50 C611.51,188.69 612.99,228.11 610.98,242.01 C610.46,245.58 610.03,252.61 610.02,257.63 C610.01,264.31 609.62,267.07 608.57,267.94 C607.06,269.20 605.74,274.38 603.90,286.24 C602.65,294.29 596.08,307.70 590.19,314.21 C585.23,319.71 577.08,323.22 568.00,323.78 C559.27,324.32 557.90,325.21 554.35,332.72 C549.47,343.03 542.61,346.74 536.93,342.14 ZM 570.77 306.38 C584.04,292.53 588.77,275.83 581.38,268.89 C579.22,266.86 577.84,266.51 571.96,266.50 C562.70,266.50 561.35,267.82 561.92,276.29 C562.52,285.12 562.41,291.40 561.52,300.05 C560.85,306.50 560.99,307.85 562.44,309.30 C564.95,311.80 565.89,311.47 570.77,306.38 ZM 2724.31 341.04 C2722.94,339.45 2721.83,339.20 2718.30,339.68 C2709.40,340.90 2707.04,333.72 2714.04,326.72 C2716.27,324.50 2719.51,320.84 2721.25,318.59 C2723.00,316.34 2728.45,310.65 2733.37,305.95 C2741.29,298.39 2742.24,297.10 2741.66,294.80 C2741.11,292.57 2740.31,292.10 2736.25,291.56 C2728.68,290.55 2722.73,292.20 2716.45,297.04 C2713.38,299.41 2710.11,301.40 2709.18,301.48 C2708.26,301.55 2706.28,302.41 2704.80,303.39 C2698.49,307.54 2695.96,301.85 2700.28,293.24 C2701.61,290.60 2703.00,286.82 2703.37,284.82 C2703.75,282.83 2704.72,280.65 2705.53,279.98 C2706.34,279.31 2707.00,277.75 2707.00,276.53 C2707.00,272.84 2710.04,271.00 2716.13,271.00 C2721.00,271.00 2721.95,270.64 2724.73,267.75 C2727.90,264.46 2732.00,255.55 2732.00,251.96 C2732.00,249.70 2728.66,246.00 2726.62,246.00 C2725.86,246.00 2725.00,246.89 2724.71,247.99 C2724.01,250.67 2720.09,252.00 2712.89,252.00 C2707.87,252.00 2706.51,251.60 2704.45,249.55 C2701.79,246.89 2701.23,242.88 2703.28,241.18 C2703.99,240.60 2705.84,239.89 2707.40,239.60 C2711.36,238.89 2713.83,236.36 2715.07,231.74 C2716.51,226.38 2715.78,225.00 2711.48,225.00 C2705.41,225.00 2698.00,220.36 2698.00,216.57 C2698.00,213.21 2700.57,210.38 2707.95,205.60 C2717.52,199.41 2723.00,194.22 2725.20,189.27 C2726.87,185.50 2726.92,184.75 2725.64,182.27 L 2724.20 179.49 L 2714.31 180.40 C2701.85,181.54 2698.50,180.40 2698.50,175.00 C2698.50,170.76 2700.86,169.36 2709.57,168.43 C2722.36,167.07 2726.85,161.20 2721.91,152.28 C2717.27,143.91 2710.96,139.40 2703.45,139.10 C2700.73,139.00 2695.80,138.70 2692.50,138.44 C2688.53,138.13 2685.96,138.40 2684.91,139.24 C2682.94,140.80 2668.85,163.21 2665.92,169.44 C2663.66,174.26 2659.58,178.28 2654.50,180.70 C2652.31,181.75 2650.38,184.23 2647.67,189.49 C2643.62,197.36 2634.10,208.54 2628.51,212.00 C2626.62,213.16 2623.01,217.23 2620.48,221.03 C2615.30,228.82 2607.07,236.55 2603.12,237.33 C2601.63,237.63 2599.48,237.20 2598.13,236.33 C2596.07,235.00 2595.82,234.20 2596.21,230.15 C2596.86,223.42 2600.58,218.30 2612.10,208.31 C2617.68,203.46 2623.48,198.15 2625.00,196.50 C2636.05,184.46 2640.54,178.84 2642.60,174.45 C2643.90,171.68 2646.32,168.40 2647.98,167.17 C2649.64,165.94 2651.00,164.47 2651.00,163.90 C2651.00,163.33 2653.91,159.14 2657.46,154.59 C2664.69,145.32 2678.48,123.19 2682.53,114.35 C2683.99,111.15 2686.72,106.84 2688.59,104.77 C2690.47,102.69 2692.00,100.51 2692.00,99.91 C2692.00,99.31 2694.26,96.29 2697.01,93.20 C2701.68,87.96 2703.98,83.15 2703.99,78.60 C2704.00,75.55 2708.12,64.84 2710.95,60.50 C2712.51,58.12 2714.50,56.37 2715.87,56.17 C2719.20,55.69 2722.16,58.78 2721.89,62.46 C2721.77,64.13 2722.00,67.80 2722.41,70.61 C2723.29,76.67 2722.09,80.06 2715.63,89.85 C2713.22,93.51 2710.91,97.62 2710.51,99.00 C2710.11,100.38 2706.00,107.84 2701.39,115.59 C2696.77,123.33 2693.00,130.03 2693.00,130.46 C2693.00,131.78 2699.07,130.17 2707.50,126.62 C2727.40,118.23 2735.68,116.33 2742.38,118.62 C2747.79,120.46 2750.41,123.12 2749.54,125.88 C2749.19,126.99 2747.06,129.61 2744.81,131.70 C2731.23,144.32 2731.69,143.73 2732.32,147.61 C2733.12,152.49 2735.43,155.76 2739.45,157.68 C2742.58,159.17 2743.40,159.13 2752.35,157.04 C2764.30,154.24 2778.22,154.45 2784.49,157.54 C2788.88,159.70 2792.44,164.32 2793.99,169.88 C2795.67,175.91 2796.33,200.64 2795.09,211.43 C2793.41,226.09 2791.80,231.51 2784.96,245.50 C2780.28,255.08 2775.65,260.28 2770.18,262.10 C2767.32,263.05 2766.21,262.87 2762.18,260.80 C2755.28,257.26 2755.42,254.95 2762.98,247.67 C2766.31,244.46 2769.76,240.41 2770.65,238.67 C2771.54,236.93 2774.17,233.45 2776.49,230.94 C2782.59,224.37 2783.40,221.06 2783.38,203.00 C2783.36,183.07 2781.84,177.81 2775.00,174.02 C2771.39,172.03 2768.92,171.49 2762.50,171.34 C2744.71,170.91 2740.09,173.01 2739.23,181.91 C2738.61,188.36 2739.61,189.28 2746.28,188.42 C2751.70,187.72 2754.00,188.95 2754.00,192.54 C2754.00,195.56 2750.82,202.87 2746.38,210.07 C2744.41,213.26 2743.11,216.37 2743.49,216.98 C2744.47,218.57 2742.12,221.01 2739.63,220.97 C2738.46,220.95 2736.63,220.28 2735.56,219.47 C2734.49,218.66 2732.82,218.00 2731.83,218.00 C2729.25,218.00 2726.84,223.37 2727.20,228.31 C2727.50,232.45 2727.55,232.50 2731.65,232.80 C2734.42,233.00 2737.84,232.25 2741.87,230.55 C2751.62,226.45 2757.48,227.24 2760.37,233.04 C2761.76,235.82 2761.73,236.45 2760.05,240.29 C2759.04,242.61 2756.01,246.98 2753.32,250.00 C2742.86,261.77 2740.37,265.71 2739.10,272.47 C2737.99,278.44 2739.16,279.30 2749.45,280.10 C2758.38,280.80 2764.10,283.45 2767.34,288.39 C2771.45,294.68 2770.17,308.04 2764.81,314.68 C2763.12,316.78 2760.89,320.36 2759.87,322.64 C2758.84,324.92 2755.28,329.31 2751.94,332.39 C2747.13,336.85 2745.21,338.00 2742.58,338.00 C2740.71,338.00 2737.69,339.08 2735.60,340.50 C2731.16,343.51 2726.61,343.73 2724.31,341.04 ZM 2743.78 314.44 C2745.01,313.58 2746.71,311.52 2747.57,309.86 L 2749.14 306.83 L 2745.82 307.11 C2741.72,307.45 2738.00,310.58 2738.00,313.67 C2738.00,316.44 2740.46,316.77 2743.78,314.44 ZM 155.85 331.48 C154.39,330.69 151.24,327.44 148.85,324.25 L 144.50 318.47 L 144.63 299.46 C144.73,284.86 145.14,279.36 146.38,275.70 C148.11,270.61 148.47,266.39 147.25,265.68 C146.84,265.44 144.02,266.07 141.00,267.07 C137.98,268.08 132.20,269.63 128.17,270.53 C119.56,272.46 115.84,271.53 113.43,266.86 C112.09,264.27 112.13,263.66 113.94,260.11 C116.39,255.31 123.71,249.11 135.35,241.94 C151.29,232.14 154.88,227.58 155.60,216.25 C155.78,213.37 156.34,210.22 156.85,209.25 C157.38,208.26 157.63,195.66 157.44,180.00 C157.10,151.82 156.84,149.74 152.51,139.59 C151.48,137.17 151.06,134.47 151.43,132.52 C152.08,129.06 157.94,122.00 160.17,122.00 C161.73,122.00 172.50,134.56 175.67,140.07 C180.65,148.74 182.00,155.19 182.00,170.38 C182.00,181.35 181.62,185.67 180.39,188.62 C179.07,191.77 178.99,193.07 179.94,195.71 C180.68,197.76 180.77,199.58 180.19,200.72 C178.42,204.17 178.00,211.62 179.46,213.61 C180.81,215.45 180.91,215.45 183.65,213.41 C186.52,211.27 189.63,204.52 191.89,195.50 C193.42,189.44 195.26,187.23 199.45,186.44 C205.50,185.31 214.01,193.33 213.99,200.14 C213.98,203.65 207.23,210.90 195.62,219.86 C180.95,231.19 175.21,238.99 176.48,245.88 C177.43,251.03 177.49,255.68 176.67,262.00 C174.56,278.33 174.60,279.37 177.49,282.80 C179.52,285.21 180.99,286.00 183.49,286.00 C186.29,286.00 186.97,285.52 187.88,282.91 C189.09,279.43 192.57,274.80 198.59,268.67 C203.88,263.27 205.81,260.03 206.57,255.30 C207.18,251.47 207.18,251.46 201.84,248.98 C198.90,247.62 196.50,246.05 196.50,245.51 C196.50,244.96 200.12,242.49 204.55,240.01 C208.98,237.53 214.89,233.85 217.69,231.83 C220.48,229.82 226.20,226.32 230.39,224.06 C234.58,221.80 240.76,218.17 244.13,216.00 C247.50,213.82 250.64,212.28 251.11,212.57 C252.39,213.36 265.88,206.33 270.82,202.29 C275.95,198.09 279.97,192.32 280.61,188.21 C281.17,184.67 277.92,181.51 269.10,177.04 C266.02,175.48 262.41,173.04 261.09,171.61 C258.82,169.18 258.75,168.78 259.97,165.08 C260.69,162.91 264.25,157.24 267.89,152.48 C271.52,147.72 275.17,142.59 276.00,141.07 C276.83,139.56 278.92,136.55 280.65,134.39 C282.39,132.22 283.96,129.56 284.15,128.48 C284.48,126.63 283.96,126.51 276.00,126.66 C268.89,126.80 265.98,127.41 258.16,130.41 C253.03,132.39 247.98,134.00 246.95,134.00 C244.37,134.00 243.00,131.02 243.00,125.43 C243.00,116.66 248.97,111.00 258.21,111.00 C264.66,111.00 278.54,107.22 284.07,103.96 C290.36,100.25 294.22,99.29 301.50,99.63 C313.96,100.20 317.60,102.35 318.98,109.91 C319.98,115.37 318.33,117.84 305.38,130.32 C293.60,141.68 289.73,147.26 289.73,152.90 C289.73,159.01 291.91,162.45 296.01,162.79 C297.93,162.96 302.88,164.16 307.00,165.46 C311.12,166.77 316.22,168.12 318.33,168.48 C321.48,169.01 322.40,169.72 323.59,172.56 C324.51,174.76 324.80,177.43 324.39,179.99 C323.48,185.65 324.94,187.00 331.99,187.00 C339.40,187.00 347.11,188.46 354.00,191.18 C366.09,195.94 367.87,199.60 361.18,205.90 C352.71,213.88 333.22,217.13 318.54,213.01 C305.79,209.43 290.54,211.03 286.08,216.40 C284.99,217.72 282.41,218.91 256.50,230.05 C234.57,239.48 228.47,242.77 224.12,247.49 C220.36,251.57 220.00,252.42 220.00,257.33 C220.00,261.66 219.47,263.40 217.25,266.27 C215.74,268.24 212.64,272.24 210.37,275.17 C207.96,278.29 205.95,282.14 205.54,284.47 C204.49,290.35 202.40,293.70 198.00,296.62 C195.83,298.05 192.94,301.14 191.57,303.47 C189.00,307.85 185.22,311.00 182.54,311.00 C180.72,311.00 180.71,311.10 182.00,314.51 C182.93,316.95 182.49,317.65 176.06,323.94 C170.75,329.13 168.06,331.00 164.62,331.87 C159.10,333.25 159.12,333.26 155.85,331.48 ZM 1741.67 327.33 C1739.21,324.88 1745.80,315.02 1760.83,298.66 C1765.96,293.07 1771.72,286.25 1773.63,283.50 C1785.43,266.48 1788.35,261.98 1790.70,257.19 C1792.13,254.25 1795.04,250.45 1797.16,248.75 C1799.27,247.06 1801.87,244.19 1802.93,242.39 C1803.99,240.60 1806.24,238.41 1807.93,237.54 C1810.15,236.39 1812.12,233.73 1815.00,228.00 C1817.20,223.62 1819.00,219.23 1819.00,218.24 C1819.00,217.24 1821.96,212.88 1825.57,208.53 C1841.27,189.65 1839.09,183.29 1816.60,182.33 C1811.15,182.10 1805.86,181.46 1804.85,180.92 C1800.06,178.35 1805.35,173.41 1813.80,172.56 C1816.94,172.24 1822.59,171.00 1826.37,169.79 C1830.15,168.59 1834.78,167.71 1836.66,167.84 C1841.16,168.14 1845.59,163.89 1846.49,158.40 C1846.84,156.26 1848.27,150.77 1849.66,146.21 C1851.37,140.65 1852.05,136.54 1851.72,133.71 C1851.28,129.79 1854.31,113.81 1855.94,111.50 C1860.02,105.69 1859.83,91.10 1855.56,82.94 C1853.78,79.53 1853.05,76.93 1853.44,75.37 C1854.90,69.57 1869.15,74.62 1874.72,82.90 C1877.61,87.20 1879.35,93.58 1878.55,96.92 C1878.21,98.34 1877.68,109.09 1877.38,120.82 L 1876.82 142.14 L 1872.91 149.04 C1870.76,152.83 1869.00,157.10 1869.00,158.52 C1869.00,162.33 1872.82,165.21 1881.38,167.85 C1889.36,170.31 1892.94,172.83 1902.58,182.76 C1908.05,188.40 1915.21,201.51 1916.88,208.96 C1917.76,212.90 1917.61,213.64 1915.31,216.66 C1912.93,219.79 1912.84,220.29 1913.98,224.25 C1916.29,232.34 1916.30,234.92 1914.00,241.21 C1911.28,248.68 1909.44,251.78 1904.12,257.82 C1901.85,260.39 1898.31,265.28 1896.25,268.68 C1894.19,272.08 1889.35,278.16 1885.50,282.18 C1881.65,286.21 1877.57,290.70 1876.42,292.16 C1875.28,293.63 1872.73,295.50 1870.75,296.33 C1868.78,297.16 1866.66,298.77 1866.05,299.92 C1865.43,301.06 1864.16,302.00 1863.21,302.01 C1862.27,302.01 1860.17,302.71 1858.53,303.56 C1856.90,304.41 1854.43,305.01 1853.03,304.90 C1849.58,304.61 1841.33,305.99 1836.60,307.65 C1833.12,308.87 1832.38,308.82 1829.60,307.21 C1825.85,305.02 1824.13,300.57 1824.06,292.82 C1823.99,286.27 1825.25,282.23 1827.64,281.31 C1828.61,280.94 1831.29,281.78 1834.05,283.33 C1844.74,289.34 1848.84,286.53 1866.25,261.25 C1868.31,258.25 1870.00,254.93 1870.00,253.87 C1870.00,251.08 1874.55,242.51 1879.05,236.81 C1884.16,230.35 1884.78,227.53 1883.87,214.81 C1883.12,204.30 1881.78,199.80 1878.15,195.67 C1875.90,193.10 1870.44,191.00 1866.03,191.00 C1861.22,191.00 1858.73,193.70 1858.41,199.27 C1858.21,202.66 1856.64,205.79 1850.50,215.00 C1843.44,225.61 1838.00,235.63 1838.00,238.06 C1838.00,238.61 1835.86,241.21 1833.25,243.84 C1830.64,246.47 1824.00,253.56 1818.50,259.60 C1813.00,265.63 1806.31,272.35 1803.63,274.53 C1800.95,276.71 1797.35,279.78 1795.63,281.35 C1793.91,282.92 1791.32,284.81 1789.88,285.56 C1788.44,286.30 1785.78,289.30 1783.96,292.21 C1779.62,299.16 1774.34,304.73 1769.96,307.00 C1768.01,308.01 1762.33,313.14 1757.34,318.42 C1749.84,326.33 1747.75,328.00 1745.30,328.00 C1743.67,328.00 1742.03,327.70 1741.67,327.33 ZM 1421.13 313.50 C1416.78,309.57 1411.55,301.45 1411.73,298.93 C1411.85,297.29 1406.93,290.73 1393.70,274.86 C1389.40,269.71 1385.01,264.45 1383.94,263.16 C1379.93,258.35 1382.93,257.95 1396.56,261.49 C1407.21,264.26 1410.97,264.76 1412.78,263.64 C1414.35,262.66 1430.05,274.00 1433.88,278.88 C1437.30,283.24 1440.12,288.55 1439.39,289.27 C1439.10,289.56 1438.27,292.21 1437.53,295.15 C1436.16,300.68 1433.42,308.27 1430.92,313.50 C1428.85,317.82 1425.91,317.82 1421.13,313.50 ZM 2093.22 314.72 C2084.05,310.86 2078.00,304.40 2078.00,298.48 C2078.00,296.37 2082.82,292.00 2085.17,292.00 C2086.86,292.00 2090.49,294.07 2096.76,298.62 C2102.37,302.69 2126.84,298.24 2128.55,292.84 C2128.85,291.90 2131.53,289.51 2134.51,287.54 C2140.30,283.69 2143.00,280.61 2143.00,277.84 C2143.00,276.89 2145.25,273.55 2148.00,270.40 C2151.97,265.87 2153.01,263.95 2153.04,261.09 C2153.07,259.12 2153.74,255.70 2154.53,253.50 C2155.32,251.30 2155.98,248.47 2155.98,247.20 C2155.99,245.94 2156.62,243.69 2157.39,242.20 C2158.15,240.72 2159.33,235.37 2160.02,230.31 C2161.12,222.22 2161.07,220.64 2159.63,217.04 C2158.46,214.10 2158.00,209.77 2158.00,201.56 C2158.00,192.51 2157.60,189.24 2156.06,185.65 C2153.29,179.18 2150.44,177.67 2140.47,177.39 C2135.90,177.26 2131.26,176.67 2130.15,176.08 C2126.82,174.30 2125.28,174.83 2124.65,177.99 C2124.25,180.01 2120.30,184.84 2112.46,192.92 C2106.08,199.49 2099.88,206.80 2098.68,209.18 C2097.07,212.38 2095.83,213.58 2093.90,213.80 C2092.06,214.02 2087.54,218.05 2078.40,227.64 C2071.31,235.09 2064.94,242.23 2064.26,243.51 C2063.58,244.78 2059.89,247.91 2056.06,250.46 C2049.00,255.15 2044.69,259.74 2041.53,265.91 C2040.57,267.79 2038.68,270.49 2037.33,271.91 C2035.97,273.34 2034.24,275.67 2033.48,277.11 C2032.72,278.54 2030.69,280.30 2028.98,281.01 C2026.17,282.17 2025.65,282.09 2023.74,280.19 C2021.77,278.21 2021.74,277.95 2023.27,276.25 C2024.18,275.25 2026.54,271.19 2028.53,267.22 C2031.28,261.72 2033.81,258.52 2039.16,253.75 C2043.21,250.15 2047.14,245.59 2048.43,243.00 C2049.66,240.52 2053.54,233.32 2057.04,227.00 C2060.54,220.68 2067.13,208.30 2071.69,199.50 C2076.24,190.70 2080.96,181.59 2082.18,179.25 L 2084.40 175.01 L 2082.37 172.30 C2081.08,170.56 2077.49,168.46 2072.42,166.47 C2060.94,161.95 2057.04,159.74 2051.09,154.39 C2042.39,146.57 2039.07,139.85 2042.49,137.01 C2044.68,135.19 2048.30,136.50 2053.50,141.00 C2059.29,146.01 2061.44,146.54 2068.05,144.58 C2070.97,143.71 2076.15,143.00 2079.56,143.00 C2082.97,143.00 2087.27,142.36 2089.13,141.57 C2094.02,139.50 2103.52,130.63 2104.95,126.79 C2105.62,124.98 2106.83,122.28 2107.63,120.78 C2109.88,116.55 2111.98,108.88 2111.99,104.80 C2112.00,100.76 2109.92,91.98 2107.37,85.31 C2103.71,75.72 2109.01,75.74 2129.00,85.37 C2131.36,86.51 2133.60,89.89 2134.54,93.76 C2137.28,104.98 2138.35,107.96 2141.27,112.37 C2147.32,121.49 2147.24,121.15 2145.01,129.19 C2143.91,133.19 2143.00,137.66 2143.00,139.13 C2143.00,142.51 2148.98,148.00 2152.67,148.00 C2154.10,148.00 2156.77,148.93 2158.61,150.07 C2160.47,151.22 2164.54,152.39 2167.73,152.70 C2174.24,153.34 2178.66,155.46 2179.72,158.47 C2180.53,160.72 2180.52,160.57 2181.68,201.92 C2182.70,238.49 2181.90,246.52 2175.78,261.33 C2171.50,271.70 2161.45,290.20 2159.75,290.87 C2159.23,291.07 2156.58,293.20 2153.87,295.62 C2151.15,298.03 2148.39,300.00 2147.72,300.01 C2146.40,300.02 2141.98,304.18 2136.57,310.50 C2133.22,314.42 2133.00,314.51 2124.83,315.16 C2100.57,317.10 2098.80,317.07 2093.22,314.72 ZM 2369.74 314.26 C2366.08,313.98 2364.61,313.34 2363.43,311.53 C2361.99,309.33 2362.11,308.71 2365.44,301.70 C2367.39,297.59 2369.61,293.98 2370.38,293.68 C2371.38,293.30 2371.64,291.92 2371.32,288.83 C2370.93,285.09 2371.58,283.13 2376.06,274.50 C2378.91,269.00 2382.24,263.32 2383.45,261.88 C2384.66,260.44 2386.26,257.74 2387.01,255.88 C2387.75,254.02 2390.78,248.84 2393.73,244.37 C2399.31,235.90 2401.26,229.90 2398.90,228.44 C2396.42,226.90 2388.17,227.74 2383.50,230.00 C2379.43,231.97 2367.03,244.57 2366.99,246.78 C2366.98,247.17 2363.57,251.05 2359.40,255.40 C2351.42,263.72 2345.00,272.29 2345.00,274.61 C2345.00,276.52 2338.26,283.82 2334.87,285.56 C2331.07,287.53 2326.64,287.36 2324.66,285.17 C2322.83,283.15 2322.48,280.44 2323.94,279.54 C2324.45,279.22 2325.82,276.38 2326.99,273.23 C2328.24,269.86 2330.53,266.18 2332.56,264.30 C2334.45,262.54 2336.00,260.67 2336.00,260.14 C2336.00,259.61 2337.80,256.90 2340.00,254.12 C2342.20,251.34 2344.00,248.88 2344.00,248.66 C2344.00,247.94 2366.72,225.57 2371.40,221.68 C2373.93,219.58 2376.00,217.09 2376.00,216.16 C2376.00,215.22 2377.62,213.58 2379.61,212.51 C2381.60,211.44 2384.78,208.66 2386.69,206.34 C2388.59,204.02 2392.35,200.70 2395.03,198.98 C2399.54,196.09 2402.00,192.67 2400.60,191.26 C2400.02,190.69 2388.45,193.75 2386.50,194.99 C2385.95,195.34 2382.12,196.92 2378.00,198.50 C2368.30,202.20 2361.79,206.05 2360.36,208.92 C2359.73,210.18 2358.32,211.73 2357.23,212.36 C2346.78,218.39 2338.81,223.34 2335.39,225.92 C2328.80,230.89 2319.99,233.31 2310.50,232.75 C2305.59,232.46 2300.76,231.50 2298.00,230.27 C2289.28,226.40 2279.00,214.99 2279.00,209.19 C2279.00,207.29 2283.20,202.00 2284.71,202.00 C2285.15,202.00 2287.74,203.18 2290.45,204.63 C2295.23,207.17 2295.76,207.23 2307.94,206.68 C2320.98,206.08 2329.71,204.25 2334.00,201.23 C2337.24,198.95 2340.55,197.42 2345.50,195.94 C2347.70,195.27 2351.44,193.44 2353.80,191.87 C2356.17,190.29 2358.47,189.00 2358.92,189.00 C2359.38,189.00 2364.64,187.39 2370.62,185.43 C2376.61,183.46 2383.98,181.41 2387.00,180.87 C2396.15,179.24 2395.64,179.74 2395.19,172.61 C2394.84,167.11 2395.14,165.62 2397.39,161.78 C2400.00,157.32 2400.70,152.66 2399.13,150.18 C2398.45,149.10 2397.20,149.09 2392.21,150.12 C2380.61,152.51 2367.00,148.61 2367.00,142.89 C2367.00,138.65 2378.94,131.93 2389.25,130.38 C2397.83,129.09 2402.79,120.41 2403.09,106.15 C2403.23,99.55 2402.89,97.56 2401.13,94.71 C2399.96,92.81 2399.00,90.37 2399.00,89.27 C2399.00,87.97 2397.10,86.02 2393.50,83.63 C2387.34,79.54 2386.52,77.01 2390.51,74.40 C2392.52,73.09 2394.88,72.84 2402.49,73.18 C2413.31,73.65 2415.02,74.50 2421.34,82.59 C2428.48,91.72 2429.72,96.01 2427.51,104.00 C2425.61,110.91 2425.39,110.50 2432.03,112.35 C2436.00,113.45 2439.30,115.15 2441.22,117.06 C2443.85,119.69 2444.13,120.51 2443.52,123.76 C2442.44,129.50 2438.16,134.92 2430.32,140.47 C2420.00,147.77 2418.59,149.89 2418.15,158.71 L 2417.78 166.00 L 2423.64 166.04 C2426.86,166.07 2431.12,166.67 2433.10,167.37 C2437.85,169.07 2440.46,167.97 2442.88,163.23 C2443.97,161.11 2445.57,158.77 2446.44,158.05 C2447.31,157.33 2449.43,153.78 2451.16,150.17 C2452.88,146.56 2456.19,141.55 2458.51,139.05 C2460.82,136.55 2463.31,133.38 2464.02,132.00 C2464.74,130.62 2466.64,127.86 2468.24,125.86 C2469.84,123.86 2473.53,118.24 2476.44,113.37 C2480.98,105.77 2482.78,103.76 2489.11,99.25 C2501.16,90.67 2502.35,90.01 2505.80,90.00 C2509.72,90.00 2514.00,93.76 2514.00,97.21 C2514.00,99.84 2510.18,107.40 2505.81,113.41 C2502.14,118.46 2500.44,122.40 2499.49,128.10 C2499.09,130.52 2497.91,133.69 2496.88,135.15 C2495.85,136.61 2495.00,138.88 2495.00,140.19 C2495.00,142.95 2492.58,149.98 2487.51,162.00 C2484.10,170.07 2482.94,176.48 2484.45,178.92 C2484.83,179.53 2486.73,180.70 2488.68,181.51 C2490.63,182.33 2493.77,184.34 2495.65,186.00 C2497.72,187.82 2500.18,189.00 2501.89,189.00 C2505.56,189.00 2510.00,193.11 2510.00,196.50 C2510.00,197.93 2510.66,200.38 2511.47,201.95 C2514.04,206.91 2512.78,214.30 2508.04,222.00 C2507.53,222.82 2506.87,224.69 2506.57,226.15 C2506.26,227.60 2503.37,232.33 2500.15,236.65 C2492.37,247.05 2492.09,248.45 2496.84,252.95 C2498.90,254.90 2502.37,257.12 2504.55,257.88 C2506.72,258.64 2510.44,260.55 2512.80,262.13 C2515.17,263.71 2517.75,265.00 2518.55,265.00 C2519.34,265.00 2521.67,266.58 2523.71,268.50 C2525.75,270.42 2527.89,272.00 2528.46,272.01 C2531.46,272.02 2537.53,274.44 2539.49,276.40 C2541.59,278.50 2550.40,281.90 2557.85,283.49 C2562.19,284.41 2568.50,290.73 2569.35,295.00 C2570.38,300.15 2567.51,304.90 2561.01,308.77 C2553.78,313.07 2550.27,314.04 2539.50,314.68 L 2530.50 315.22 L 2525.46 311.74 C2518.54,306.95 2512.53,304.00 2509.73,304.00 C2506.61,304.00 2504.42,302.28 2501.18,297.29 C2491.95,283.06 2486.49,275.82 2481.18,270.75 C2477.86,267.59 2474.68,265.00 2474.11,265.00 C2473.54,265.00 2471.59,266.47 2469.78,268.27 C2462.21,275.82 2455.31,279.31 2448.02,279.30 C2441.45,279.30 2438.24,277.15 2439.58,273.65 C2440.29,271.80 2445.31,268.21 2452.48,264.43 C2459.19,260.88 2463.39,255.87 2462.40,252.58 C2462.06,251.44 2459.95,248.90 2457.72,246.94 L 2453.66 243.38 L 2456.74 241.19 C2458.43,239.98 2460.50,239.00 2461.35,239.00 C2462.19,239.00 2463.19,238.51 2463.56,237.90 C2464.32,236.67 2468.24,237.06 2475.16,239.03 L 2479.81 240.36 L 2485.16 234.52 C2492.22,226.80 2497.63,213.68 2496.50,207.00 C2495.42,200.61 2494.21,199.74 2485.39,199.05 C2476.90,198.38 2471.64,196.37 2467.88,192.37 C2464.46,188.73 2463.87,176.08 2466.83,169.82 C2467.95,167.44 2469.66,162.80 2470.64,159.50 C2471.61,156.20 2472.99,152.38 2473.70,151.00 C2474.41,149.62 2474.99,147.95 2474.99,147.28 C2475.00,146.61 2476.12,142.62 2477.50,138.40 C2480.48,129.26 2480.57,128.00 2478.17,128.00 C2475.83,128.00 2472.82,131.31 2469.98,137.00 C2468.74,139.48 2466.64,142.80 2465.31,144.39 C2463.98,145.98 2461.78,149.47 2460.43,152.14 C2459.07,154.81 2457.58,157.00 2457.10,157.00 C2456.63,157.00 2455.65,158.46 2454.93,160.25 C2454.21,162.04 2451.26,166.88 2448.39,171.01 C2445.52,175.14 2440.31,184.37 2436.81,191.51 C2433.31,198.66 2428.64,206.98 2426.43,210.00 C2422.04,216.00 2414.98,232.84 2414.99,237.28 C2415.00,238.80 2414.11,243.53 2413.01,247.78 C2411.85,252.29 2410.84,260.27 2410.57,267.00 C2410.03,280.53 2407.92,288.27 2402.54,296.37 C2398.78,302.04 2391.53,308.15 2387.00,309.48 C2385.62,309.88 2382.53,311.29 2380.12,312.60 C2377.72,313.92 2375.47,314.92 2375.12,314.82 C2374.78,314.72 2372.36,314.47 2369.74,314.26 ZM 2391.42 290.51 C2393.72,288.22 2395.09,285.75 2395.46,283.26 C2395.77,281.19 2396.53,277.48 2397.15,275.00 C2399.17,266.91 2399.27,265.32 2397.74,264.73 C2395.18,263.75 2391.60,266.39 2390.53,270.04 C2389.96,271.97 2388.57,274.89 2387.43,276.53 C2382.14,284.12 2380.72,290.31 2383.75,292.61 C2386.42,294.63 2387.63,294.30 2391.42,290.51 ZM 2411.75 216.54 C2415.33,213.32 2418.04,209.43 2421.48,202.59 C2426.01,193.58 2426.68,189.95 2423.78,190.04 C2423.08,190.06 2421.60,191.97 2420.50,194.29 C2419.10,197.22 2415.69,200.77 2409.21,206.00 C2395.45,217.12 2393.67,221.00 2402.36,221.00 C2406.19,221.00 2407.45,220.40 2411.75,216.54 ZM 290.64 301.74 C289.27,300.36 287.65,297.27 287.04,294.86 C286.44,292.46 285.27,288.98 284.43,287.13 C282.94,283.80 282.89,283.79 280.84,285.63 C279.70,286.66 277.26,289.84 275.42,292.71 C271.24,299.23 265.51,302.50 259.85,301.59 C252.86,300.47 244.72,296.78 240.33,292.74 C234.58,287.44 234.49,283.86 239.88,274.94 C244.68,267.01 247.47,264.85 253.74,264.25 C257.65,263.88 259.67,264.31 263.78,266.39 C270.02,269.55 273.17,269.64 281.28,266.89 C286.05,265.27 288.92,264.91 293.60,265.34 C296.96,265.65 300.11,265.53 300.60,265.07 C301.10,264.62 303.67,263.06 306.32,261.60 C310.75,259.17 311.47,259.06 315.20,260.18 C317.44,260.85 320.33,262.54 321.62,263.95 C322.92,265.35 325.79,268.45 327.99,270.83 C334.55,277.92 333.07,283.43 322.75,290.30 C319.86,292.23 316.38,295.01 315.00,296.50 C311.34,300.45 306.15,302.77 299.25,303.55 C293.61,304.19 292.96,304.05 290.64,301.74 ZM 1279.50 289.83 C1278.40,289.22 1274.12,285.47 1270.00,281.50 C1259.42,271.32 1247.33,264.07 1240.83,264.01 C1239.91,264.01 1237.88,262.93 1236.33,261.63 C1234.77,260.33 1232.03,258.94 1230.24,258.55 C1226.36,257.70 1221.41,255.37 1218.12,252.83 C1216.75,251.79 1214.08,251.00 1211.88,251.00 C1207.97,251.00 1193.34,247.42 1191.50,246.01 C1190.45,245.21 1178.72,241.81 1163.59,237.92 C1153.40,235.30 1148.80,232.25 1150.62,229.31 C1151.48,227.92 1152.86,227.54 1156.62,227.67 C1159.30,227.76 1163.75,227.91 1166.50,227.99 C1169.25,228.08 1172.48,227.78 1173.68,227.32 C1174.87,226.87 1180.50,226.81 1186.18,227.19 C1191.85,227.57 1199.49,228.04 1203.14,228.23 C1206.79,228.42 1210.45,229.13 1211.27,229.81 C1212.09,230.49 1216.75,231.54 1221.63,232.16 C1226.51,232.77 1231.13,233.77 1231.89,234.37 C1232.66,234.98 1236.03,235.76 1239.39,236.10 C1252.03,237.39 1281.66,246.03 1283.47,248.95 C1283.73,249.38 1286.05,250.31 1288.61,251.03 C1294.19,252.59 1298.51,256.67 1302.25,263.88 C1305.51,270.17 1305.73,274.25 1303.00,277.73 C1301.90,279.13 1301.00,280.90 1301.00,281.67 C1301.00,283.98 1297.89,288.01 1294.90,289.55 C1291.61,291.25 1282.37,291.42 1279.50,289.83 ZM 776.50 277.29 C775.40,277.02 774.07,276.40 773.55,275.90 C773.03,275.41 771.34,275.00 769.81,275.00 C767.84,275.00 765.67,273.68 762.52,270.57 C760.05,268.14 757.21,265.89 756.22,265.57 C755.22,265.25 752.66,262.63 750.52,259.75 C748.38,256.86 745.27,253.04 743.62,251.25 C738.61,245.84 741.84,244.68 766.50,243.02 C785.92,241.70 791.06,241.02 794.36,239.32 C795.97,238.48 798.27,238.10 799.64,238.45 C800.98,238.78 804.42,238.35 807.29,237.49 C812.26,235.99 826.48,233.00 835.90,231.48 C844.85,230.04 852.93,225.00 857.98,217.71 C860.19,214.52 862.00,211.53 862.00,211.06 C862.00,210.60 868.46,204.10 876.36,196.62 C888.27,185.34 891.26,181.92 893.92,176.52 C896.17,171.95 897.03,168.91 896.81,166.33 C896.36,160.96 893.81,160.42 876.54,162.00 C865.72,162.99 860.94,163.02 855.90,162.14 C852.29,161.51 846.22,160.99 842.42,160.99 C832.79,160.97 830.98,160.35 831.07,157.13 C831.18,152.95 832.12,151.53 838.68,145.70 C843.40,141.49 845.86,140.04 849.18,139.52 C851.55,139.15 856.30,137.92 859.71,136.80 C863.13,135.68 866.60,135.02 867.44,135.34 C868.27,135.66 870.62,135.22 872.66,134.37 C874.69,133.52 877.61,133.07 879.13,133.38 C880.69,133.69 884.37,133.08 887.60,131.96 C890.74,130.88 894.72,130.00 896.43,130.00 C899.76,130.00 912.00,135.84 919.54,141.03 C924.65,144.54 926.02,147.17 925.96,153.32 C925.91,158.04 921.91,168.22 919.85,168.84 C917.53,169.55 913.94,173.33 912.30,176.79 C910.57,180.42 903.16,187.07 883.21,202.85 C870.83,212.65 866.01,217.77 864.57,222.64 C864.05,224.39 864.51,224.98 867.12,225.89 C871.07,227.27 878.51,227.33 880.99,226.01 C883.55,224.64 897.94,224.05 900.99,225.20 C903.15,226.01 903.84,225.68 906.28,222.63 C909.87,218.15 915.15,216.23 918.29,218.25 C919.50,219.03 923.39,220.24 926.93,220.92 C930.46,221.61 936.39,223.27 940.11,224.61 C943.83,225.95 947.23,226.96 947.68,226.86 C948.69,226.63 953.60,227.82 957.15,229.16 C963.33,231.49 966.74,239.36 963.89,244.73 C961.15,249.90 938.84,257.43 931.64,255.62 C930.39,255.31 925.04,254.81 919.75,254.50 C914.46,254.20 908.54,253.29 906.60,252.48 C901.61,250.39 893.74,250.64 876.80,253.43 C857.29,256.64 846.60,259.40 835.06,264.21 C829.80,266.41 823.47,268.61 821.00,269.11 C818.53,269.60 814.80,270.68 812.73,271.50 C810.66,272.33 806.11,273.00 802.63,273.00 C797.80,273.00 795.18,273.59 791.60,275.50 C787.09,277.90 781.69,278.54 776.50,277.29 ZM 1693.50 271.42 C1691.85,270.56 1689.83,269.26 1689.00,268.52 C1688.18,267.79 1685.66,266.70 1683.40,266.10 C1678.17,264.70 1671.51,259.89 1669.54,256.07 C1667.54,252.22 1667.52,246.40 1669.50,245.64 C1670.32,245.32 1673.58,245.54 1676.74,246.13 C1683.12,247.31 1690.27,246.69 1694.63,244.58 C1696.21,243.82 1699.75,242.22 1702.50,241.04 C1705.25,239.86 1708.48,238.41 1709.67,237.82 C1710.87,237.23 1713.07,237.05 1714.56,237.43 C1716.88,238.01 1719.49,236.61 1732.39,227.89 C1753.95,213.32 1756.00,211.53 1756.00,207.30 C1756.00,205.39 1757.09,200.61 1758.41,196.67 C1760.08,191.71 1761.03,186.02 1761.50,178.21 C1762.21,166.26 1761.64,164.00 1757.88,164.00 C1756.43,164.00 1756.00,164.74 1756.00,167.25 C1755.99,172.00 1750.80,177.20 1743.43,179.85 C1733.18,183.53 1732.47,184.09 1732.82,188.19 C1733.25,193.14 1727.42,204.39 1720.61,211.75 C1717.80,214.79 1717.18,215.00 1710.94,215.00 C1705.59,215.00 1703.70,214.56 1701.38,212.78 C1697.66,209.92 1697.03,208.99 1697.02,206.21 C1697.01,204.96 1696.27,202.82 1695.39,201.46 C1693.95,199.28 1693.94,198.75 1695.24,196.75 C1696.30,195.13 1696.44,193.90 1695.74,192.34 C1695.13,190.96 1695.12,186.23 1695.72,179.24 C1696.47,170.52 1697.11,167.65 1698.88,165.16 C1700.75,162.54 1700.95,161.49 1700.16,158.62 C1699.49,156.18 1699.63,153.52 1700.67,149.35 C1701.47,146.13 1703.20,138.77 1704.52,133.00 C1705.83,127.22 1707.85,120.70 1709.00,118.50 C1710.79,115.09 1711.00,113.49 1710.44,107.68 C1709.84,101.47 1709.99,100.64 1712.07,98.43 C1715.08,95.22 1715.88,95.34 1720.35,99.68 C1726.78,105.93 1727.43,108.00 1727.13,121.19 C1726.85,133.39 1727.49,136.12 1731.08,138.04 C1732.61,138.86 1734.32,138.72 1738.11,137.46 C1741.43,136.36 1744.53,136.02 1747.31,136.44 C1749.61,136.79 1753.07,137.17 1755.00,137.29 L 1758.50 137.50 L 1758.29 129.37 C1758.07,121.27 1755.11,108.04 1752.91,105.39 C1752.28,104.63 1751.24,104.00 1750.61,104.00 C1748.49,104.00 1742.00,97.88 1742.00,95.88 C1742.00,94.80 1743.17,92.74 1744.59,91.32 C1747.05,88.86 1747.59,88.75 1754.92,89.26 C1759.83,89.59 1764.12,90.53 1766.65,91.82 C1772.07,94.58 1778.00,101.30 1778.00,104.67 C1778.00,106.14 1778.73,108.15 1779.63,109.14 C1780.94,110.59 1781.35,113.88 1781.68,125.72 C1781.91,133.85 1782.47,143.88 1782.92,148.00 C1783.76,155.69 1782.67,192.32 1781.45,197.25 C1780.92,199.38 1781.12,200.00 1782.35,200.00 C1783.22,200.00 1784.41,200.90 1785.00,202.00 C1785.92,203.73 1785.21,204.94 1779.79,210.82 C1776.33,214.57 1769.48,222.02 1764.57,227.38 C1754.89,237.95 1752.44,239.84 1750.69,238.09 C1750.09,237.49 1749.03,237.00 1748.33,237.00 C1746.83,237.00 1735.67,246.73 1721.79,260.15 C1712.52,269.11 1711.35,269.92 1705.45,271.40 C1697.64,273.36 1697.22,273.37 1693.50,271.42 ZM 1737.63 162.00 C1740.09,153.75 1738.94,147.00 1735.07,147.00 C1732.37,147.00 1731.92,149.15 1732.65,158.63 C1733.17,165.37 1733.61,167.03 1734.79,166.79 C1735.61,166.63 1736.89,164.48 1737.63,162.00 ZM 1080.63 268.93 C1076.56,265.72 1077.10,262.08 1082.40,257.20 C1084.82,254.97 1088.67,252.19 1090.95,251.03 C1096.75,248.07 1102.46,242.65 1105.01,237.70 C1106.20,235.39 1108.64,231.93 1110.43,230.00 C1114.28,225.86 1128.34,206.17 1130.68,201.65 C1131.57,199.92 1133.96,196.25 1135.98,193.50 C1138.00,190.75 1141.05,185.52 1142.76,181.88 C1144.47,178.24 1148.32,171.49 1151.31,166.88 C1157.44,157.45 1161.87,148.90 1164.46,141.50 C1165.42,138.75 1166.59,135.60 1167.05,134.50 C1167.51,133.40 1168.81,128.68 1169.95,124.00 C1172.76,112.42 1177.13,106.70 1180.55,110.12 C1181.83,111.40 1182.15,114.14 1182.17,124.11 C1182.21,137.11 1181.14,143.28 1176.80,155.07 C1174.59,161.10 1166.16,175.17 1163.94,176.54 C1163.42,176.86 1163.00,178.03 1163.00,179.15 C1163.00,181.45 1157.26,192.26 1152.46,199.00 C1150.70,201.48 1148.56,204.85 1147.72,206.50 C1146.87,208.15 1143.62,212.43 1140.50,216.00 C1137.38,219.57 1133.95,224.20 1132.88,226.27 C1131.01,229.90 1122.52,239.59 1106.39,256.50 C1102.20,260.90 1098.03,265.34 1097.13,266.37 C1093.10,271.01 1084.89,272.28 1080.63,268.93 ZM 2672.00 268.34 C2666.24,266.04 2664.01,260.42 2663.98,248.13 C2663.96,242.83 2663.47,236.48 2662.88,234.00 C2662.29,231.52 2661.70,226.57 2661.56,223.00 C2661.42,219.43 2660.95,213.26 2660.51,209.29 C2659.51,200.18 2661.05,194.25 2665.92,188.51 C2667.89,186.18 2670.00,183.43 2670.60,182.40 C2672.36,179.40 2674.62,182.16 2675.33,188.16 C2675.67,190.99 2677.03,196.27 2678.35,199.90 C2679.68,203.53 2683.06,213.48 2685.86,222.00 L 2690.96 237.50 L 2689.98 246.78 C2688.96,256.56 2686.93,261.88 2682.74,265.79 C2680.25,268.11 2674.73,269.42 2672.00,268.34 ZM 2849.34 187.45 C2849.02,186.60 2846.63,184.83 2844.05,183.52 C2841.46,182.21 2838.04,179.44 2836.46,177.35 C2832.84,172.61 2814.60,154.89 2811.79,153.39 C2810.64,152.77 2808.30,150.44 2806.60,148.21 C2803.50,144.15 2787.90,131.00 2786.19,131.00 C2785.69,131.00 2781.66,127.20 2777.23,122.57 C2772.39,117.48 2767.19,113.12 2764.15,111.58 C2761.38,110.17 2757.66,107.22 2755.89,105.01 C2754.12,102.81 2752.25,101.00 2751.75,101.00 C2749.72,101.00 2735.00,93.60 2735.02,92.59 C2735.06,89.39 2736.78,88.72 2743.15,89.40 C2754.22,90.59 2770.74,97.37 2774.96,102.45 C2775.67,103.30 2777.23,104.00 2778.43,104.00 C2781.22,104.00 2783.74,105.95 2784.17,108.45 C2784.36,109.57 2786.50,111.47 2789.16,112.88 C2791.71,114.24 2796.66,117.75 2800.15,120.68 C2809.77,128.75 2826.60,139.87 2835.00,143.70 C2839.12,145.58 2844.55,148.17 2847.06,149.47 C2849.57,150.76 2853.74,152.14 2856.32,152.53 C2858.91,152.91 2861.27,153.63 2861.57,154.12 C2861.87,154.60 2862.89,155.00 2863.84,155.00 C2866.71,155.00 2879.32,161.53 2882.35,164.60 C2885.74,168.02 2889.00,174.10 2889.00,177.01 C2889.00,178.15 2887.90,180.20 2886.55,181.55 C2883.65,184.44 2877.58,184.87 2873.01,182.50 C2869.33,180.60 2866.04,181.74 2863.05,185.93 C2861.07,188.72 2860.36,189.00 2855.40,189.00 C2851.39,189.00 2849.78,188.59 2849.34,187.45 ZM 269.75 85.03 C268.24,83.83 267.00,81.86 267.00,80.65 C267.00,77.07 279.40,61.35 284.13,58.94 C288.78,56.56 293.94,56.83 299.91,59.74 C302.94,61.23 303.55,62.08 303.81,65.20 C304.09,68.58 303.76,69.13 300.03,71.48 C297.26,73.23 295.75,74.99 295.36,76.94 C295.05,78.52 293.28,81.28 291.43,83.07 C288.34,86.06 287.43,86.36 280.28,86.77 C273.41,87.16 272.18,86.96 269.75,85.03 ZM 569.60 82.50 C567.01,81.12 563.68,80.00 562.20,80.00 C555.17,80.00 537.35,67.25 535.73,61.08 C535.09,58.63 538.91,50.83 542.73,46.80 C544.13,45.31 546.88,43.34 548.82,42.42 C555.40,39.29 571.77,42.42 578.85,48.16 C581.48,50.28 583.30,52.73 590.68,64.05 L 592.99 67.59 L 589.38 74.83 C584.12,85.38 578.85,87.42 569.60,82.50 Z" fill="#481060"/>
</g>
</svg>
