<svg fill="none" viewBox="0 0 300 300"
    xmlns="http://www.w3.org/2000/svg">
    <path fill="#EE2722"
        d="M 201.624 102.102 L 197.783 121.221 L 171.964 121.249 L 169.576 133.323 L 195.351 133.323 L 182.474 197.415 L 195.973 197.415 L 208.848 133.323 L 233.769 133.334 L 236.164 121.251 L 211.282 121.211 L 215.121 102.102 L 201.624 102.102 Z"
        style=""></path>
    <path fill="#462162"
        d="M 239.58 121.221 L 236.702 135.358 C 236.702 135.358 238.378 133.693 242.606 133.441 L 271.297 133.322 L 273.73 121.213 L 239.58 121.221 Z M 259.858 160.448 C 255.618 155.88 248.719 152.672 246.348 151.545 C 245.354 151.075 238.286 147.467 236.375 146.72 C 233.707 145.676 232.948 143.403 232.791 141.619 C 232.634 139.836 233.563 138.103 234.007 137.431 C 234.165 137.191 234.371 136.989 234.57 136.828 L 212.485 136.828 C 212.485 136.828 211.888 138.591 211.588 141.989 C 211.382 150.258 217.795 154.225 217.795 154.225 L 238.448 166.374 C 238.448 166.374 245.926 170.094 245.444 176.385 C 244.878 183.728 233.684 182.796 233.684 182.796 L 203.516 182.796 L 200.616 197.415 L 237.497 197.415 C 246.604 197.415 252.474 195.538 256.667 192.06 C 262.472 187.244 264.538 181.139 264.78 174.866 C 265.108 166.329 261.809 162.55 259.858 160.448 Z M 167.848 136.828 L 183.933 136.828 L 154.072 197.415 L 142.065 197.415 L 135.15 148.15 L 110.869 197.415 L 100.618 197.415 L 91.47 133.411 L 71.189 133.323 C 71.189 133.323 66.969 133.158 63.896 134.183 C 61.485 134.987 58.999 135.846 56.48 137.339 C 53.107 139.337 50.216 141.6 46.319 146.393 C 43.197 150.234 40.665 155.981 39.969 161.258 C 39.189 167.192 42.156 173.527 45.536 177.629 C 48.389 181.089 53.305 182.806 57.24 183.442 C 63.118 184.392 69.649 183.9 74.271 182.595 C 83.237 180.063 90.705 175.622 90.705 175.622 L 87.83 191.621 C 87.83 191.621 78.913 197.276 61.848 197.868 C 44.784 198.46 35.656 190.347 31.227 183.676 C 26.798 177.005 25.154 165.684 27.044 156.845 C 28.331 150.835 30.696 145.596 33.912 141.039 C 35.758 138.422 37.884 136.03 40.249 133.844 C 43.216 131.099 47.286 127.828 51.155 125.825 C 55.732 123.455 61.561 121.222 68.24 121.222 L 104.756 121.269 L 111.466 168.21 L 134.625 121.222 L 146.337 121.213 L 152.903 167.153 L 167.849 136.828 L 167.848 136.828 Z"
        style=""></path>
</svg>