<?xml version="1.0" standalone="no"?>
<!DOCTYPE svg PUBLIC "-//W3C//DTD SVG 20010904//EN"
 "http://www.w3.org/TR/2001/REC-SVG-20010904/DTD/svg10.dtd">
<svg version="1.0" xmlns="http://www.w3.org/2000/svg"
 width="700.000000pt" height="700.000000pt" viewBox="0 0 700.000000 700.000000"
 preserveAspectRatio="xMidYMid meet">
<metadata>
Created by potrace 1.14, written by Peter Selinger 2001-2017
</metadata>
<g transform="translate(0.000000,700.000000) scale(0.100000,-0.100000)"
fill="#000000" stroke="none">
<path d="M4702 4597 c-4 -12 -24 -112 -47 -222 l-40 -200 -302 -3 c-167 -1
-303 -6 -303 -10 0 -4 -9 -52 -20 -107 -12 -55 -23 -115 -26 -132 l-5 -33 301
0 c282 0 301 -1 296 -17 -6 -19 -32 -147 -41 -200 -3 -18 -12 -61 -20 -96 -8
-34 -17 -80 -20 -102 -4 -22 -8 -48 -11 -57 -3 -9 -7 -27 -9 -40 -3 -13 -12
-57 -20 -98 -21 -104 -24 -121 -31 -155 -3 -16 -21 -108 -40 -204 -20 -96 -38
-184 -40 -195 -2 -12 -11 -56 -20 -99 -8 -42 -18 -90 -20 -105 -3 -15 -9 -45
-14 -67 -5 -22 -10 -45 -10 -51 0 -8 47 -11 155 -11 132 0 155 3 159 16 8 25
26 107 32 147 3 20 7 44 9 53 32 157 239 1182 247 1224 l10 57 292 0 292 0 22
118 c12 64 25 127 28 140 l6 22 -292 0 -292 0 6 28 c9 40 12 56 36 177 12 61
24 119 27 130 27 120 39 110 -136 112 -149 1 -153 1 -159 -20z"/>
<path d="M1415 4149 c-266 -65 -548 -288 -685 -541 -72 -135 -110 -275 -115
-425 -5 -188 38 -356 125 -483 42 -62 154 -170 204 -197 129 -69 181 -87 298
-107 125 -21 384 -8 513 26 22 5 47 11 55 13 61 12 225 79 236 97 7 11 64 322
64 349 0 16 -7 15 -62 -15 -71 -38 -216 -96 -298 -120 -101 -29 -154 -35 -290
-32 -216 5 -336 55 -423 178 -123 174 -136 350 -42 547 47 97 87 154 163 229
95 94 230 174 356 210 11 3 156 6 321 6 l300 1 7 -50 c4 -27 10 -72 14 -100 3
-27 7 -52 9 -55 1 -3 6 -36 10 -75 4 -38 8 -72 10 -75 2 -3 7 -35 10 -70 4
-36 8 -67 10 -70 2 -3 6 -30 9 -60 4 -30 9 -66 11 -80 2 -14 7 -45 10 -70 3
-25 8 -56 10 -70 2 -14 7 -45 10 -70 3 -25 8 -56 10 -70 3 -14 7 -43 10 -65 8
-65 41 -297 50 -345 2 -14 7 -47 10 -75 12 -100 -3 -90 131 -90 l119 0 147
295 c80 162 206 415 279 563 72 147 135 267 139 267 4 0 13 -42 20 -92 7 -51
14 -102 15 -113 2 -11 6 -42 10 -68 4 -27 8 -56 10 -65 1 -10 8 -60 15 -112 7
-52 14 -104 16 -114 2 -11 8 -56 14 -100 6 -45 20 -144 31 -221 11 -77 22
-158 25 -180 3 -22 7 -45 9 -51 2 -8 48 -11 142 -11 l138 1 139 280 c76 155
189 385 252 512 62 127 156 318 209 424 52 105 95 193 95 196 0 2 -84 3 -187
2 l-186 -3 -63 -125 c-34 -69 -110 -222 -168 -340 -93 -186 -134 -262 -125
-225 2 6 -1 35 -5 65 -4 30 -10 71 -12 90 -3 19 -7 47 -10 62 -3 15 -7 42 -9
60 -1 18 -6 53 -10 78 -3 25 -8 56 -10 70 -2 14 -6 45 -10 70 -4 25 -9 59 -11
75 -2 17 -6 41 -9 55 -2 14 -7 48 -10 75 -3 28 -8 66 -12 85 -3 19 -7 44 -8
55 -2 18 -12 87 -20 140 -2 11 -4 32 -4 48 l-1 27 -140 0 -140 0 -129 -262
c-283 -576 -411 -832 -412 -823 0 6 -2 17 -3 25 -2 8 -6 38 -10 65 -3 28 -8
61 -10 75 -3 14 -7 43 -10 65 -3 22 -10 72 -15 110 -6 39 -13 93 -17 120 -3
28 -8 59 -10 70 -2 11 -7 40 -10 65 -3 25 -7 56 -9 69 -2 13 -7 45 -11 70 -3
25 -8 57 -10 71 -2 14 -11 82 -21 153 l-17 127 -475 -1 c-435 -1 -483 -2 -556
-20z"/>
<path d="M5576 4098 c-37 -172 -53 -248 -51 -248 2 0 20 8 41 17 33 14 91 17
399 20 198 2 361 6 363 8 2 2 16 64 31 139 l28 136 -398 0 -398 0 -15 -72z"/>
<path d="M4956 3801 c-6 -9 -16 -82 -17 -121 -3 -81 29 -163 88 -228 26 -29
122 -91 313 -203 151 -88 290 -175 308 -192 110 -104 102 -237 -17 -294 l-56
-27 -405 -2 c-470 -2 -432 -1 -429 -16 2 -7 -3 -38 -10 -68 -6 -30 -14 -71
-17 -90 -3 -19 -12 -63 -20 -98 -8 -35 -14 -65 -14 -66 0 -2 226 -2 503 -1
354 1 518 6 557 14 157 36 255 95 336 204 66 88 90 163 100 300 10 146 -30
258 -125 353 -78 78 -148 122 -377 234 -146 72 -206 107 -219 127 -25 38 -27
100 -4 144 l18 37 -255 -1 c-140 0 -256 -3 -258 -6z"/>
</g>
</svg>
