<svg width="935" height="175" viewBox="0 0 935 175" fill="#481060" xmlns="http://www.w3.org/2000/svg">
<path d="M369.298 102.709C369.218 102.652 369.094 102.652 368.99 102.629C365.838 101.932 363.358 99.1263 359.793 99.7023C359.623 99.7303 359.406 99.5423 359.226 99.4303C357.819 98.5516 356.482 98.3663 355.166 99.6543C354.685 100.125 353.965 99.989 353.329 99.9983C349.587 100.048 346.017 101.185 342.387 101.861C339.182 102.458 335.906 102.708 332.755 103.725C330.049 104.598 327.153 104.882 324.433 105.729C322.367 106.37 320.323 106.517 317.967 106.672C318.338 105.037 319.418 104.938 320.267 104.674C321.311 104.349 322.179 103.798 323.074 103.206C326.547 100.912 329.775 98.2996 332.675 95.3396C335.866 92.085 338.695 88.5743 341.077 84.5903C343.783 80.0623 345.27 74.801 349.122 70.945C349.657 70.4103 349.91 69.521 349.318 68.8916C347.53 66.9943 346.01 64.6543 342.829 64.937C341.021 65.0983 339.182 64.977 337.483 64.249C336.147 63.677 334.787 63.877 333.422 63.7663C331.647 63.621 330.487 64.8423 328.959 65.213C324.366 66.3276 319.725 67.3876 315.291 68.993C309.475 71.0983 303.643 73.065 297.619 74.4783C296.467 74.749 294.662 74.1063 294.315 75.6716C294.009 77.057 295.75 77.657 296.622 78.437C299.369 80.893 302.125 83.4236 305.827 84.4676C308.475 85.2156 311.181 85.7103 313.837 86.453C316.338 87.153 319.089 87.3316 321.566 85.725C322.494 85.1236 323.59 85.2223 324.498 85.9823C323.893 89.8143 322.687 93.4476 321.21 96.9263C319.467 101.029 316.589 104.458 312.262 105.944C308.489 107.24 304.434 107.618 300.571 108.749C297.746 109.576 294.799 110.033 292.054 111.116C291.395 111.374 290.015 111.054 289.91 111.929C288.611 112.358 286.967 112.869 285.275 113.496C289.871 113.278 290.954 112.945 292.446 112.736C293.503 112.682 294.545 112.378 295.601 112.246C296.262 112.164 297.007 111.665 297.839 112.84C292.501 114.616 287.349 116.433 281.909 117.232C281.413 115.437 283.491 115.346 283.665 113.998C281.555 113.664 279.633 113.336 277.735 112.496C275.269 111.406 272.737 113.126 272.179 115.853C271.959 116.932 271.627 117.952 270.841 118.692C269.259 120.182 269.303 121.817 270.269 123.54C271.286 125.353 271.559 127.776 273.787 128.653C276.619 129.77 279.627 130.254 282.433 128.73C285.029 127.321 287.63 125.945 290.342 124.78C295.567 122.533 300.938 120.704 306.397 119.113C309.517 118.202 312.566 117.078 315.713 116.222C318.135 115.564 320.505 114.685 322.979 114.134C324.798 113.729 326.542 112.99 328.326 112.422C330.99 111.574 333.49 110.094 336.459 110.424C337.066 110.492 337.711 110.248 338.335 110.126C342.061 109.4 345.785 108.662 349.511 107.942C349.927 107.862 350.369 107.8 350.783 107.848C356.741 108.552 362.497 106.157 368.442 106.708C368.546 106.717 368.653 106.676 368.759 106.668C370.018 106.568 371.286 106.114 371.421 104.818C371.541 103.654 370.125 103.318 369.298 102.709Z"/>
<path d="M877.625 29.8116C877.81 29.7703 878.421 29.6049 879.044 29.5023C881.34 29.1223 883.44 29.7409 885.365 30.9303C887.526 32.2649 889.616 33.7143 891.756 35.0836C894.764 37.0089 895.357 40.3209 896.038 43.3329C896.517 45.4516 892.294 47.7236 890.289 46.4516C887.426 44.6369 884.309 43.3076 881.47 41.4769C878.802 39.7543 878.018 36.7449 876.642 34.1609C876.31 33.5356 876.11 32.8276 875.726 32.1796C874.564 30.2169 874.837 29.8223 877.625 29.8116Z"/>
<path d="M932.304 115.884C933.974 119.405 935.036 122.285 934.348 125.597C933.79 128.276 932.844 130.926 933.593 133.756C933.829 134.646 933.218 135.418 932.569 135.986C929.377 138.785 926.264 141.704 922.257 143.362C921.67 143.605 921.036 143.893 920.425 143.89C917 143.873 913.888 145.478 910.436 145.622C908.073 145.72 905.677 146.513 903.232 146.641C900.553 146.781 897.906 146.722 895.302 145.981C894.176 145.661 893.029 145.456 891.841 145.416C887.813 145.281 884.252 143.704 881.118 141.344C878.344 139.253 876.909 136.424 876.053 132.841C874.825 127.704 876.209 122.91 876.717 118.028C877.026 115.065 878.558 112.23 879.549 109.341C879.617 109.142 879.782 108.976 879.845 108.776C880.174 107.709 880.962 106.418 879.694 105.668C878.613 105.028 877.774 106.09 877.029 106.878C872.79 111.362 868.65 115.956 863.864 119.872C860.096 122.954 856.32 126.05 852.149 128.598C848.988 130.53 846.156 132.964 842.806 134.616C840.873 135.569 839.036 136.716 837.129 137.728C836.912 137.844 836.529 137.65 835.782 137.529C837.18 136.349 838.305 135.332 839.5 134.401C846.306 129.101 852.736 123.353 858.808 117.25C862.626 113.413 865.925 109.057 869.453 104.929C869.868 104.442 870.372 103.908 870.008 103.233C869.594 102.466 868.876 102.996 868.29 103.008C866.586 103.044 864.88 103.041 863.313 103.912C862.441 104.396 861.448 104.324 860.49 104.249C859.4 104.164 858.294 104.213 857.409 104.842C855.705 106.053 853.88 105.153 852.122 105.302C851.569 105.35 851.142 104.95 850.804 104.513C849.618 102.986 850.005 98.8996 851.632 97.885C853.192 96.913 854.224 95.0063 856.35 94.965C856.472 95.2596 856.632 95.4583 856.617 95.6436C856.542 96.553 855.425 97.4423 856.225 98.309C857.053 99.205 858.245 98.7716 859.245 98.433C865.249 96.3983 871.165 94.145 876.908 91.4423C878.616 90.6396 879.832 89.649 880.585 87.7623C881.822 84.6663 885.016 83.9236 887.788 85.857C889.1 86.7716 890.804 86.9636 891.916 88.1996C892.468 88.8116 893.293 89.2756 893.057 90.3236C892.826 91.3516 892.005 91.437 891.17 91.725C887.906 92.853 884.854 94.3223 883.377 97.777C883.336 97.8743 883.28 97.9663 883.222 98.0556C882.426 99.2916 880.802 100.06 880.734 101.66C880.657 103.45 882.69 103.732 883.526 104.918C884.782 106.705 884.833 108.773 884.49 110.724C883.944 113.828 883.468 116.917 881.872 119.833C879.961 123.325 880.645 127.316 881.18 131.096C881.506 133.41 883.416 134.533 885.546 134.589C889.337 134.688 893.184 135.508 896.926 133.996C897.77 133.654 898.818 133.742 899.77 133.756C901.493 133.781 903.196 133.745 904.757 132.913C905.661 132.43 906.657 132.713 907.565 132.501C912.038 131.46 916.708 131.085 920.852 128.881C923.014 127.732 924.938 126.268 926.361 124.192C928.194 121.517 930.902 119.529 932.304 115.884Z"/>
<path d="M823.306 126.986C823.306 129.968 823.259 132.952 823.324 135.932C823.358 137.442 822.884 138.61 821.698 139.548C819.816 141.034 818.194 140.684 816.971 138.674C814.938 135.33 814.982 131.644 815.019 127.956C815.072 122.848 815.562 117.79 816.474 112.746C816.834 110.76 817.395 108.821 817.856 106.886C819.055 101.856 819.48 96.6849 821.147 91.7089C821.982 89.2182 822.504 86.4182 822.855 83.6769C823.23 80.7515 824.13 77.8929 824.83 75.0129C825.478 72.3395 826.462 69.7275 826.448 66.9342C826.442 65.7009 827.082 65.1675 828.139 65.0355C829.8 64.8275 831.519 65.0635 832.994 63.8795C833.54 63.4395 834.195 63.8929 834.508 64.5595C834.554 64.6542 834.572 64.7622 834.603 64.8649C835.51 67.8289 836.807 70.6289 833.736 73.4435C832.168 74.8822 833.128 79.2875 834.612 80.4342C835.124 80.8289 835.711 81.3795 836.315 81.1569C838.704 80.2755 841.196 79.4355 842.528 77.0182C843.059 76.0542 842.935 74.8595 842.355 73.9355C841.04 71.8462 840.483 69.4409 839.382 67.2675C838.656 65.8382 838.618 64.3969 839.635 63.0569C842.092 59.8235 842.107 56.7222 839.492 53.4795C838.311 52.0155 837.524 50.2035 836.719 48.4755C836.028 46.9929 836.543 46.1835 838.2 46.2649C839.959 46.3502 841.572 46.1075 843.158 45.3595C844.266 44.8369 845.451 44.8742 846.584 45.3395C849.744 46.6395 852.73 48.1302 854.823 51.0449C856.27 53.0609 856.472 53.0662 854.492 54.4035C851.262 56.5849 848.848 59.5435 846.403 62.4835C845.798 63.2129 845.318 64.0529 844.832 64.8729C844.26 65.8382 844.338 66.7529 845.371 67.3409C848.182 68.9422 849.086 71.8542 850.404 74.4915C850.911 75.5022 850.768 76.5742 850.774 77.6302C850.786 80.3409 850.039 82.9462 849.084 85.4009C847.856 88.5542 844.959 89.9382 841.818 90.3089C838.768 90.6689 835.679 90.5302 832.684 89.4062C830.723 88.6702 829.791 89.3222 829.231 91.4142C827.23 98.8769 825.494 106.393 823.984 113.981C823.116 118.348 823.587 122.668 823.306 126.986Z"/>
<path d="M870.883 84.3823C872.25 83.8663 872.799 81.745 874.422 80.7276C875.091 80.3076 874.898 79.6236 874.513 79.041C873.75 77.8863 873.006 76.7196 872.206 75.5916C871.438 74.5076 872.05 73.7663 872.99 73.8503C877.013 74.209 880.647 72.3436 884.502 72.0583C886.214 71.9316 888.011 72.7903 889.763 71.893C890.095 71.7223 890.563 72.1143 890.846 71.549C893.165 66.9116 897.634 63.797 899.762 59.005C900.018 58.4263 900.551 57.9943 900.078 57.345C899.686 56.8076 899.125 56.953 898.633 57.1583C894.201 59.0183 889.57 58.501 885.159 57.597C881.679 56.8823 879.137 57.8263 876.742 59.921C874.829 61.5956 873.102 63.4796 871.25 65.2276C869.197 67.1636 868.975 69.8383 868.146 72.3103C866.965 75.833 866.894 79.8183 864.058 82.6983C863.606 83.157 863.249 83.6903 863.206 84.369C863.137 85.4783 862.982 86.6783 861.623 86.7583C860.289 86.837 858.882 86.8716 857.799 85.6796C855.822 83.5023 855.141 78.0076 855.989 75.1596C857.283 70.8076 858.751 66.5276 860.313 62.2716C860.93 60.589 861.381 58.8396 862.083 57.197C862.445 56.353 862.602 54.9476 864.218 55.4983C866.327 56.217 867.49 57.393 866.843 58.8116C865.946 60.7783 865.982 62.9876 865.098 64.8316C864.246 66.609 864.871 68.6876 863.598 70.2836C863.483 70.4276 863.633 70.929 863.811 71.1303C864.143 71.5036 864.578 71.3356 864.942 71.097C866.903 69.8143 868.145 67.657 868.803 65.7676C870.106 62.0383 873.025 60.3103 875.885 58.3863C880.755 55.109 886.271 53.493 891.975 52.3356C895.382 51.6463 898.683 50.409 902.102 49.8156C908.499 48.705 914.038 50.8836 917.259 56.4623C917.921 57.6063 917.971 58.529 916.857 59.549C915.023 61.2276 913.13 62.6903 910.574 62.9863C908.379 63.2396 906.687 64.6556 904.953 65.733C902.487 67.2663 899.782 68.1303 897.125 68.9663C895.165 69.5836 893.593 70.889 891.633 71.3663C890.146 71.729 890.695 72.597 891.329 73.1716C892.019 73.797 892.953 74.1463 893.741 74.6743C894.874 75.433 895.737 76.4996 895.305 77.881C894.923 79.101 893.99 80.1463 892.621 80.3623C888.95 80.9396 885.315 81.6143 881.713 82.569C880.29 82.9463 878.653 82.613 877.081 82.7556C874.695 82.973 872.697 84.1316 870.883 84.3823Z"/>
<path d="M433.826 45.0195C433.552 42.8969 433.612 40.5875 432.261 38.6662C431.532 37.6302 431.625 36.9035 432.329 35.8462C433.013 34.8169 433.182 33.4569 433.672 32.2809C434.552 30.1729 435.294 30.0209 437.114 31.3249C438.758 32.5022 440.52 33.4555 440.654 35.8982C440.705 36.8129 441.814 37.3355 442.712 37.7489C444.548 38.5955 445.23 40.1475 445.51 42.0729C446.262 47.2622 445.28 52.1822 443.594 57.0649C439.782 68.1115 435.216 78.7995 428.781 88.6035C427.502 90.5529 425.886 92.2795 424.449 94.1275C420.145 99.6555 416.216 105.53 411.461 110.638C405.773 116.749 400.285 123.154 392.91 127.54C389.008 129.861 385.297 132.533 381.365 134.834C379.72 135.798 378.056 136.741 376.037 136.693C375.157 136.672 374.441 137.24 373.645 137.522C371.74 138.196 369.928 138.189 368.256 136.762C366.214 135.02 366.221 134.864 367.442 132.337C368.129 130.916 368.457 129.324 368.966 127.816C369.469 126.329 370.72 125.55 371.85 126.376C375.512 129.049 378.724 127.137 381.736 125.386C386.325 122.718 390.434 119.313 394.616 116.045C398.078 113.34 401.033 110.149 403.614 106.586C405.485 104.006 407.753 101.749 409.633 99.1475C414.497 92.4209 418.652 85.2915 422.508 77.9622C425.965 71.3889 428.521 64.4369 431.009 57.4835C432.425 53.5249 433.454 49.3635 433.826 45.0195Z"/>
<path d="M441.951 103.557C448.973 103.849 454.902 105.993 460.701 108.681C466.618 111.424 471.894 115.164 477.11 118.998C484.591 124.498 489.795 131.694 492.787 140.481C493.031 141.197 493.229 142.016 492.587 142.573C492.007 143.078 491.419 142.561 490.859 142.261C487.609 140.52 484.455 138.641 480.979 137.266C478.693 136.362 476.79 134.393 474.842 132.75C472.082 130.424 468.926 128.61 466.19 126.33C463.463 124.057 460.178 122.84 457.414 120.693C455.454 119.172 452.815 118.678 450.755 117.153C445.559 113.305 439.415 110.942 434.407 106.788C434.013 106.46 433.427 106.37 433.21 105.809C432.91 105.032 432.758 104.302 433.914 104.202C436.774 103.956 439.637 103.741 441.951 103.557Z"/>
<path d="M229.864 52.6182C227.164 58.6369 228.452 57.9249 221.436 57.7835C220.689 57.7689 219.944 57.7822 219.197 57.7822C219.197 57.8129 219.197 57.8449 219.197 57.8755C217.277 57.8755 215.357 57.9155 213.438 57.8662C211.046 57.8022 210.869 57.5329 211.302 55.2555C212.173 50.6729 214.556 46.7942 217.138 43.0529C218.576 40.9702 221.046 40.6022 223.356 40.3542C225.141 40.1609 226.872 40.2129 228.64 39.4809C231.058 38.4782 232.385 39.6689 232.482 42.3209C232.617 46.0209 231.324 49.3622 229.864 52.6182ZM157.08 60.0382C156.488 60.3195 155.733 60.7822 154.754 59.9249C155.874 57.9675 157.358 56.1929 158.926 54.5435C162.513 50.7702 166.54 47.5382 171.213 45.1569C172.049 44.7315 172.856 44.2395 173.61 43.6249C175.124 42.3929 175.88 42.5209 177.114 43.8969C177.396 44.2115 177.618 44.5782 177.86 44.9289C179.821 47.7822 179.637 48.7235 176.633 50.3809C170.262 53.8955 163.646 56.9182 157.08 60.0382V60.0382ZM172.193 63.2462C171.712 64.1502 171.09 64.4889 170.15 63.8462C169.626 63.4875 169.07 63.1769 168.538 62.8302C168.009 62.4849 167.237 62.7795 166.642 61.9249C167.801 60.1355 169.953 60.1235 171.478 59.0609C171.681 58.9209 172.121 58.9795 172.382 59.0969C173.105 59.4235 172.974 61.7822 172.193 63.2462V63.2462ZM249.936 67.9542C248.216 64.5502 245.785 61.8049 242.437 59.9729C241.306 59.3529 240.932 58.7742 241.284 57.4689C242.666 52.3489 241.532 47.1289 241.74 41.9569C241.76 41.4595 241.45 40.9422 241.27 40.4422C239.594 35.7835 235.412 33.8955 231.324 32.7822C226.482 31.4649 221.317 30.6329 216.294 32.5969C213.48 33.6982 210.14 33.8729 208.349 36.8275C207.581 38.0929 206.733 39.2982 206.044 40.6315C203.458 45.6315 200.658 50.5209 197.346 55.0889C195.565 57.5449 195.52 57.5515 192.684 56.6555C191.518 56.2875 190.44 56.2089 189.262 56.6489C186.096 57.8302 182.942 58.9795 180.509 61.5022C179.673 62.3675 178.62 62.9222 177.248 62.0182C178.349 57.8142 180.014 54.0635 184.406 52.2102C185.569 51.7195 186.75 51.1729 187.758 50.4289C190.041 48.7462 192.981 48.1195 194.981 46.0302C194.384 44.4635 193.324 43.9529 191.798 43.6702C189.448 43.2355 189.278 42.4382 190.026 40.1262C190.705 38.0235 191.805 36.0142 191.686 33.6849C191.649 32.9449 191.892 32.2315 192.577 31.7329C194.272 30.4982 195.953 29.2409 198.176 29.1875C199.145 29.1649 200.189 29.2769 200.585 28.1129C201.026 26.8182 200.38 25.8835 199.428 25.0649C197.828 23.6889 195.896 23.5982 193.98 23.7889C192.472 23.9395 191.458 23.4609 190.898 22.1262C189.288 18.2862 185.642 16.3715 182.873 13.6355C182.292 13.0622 181.47 12.7222 180.556 12.6729C177.489 12.5089 174.417 12.3529 171.482 11.2955C171.056 11.1422 170.613 11.2555 170.33 11.6062C169.95 12.0795 170.078 12.6115 170.342 13.0982C170.602 13.5795 171.024 13.8689 171.514 14.1275C175.428 16.1942 176.032 20.1635 175.794 23.7195C175.513 27.9489 175.02 32.1675 175.169 36.4182C175.222 37.9422 174.68 38.9475 173.53 39.9715C170.976 42.2462 167.906 43.7649 165.257 45.8689C160.017 50.0302 154.63 54.0102 149.673 58.5275C147.954 60.0942 146.106 61.6222 144.076 62.7235C140.114 64.8729 140.401 68.0835 141.88 71.0915C142.914 73.1982 144.136 73.4169 146.354 72.4969C147.877 71.8662 148.932 70.6569 150.27 69.8169C151.104 69.2942 151.841 69.1329 152.456 70.0889C153.598 71.8649 154.869 73.5142 155.086 75.7942C155.409 79.1875 156.877 82.0742 159.801 84.0502C160.77 84.7049 161.797 85.2782 162.741 85.9675C163.649 86.6302 164.36 86.6502 165.285 85.8822C166.812 84.6142 168.469 83.7302 170.485 85.1475C171.096 85.5782 171.97 85.4662 172.541 84.8355C173.608 83.6555 174.544 82.3622 176.122 81.7475C176.652 81.5422 176.79 80.8822 176.684 80.3569C176.269 78.3182 177.442 76.8809 178.538 75.4582C181.938 71.0449 184.284 66.0595 186.468 60.9915C187.109 59.5022 187.821 57.8435 189.457 57.7609C191.301 57.6675 192.353 59.2769 193.153 60.8662C193.498 61.5502 193.738 62.2009 193.642 62.9902C193.572 63.5649 193.889 64.1942 194.486 64.1035C196.244 63.8369 197.108 65.2915 198.388 65.9315C201.101 67.2875 203.752 69.3142 206.865 66.7795C207.012 66.6595 207.273 66.6369 207.481 66.6395C210.892 66.6875 214.312 66.6142 217.709 66.8569C219.576 66.9902 220.049 68.3862 218.75 69.7609C216.053 72.6182 213.398 75.6542 209.548 76.9609C207.198 77.7569 204.804 78.9622 202.173 78.1422C201.276 77.8622 200.401 77.0182 199.584 77.0995C198.386 77.2182 198.968 78.7169 198.457 79.4822C197.894 80.3262 196.941 80.6235 196.18 81.1875C193.652 83.0662 193.138 85.7062 194.726 88.4462C195.498 89.7809 196.212 91.1502 197.081 92.7435C199.229 89.9915 202.192 89.2715 205.196 88.6662C207.75 88.1515 209.961 89.7035 209.784 92.0862C209.484 96.1075 209.078 100.129 208.5 104.12C207.708 109.578 206.102 114.888 205.329 120.361C205.138 121.709 204.54 123.002 204.101 124.313C203.764 125.321 203.033 125.576 202.074 125.238C201.273 124.956 200.457 124.693 199.697 124.32C198.542 123.752 198.466 122.902 199.389 122.068C200.086 121.436 200.738 120.717 201.757 120.506C202.957 120.257 203.688 119.221 204.669 118.596C205.642 117.974 205.748 117.049 205.225 116.084C204.009 113.834 202.753 111.654 200.332 110.378C198.162 109.234 198 108.709 199.469 106.738C200.326 105.586 200.512 104.44 200.452 103.166C200.29 99.7369 198.168 97.3729 194.741 96.5222C193.577 96.2329 192.42 96.2702 191.257 96.1675C188.665 95.9422 186.305 95.2169 184.708 92.6542C183.574 93.3942 183.102 94.3595 182.488 95.2195C180.172 98.4649 179.053 102.292 177.752 105.937C175.878 111.188 174.261 116.558 173.173 122.077C171.95 128.272 173.812 133.108 178.7 136.949C179.406 137.504 179.934 137.626 180.616 136.984C183.373 134.382 185.281 131.14 186.494 127.676C187.141 125.832 187.546 123.82 188.244 121.938C188.842 120.325 189.078 118.638 189.353 116.957C189.42 116.541 189.43 116.044 188.978 115.856C188.304 115.574 188.022 116.125 187.836 116.613C186.762 119.422 184.89 121.769 183.393 124.332C182.914 125.152 182.416 125.99 181.546 126.5C181.188 126.71 180.858 127.065 180.405 126.889C179.772 126.644 179.758 126.002 179.881 125.532C180.637 122.637 180.357 119.613 181.194 116.702C181.98 113.973 182.86 111.058 182.645 108.306C182.362 104.67 183.262 101.368 183.996 97.9649C184.125 97.3662 184.178 96.6035 184.897 96.3995C185.781 96.1489 186.266 96.8449 186.69 97.4489C188.034 99.3635 189.341 101.306 190.665 103.236C191.049 103.797 191.132 104.402 190.997 105.06C190.24 108.761 191.733 111.942 193.464 115C195.144 117.968 195.206 118.041 192.302 119.494C192.021 119.634 191.634 119.617 191.406 119.806C190.037 120.941 188.346 121.974 188.729 124.112C189.152 126.472 188.849 128.868 189.924 131.232C191.472 134.642 191.986 135.422 195.756 135.292C198.529 135.194 200.726 136.09 202.506 138.165C203.338 139.134 204.113 140.225 205.296 140.757C207.178 141.605 209.016 143.108 211.197 142.446C213.216 141.833 214.969 140.661 216.401 138.93C218.746 136.098 218.156 132.489 219.153 129.31C219.845 127.102 220.07 124.526 220.165 122.122C220.274 119.298 221.842 116.872 221.822 114.04C221.794 110.137 221.356 106.238 221.066 102.382C220.65 96.8329 219.181 91.3169 216.38 86.3155C215.277 84.3489 215.357 84.2382 217.494 83.4009C219.749 82.5155 222.284 82.0715 224.113 80.4569C227.368 77.5849 231.49 75.7942 234.189 72.2329C235.085 71.0502 236.328 70.6009 237.876 71.2169C241.709 72.7422 245.592 71.6595 249.456 71.3035C249.953 71.2582 250.174 70.8595 250.25 70.4275C250.401 69.5782 250.35 68.7755 249.936 67.9542"/>
<path d="M93.1237 136.662C91.8343 135.964 90.4103 135.39 88.9757 135.112C84.7037 134.278 80.3503 134.692 76.1263 135.232C71.885 135.774 67.761 137.238 63.589 138.313C62.9837 138.469 62.3343 138.898 61.8143 138.308C61.181 137.586 61.7317 136.952 62.1383 136.325C63.525 134.188 64.6663 131.929 65.7423 129.614C66.8277 127.277 68.441 125.298 70.8757 124.136C73.3197 122.966 75.2237 121.124 76.9903 119.117C78.4757 117.43 78.7077 114.508 77.1277 113.044C75.4383 111.478 73.6477 109.708 71.141 109.706C68.8117 109.706 67.4837 108.676 66.3437 106.754C64.9023 104.326 61.8717 104.012 59.7157 105.821C58.977 106.441 58.593 107.02 59.541 107.882C60.773 109.004 60.8117 110.2 59.5157 111.428C58.4317 112.453 58.3797 113.505 59.4597 114.756C60.4437 115.894 60.3943 117.384 59.4437 118.57C57.037 121.577 52.3583 122.037 49.1517 119.653C48.6263 119.262 48.173 118.805 47.4357 119.346C47.2397 121.292 48.0623 122.814 49.5237 124.028C51.6463 125.79 53.801 127.48 56.421 128.53C58.8917 129.521 58.9303 129.944 58.2597 132.381C57.481 135.206 55.7717 136.732 52.9317 137.664C51.8077 138.032 50.5383 138.181 49.3957 138.632C49.3823 138.63 49.3343 138.653 49.265 138.689C48.825 138.874 48.4063 139.106 48.0237 139.42C47.6143 139.664 47.2583 139.872 47.2143 139.872C46.9983 139.873 46.7797 139.886 46.5837 139.928C46.0943 140.032 41.9223 141.532 42.085 142.2C42.2863 143.033 47.113 141.414 47.7797 141.156C47.889 141.114 48.529 140.973 49.0397 140.84C49.533 140.838 50.097 140.816 50.241 141.321C50.4903 142.194 49.6077 142.349 49.0663 142.474C47.7157 142.784 46.3837 143.114 45.0877 143.625C43.9677 144.066 42.8477 144.034 41.6863 143.538C40.1917 142.9 36.065 143.604 35.525 144.654C34.549 146.552 36.5357 147.638 37.0117 149.156C37.0717 149.349 37.2463 149.509 37.3797 149.674C38.8197 151.446 39.937 151.756 42.1317 150.988C44.2037 150.264 46.2343 149.418 48.2997 148.678C51.5557 147.514 54.6717 146.037 58.0783 145.169C64.0703 143.642 69.8463 141.378 75.8983 139.96C80.257 138.938 84.3877 138.606 88.641 140.161C89.6997 140.548 90.953 140.502 92.1143 140.484C92.9063 140.47 93.9637 140.589 94.2023 139.458C94.4383 138.334 94.1077 137.194 93.1237 136.662Z"/>
<path d="M72.4702 36.8302C69.2115 38.5569 65.6848 39.6316 62.3542 41.1742C61.1488 41.7329 60.6475 41.2502 60.7515 39.7556C61.1608 37.5409 61.8382 35.2822 61.5755 32.9036C61.5275 32.4622 61.7808 32.0929 62.1368 31.8222C65.8008 29.0342 69.8955 28.0916 74.4168 28.9596C75.2382 29.1169 75.7528 29.5582 75.9008 30.3902C76.3142 32.7049 74.5902 35.7076 72.4702 36.8302ZM74.0395 54.3049C73.4675 54.4329 73.0928 53.9742 72.8048 53.4876C71.7142 51.6489 70.0168 50.6369 68.0195 50.0609C66.9435 49.7502 65.8742 49.6262 65.2395 50.8409C64.6875 51.8996 65.3448 52.6009 66.0075 53.3529C67.8248 55.4169 67.8382 55.4649 66.2968 57.5822C64.5528 59.9782 62.8435 62.3422 60.3355 64.1396C57.5088 66.1649 57.7942 70.5302 60.6488 73.0569C62.1022 74.3449 63.7195 75.3516 65.8195 75.1236C66.1902 75.0836 66.6688 74.9782 67.0222 75.6982C66.3942 76.6049 65.4222 77.2862 64.2795 77.2876C62.6835 77.2889 61.6675 78.1502 60.7808 79.1996C59.4875 80.7289 57.5928 81.2609 55.9968 82.2756C55.1182 82.8329 54.3128 82.1396 54.4968 81.1009C54.5688 80.6942 54.7808 80.3049 54.9702 79.9276C55.7955 78.2822 56.0448 76.7809 55.4928 74.8022C54.8568 72.5169 55.5128 69.9649 56.0542 67.5822C57.1342 62.8222 58.1862 58.0582 58.8102 53.2116C59.0102 51.6649 59.8395 50.6342 61.3302 50.2649C64.8288 49.3956 68.1982 48.2169 71.4608 46.6636C73.8208 45.5396 74.5488 46.0769 74.6022 48.5942C74.6302 49.9769 74.6822 51.3582 74.7008 52.7409C74.7102 53.3529 74.8728 54.1196 74.0395 54.3049V54.3049ZM74.6928 64.8942C74.6675 64.8942 74.6408 64.8942 74.6155 64.8942C74.6155 66.3756 74.6502 67.8569 74.6022 69.3369C74.5715 70.2676 74.0782 71.2729 73.1008 70.8276C70.9475 69.8462 68.5355 69.9036 66.4195 68.9049C65.0608 68.2622 64.7968 67.6129 65.8328 66.5009C68.1355 64.0262 70.5622 61.6622 73.0168 59.3356C73.8182 58.5769 74.6355 59.0022 74.6782 60.1382C74.7382 61.7209 74.6928 63.3089 74.6928 64.8942V64.8942ZM130.914 118.393C125.026 114.262 118.871 110.581 112.351 107.52C102.973 103.114 93.1622 99.8155 83.4942 96.1476C81.4915 95.3876 79.4408 94.9302 77.4142 94.3289C76.8248 94.1556 76.1608 93.8982 76.1488 93.1169C76.1408 92.4982 76.6702 92.0676 77.1315 91.9996C79.0995 91.7076 79.7262 90.0756 80.1315 88.6462C80.7302 86.5302 82.1035 86.0876 83.9382 86.0542C85.5355 86.0249 87.1382 86.0542 88.7275 85.9316C92.6368 85.6302 96.5435 85.4609 100.378 84.3556C102.587 83.7182 104.998 83.7382 107.141 82.7422C108.081 82.3049 109.305 81.9556 109.363 80.7009C109.426 79.3569 108.801 78.1422 107.539 77.5636C104.657 76.2396 101.783 74.1542 98.5915 76.9916C98.2315 77.3116 97.6328 77.4249 97.1248 77.5089C94.4222 77.9609 91.8888 79.0622 89.2328 79.6182C86.8182 80.1249 84.6968 82.1649 82.0222 81.1076C81.6022 80.6382 81.6022 80.0929 81.6715 79.5662C82.4755 73.4436 81.5288 67.2609 82.5768 61.1076C83.3035 56.8396 82.8982 52.3929 83.3342 48.0582C83.6435 44.9796 83.6835 41.7302 86.8035 39.5862C91.3675 36.4502 91.5528 34.5956 87.6595 30.9196C85.7502 29.1156 85.1435 27.1329 85.3488 24.6969C85.4648 23.3182 85.7195 21.9356 85.6795 20.5609C85.5742 16.9409 87.1128 13.5036 86.6768 9.82089C86.4862 8.20222 86.7542 6.45156 88.4502 5.2929C89.5595 4.5329 89.3008 3.39823 88.3475 2.5889C87.3808 1.7689 86.3768 0.93822 85.2595 0.364887C83.2622 -0.660446 81.6088 0.726226 79.9022 1.44756C78.4995 2.03956 78.8835 3.39289 78.8115 4.51155C78.5555 8.51155 78.9368 12.5276 77.6368 16.4889C76.9995 18.4289 77.5022 20.7182 77.3328 22.8369C77.0368 26.5396 75.9302 27.5969 72.3235 27.5382C68.8395 27.4809 65.4782 26.4502 62.1182 25.7236C58.2502 24.8862 55.2795 26.0409 53.7168 29.7476C52.3782 32.9236 51.9675 36.3009 51.3248 39.6222C51.0328 41.1369 50.7782 42.2382 48.9048 42.3289C47.5755 42.3916 47.5835 43.4596 48.4688 43.9969C49.9222 44.8796 50.1141 46.1329 50.0355 47.5476C49.9701 48.7142 49.7622 49.8729 49.6182 51.0356C49.3048 53.5609 48.7875 56.0809 48.7221 58.6129C48.6021 63.2956 48.9248 67.9942 48.7182 72.6702C48.5728 75.9862 49.5822 78.9702 50.5955 81.9649C51.5222 84.7022 51.5142 84.9862 48.9182 86.3942C43.6595 89.2449 38.0795 91.4716 32.8248 94.6076C33.3862 95.1889 34.0142 95.5449 34.6022 95.1955C36.8035 93.8849 39.5048 94.0369 41.6662 92.8622C43.9662 91.6129 46.7155 92.2716 48.8848 90.7636C49.4155 90.3942 50.2062 90.3156 50.5595 90.9956C50.8755 91.6009 50.5395 92.3449 49.9835 92.6529C48.5035 93.4702 46.9942 94.2662 45.4195 94.8702C41.4822 96.3822 37.4622 97.6836 33.5528 99.2582C29.4515 100.91 25.3315 102.489 21.1675 103.974C16.9262 105.488 12.9608 107.809 8.20882 107.633C6.91415 107.585 6.19815 108.773 6.26082 110.104C6.32882 111.56 7.48482 111.514 8.56882 111.722C11.0702 112.202 13.1715 110.845 15.1822 109.99C21.8675 107.15 28.7822 104.896 35.4035 101.889C37.1702 101.086 39.1435 99.7836 41.5315 100.805C41.2835 102.57 39.9888 103.577 38.9115 104.673C33.0902 110.6 27.5648 116.813 21.5262 122.526C20.4435 123.552 19.8795 125.061 18.5568 125.842C15.0688 127.904 12.2541 130.842 8.95415 133.136C6.42348 134.896 4.17015 137.001 1.65149 138.753C-0.51118 140.257 -0.56718 140.864 1.58615 142.261C2.37015 142.769 3.15282 142.841 4.00615 142.865C9.07549 143.009 13.7528 142.037 18.2342 139.349C22.4715 136.808 26.9662 134.752 30.0728 130.7C30.3875 130.289 30.8355 129.86 31.3075 129.71C33.5662 128.994 35.0488 127.294 36.5462 125.648C38.9768 122.973 41.2382 120.138 43.7275 117.521C48.8542 112.13 54.5462 107.245 58.7702 101.05C61.5208 97.0156 65.4675 94.2529 68.9422 90.9876C69.6475 90.3236 70.5742 89.9382 71.5435 89.9129C72.6262 89.8849 73.3902 91.3489 72.5622 91.8822C70.7488 93.0542 71.7502 93.8222 72.5568 94.8636C73.5302 96.1196 74.3915 97.4622 75.2662 98.7902C76.6782 100.933 78.2182 102.965 80.2742 104.538C83.5515 107.046 86.7875 109.597 90.3928 111.666C95.6235 114.669 101.174 116.93 106.795 119.009C109.849 120.138 113.021 121.261 116.222 121.594C120.335 122.024 124.53 121.658 128.69 121.632C129.45 121.626 130.166 121.465 130.821 121.05C132.171 120.196 132.253 119.333 130.914 118.393"/>
<path d="M547.893 44.2796C546.841 44.2489 545.785 44.3209 544.727 44.5209C544.225 44.6156 543.618 44.7809 543.443 44.0249C543.307 43.4356 543.542 42.9303 544.105 42.7383C546.177 42.0329 545.605 40.5689 545.281 39.0809C544.939 37.5143 543.878 36.1796 543.851 34.5316C543.834 33.4876 543.617 32.3023 544.683 31.6316C545.799 30.9289 546.726 31.6476 547.551 32.3383C550.138 34.5036 553.213 35.5889 556.413 36.4116C556.515 36.4383 556.635 36.4303 556.723 36.4809C558.163 37.2889 559.979 37.7409 560.282 39.7196C560.377 40.3409 556.902 42.8929 555.977 43.0436C553.286 43.4836 550.774 44.9996 547.893 44.2796Z"/>
<path d="M507.701 72.893C507.701 71.5103 507.57 70.425 507.727 69.3837C508.033 67.3717 509.49 66.7863 511.246 67.869C511.515 68.0357 511.818 68.2143 511.985 68.4676C514.013 71.5316 517.249 72.013 520.494 72.481C520.598 72.4957 520.734 72.4517 520.809 72.5023C525.001 75.3437 528.542 72.3876 532.051 70.9516C535.833 69.405 539.279 67.053 542.922 65.1463C544.307 64.4223 545.446 63.509 546.054 62.0957C547.331 59.1263 550.155 58.741 552.698 58.545C554.411 58.413 556.278 58.6116 558.067 58.7756C560.029 58.9543 561.714 60.269 562.053 61.8717C562.301 63.037 562.237 63.9903 560.71 64.1916C558.299 64.5076 557.373 66.413 556.842 68.365C555.299 74.037 553.13 79.4103 549.845 84.3023C549.474 84.853 549.19 85.3877 549.162 86.0463C549.118 87.0943 549.502 87.6903 550.669 87.473C551.298 87.3557 551.927 87.2063 552.562 87.161C555.255 86.9677 557.202 88.3997 557.954 91.085C558.322 92.393 556.786 95.9676 555.466 96.6823C554.623 97.1383 553.719 97.457 552.751 96.8503C550.775 95.6157 548.377 95.1503 546.602 93.5543C545.735 92.7743 544.702 92.3357 543.693 92.8357C542.423 93.4663 542.663 94.8183 542.775 95.9743C542.945 97.721 544.333 98.977 544.734 100.653C544.901 101.353 545.347 101.912 545.019 102.756C543.411 106.902 543.985 111.358 543.303 115.641C543.185 116.39 543.542 117.114 543.954 117.745C544.723 118.924 544.857 120.232 545.109 121.584C545.394 123.108 545.251 123.836 543.79 124.598C542.285 125.384 541.347 124.908 540.442 123.894C538.697 121.938 536.429 120.321 536.079 117.421C536.067 117.321 536.003 117.212 535.931 117.14C533.022 114.248 534.202 111.184 535.659 108.2C536.402 106.68 536.469 105.134 536.455 103.536C536.45 102.809 536.611 101.942 535.705 101.626C535.022 101.388 534.527 101.862 534.053 102.33C532.231 104.118 530.355 105.853 528.559 107.666C527.269 108.969 526.001 110.249 524.026 110.378C523.278 110.428 522.891 110.798 522.789 111.553C522.519 113.534 520.813 114.438 519.383 115.061C517.629 115.825 515.911 117.35 513.513 116.002C512.403 115.378 510.611 115.737 509.17 116.348C507.794 116.932 506.914 116.282 506.485 114.949C505.567 112.098 506.33 109.241 506.537 106.394C506.585 105.72 507.33 105.318 508.005 105.449C511.626 106.146 513.882 103.533 516.571 101.982C516.931 101.774 517.174 101.369 517.53 101.154C521.347 98.8463 524.406 95.701 527.565 92.5943C530.679 89.5317 533.57 86.2663 536.677 83.209C537.639 82.2596 537.833 81.2623 537.653 80.033C537.442 78.605 537.75 77.5877 539.47 77.2877C540.771 77.061 541.602 75.9383 542.457 74.985C542.838 74.5583 542.914 74.0156 542.733 73.489C542.511 72.845 541.953 72.8957 541.417 72.965C537.171 73.5117 533.177 74.4023 530.059 77.8437C528.615 79.437 526.455 80.449 524.497 81.493C521.603 83.0357 518.413 83.1623 515.209 82.9583C512.566 82.789 510.597 81.6157 509.302 79.2223C508.167 77.125 507.253 75.0277 507.701 72.893Z"/>
<path d="M608.049 70.5342C606.227 74.5982 604.214 78.5676 601.647 82.2276C601.247 82.7969 601.11 83.8796 600.167 83.5836C599.346 83.3262 599.481 82.3876 599.557 81.6409C599.611 81.1116 599.665 80.5836 599.743 79.8169C599.127 76.2902 601.074 73.2902 602.669 70.1729C603.399 68.7422 604.867 68.4422 606.121 68.2436C607.134 68.0822 607.893 66.3902 608.895 67.4636C609.986 68.6302 608.483 69.5649 608.049 70.5342ZM590.929 99.3462C589.938 99.9462 588.871 100.424 587.825 100.957C587.494 100.816 587.153 100.758 586.943 100.561C586.602 100.237 586.61 99.7969 586.891 99.4169C587.601 98.4609 588.465 97.6929 589.593 97.2502C590.343 96.9569 590.825 97.3289 591.158 97.9196C591.439 98.4209 591.439 99.0382 590.929 99.3462V99.3462ZM624.135 60.4849C620.598 56.8622 615.942 57.0622 611.417 56.9049C610.946 56.8889 610.355 57.2236 609.997 57.5742C608.169 59.3556 605.609 59.5969 603.483 60.7476C602.311 61.3822 601.347 61.0022 601.163 59.5876C600.934 57.8236 600.358 56.0649 601.33 54.2809C602.135 52.8049 601.683 50.9236 602.846 49.4582C603.333 48.8449 603.137 47.7622 602.569 47.0449C601.449 45.6302 602.109 44.4836 602.991 43.3169C603.619 42.4876 604.193 41.7422 604.21 40.5076C604.253 37.6902 603.757 34.7929 604.973 32.0676C605.091 31.7996 605.167 31.3849 605.045 31.1542C603.945 29.1076 603.302 26.4796 601.077 25.5409C599.177 24.7396 597.727 23.3756 595.923 22.4956C593.067 21.1022 592.541 21.2729 592.387 24.3742C592.35 25.1182 592.377 25.8676 592.418 26.6102C592.595 29.6876 592.626 32.7489 592.458 35.8409C592.334 38.1236 592.134 40.4662 592.637 42.8076C593.034 44.6609 592.959 46.6476 592.57 48.5329C591.958 51.5102 592.154 54.4622 592.517 57.4329C592.619 58.2742 592.71 59.1276 592.698 59.9729C592.633 64.6449 592.618 64.6369 588.073 66.3556C587.586 66.5396 587.198 67.0249 586.709 67.1502C583.959 67.8556 581.333 69.2076 578.347 68.7302C577.621 68.6129 576.851 68.6529 576.113 68.7316C574.562 68.8969 574.249 69.5822 575.321 70.8022C576.437 72.0716 577.698 73.2342 579.018 74.2889C579.641 74.7862 580.497 75.3636 581.378 75.0102C584.015 73.9529 586.901 74.6089 589.553 73.7409C590.807 73.3302 591.375 73.8596 591.418 75.0902C591.465 76.4729 591.47 77.8569 591.518 79.2382C591.59 81.2836 591.517 81.2836 589.478 81.5196C586.483 81.8676 583.502 82.3462 580.515 82.7689C582.831 85.3356 582.831 85.3342 585.362 85.3449C586.21 85.3476 587.085 85.2156 587.867 85.6596C588.589 86.0702 589.033 86.6529 588.546 87.4902C586.503 90.9969 583.773 94.0009 581.345 97.2262C581.021 97.6556 580.465 97.8542 579.919 97.5369C579.358 97.2102 579.261 96.5636 579.561 96.1556C580.794 94.4849 579.705 93.0929 579.063 91.7062C578.443 90.3662 577.525 89.1662 576.862 87.8422C575.065 84.2516 573.761 80.4449 571.999 76.8236C570.99 74.7462 570.083 72.3902 570.802 69.7396C571.349 67.7249 570.135 65.9956 568.174 65.1449C567.407 64.8129 566.539 64.7716 565.875 64.1329C565.385 63.6622 564.707 63.5156 564.157 64.0516C563.619 64.5742 563.679 65.3822 564.087 65.8169C565.862 67.7089 564.714 69.4462 563.726 70.9942C563.041 72.0676 562.502 73.2142 561.851 74.2969C560.151 77.1276 559.401 80.2996 560.434 83.4622C561.25 85.9582 561.834 88.5422 562.865 90.9622C563.99 93.6009 565.161 96.2222 567.389 98.2036C568.819 99.4742 570.126 100.305 572.174 99.2462C574.162 98.2182 576.355 99.2929 578.429 99.4262C579.73 99.5089 578.546 101.569 579.533 102.458C579.958 102.841 580.043 103.594 580.301 104.172C581.407 106.65 583.261 107.612 585.941 107.154C587.303 106.921 588.681 106.78 590.042 106.548C590.986 106.386 591.525 106.737 591.51 107.682C591.474 110.02 591.807 112.476 591.201 114.665C590.383 117.606 590.209 120.517 590.197 123.496C590.193 124.349 590.222 125.21 589.778 125.988C588.947 127.438 588.903 129.046 588.902 130.642C588.898 134.053 588.83 137.469 589.01 140.87C589.213 144.712 588.661 148.506 588.447 152.314C588.355 153.953 587.51 155.522 588.478 157.169C588.603 157.381 588.443 157.788 588.361 158.089C587.078 162.737 587.319 167.302 588.925 171.849C589.395 173.178 589.887 174.185 591.498 174.16C593.014 174.137 593.078 172.888 593.342 171.938C594.157 168.997 594.931 166.086 596.149 163.234C597.137 160.921 598.625 158.649 599.042 156.285C599.663 152.749 600.31 149.156 600.527 145.554C600.77 141.52 600.555 137.46 600.705 133.417C600.851 129.45 598.371 125.634 600.079 121.586C600.179 121.349 599.966 120.97 599.874 120.665C599.649 119.922 599.613 119.177 599.995 118.49C600.825 117 600.637 115.384 600.61 113.797C600.567 111.244 600.453 108.69 600.382 106.137C600.343 104.718 600.397 103.498 602.135 102.825C603.373 102.345 604.694 101.293 605.043 99.9929C605.802 97.1702 607.847 95.2822 609.458 93.0782C612.339 89.1369 615.081 85.1169 617.357 80.7862C619.723 76.2822 621.902 71.6796 624.825 67.4756C626.445 65.1449 626.09 62.4849 624.135 60.4849"/>
<path d="M727.686 68.6836C727.349 69.197 726.907 69.7383 726.145 69.321C725.461 68.9476 725.326 68.2023 725.614 67.6823C726.707 65.7023 727.037 63.2956 729.271 61.2103C729.573 64.3556 729.042 66.6183 727.686 68.6836ZM778.583 83.8263C776.715 79.3063 772.907 77.125 768.737 75.3316C767.925 74.9823 767.139 75.2836 766.878 76.0596C766.386 77.517 765.329 77.5796 764.094 77.5463C763.149 77.521 762.161 77.381 761.301 77.973C759.566 79.1676 757.589 78.669 755.699 78.769C754.423 78.837 754.001 78.1436 754.17 76.9596C754.761 72.829 754.053 68.6543 754.571 64.5236C755.015 60.977 754.814 57.2436 757.418 54.2876C757.694 53.9743 757.905 53.5716 757.735 53.1143C756.93 50.9383 758.126 49.0303 758.645 47.073C759.638 43.3316 761.899 40.0503 762.321 36.0396C762.634 33.061 762.059 31.653 759.137 31.1196C758.717 31.0436 758.23 31.069 757.891 30.8596C755.803 29.5716 754.285 30.4036 752.878 32.0343C752.186 32.837 751.329 33.493 750.597 34.2636C749.866 35.033 749.186 35.8516 748.51 36.6703C748.285 36.9463 748.35 37.321 748.61 37.517C748.841 37.6916 749.258 37.8783 749.461 37.781C750.109 37.473 750.659 36.9583 751.313 36.6623C752.845 35.969 754.318 34.6183 756.157 35.8703C755.801 38.8423 753.963 41.221 753.858 44.1423C753.825 45.085 753.074 46.5636 751.83 46.0983C748.709 44.9303 745.769 46.3756 742.743 46.3623C741.153 46.3556 740.751 47.4223 741.753 48.6943C742.405 49.5236 743.277 50.177 744.021 50.937C745.638 52.5863 745.809 53.0943 744.087 54.5796C742.486 55.9596 742.295 57.457 742.985 59.101C743.677 60.753 744.605 62.2623 746.849 62.381C748.938 62.4916 749.513 63.2956 748.826 65.225C748.139 67.157 747.638 69.017 747.691 71.1036C747.739 72.9383 746.487 73.5823 744.683 72.9476C741.461 71.8143 738.654 70.001 735.979 67.8876C734.838 66.9863 734.469 66.0916 734.375 64.693C734.161 61.461 735.145 58.0703 733.226 55.025C733.025 54.705 733.046 54.1796 733.106 53.7703C733.271 52.657 733.359 51.7703 731.755 51.7143C730.727 51.6783 730.226 50.7396 730.605 49.8476C731.661 47.357 732.187 44.321 735.209 43.3543C737.466 42.6303 739.242 41.029 741.517 40.373C742.649 40.0476 743.491 39.065 744.033 38.0236C744.623 36.885 744.609 35.7476 743.237 35.0423C742.667 34.7503 742.138 34.381 741.562 34.1036C739.219 32.9783 738.69 31.4196 739.925 29.1463C740.127 28.773 740.395 28.433 740.662 28.101C743.557 24.5143 741.37 19.7423 738.231 17.6076C735.123 15.4956 733.599 15.8583 731.211 18.8236C729.917 20.4316 729.786 21.541 731.291 23.009C733.133 24.8076 732.965 26.817 732.366 28.905C731.757 31.037 731.265 33.3103 730.123 35.153C729.038 36.905 729.671 39.8183 726.734 40.429C726.262 40.5276 726.385 41.3716 726.466 41.8956C726.787 43.953 726.255 45.8743 725.774 47.8623C725.178 50.3183 724.761 52.8383 726.043 55.3343C727.483 58.141 727.367 58.6623 725.182 60.9476C722.973 63.2583 720.829 65.6116 718.931 68.193C718.274 69.0863 717.825 70.7263 716.546 70.4236C715.149 70.0916 715.691 68.433 715.649 67.3636C715.477 63.001 716.181 58.7303 716.747 54.405C717.475 48.8583 717.017 43.1316 716.795 37.493C716.661 34.097 714.185 32.1743 711.091 32.5276C708.299 32.8476 704.703 38.077 705.389 40.7596C705.59 41.5476 706.077 41.7463 706.773 41.7476C707.839 41.749 708.907 41.781 709.974 41.7476C711.074 41.7116 711.503 42.2463 711.475 43.2943C711.419 45.4196 711.581 47.5703 711.306 49.6663C710.387 56.645 709.927 63.6316 710.11 70.6756C710.178 73.3343 710.882 75.6783 712.399 77.801C713.038 78.693 713.854 79.5116 715.078 78.9623C716.251 78.437 716.918 77.5276 716.469 76.1356C716.371 75.833 716.266 75.5276 716.215 75.2143C716.129 74.6676 716.221 74.1223 716.687 73.793C717.211 73.4223 717.705 73.757 718.135 74.061C719.435 74.977 720.673 75.993 722.021 76.8316C726.423 79.5676 729.927 78.2676 731.833 74.377C732.253 73.5183 732.546 72.3623 733.65 72.481C734.735 72.5956 734.214 73.9156 734.63 74.5903C735.073 75.309 735.578 76.0023 736.133 76.6396C737.11 77.7636 738.153 78.8303 739.155 79.9316C740.789 81.729 740.519 82.9423 738.121 83.4783C736.259 83.8943 734.454 84.6983 732.653 84.9476C728.437 85.5303 724.51 87.1316 720.359 87.9583C715.697 88.885 711.109 90.2383 706.33 90.3783C703.277 90.469 700.142 90.5716 697.258 89.269C694.765 88.1423 692.338 86.8663 689.899 85.621C689.311 85.321 688.782 84.9823 687.894 85.589C688.675 87.453 690.525 88.289 691.323 89.8596C692.574 92.3156 694.659 93.973 696.533 95.8356C697.761 97.0556 699.365 97.7996 701.039 97.9583C704.679 98.305 708.413 98.1183 711.666 96.453C716.237 94.1116 721.026 92.417 725.865 90.8436C727.458 90.325 728.955 89.4983 730.619 89.221C734.386 88.593 737.961 87.2143 741.597 86.157C743.893 85.489 745.667 85.3596 747.559 86.6943C749.034 87.7343 750.37 87.2303 751.103 85.9063C752.291 83.7556 754.091 83.0703 756.341 82.8756C757.281 82.7943 758.191 82.401 759.119 82.165C759.891 81.969 760.759 81.1036 761.43 82.0236C762.029 82.845 761.322 83.653 760.753 84.265C756.493 88.8476 753.435 94.4836 748.374 98.3676C747.882 98.745 747.366 99.2636 747.771 99.9916C748.153 100.673 748.871 100.465 749.489 100.538C750.709 100.685 751.29 99.4703 752.334 99.257C756.719 98.365 760.605 96.1103 764.79 94.6663C765.866 94.2943 767.063 94.173 767.969 93.277C769.887 91.3796 772.371 90.3543 774.745 89.1996C776.351 88.4183 777.479 87.217 778.483 85.8156C778.963 85.1436 778.923 84.6476 778.583 83.8263"/>
<path d="M733.734 141.714C734.128 138.722 733.428 135.768 733.52 132.781C733.582 130.737 733.212 130.454 731.04 130.477C727.241 130.518 723.816 132.052 720.408 133.44C717.16 134.764 713.77 135.566 710.43 136.497C706.35 137.634 700.9 134.345 699.305 130.281C698.945 129.362 699.396 128.896 699.936 128.358C700.497 127.798 701.014 127.434 701.874 127.942C704.166 129.296 706.457 129.017 708.806 127.924C710.418 127.172 712.256 126.834 713.944 126.49C715.909 126.089 717.657 125.025 719.708 124.938C721.656 124.856 721.846 123.081 722.182 121.681C722.652 119.728 722.786 117.72 723.952 115.938C724.605 114.941 725.133 114.005 726.293 113.469C728.384 112.504 729.23 110.501 730.056 108.529C730.264 108.033 730.396 107.484 729.992 107.037C729.457 106.445 728.828 106.693 728.245 106.982C724.637 108.772 720.792 108.532 717.022 107.998C714.77 107.68 713.321 105.676 711.722 104.169C711.154 103.632 711.485 102.97 712.196 102.664C712.478 102.541 712.832 102.498 713.138 102.536C717.578 103.076 721.332 100.872 725.305 99.537C728.033 98.621 730.74 97.7596 732.294 94.9863C732.672 94.3116 733.445 93.757 734.484 94.2316C737.265 95.4996 740.144 96.5743 742.392 98.777C744.19 100.54 744.514 101.025 743.077 103.129C741.389 105.598 739.789 108.296 736.921 109.694C735.854 110.216 735.494 111.197 734.956 112.11C734.364 113.116 734.496 113.85 735.377 114.608C736.988 115.996 738.64 117.35 739.942 119.054C740.634 119.96 741.584 119.934 742.552 119.846C744.47 119.674 746.376 119.678 748.3 119.881C749.708 120.028 750.484 120.616 750.522 122.041C750.638 126.372 751.882 126.902 746.548 126.748C746.441 126.745 746.334 126.736 746.229 126.737C742.057 126.813 741.744 126.918 742.056 131.042C742.434 136.036 742.3 140.988 741.965 145.966C741.634 150.902 740.052 155.433 737.936 159.824C736.868 162.041 734.381 162.258 732.562 162.585C729.173 163.196 725.609 163.466 722.157 162.234C720.985 161.814 719.649 161.769 718.38 161.714C715.093 161.576 712.54 159.477 709.572 158.489C708.822 158.24 708.098 157.632 707.95 156.653C707.721 155.126 706.852 153.892 705.958 152.705C705.424 151.994 705.37 151.402 705.878 150.693C706.37 150.004 707.032 149.696 707.816 149.944C708.822 150.262 709.785 150.721 710.774 151.097C713.768 152.236 716.941 152.861 720.069 152.872C723.442 152.884 726.837 152.493 730.23 152.345C731.71 152.281 732.534 151.086 733 149.629C733.829 147.03 733.657 144.361 733.734 141.714Z"/>
<path d="M678.526 88.8942C678.625 88.8996 679.169 88.8622 679.682 88.9689C680.489 89.1342 680.736 89.7529 680.348 90.4009C678.996 92.6596 678.004 95.1222 676.369 97.2222C674.753 99.2956 673.265 101.469 671.633 103.529C670.284 105.234 669.461 107.145 668.977 109.234C668.621 110.774 669.136 111.525 670.64 111.198C672.066 110.89 673.41 110.189 674.778 109.628C675.257 109.432 675.673 109.05 676.161 108.912C676.686 108.762 677.226 108.95 677.596 109.389C677.974 109.836 678.052 110.412 677.724 110.865C675.553 113.868 672.852 116.128 669.045 116.672C667.381 116.909 665.978 116.488 664.816 115.074C663.35 113.293 660.977 112.401 659.92 110.161C659.601 109.488 659.05 108.894 659.322 108.106C660.129 105.769 659.582 103.308 660.12 100.904C660.9 97.4156 662.193 95.0009 665.812 93.3689C668.742 92.0476 671.573 90.4756 674.657 89.4262C675.801 89.0369 676.928 88.9356 678.526 88.8942Z"/>
<path d="M691.585 61.6316C692.215 58.7703 690.559 55.4289 686.527 53.2143C686.342 53.1116 686.149 53.0036 686.001 52.8569C685.407 52.2703 684.551 51.6596 685.01 50.7436C685.515 49.7369 686.406 50.3156 687.242 50.4836C691.235 51.2836 694.814 53.0303 698.299 55.0449C698.787 55.3276 699.13 55.5983 699.377 56.1009C701.591 60.6249 703.401 65.2183 702.069 70.4076C701.638 72.0809 701.978 73.7956 701.829 75.4849C701.626 77.7556 700.442 78.5276 698.394 77.6129C696.245 76.6529 694.645 75.2983 693.437 73.0316C691.762 69.8903 690.917 66.8009 691.585 61.6316Z"/>
</svg>
