<svg xmlns="http://www.w3.org/2000/svg" width="935" height="175" fill="#fff" xmlns:v="https://vecta.io/nano"><path d="M369.298 102.709c-.08-.057-.204-.057-.308-.08-3.152-.697-5.632-3.503-9.197-2.927-.17.028-.387-.16-.567-.272-1.407-.879-2.744-1.064-4.06.224-.481.471-1.201.335-1.837.344-3.742.05-7.312 1.187-10.942 1.863-3.205.597-6.481.847-9.632 1.864-2.706.873-5.602 1.157-8.322 2.004-2.066.641-4.11.788-6.466.943.371-1.635 1.451-1.734 2.3-1.998 1.044-.325 1.912-.876 2.807-1.468 3.473-2.294 6.701-4.906 9.601-7.866 3.191-3.255 6.02-6.765 8.402-10.749 2.706-4.528 4.193-9.789 8.045-13.645.535-.535.788-1.424.196-2.053-1.788-1.897-3.308-4.237-6.489-3.955-1.808.161-3.647.04-5.346-.688-1.336-.572-2.696-.372-4.061-.483-1.775-.145-2.935 1.076-4.463 1.447-4.593 1.115-9.234 2.175-13.668 3.78-5.816 2.105-11.648 4.072-17.672 5.485-1.152.271-2.957-.372-3.304 1.193-.306 1.385 1.435 1.985 2.307 2.765 2.747 2.456 5.503 4.987 9.205 6.031 2.648.748 5.354 1.243 8.01 1.985 2.501.7 5.252.879 7.729-.728.928-.601 2.024-.503 2.932.257-.605 3.832-1.811 7.465-3.288 10.944-1.743 4.103-4.621 7.532-8.948 9.018-3.773 1.296-7.828 1.674-11.691 2.805-2.825.827-5.772 1.284-8.517 2.367-.659.258-2.039-.062-2.144.813-1.299.429-2.943.94-4.635 1.567 4.596-.218 5.679-.551 7.171-.76 1.057-.054 2.099-.358 3.155-.49.661-.082 1.406-.581 2.238.594-5.338 1.776-10.49 3.593-15.93 4.392-.496-1.795 1.582-1.886 1.756-3.234-2.11-.334-4.032-.662-5.93-1.502-2.466-1.09-4.998.63-5.556 3.357-.22 1.079-.552 2.099-1.338 2.839-1.582 1.49-1.538 3.125-.572 4.848 1.017 1.813 1.29 4.236 3.518 5.113 2.832 1.117 5.84 1.601 8.646.077 2.596-1.409 5.197-2.785 7.909-3.95 5.225-2.247 10.596-4.076 16.055-5.667 3.12-.911 6.169-2.035 9.316-2.891 2.422-.658 4.792-1.537 7.266-2.088 1.819-.405 3.563-1.144 5.347-1.712 2.664-.848 5.164-2.328 8.133-1.998.607.068 1.252-.176 1.876-.298l11.176-2.184c.416-.08.858-.142 1.272-.094 5.958.704 11.714-1.691 17.659-1.14.104.009.211-.032.317-.04 1.259-.1 2.527-.554 2.662-1.85.12-1.164-1.296-1.5-2.123-2.109zm508.327-72.897l1.419-.309c2.296-.38 4.396.239 6.321 1.428l6.391 4.153c3.008 1.925 3.601 5.237 4.282 8.249.479 2.119-3.744 4.391-5.749 3.119-2.863-1.815-5.98-3.144-8.819-4.975-2.668-1.723-3.452-4.732-4.828-7.316-.332-.625-.532-1.333-.916-1.981-1.162-1.963-.889-2.357 1.899-2.368zm54.679 86.072c1.67 3.521 2.732 6.401 2.044 9.713-.558 2.679-1.504 5.329-.755 8.159.236.89-.375 1.662-1.024 2.23-3.192 2.799-6.305 5.718-10.312 7.376-.587.243-1.221.531-1.832.528-3.425-.017-6.537 1.588-9.989 1.732-2.363.098-4.759.891-7.204 1.019-2.679.14-5.326.081-7.93-.66a14.37 14.37 0 0 0-3.461-.565c-4.028-.135-7.589-1.712-10.723-4.072-2.774-2.091-4.209-4.92-5.065-8.503-1.228-5.137.156-9.931.664-14.813.309-2.963 1.841-5.798 2.832-8.687.068-.199.233-.365.296-.565.329-1.067 1.117-2.358-.151-3.108-1.081-.64-1.92.422-2.665 1.21-4.239 4.484-8.379 9.078-13.165 12.994-3.768 3.082-7.544 6.178-11.715 8.726-3.161 1.932-5.993 4.366-9.343 6.018-1.933.953-3.77 2.1-5.677 3.112-.217.116-.6-.078-1.347-.199 1.398-1.18 2.523-2.197 3.718-3.128 6.806-5.3 13.236-11.048 19.308-17.151 3.818-3.837 7.117-8.193 10.645-12.321.415-.487.919-1.021.555-1.696-.414-.767-1.132-.237-1.718-.225-1.704.036-3.41.033-4.977.904-.872.484-1.865.412-2.823.337-1.09-.085-2.196-.036-3.081.593-1.704 1.211-3.529.311-5.287.46-.553.048-.98-.352-1.318-.789-1.186-1.527-.799-5.613.828-6.628 1.56-.972 2.592-2.879 4.718-2.92.122.295.282.493.267.679-.075.909-1.192 1.799-.392 2.665.828.896 2.02.463 3.02.124 6.004-2.035 11.92-4.288 17.663-6.991 1.708-.803 2.924-1.793 3.677-3.68 1.237-3.096 4.431-3.839 7.203-1.905 1.312.915 3.016 1.107 4.128 2.343.552.612 1.377 1.076 1.141 2.124-.231 1.028-1.052 1.113-1.887 1.401-3.264 1.128-6.316 2.597-7.793 6.052a1.81 1.81 0 0 1-.155.279c-.796 1.236-2.42 2.004-2.488 3.604-.077 1.79 1.956 2.072 2.792 3.258 1.256 1.787 1.307 3.855.964 5.806-.546 3.104-1.022 6.193-2.618 9.109-1.911 3.492-1.227 7.483-.692 11.263.326 2.314 2.236 3.437 4.366 3.493 3.791.099 7.638.919 11.38-.593.844-.342 1.892-.254 2.844-.24 1.723.025 3.426-.011 4.987-.843.904-.483 1.9-.2 2.808-.412 4.473-1.041 9.143-1.416 13.287-3.62 2.162-1.149 4.086-2.613 5.509-4.689 1.833-2.675 4.541-4.663 5.943-8.308zm-108.998 11.102l.018 8.946c.034 1.51-.44 2.678-1.626 3.616-1.882 1.486-3.504 1.136-4.727-.874-2.033-3.344-1.989-7.03-1.952-10.718.053-5.108.543-10.166 1.455-15.21.36-1.986.921-3.925 1.382-5.86 1.199-5.03 1.624-10.201 3.291-15.177.835-2.491 1.357-5.291 1.708-8.032.375-2.925 1.275-5.784 1.975-8.664.648-2.673 1.632-5.285 1.618-8.079-.006-1.233.634-1.767 1.691-1.899 1.661-.208 3.38.028 4.855-1.156.546-.44 1.201.013 1.514.68.046.095.064.203.095.305.907 2.964 2.204 5.764-.867 8.579-1.568 1.439-.608 5.844.876 6.991.512.395 1.099.945 1.703.723 2.389-.881 4.881-1.721 6.213-4.139.531-.964.407-2.159-.173-3.083-1.315-2.089-1.872-4.495-2.973-6.668-.726-1.429-.764-2.871.253-4.211 2.457-3.233 2.472-6.335-.143-9.577-1.181-1.464-1.968-3.276-2.773-5.004-.691-1.483-.176-2.292 1.481-2.211 1.759.085 3.372-.157 4.958-.905 1.108-.523 2.293-.485 3.426-.02 3.16 1.3 6.146 2.791 8.239 5.705 1.447 2.016 1.649 2.021-.331 3.359-3.23 2.181-5.644 5.14-8.089 8.08-.605.729-1.085 1.569-1.571 2.389-.572.965-.494 1.88.539 2.468 2.811 1.601 3.715 4.513 5.033 7.151.507 1.011.364 2.083.37 3.139.012 2.711-.735 5.316-1.69 7.771-1.228 3.153-4.125 4.537-7.266 4.908-3.05.36-6.139.221-9.134-.903-1.961-.736-2.893-.084-3.453 2.008a353.28 353.28 0 0 0-5.247 22.567c-.868 4.367-.397 8.687-.678 13.005zm47.577-42.604c1.367-.516 1.916-2.637 3.539-3.655.669-.42.476-1.104.091-1.687l-2.307-3.449c-.768-1.084-.156-1.825.784-1.741 4.023.359 7.657-1.507 11.512-1.792 1.712-.127 3.509.732 5.261-.165.332-.171.8.221 1.083-.344 2.319-4.637 6.788-7.752 8.916-12.544.256-.579.789-1.011.316-1.66-.392-.537-.953-.392-1.445-.187-4.432 1.86-9.063 1.343-13.474.439-3.48-.715-6.022.229-8.417 2.324-1.913 1.675-3.64 3.559-5.492 5.307-2.053 1.936-2.275 4.611-3.104 7.083-1.181 3.523-1.252 7.508-4.088 10.388-.452.459-.809.992-.852 1.671-.069 1.109-.224 2.309-1.583 2.389-1.334.079-2.741.113-3.824-1.079-1.977-2.177-2.658-7.672-1.81-10.52 1.294-4.352 2.762-8.632 4.324-12.888.617-1.683 1.068-3.432 1.77-5.075.362-.844.519-2.249 2.135-1.699 2.109.719 3.272 1.895 2.625 3.313-.897 1.967-.861 4.176-1.745 6.02-.852 1.777-.227 3.856-1.5 5.452-.115.144.035.645.213.847.332.373.767.205 1.131-.033 1.961-1.283 3.203-3.44 3.861-5.329 1.303-3.729 4.222-5.457 7.082-7.381 4.87-3.277 10.386-4.893 16.09-6.051 3.407-.689 6.708-1.927 10.127-2.52 6.397-1.111 11.936 1.068 15.157 6.647.662 1.144.712 2.067-.402 3.087-1.834 1.679-3.727 3.141-6.283 3.437-2.195.253-3.887 1.669-5.621 2.747-2.466 1.533-5.171 2.397-7.828 3.233-1.96.617-3.532 1.923-5.492 2.4-1.487.363-.938 1.231-.304 1.805.69.625 1.624.975 2.412 1.503 1.133.759 1.996 1.825 1.564 3.207-.382 1.22-1.315 2.265-2.684 2.481-3.671.577-7.306 1.252-10.908 2.207-1.423.377-3.06.044-4.632.187-2.386.217-4.384 1.376-6.198 1.627zM433.826 45.02c-.274-2.123-.214-4.432-1.565-6.353-.729-1.036-.636-1.763.068-2.82.684-1.029.853-2.389 1.343-3.565.88-2.108 1.622-2.26 3.442-.956 1.644 1.177 3.406 2.131 3.54 4.573.051.915 1.16 1.437 2.058 1.851 1.836.847 2.518 2.399 2.798 4.324.752 5.189-.23 10.109-1.916 14.992-3.812 11.047-8.378 21.735-14.813 31.539-1.279 1.949-2.895 3.676-4.332 5.524-4.304 5.528-8.233 11.403-12.988 16.511-5.688 6.111-11.176 12.516-18.551 16.902-3.902 2.321-7.613 4.993-11.545 7.294-1.645.964-3.309 1.907-5.328 1.859-.88-.021-1.596.547-2.392.829-1.905.674-3.717.667-5.389-.76-2.042-1.742-2.035-1.898-.814-4.425.687-1.421 1.015-3.013 1.524-4.521.503-1.487 1.754-2.266 2.884-1.44 3.662 2.673 6.874.761 9.886-.99 4.589-2.668 8.698-6.073 12.88-9.341 3.462-2.705 6.417-5.896 8.998-9.459 1.871-2.58 4.139-4.837 6.019-7.439 4.864-6.727 9.019-13.856 12.875-21.185 3.457-6.573 6.013-13.525 8.501-20.479 1.416-3.959 2.445-8.12 2.817-12.464zm8.125 58.537c7.022.292 12.951 2.436 18.75 5.124 5.917 2.743 11.193 6.483 16.409 10.317 7.481 5.5 12.685 12.696 15.677 21.483.244.716.442 1.535-.2 2.092-.58.505-1.168-.012-1.728-.312-3.25-1.741-6.404-3.62-9.88-4.995-2.286-.904-4.189-2.873-6.137-4.516-2.76-2.326-5.916-4.14-8.652-6.42-2.727-2.273-6.012-3.49-8.776-5.637-1.96-1.521-4.599-2.015-6.659-3.54-5.196-3.848-11.34-6.211-16.348-10.365-.394-.328-.98-.418-1.197-.979-.3-.777-.452-1.507.704-1.607l8.037-.645zM229.864 52.618c-2.7 6.019-1.412 5.307-8.428 5.165l-2.239-.001v.093c-1.92 0-3.84.04-5.759-.009-2.392-.064-2.569-.333-2.136-2.611.871-4.583 3.254-8.461 5.836-12.203 1.438-2.083 3.908-2.451 6.218-2.699 1.785-.193 3.516-.141 5.284-.873 2.418-1.003 3.745.188 3.842 2.84.135 3.7-1.158 7.041-2.618 10.297zm-72.784 7.42c-.592.281-1.347.744-2.326-.113 1.12-1.957 2.604-3.732 4.172-5.381 3.587-3.773 7.614-7.005 12.287-9.387.836-.425 1.643-.917 2.397-1.532 1.514-1.232 2.27-1.104 3.504.272.282.315.504.681.746 1.032 1.961 2.853 1.777 3.795-1.227 5.452-6.371 3.515-12.987 6.537-19.553 9.657h0zm15.113 3.208c-.481.904-1.103 1.243-2.043.6-.524-.359-1.08-.669-1.612-1.016s-1.301-.051-1.896-.905c1.159-1.789 3.311-1.801 4.836-2.864.203-.14.643-.081.904.036.723.327.592 2.685-.189 4.149h0zm77.743 4.708c-1.72-3.404-4.151-6.149-7.499-7.981-1.131-.62-1.505-1.199-1.153-2.504 1.382-5.12.248-10.34.456-15.512.02-.497-.29-1.015-.47-1.515-1.676-4.659-5.858-6.547-9.946-7.66-4.842-1.317-10.007-2.149-15.03-.185-2.814 1.101-6.154 1.276-7.945 4.231-.768 1.265-1.616 2.471-2.305 3.804-2.586 5-5.386 9.889-8.698 14.457-1.781 2.456-1.826 2.463-4.662 1.567-1.166-.368-2.244-.447-3.422-.007-3.166 1.181-6.32 2.331-8.753 4.853-.836.865-1.889 1.42-3.261.516 1.101-4.204 2.766-7.955 7.158-9.808 1.163-.491 2.344-1.037 3.352-1.781 2.283-1.683 5.223-2.309 7.223-4.399-.597-1.567-1.657-2.077-3.183-2.36-2.35-.435-2.52-1.232-1.772-3.544.679-2.103 1.779-4.112 1.66-6.441-.037-.74.206-1.453.891-1.952 1.695-1.235 3.376-2.492 5.599-2.545.969-.023 2.013.089 2.409-1.075.441-1.295-.205-2.229-1.157-3.048-1.6-1.376-3.532-1.467-5.448-1.276-1.508.151-2.522-.328-3.082-1.663-1.61-3.84-5.256-5.755-8.025-8.491-.581-.573-1.403-.913-2.317-.963-3.067-.164-6.139-.32-9.074-1.377-.426-.153-.869-.04-1.152.311-.38.473-.252 1.005.012 1.492.26.481.682.771 1.172 1.029 3.914 2.067 4.518 6.036 4.28 9.592-.281 4.229-.774 8.448-.625 12.699.053 1.524-.489 2.529-1.639 3.553-2.554 2.275-5.624 3.793-8.273 5.897-5.24 4.161-10.627 8.141-15.584 12.659-1.719 1.567-3.567 3.095-5.597 4.196-3.962 2.149-3.675 5.36-2.196 8.368 1.034 2.107 2.256 2.325 4.474 1.405 1.523-.631 2.578-1.84 3.916-2.68.834-.523 1.571-.684 2.186.272 1.142 1.776 2.413 3.425 2.63 5.705.323 3.393 1.791 6.28 4.715 8.256.969.655 1.996 1.228 2.94 1.917.908.663 1.619.683 2.544-.085 1.527-1.268 3.184-2.152 5.2-.735.611.431 1.485.319 2.056-.312 1.067-1.18 2.003-2.473 3.581-3.088.53-.205.668-.865.562-1.391-.415-2.039.758-3.476 1.854-4.899 3.4-4.413 5.746-9.399 7.93-14.467.641-1.489 1.353-3.148 2.989-3.231 1.844-.093 2.896 1.516 3.696 3.105.345.684.585 1.335.489 2.124-.07.575.247 1.204.844 1.113 1.758-.267 2.622 1.188 3.902 1.828 2.713 1.356 5.364 3.383 8.477.848.147-.12.408-.143.616-.14 3.411.048 6.831-.025 10.228.217 1.867.133 2.34 1.529 1.041 2.904-2.697 2.857-5.352 5.893-9.202 7.2-2.35.796-4.744 2.001-7.375 1.181-.897-.28-1.772-1.124-2.589-1.043-1.198.119-.616 1.617-1.127 2.383-.563.844-1.516 1.141-2.277 1.705-2.528 1.879-3.042 4.519-1.454 7.259.772 1.335 1.486 2.704 2.355 4.297 2.148-2.752 5.111-3.472 8.115-4.077 2.554-.515 4.765 1.037 4.588 3.42-.3 4.021-.706 8.043-1.284 12.034-.792 5.458-2.398 10.768-3.171 16.241-.191 1.348-.789 2.641-1.228 3.952-.337 1.008-1.068 1.263-2.027.925-.801-.282-1.617-.545-2.377-.918-1.155-.568-1.231-1.418-.308-2.252.697-.632 1.349-1.351 2.368-1.562 1.2-.249 1.931-1.285 2.912-1.91.973-.622 1.079-1.547.556-2.512-1.216-2.25-2.472-4.43-4.893-5.706-2.17-1.144-2.332-1.669-.863-3.64.857-1.152 1.043-2.298.983-3.572-.162-3.429-2.284-5.793-5.711-6.644-1.164-.289-2.321-.252-3.484-.355-2.592-.225-4.952-.951-6.549-3.513-1.134.74-1.606 1.705-2.22 2.565-2.316 3.245-3.435 7.073-4.736 10.718-1.874 5.251-3.491 10.621-4.579 16.14-1.223 6.195.639 11.031 5.527 14.872.706.555 1.234.677 1.916.035 2.757-2.602 4.665-5.844 5.878-9.308.647-1.844 1.052-3.856 1.75-5.738.598-1.613.834-3.3 1.109-4.981.067-.416.077-.913-.375-1.101-.674-.282-.956.269-1.142.757-1.074 2.809-2.946 5.156-4.443 7.719-.479.82-.977 1.658-1.847 2.168-.358.21-.688.565-1.141.389-.633-.245-.647-.887-.524-1.357.756-2.895.476-5.919 1.313-8.83.786-2.729 1.666-5.644 1.451-8.396-.283-3.636.617-6.938 1.351-10.341.129-.599.182-1.361.901-1.565.884-.251 1.369.445 1.793 1.049l3.975 5.787c.384.561.467 1.166.332 1.824-.757 3.701.736 6.882 2.467 9.94 1.68 2.968 1.742 3.041-1.162 4.494-.281.14-.668.123-.896.312-1.369 1.135-3.06 2.168-2.677 4.306.423 2.36.12 4.756 1.195 7.12 1.548 3.41 2.062 4.19 5.832 4.06 2.773-.098 4.97.798 6.75 2.873.832.969 1.607 2.06 2.79 2.592 1.882.848 3.72 2.351 5.901 1.689 2.019-.613 3.772-1.785 5.204-3.516 2.345-2.832 1.755-6.441 2.752-9.62.692-2.208.917-4.784 1.012-7.188.109-2.824 1.677-5.25 1.657-8.082-.028-3.903-.466-7.802-.756-11.658-.416-5.549-1.885-11.065-4.686-16.067-1.103-1.967-1.023-2.077 1.114-2.915 2.255-.885 4.79-1.329 6.619-2.944 3.255-2.872 7.377-4.663 10.076-8.224.896-1.183 2.139-1.632 3.687-1.016 3.833 1.525 7.716.443 11.58.087.497-.045.718-.444.794-.876.151-.849.1-1.652-.314-2.473M93.124 136.662c-1.289-.698-2.713-1.272-4.148-1.55-4.272-.834-8.625-.42-12.849.12-4.241.542-8.365 2.006-12.537 3.081-.605.156-1.255.585-1.775-.005-.633-.722-.083-1.356.324-1.983 1.387-2.137 2.528-4.396 3.604-6.711 1.085-2.337 2.699-4.316 5.133-5.478 2.444-1.17 4.348-3.012 6.115-5.019 1.485-1.687 1.717-4.609.137-6.073-1.689-1.566-3.48-3.336-5.987-3.338-2.329 0-3.657-1.03-4.797-2.952-1.441-2.428-4.472-2.742-6.628-.933-.739.62-1.123 1.199-.175 2.061 1.232 1.122 1.271 2.318-.025 3.546-1.084 1.025-1.136 2.077-.056 3.328.984 1.138.935 2.628-.016 3.814-2.407 3.007-7.085 3.467-10.292 1.083-.525-.391-.979-.848-1.716-.307-.196 1.946.627 3.468 2.088 4.682 2.123 1.762 4.277 3.452 6.897 4.502 2.471.991 2.509 1.414 1.839 3.851-.779 2.825-2.488 4.351-5.328 5.283-1.124.368-2.393.517-3.536.968a.48.48 0 0 0-.131.057c-.44.185-.859.417-1.241.731-.409.244-.765.452-.809.452-.216.001-.435.014-.631.056-.489.104-4.661 1.604-4.499 2.272.201.833 5.028-.786 5.695-1.044.109-.042.749-.183 1.26-.316.493-.002 1.057-.024 1.201.481.249.873-.633 1.028-1.175 1.153-1.351.31-2.683.64-3.979 1.151-1.12.441-2.24.409-3.401-.087-1.495-.638-5.621.066-6.161 1.116-.976 1.898 1.011 2.984 1.487 4.502.06.193.235.353.368.518 1.44 1.772 2.557 2.082 4.752 1.314 2.072-.724 4.103-1.57 6.168-2.31 3.256-1.164 6.372-2.641 9.779-3.509 5.992-1.527 11.768-3.791 17.82-5.209 4.359-1.022 8.489-1.354 12.743.201 1.059.387 2.312.341 3.473.323.792-.014 1.849.105 2.088-1.026.236-1.124-.095-2.264-1.079-2.796z"/><path d="M72.47 36.83c-3.259 1.727-6.785 2.801-10.116 4.344-1.205.559-1.707.076-1.603-1.419.409-2.215 1.087-4.473.824-6.852-.048-.441.205-.811.561-1.081 3.664-2.788 7.759-3.731 12.28-2.863.821.157 1.336.599 1.484 1.431.413 2.315-1.311 5.317-3.431 6.44zm1.569 17.475c-.572.128-.947-.331-1.235-.817-1.091-1.839-2.788-2.851-4.785-3.427-1.076-.311-2.145-.435-2.78.78-.552 1.059.105 1.76.768 2.512 1.817 2.064 1.831 2.112.289 4.229-1.744 2.396-3.453 4.76-5.961 6.557-2.827 2.025-2.541 6.391.313 8.917 1.453 1.288 3.071 2.295 5.171 2.067.371-.04.849-.145 1.203.575-.628.907-1.6 1.588-2.743 1.589-1.596.001-2.612.863-3.499 1.912-1.293 1.529-3.188 2.061-4.784 3.076-.879.557-1.684-.136-1.5-1.175.072-.407.284-.796.473-1.173.825-1.645 1.075-3.147.523-5.125-.636-2.285.02-4.837.561-7.22 1.08-4.76 2.132-9.524 2.756-14.371.2-1.547 1.029-2.577 2.52-2.947 3.499-.869 6.868-2.048 10.131-3.601 2.36-1.124 3.088-.587 3.141 1.931l.099 4.147c.009.612.172 1.379-.661 1.564h0zm.653 10.589h-.077c0 1.481.035 2.963-.013 4.443-.031.931-.524 1.936-1.501 1.491-2.153-.981-4.565-.924-6.681-1.923-1.359-.643-1.623-1.292-.587-2.404 2.303-2.475 4.729-4.839 7.184-7.165.801-.759 1.619-.333 1.661.803.06 1.583.015 3.171.015 4.756h0zm56.221 53.499c-5.888-4.131-12.043-7.812-18.563-10.873-9.378-4.406-19.189-7.704-28.857-11.372-2.003-.76-4.053-1.217-6.08-1.819-.589-.173-1.253-.431-1.265-1.212-.008-.619.521-1.049.983-1.117 1.968-.292 2.595-1.924 3-3.353.599-2.116 1.972-2.559 3.807-2.592 1.597-.029 3.2 0 4.789-.123 3.909-.301 7.816-.471 11.65-1.576 2.209-.637 4.62-.617 6.763-1.613.94-.437 2.164-.787 2.222-2.041.063-1.344-.562-2.559-1.824-3.137-2.882-1.324-5.756-3.409-8.948-.572-.36.32-.959.433-1.467.517-2.703.452-5.236 1.553-7.892 2.109-2.415.507-4.536 2.547-7.211 1.489-.42-.469-.42-1.015-.351-1.541.804-6.123-.143-12.305.905-18.459.727-4.268.321-8.715.757-13.049.309-3.079.349-6.328 3.469-8.472 4.564-3.136 4.749-4.991.856-8.667-1.909-1.804-2.516-3.787-2.311-6.223.116-1.379.371-2.761.331-4.136-.105-3.62 1.433-7.057.997-10.74-.191-1.619.077-3.369 1.773-4.528 1.109-.76.851-1.895-.103-2.704-.967-.82-1.971-1.651-3.088-2.224-1.997-1.025-3.651.361-5.357 1.083-1.403.592-1.019 1.945-1.091 3.064-.256 4 .125 8.016-1.175 11.977-.637 1.94-.135 4.229-.304 6.348-.296 3.703-1.403 4.76-5.009 4.701-3.484-.057-6.845-1.088-10.205-1.815-3.868-.837-6.839.317-8.401 4.024-1.339 3.176-1.749 6.553-2.392 9.875-.292 1.515-.547 2.616-2.42 2.707-1.329.063-1.321 1.131-.436 1.668 1.453.883 1.645 2.136 1.567 3.551-.065 1.167-.273 2.325-.417 3.488-.313 2.525-.831 5.045-.896 7.577-.12 4.683.203 9.381-.004 14.057-.145 3.316.864 6.3 1.877 9.295.927 2.737.919 3.021-1.677 4.429-5.259 2.851-10.839 5.077-16.093 8.213.561.581 1.189.937 1.777.588 2.201-1.311 4.903-1.159 7.064-2.333 2.3-1.249 5.049-.591 7.219-2.099.531-.369 1.321-.448 1.675.232.316.605-.02 1.349-.576 1.657-1.48.817-2.989 1.613-4.564 2.217-3.937 1.512-7.957 2.813-11.867 4.388a328.58 328.58 0 0 1-12.385 4.716c-4.241 1.514-8.207 3.835-12.959 3.659-1.295-.048-2.011 1.14-1.948 2.471.068 1.456 1.224 1.41 2.308 1.618 2.501.48 4.603-.877 6.613-1.732 6.685-2.84 13.6-5.094 20.221-8.101 1.767-.803 3.74-2.105 6.128-1.084-.248 1.765-1.543 2.772-2.62 3.868-5.821 5.927-11.347 12.14-17.385 17.853-1.083 1.026-1.647 2.535-2.969 3.316-3.488 2.062-6.303 5-9.603 7.294-2.531 1.76-4.784 3.865-7.303 5.617-2.163 1.504-2.219 2.111-.065 3.508.784.508 1.567.58 2.42.604 5.069.144 9.747-.828 14.228-3.516 4.237-2.541 8.732-4.597 11.839-8.649.315-.411.763-.84 1.235-.99 2.259-.716 3.741-2.416 5.239-4.062 2.431-2.675 4.692-5.51 7.181-8.127 5.127-5.391 10.819-10.276 15.043-16.471 2.751-4.034 6.697-6.797 10.172-10.062a3.95 3.95 0 0 1 2.601-1.075c1.083-.028 1.847 1.436 1.019 1.969-1.813 1.172-.812 1.94-.005 2.981.973 1.256 1.835 2.599 2.709 3.927 1.412 2.143 2.952 4.175 5.008 5.748 3.277 2.508 6.513 5.059 10.119 7.128 5.231 3.003 10.781 5.264 16.402 7.343 3.054 1.129 6.226 2.252 9.427 2.585 4.113.43 8.308.064 12.468.038.76-.006 1.476-.167 2.131-.582 1.35-.854 1.432-1.717.093-2.657M547.893 44.28a14.68 14.68 0 0 0-3.166.241c-.502.095-1.109.26-1.284-.496-.136-.589.099-1.095.662-1.287 2.072-.705 1.5-2.169 1.176-3.657-.342-1.567-1.403-2.901-1.43-4.549-.017-1.044-.234-2.229.832-2.9 1.116-.703 2.043.016 2.868.707 2.587 2.165 5.662 3.251 8.862 4.073.102.027.222.019.31.069 1.44.808 3.256 1.26 3.559 3.239.095.621-3.38 3.173-4.305 3.324-2.691.44-5.203 1.956-8.084 1.236zm-40.192 28.613c0-1.383-.131-2.468.026-3.509.306-2.012 1.763-2.597 3.519-1.515.269.167.572.345.739.599 2.028 3.064 5.264 3.545 8.509 4.013.104.015.24-.029.315.021 4.192 2.841 7.733-.115 11.242-1.551 3.782-1.547 7.228-3.899 10.871-5.805 1.385-.724 2.524-1.637 3.132-3.051 1.277-2.969 4.101-3.355 6.644-3.551 1.713-.132 3.58.067 5.369.231 1.962.179 3.647 1.493 3.986 3.096.248 1.165.184 2.119-1.343 2.32-2.411.316-3.337 2.221-3.868 4.173-1.543 5.672-3.712 11.045-6.997 15.937-.371.551-.655 1.085-.683 1.744-.044 1.048.34 1.644 1.507 1.427.629-.117 1.258-.267 1.893-.312 2.693-.193 4.64 1.239 5.392 3.924.368 1.308-1.168 4.883-2.488 5.597-.843.456-1.747.775-2.715.168-1.976-1.235-4.374-1.7-6.149-3.296-.867-.78-1.9-1.219-2.909-.719-1.27.631-1.03 1.983-.918 3.139.17 1.747 1.558 3.003 1.959 4.679.167.7.613 1.259.285 2.103-1.608 4.146-1.034 8.602-1.716 12.885-.118.749.239 1.473.651 2.104.769 1.179.903 2.487 1.155 3.839.285 1.524.142 2.252-1.319 3.014-1.505.786-2.443.31-3.348-.704-1.745-1.956-4.013-3.573-4.363-6.473a.52.52 0 0 0-.148-.281c-2.909-2.892-1.729-5.956-.272-8.94.743-1.52.81-3.066.796-4.664-.005-.727.156-1.594-.75-1.91-.683-.238-1.178.236-1.652.704l-5.494 5.336c-1.29 1.303-2.558 2.583-4.533 2.712-.748.05-1.135.42-1.237 1.175-.27 1.981-1.976 2.885-3.406 3.508-1.754.764-3.472 2.289-5.87.941-1.11-.624-2.902-.265-4.343.346-1.376.584-2.256-.066-2.685-1.399-.918-2.851-.155-5.708.052-8.555.048-.674.793-1.076 1.468-.945 3.621.697 5.877-1.916 8.566-3.467.36-.208.603-.613.959-.828 3.817-2.308 6.876-5.453 10.035-8.56 3.114-3.063 6.005-6.328 9.112-9.385.962-.949 1.156-1.947.976-3.176-.211-1.428.097-2.445 1.817-2.745 1.301-.227 2.132-1.349 2.987-2.303.381-.427.457-.969.276-1.496-.222-.644-.78-.593-1.316-.524-4.246.547-8.24 1.437-11.358 4.879-1.444 1.593-3.604 2.605-5.562 3.649-2.894 1.543-6.084 1.669-9.288 1.465-2.643-.169-4.612-1.343-5.907-3.736-1.135-2.097-2.049-4.195-1.601-6.329zm100.348-2.359c-1.822 4.064-3.835 8.033-6.402 11.693-.4.569-.537 1.652-1.48 1.356-.821-.257-.686-1.196-.61-1.943l.186-1.824c-.616-3.527 1.331-6.527 2.926-9.644.73-1.431 2.198-1.731 3.452-1.929 1.013-.161 1.772-1.853 2.774-.78 1.091 1.167-.412 2.101-.846 3.071zm-17.12 28.812c-.991.6-2.058 1.078-3.104 1.611-.331-.141-.672-.199-.882-.396-.341-.324-.333-.764-.052-1.144.71-.956 1.574-1.724 2.702-2.167.75-.293 1.232.079 1.565.669.281.501.281 1.119-.229 1.427h0zm33.206-38.861c-3.537-3.623-8.193-3.423-12.718-3.58-.471-.016-1.062.319-1.42.669-1.828 1.781-4.388 2.023-6.514 3.173-1.172.635-2.136.255-2.32-1.16-.229-1.764-.805-3.523.167-5.307.805-1.476.353-3.357 1.516-4.823.487-.613.291-1.696-.277-2.413-1.12-1.415-.46-2.561.422-3.728.628-.829 1.202-1.575 1.219-2.809.043-2.817-.453-5.715.763-8.44.118-.268.194-.683.072-.913-1.1-2.047-1.743-4.675-3.968-5.613-1.9-.801-3.35-2.165-5.154-3.045-2.856-1.393-3.382-1.223-3.536 1.879-.037.744-.01 1.493.031 2.236.177 3.077.208 6.139.04 9.231-.124 2.283-.324 4.625.179 6.967.397 1.853.322 3.84-.067 5.725-.612 2.977-.416 5.929-.053 8.9.102.841.193 1.695.181 2.54-.065 4.672-.08 4.664-4.625 6.383-.487.184-.875.669-1.364.795-2.75.705-5.376 2.057-8.362 1.58-.726-.117-1.496-.077-2.234.001-1.551.165-1.864.851-.792 2.071 1.116 1.269 2.377 2.432 3.697 3.487.623.497 1.479 1.075 2.36.721 2.637-1.057 5.523-.401 8.175-1.269 1.254-.411 1.822.119 1.865 1.349l.1 4.148c.072 2.045-.001 2.045-2.04 2.281-2.995.348-5.976.827-8.963 1.249 2.316 2.567 2.316 2.565 4.847 2.576.848.003 1.723-.129 2.505.315.722.411 1.166.993.679 1.831-2.043 3.507-4.773 6.511-7.201 9.736-.324.429-.88.628-1.426.311-.561-.327-.658-.973-.358-1.381 1.233-1.671.144-3.063-.498-4.449-.62-1.34-1.538-2.54-2.201-3.864-1.797-3.591-3.101-7.397-4.863-11.019-1.009-2.077-1.916-4.433-1.197-7.084.547-2.015-.667-3.744-2.628-4.595-.767-.332-1.635-.373-2.299-1.012-.49-.471-1.168-.617-1.718-.081a1.28 1.28 0 0 0-.07 1.765c1.775 1.892.627 3.629-.361 5.177-.685 1.073-1.224 2.22-1.875 3.303-1.7 2.831-2.45 6.003-1.417 9.165.816 2.496 1.4 5.08 2.431 7.5 1.125 2.639 2.296 5.26 4.524 7.241 1.43 1.271 2.737 2.101 4.785 1.043 1.988-1.028 4.181.047 6.255.18 1.301.083.117 2.143 1.104 3.032.425.383.51 1.136.768 1.714 1.106 2.478 2.96 3.44 5.64 2.982 1.362-.233 2.74-.374 4.101-.606.944-.162 1.483.189 1.468 1.134-.036 2.338.297 4.794-.309 6.983-.818 2.941-.992 5.852-1.004 8.831-.004.853.025 1.714-.419 2.492-.831 1.45-.875 3.058-.876 4.654-.004 3.411-.072 6.827.108 10.228.203 3.842-.349 7.636-.563 11.444-.092 1.639-.937 3.208.031 4.855.125.212-.035.619-.117.92-1.283 4.648-1.042 9.213.564 13.76.47 1.329.962 2.336 2.573 2.311 1.516-.023 1.58-1.272 1.844-2.222.815-2.941 1.589-5.852 2.807-8.704.988-2.313 2.476-4.585 2.893-6.949.621-3.536 1.268-7.129 1.485-10.731.243-4.034.028-8.094.178-12.137.146-3.967-2.334-7.783-.626-11.831.1-.237-.113-.616-.205-.921-.225-.743-.261-1.488.121-2.175.83-1.49.642-3.106.615-4.693l-.228-7.66c-.039-1.419.015-2.639 1.753-3.312 1.238-.48 2.559-1.532 2.908-2.832.759-2.823 2.804-4.711 4.415-6.915 2.881-3.941 5.623-7.961 7.899-12.292 2.366-4.504 4.545-9.107 7.468-13.311 1.62-2.331 1.265-4.991-.69-6.991m103.551 8.198c-.337.513-.779 1.055-1.541.637-.684-.373-.819-1.119-.531-1.639 1.093-1.98 1.423-4.387 3.657-6.472.302 3.145-.229 5.408-1.585 7.473zm50.897 15.143c-1.868-4.52-5.676-6.701-9.846-8.495-.812-.349-1.598-.048-1.859.728-.492 1.457-1.549 1.52-2.784 1.487-.945-.025-1.933-.165-2.793.427-1.735 1.195-3.712.696-5.602.796-1.276.068-1.698-.625-1.529-1.809.591-4.131-.117-8.305.401-12.436.444-3.547.243-7.28 2.847-10.236.276-.313.487-.716.317-1.173-.805-2.176.391-4.084.91-6.041.993-3.741 3.254-7.023 3.676-11.033.313-2.979-.262-4.387-3.184-4.92-.42-.076-.907-.051-1.246-.26-2.088-1.288-3.606-.456-5.013 1.175-.692.803-1.549 1.459-2.281 2.229s-1.411 1.588-2.087 2.407c-.225.276-.16.651.1.847.231.175.648.361.851.264.648-.308 1.198-.823 1.852-1.119 1.532-.693 3.005-2.044 4.844-.792-.356 2.972-2.194 5.351-2.299 8.272-.033.943-.784 2.421-2.028 1.956-3.121-1.168-6.061.277-9.087.264-1.59-.007-1.992 1.06-.99 2.332.652.829 1.524 1.483 2.268 2.243 1.617 1.649 1.788 2.157.066 3.643-1.601 1.38-1.792 2.877-1.102 4.521.692 1.652 1.62 3.161 3.864 3.28 2.089.111 2.664.915 1.977 2.844s-1.188 3.792-1.135 5.879c.048 1.835-1.204 2.479-3.008 1.844-3.222-1.133-6.029-2.947-8.704-5.06-1.141-.901-1.51-1.796-1.604-3.195-.214-3.232.77-6.623-1.149-9.668-.201-.32-.18-.845-.12-1.255.165-1.113.253-2-1.351-2.056-1.028-.036-1.529-.975-1.15-1.867 1.056-2.491 1.582-5.527 4.604-6.493 2.257-.724 4.033-2.325 6.308-2.981 1.132-.325 1.974-1.308 2.516-2.349.59-1.139.576-2.276-.796-2.981-.57-.292-1.099-.661-1.675-.939-2.343-1.125-2.872-2.684-1.637-4.957.202-.373.47-.713.737-1.045 2.895-3.587.708-8.359-2.431-10.493-3.108-2.112-4.632-1.749-7.02 1.216-1.294 1.608-1.425 2.717.08 4.185 1.842 1.799 1.674 3.808 1.075 5.896-.609 2.132-1.101 4.405-2.243 6.248-1.085 1.752-.452 4.665-3.389 5.276-.472.099-.349.943-.268 1.467.321 2.057-.211 3.979-.692 5.967-.596 2.456-1.013 4.976.269 7.472 1.44 2.807 1.324 3.328-.861 5.613-2.209 2.311-4.353 4.664-6.251 7.245-.657.893-1.106 2.533-2.385 2.231-1.397-.332-.855-1.991-.897-3.06-.172-4.363.532-8.633 1.098-12.959.728-5.547.27-11.273.048-16.912-.134-3.396-2.61-5.319-5.704-4.965-2.792.32-6.388 5.549-5.702 8.232.201.788.688.987 1.384.988 1.066.001 2.134.033 3.201 0 1.1-.036 1.529.499 1.501 1.547-.056 2.125.106 4.276-.169 6.372-.919 6.979-1.379 13.965-1.196 21.009.068 2.659.772 5.003 2.289 7.125.639.892 1.455 1.711 2.679 1.161 1.173-.525 1.84-1.435 1.391-2.827-.098-.303-.203-.608-.254-.921-.086-.547.006-1.092.472-1.421.524-.371 1.018-.036 1.448.268 1.3.916 2.538 1.932 3.886 2.771 4.402 2.736 7.906 1.436 9.812-2.455.42-.859.713-2.015 1.817-1.896 1.085.115.564 1.435.98 2.109.443.719.948 1.412 1.503 2.049.977 1.124 2.02 2.191 3.022 3.292 1.634 1.797 1.364 3.011-1.034 3.547-1.862.416-3.667 1.22-5.468 1.469-4.216.583-8.143 2.184-12.294 3.011-4.662.927-9.25 2.28-14.029 2.42-3.053.091-6.188.193-9.072-1.109-2.493-1.127-4.92-2.403-7.359-3.648-.588-.3-1.117-.639-2.005-.032.781 1.864 2.631 2.7 3.429 4.271 1.251 2.456 3.336 4.113 5.21 5.976 1.228 1.22 2.832 1.964 4.506 2.123 3.64.347 7.374.16 10.627-1.505 4.571-2.341 9.36-4.036 14.199-5.609 1.593-.519 3.09-1.345 4.754-1.623 3.767-.628 7.342-2.007 10.978-3.064 2.296-.668 4.07-.797 5.962.537 1.475 1.04 2.811.536 3.544-.788 1.188-2.151 2.988-2.836 5.238-3.031.94-.081 1.85-.475 2.778-.711.772-.196 1.64-1.061 2.311-.141.599.821-.108 1.629-.677 2.241-4.26 4.583-7.318 10.219-12.379 14.103-.492.377-1.008.896-.603 1.624.382.681 1.1.473 1.718.546 1.22.147 1.801-1.068 2.845-1.281 4.385-.892 8.271-3.147 12.456-4.591 1.076-.372 2.273-.493 3.179-1.389 1.918-1.897 4.402-2.923 6.776-4.077 1.606-.781 2.734-1.983 3.738-3.384.48-.672.44-1.168.1-1.989m-44.849 57.883c.394-2.992-.306-5.946-.214-8.933.062-2.044-.308-2.327-2.48-2.304-3.799.041-7.224 1.575-10.632 2.963-3.248 1.324-6.638 2.126-9.978 3.057-4.08 1.137-9.53-2.152-11.125-6.216-.36-.919.091-1.385.631-1.923.561-.56 1.078-.924 1.938-.416 2.292 1.354 4.583 1.075 6.932-.018 1.612-.752 3.45-1.09 5.138-1.434 1.965-.401 3.713-1.465 5.764-1.552 1.948-.082 2.138-1.857 2.474-3.257.47-1.953.604-3.961 1.77-5.743.653-.997 1.181-1.933 2.341-2.469 2.091-.965 2.937-2.968 3.763-4.94.208-.496.34-1.045-.064-1.492-.535-.592-1.164-.344-1.747-.055-3.608 1.79-7.453 1.55-11.223 1.016-2.252-.318-3.701-2.322-5.3-3.829-.568-.537-.237-1.199.474-1.505.282-.123.636-.166.942-.128 4.44.54 8.194-1.664 12.167-2.999 2.728-.916 5.435-1.777 6.989-4.551.378-.675 1.151-1.229 2.19-.755 2.781 1.268 5.66 2.343 7.908 4.545 1.798 1.763 2.122 2.248.685 4.352-1.688 2.469-3.288 5.167-6.156 6.565-1.067.522-1.427 1.503-1.965 2.416-.592 1.006-.46 1.74.421 2.498 1.611 1.388 3.263 2.742 4.565 4.446.692.906 1.642.88 2.61.792 1.918-.172 3.824-.168 5.748.035 1.408.147 2.184.735 2.222 2.16.116 4.331 1.36 4.861-3.974 4.707-.107-.003-.214-.012-.319-.011-4.172.076-4.485.181-4.173 4.305.378 4.994.244 9.946-.091 14.924-.331 4.936-1.913 9.467-4.029 13.858-1.068 2.217-3.555 2.434-5.374 2.761-3.389.611-6.953.881-10.405-.351-1.172-.42-2.508-.465-3.777-.52-3.287-.138-5.84-2.237-8.808-3.225-.75-.249-1.474-.857-1.622-1.836-.229-1.527-1.098-2.761-1.992-3.948-.534-.711-.588-1.303-.08-2.012.492-.689 1.154-.997 1.938-.749 1.006.318 1.969.777 2.958 1.153 2.994 1.139 6.167 1.764 9.295 1.775 3.373.012 6.768-.379 10.161-.527 1.48-.064 2.304-1.259 2.77-2.716.829-2.599.657-5.268.734-7.915zm-55.208-52.82c.099.005.643-.032 1.156.075.807.165 1.054.784.666 1.432-1.352 2.259-2.344 4.721-3.979 6.821l-4.736 6.307c-1.349 1.705-2.172 3.616-2.656 5.705-.356 1.54.159 2.291 1.663 1.964 1.426-.308 2.77-1.009 4.138-1.57.479-.196.895-.578 1.383-.716.525-.15 1.065.038 1.435.477.378.447.456 1.023.128 1.476-2.171 3.003-4.872 5.263-8.679 5.807-1.664.237-3.067-.184-4.229-1.598-1.466-1.781-3.839-2.673-4.896-4.913-.319-.673-.87-1.267-.598-2.055.807-2.337.26-4.798.798-7.202.78-3.488 2.073-5.903 5.692-7.535 2.93-1.321 5.761-2.893 8.845-3.943 1.144-.389 2.271-.491 3.869-.532z"/><path d="M691.585 61.632c.63-2.861-1.026-6.203-5.058-8.417-.185-.103-.378-.211-.526-.357-.594-.587-1.45-1.197-.991-2.113.505-1.007 1.396-.428 2.232-.26 3.993.8 7.572 2.547 11.057 4.561.488.283.831.553 1.078 1.056 2.214 4.524 4.024 9.117 2.692 14.307-.431 1.673-.091 3.388-.24 5.077-.203 2.271-1.387 3.043-3.435 2.128-2.149-.96-3.749-2.315-4.957-4.581-1.675-3.141-2.52-6.231-1.852-11.4z"/></svg>