<svg
   width="121.52921mm"
   height="47.046314mm"
   viewBox="0 0 121.52921 47.046314"
   fill="currentColor"
   xmlns="http://www.w3.org/2000/svg">
   <path
      d="m 86.117376,0 -1.886479,9.389189 -12.680156,0.01445 -1.172634,5.929153 h 12.658725 l -6.323806,31.475971 h 6.628606 l 6.323544,-31.475971 12.238564,0.0053 1.17608,-5.933387 L 90.860296,9.384595 92.745716,9e-6 Z"
   />
   <path
      d="m 104.75754,9.38956 -1.41287,6.942322 c 0,0 0.82232,-0.817747 2.89877,-0.941202 l 14.09092,-0.05786 1.19485,-5.94749 z"
   />
   <path
      d="m 114.71646,28.654375 c -2.08254,-2.243667 -5.47026,-3.819525 -6.63522,-4.372319 -0.4879,-0.231431 -3.9587,-2.002737 -4.89744,-2.369979 -1.31022,-0.512233 -1.68275,-1.629119 -1.76001,-2.505075 -0.0773,-0.87593 0.37888,-1.72683 0.5969,-2.056686 0.0778,-0.117819 0.17886,-0.216958 0.27623,-0.295989 H 91.451116 c 0,0 -0.29316,0.865717 -0.44027,2.534708 -0.10107,4.060825 3.04826,6.008529 3.04826,6.008529 l 10.142814,5.967227 c 0,0 3.67268,1.826948 3.43535,4.915694 -0.27782,3.606271 -5.7748,3.149071 -5.7748,3.149071 H 87.046593 L 85.622341,46.80876 H 103.7344 c 4.47278,0 7.35568,-0.921808 9.41493,-2.629958 2.85115,-2.364846 3.8653,-5.363634 3.98436,-8.443913 0.16113,-4.192323 -1.45918,-6.048375 -2.41723,-7.080514 z"
   />
   <path
      d="m 69.529589,17.054354 h 7.8994 L 62.764193,46.80876 H 56.867424 L 53.470968,22.614493 41.546727,46.80876 H 36.5125 l -4.49289,-31.432579 -9.959657,-0.04339 c 0,0 -2.072587,-0.08078 -3.581771,0.422275 -1.184275,0.394759 -2.405247,0.81706 -3.642069,1.549771 -1.656662,0.981762 -3.075887,2.092669 -4.9900414,4.447116 -1.533525,1.88595 -2.777067,4.708499 -3.118194,7.299563 -0.383831,2.914386 1.073838,6.025886 2.734019,8.040158 1.4008894,1.699155 3.8145774,2.542646 5.7474384,2.854855 2.887133,0.466725 6.093909,0.225425 8.364378,-0.415925 4.403064,-1.243277 8.070453,-3.424238 8.070453,-3.424238 l -1.412081,7.856802 c 0,0 -4.378722,2.77786 -12.759663,3.068108 C 9.0918236,47.322053 4.6087236,43.337958 2.4338566,40.061358 0.25898161,36.785287 -0.54888139,31.225333 0.37998361,26.884579 1.0118086,23.932808 2.1731496,21.36037 3.7525316,19.121995 c 0.906648,-1.284817 1.950853,-2.459567 3.111844,-3.533087 1.45804,-1.348317 3.4561734,-2.954496 5.3558814,-3.938402 2.248615,-1.164167 5.111036,-2.2606 8.390811,-2.2606 l 17.933432,0.02328 3.295385,23.05304 11.373379,-23.076323 5.751777,-0.0042 3.224742,22.56118 z"
   />
</svg>