<svg xmlns="http://www.w3.org/2000/svg" width="1425" height="325" fill="none" xmlns:v="https://vecta.io/nano"><g fill="#fff"><path d="M45.209 271.788c.675.323 1.015.793 1.015 1.41 0 1.939-1.778 4.495-5.333 7.667-6.022 5.377-12.867 8.063-20.534 8.063-6.198 0-11.139-2.24-14.826-6.72S0 271.715 0 264.165c0-10.782 3.452-19.813 10.356-27.1s15.467-10.929 25.69-10.929c5.2 0 10.589.987 16.172 2.954l-2.954 6.478-.836 1.894c-.705 1.497-1.573 2.247-2.602 2.247-.205 0-.512-.043-.924-.131.412-.906.617-1.652.617-2.236 0-1.961-1.316-3.671-3.948-5.134s-5.698-2.194-9.198-2.194c-7.177 0-13.008 2.833-17.492 8.497s-6.729 13.034-6.729 22.104c0 7.016 1.573 12.605 4.722 16.775s7.352 6.25 12.616 6.25c3.796 0 7.581-1.137 11.36-3.413s6.566-5.09 8.36-8.439zm18.68-8.945c3.438-5.17 7.219-9.437 11.346-12.801s7.659-5.045 10.597-5.045c2.849 0 4.274 1.981 4.274 5.941 0 1.176-.171 2.98-.51 5.413l-2.349 16.417c-.488 3.287-.731 5.885-.731 7.792 0 1.525.412 2.289 1.236 2.289 2.031 0 4.521-2.689 7.464-8.065.737.442 1.105.898 1.105 1.366 0 1.911-1.639 4.414-4.919 7.514s-5.947 4.648-8.005 4.648c-2.294 0-3.44-1.644-3.44-4.935 0-2.409.307-5.742.924-10.002l1.527-10.665c.498-3.496.749-6.271.749-8.328 0-2.26-.808-3.392-2.419-3.392-3.751 0-7.547 2.548-11.388 7.646s-6.094 10.568-6.769 16.413l-1.171 10.576-6.592 2.687.133-1.234.354-3.263.352-3.082 4.28-38.625c1.027-9.112 4.404-16.894 10.13-23.345s12.128-9.679 19.204-9.679c1.469 0 2.893.163 4.274.484l-6.472 6.346c-1.676-.499-3.259-.748-4.756-.748-8.718 0-13.841 6.821-15.368 20.464l-3.058 27.213zm48.873.705c6.518-12.367 12.935-18.551 19.246-18.551 1.643 0 3.289.382 4.935 1.145l-6.209 6.787c-.94-.53-2.144-.793-3.612-.793-3.052 0-6.273 2.475-9.665 7.424s-5.378 10.098-5.965 15.445l-1.192 10.751-6.55 2.204.133-1.322.307-2.863.354-2.865 2.311-20.975.265-2.292c.205-1.732.309-3.143.309-4.23 0-1.792-.5-2.688-1.499-2.688-2.355 0-4.693 2.512-7.016 7.535-.735-.557-1.087-1.13-1.057-1.718.088-1.792 1.728-4.163 4.921-7.117s5.716-4.428 7.571-4.428c2.501 0 3.753 1.645 3.753 4.934 0 .794-.075 1.867-.221 3.217l-.31 3.084-.406 3.703-.403 3.613zm33.65-24.235l3.701-9.122c3.289-1.35 5.993-3.217 8.109-5.596.291.412.44.838.44 1.278 0 3.938-4.085 8.417-12.25 13.44zm8.818 35.031c.788.47 1.184.926 1.184 1.366 0 1.057-1.278 3.144-3.834 6.257-3.436 4.231-6.624 6.345-9.562 6.345-2.144 0-3.217-1.423-3.217-4.268 0-1.203.442-4.9 1.322-11.093l1.72-11.969.44-3.038.352-2.421c.147-1.028.221-1.892.221-2.598 0-1.466-.41-2.2-1.23-2.2-2.278 0-4.735 2.512-7.367 7.535-.555-.498-.832-.997-.832-1.497 0-1.792 1.651-4.201 4.957-7.227s5.941-4.539 7.91-4.539c2.202 0 3.303 1.527 3.303 4.577 0 .589-.117 1.79-.352 3.611l-.395 2.947-.487 3.564-1.806 12.588-.44 2.819c-.382 2.787-.573 4.651-.573 5.59 0 1.262.366 1.89 1.095 1.89 2.46 0 4.987-2.746 7.591-8.239zm.474 11.589l6.094-4.979c2.295 2.439 5.18 3.657 8.654 3.657 4.239 0 6.359-2.042 6.359-6.124 0-2.263-1.945-5.421-5.835-9.476l-2.519-2.598c-3.685-3.847-5.526-6.962-5.526-9.343 0-3.407 1.477-6.27 4.427-8.591s6.588-3.482 10.908-3.482c2.348 0 4.918.44 7.711 1.322l-5.288 4.89c-2.235-1.673-4.716-2.511-7.448-2.511-3.201 0-4.802 1.338-4.802 4.01 0 1.911 1.776 4.716 5.332 8.417l2.731 2.907c4.054 4.232 6.081 7.639 6.081 10.223 0 3.703-1.778 6.97-5.332 9.805s-7.653 4.252-12.294 4.252c-3.29 0-6.374-.792-9.253-2.379zm46.584-34.679l-2.134 19.477-.572 7.754c0 3.321 1.127 4.98 3.383 4.98 2.431 0 4.949-1.997 7.553-5.993.44.559.659 1.057.659 1.499 0 1.645-1.447 3.612-4.34 5.903s-5.385 3.438-7.468 3.438c-4.173 0-6.259-2.673-6.259-8.019 0-1.969.249-5.156.749-9.562l2.114-19.477h-9.252l5.127-5.112h4.692l.932-8.019 6.492-2.159-1.071 10.178h18.684l-5.164 5.112h-14.125zm28.625-11.941l3.701-9.122c3.289-1.35 5.992-3.217 8.107-5.596.294.412.44.838.44 1.278 0 3.938-4.082 8.417-12.248 13.44zm8.817 35.031c.789.47 1.185.926 1.185 1.366 0 1.057-1.278 3.144-3.833 6.257-3.438 4.231-6.625 6.345-9.562 6.345-2.146 0-3.217-1.423-3.217-4.268 0-1.203.44-4.9 1.322-11.093l1.718-11.969.442-3.038.352-2.421c.146-1.028.221-1.892.221-2.598 0-1.466-.41-2.2-1.23-2.2-2.281 0-4.736 2.512-7.368 7.535-.554-.498-.834-.997-.834-1.497 0-1.792 1.654-4.201 4.957-7.227s5.941-4.539 7.91-4.539c2.204 0 3.305 1.527 3.305 4.577 0 .589-.118 1.79-.351 3.611l-.398 2.947-.484 3.564-1.806 12.588-.44 2.819c-.384 2.787-.575 4.651-.575 5.59 0 1.262.366 1.89 1.097 1.89 2.457 0 4.987-2.746 7.589-8.239zm33.14-22.124c-2.674-1.497-5.379-2.244-8.111-2.244-4.117 0-7.569 2.509-10.362 7.524s-4.189 11.236-4.189 18.658c0 3.813 1.131 5.72 3.395 5.72 2.616 0 5.777-1.993 9.48-5.983 4.997-5.369 8.023-11.678 9.082-18.923l.705-4.752zm-2.516 17.452c-3.315 5.465-6.96 9.938-10.936 13.418s-7.43 5.222-10.361 5.222c-4.021 0-6.03-3.245-6.03-9.739 0-8.929 2.929-16.662 8.79-23.198s12.801-9.805 20.82-9.805c3.056 0 5.656.381 7.799 1.145l-.265.966-.528 2.333c-.352 1.613-.545 2.554-.573 2.817l-2.819 19.453-.398 2.817c-.381 2.789-.572 4.651-.572 5.59 0 1.264.366 1.892 1.097 1.892 2.457 0 4.971-2.746 7.544-8.239.79.47 1.186.94 1.186 1.41 0 1.029-1.264 3.1-3.789 6.213-3.438 4.229-6.627 6.345-9.562 6.345-2.146 0-3.217-1.439-3.217-4.318 0-.882.102-2.1.309-3.657l.444-3.526.575-3.878.486-3.261zm28.795 15.953l-6.595 2.687.133-1.234.354-3.261.353-3.084 2.297-20.446.265-2.335.263-4.406c0-1.88-.47-2.821-1.41-2.821-2.208 0-4.577 2.498-7.107 7.491-.677-.557-1.013-1.041-1.013-1.453 0-1.764 1.61-4.165 4.831-7.205s5.756-4.561 7.609-4.561c2.529 0 3.793 1.615 3.793 4.848 0 .822-.072 1.923-.221 3.303l-.352 3.571-.361 2.995-.362 3.129c3.466-5.17 7.263-9.437 11.39-12.801s7.645-5.045 10.555-5.045c2.849 0 4.273 1.981 4.273 5.941 0 1.204-.154 3.01-.466 5.415l-2.395 16.415c-.488 3.287-.729 5.885-.729 7.792 0 1.525.412 2.289 1.235 2.289 2.032 0 4.535-2.687 7.509-8.065.707.442 1.059.898 1.059 1.366 0 1.911-1.64 4.416-4.919 7.514s-5.949 4.648-8.007 4.648c-2.294 0-3.441-1.644-3.441-4.935 0-2.407.309-5.742.926-10.002l1.557-10.665c.498-3.466.75-6.212.75-8.24 0-2.318-.808-3.48-2.424-3.48-3.757 0-7.564 2.548-11.422 7.646s-6.112 10.568-6.759 16.413l-1.169 10.576zm77.246 3.303c.498-3.524.747-8.796.747-15.818 0-13.984-.623-24.205-1.872-30.669s-3.239-9.694-5.97-9.694c-1.764 0-3.468.926-5.111 2.776s-2.674 3.995-3.084 6.434c-1.206-.265-1.809-.794-1.809-1.587 0-2.996 1.451-6.118 4.348-9.365s5.688-4.869 8.367-4.869c2.706 0 4.76 1.037 6.156 3.107s2.614 5.883 3.643 11.436c1.559 8.254 2.338 17.772 2.338 28.553l.045 3.084 6.331-12.338 2.813-5.419 4.086-8.063c2.345-4.583 3.912-8.256 4.704-11.017l6.757-6.433c-.205 2.232-.308 4.141-.308 5.728 0 4.995 1.001 12.969 3.004 23.926l.527 2.865.88 4.583 1.76 10.231c.866-1.622 1.404-2.666 1.613-3.137l3.569-7.404 4.319-8.768c3.583-7.432 5.375-13.234 5.375-17.406 0-2.819-1.161-4.962-3.48-6.433l6.478-7.095c2.996 1.969 4.494 4.334 4.494 7.095 0 3.673-3.092 11.575-9.274 23.707l-3.707 7.402-1.901 3.877-1.943 4.451-2.56 5.728-1.412 3.528-6.743 7.181-.177-1.939c-.584-6.17-1.683-13.467-3.293-21.9l-.526-2.644-.748-3.922c-.556-2.849-.924-4.935-1.099-6.257l-.834-6.036-.44-3.086-5.943 11.81-2.419 4.802c-4.432 8.696-7.822 15.938-10.169 21.726l-7.532 7.269zm74.198-49.615l3.703-9.122c3.289-1.35 5.992-3.217 8.108-5.596.293.412.44.838.44 1.278 0 3.938-4.083 8.417-12.251 13.44zm8.819 35.031c.789.47 1.185.926 1.185 1.366 0 1.057-1.278 3.144-3.833 6.257-3.438 4.231-6.627 6.345-9.562 6.345-2.146 0-3.217-1.423-3.217-4.268 0-1.203.44-4.9 1.322-11.093l1.718-11.969.44-3.038.354-2.421c.146-1.028.219-1.892.219-2.598 0-1.466-.41-2.2-1.228-2.2-2.28 0-4.736 2.512-7.368 7.535-.556-.498-.834-.997-.834-1.497 0-1.792 1.654-4.201 4.957-7.227s5.941-4.539 7.91-4.539c2.205 0 3.306 1.527 3.306 4.577 0 .589-.119 1.79-.354 3.611l-.396 2.947-.484 3.564-1.806 12.588-.442 2.819c-.382 2.787-.573 4.651-.573 5.59 0 1.262.366 1.89 1.097 1.89 2.457 0 4.987-2.746 7.589-8.239zm17.054-23.09l-2.132 19.477-.575 7.754c0 3.321 1.128 4.98 3.386 4.98 2.429 0 4.947-1.997 7.551-5.993.44.559.659 1.057.659 1.499 0 1.645-1.447 3.612-4.34 5.903s-5.383 3.438-7.469 3.438c-4.171 0-6.256-2.673-6.256-8.019 0-1.969.249-5.156.747-9.562l2.116-19.477H460.9l5.128-5.112h4.689l.933-8.019 6.491-2.159-1.07 10.178h18.683l-5.163 5.112h-14.125zm27.999 34.371l-6.595 2.687.133-1.234.356-3.261.351-3.084 2.297-20.446.265-2.335.265-4.406c0-1.88-.47-2.821-1.412-2.821-2.209 0-4.575 2.498-7.107 7.491-.675-.557-1.013-1.041-1.013-1.453 0-1.764 1.61-4.165 4.831-7.205s5.756-4.561 7.61-4.561c2.528 0 3.792 1.615 3.792 4.848 0 .822-.072 1.923-.219 3.303l-.354 3.571-.359 2.995-.362 3.129c3.464-5.17 7.263-9.437 11.388-12.801s7.647-5.045 10.555-5.045c2.849 0 4.273 1.981 4.273 5.941 0 1.204-.155 3.01-.466 5.415l-2.393 16.415c-.488 3.287-.731 5.885-.731 7.792 0 1.525.412 2.289 1.235 2.289 2.032 0 4.535-2.687 7.509-8.065.707.442 1.061.898 1.061 1.366 0 1.911-1.64 4.416-4.921 7.514s-5.949 4.648-8.007 4.648c-2.294 0-3.439-1.644-3.439-4.935 0-2.407.307-5.742.924-10.002l1.557-10.665c.498-3.466.749-6.212.749-8.24 0-2.318-.807-3.48-2.423-3.48-3.757 0-7.562 2.548-11.422 7.646s-6.112 10.568-6.757 16.413l-1.171 10.576zm43.409-18.993c.851.294 1.629.44 2.334.44 3.643 0 6.832-1.115 9.562-3.347s4.099-4.848 4.099-7.844c0-3.438-1.748-5.156-5.244-5.156-2.528 0-4.81 1.505-6.852 4.515s-3.343 6.809-3.899 11.392zm20.313 6.522c.733.5 1.101 1.087 1.101 1.762 0 .91-.941 2.468-2.819 4.672-5.023 5.816-9.988 8.724-14.895 8.724-2.995 0-5.463-1.19-7.401-3.569s-2.91-5.421-2.91-9.122c0-6.698 2.536-13.475 7.601-20.335s10.084-10.289 15.049-10.289c3.583 0 5.375 1.925 5.375 5.772 0 4.318-2.094 8.534-6.279 12.646s-9.291 6.978-15.312 8.594c.586 7.048 3.377 10.574 8.372 10.574 4.935 0 8.973-3.142 12.118-9.429zm1.891 12.779l6.094-4.979c2.296 2.439 5.179 3.657 8.653 3.657 4.24 0 6.359-2.042 6.359-6.124 0-2.263-1.944-5.421-5.834-9.476l-2.52-2.598c-3.685-3.847-5.525-6.962-5.525-9.343 0-3.407 1.477-6.27 4.428-8.591s6.588-3.482 10.906-3.482c2.349 0 4.919.44 7.712 1.322l-5.289 4.89c-2.232-1.673-4.715-2.511-7.446-2.511-3.203 0-4.804 1.338-4.804 4.01 0 1.911 1.778 4.716 5.333 8.417l2.73 2.907c4.055 4.232 6.082 7.639 6.082 10.223 0 3.703-1.778 6.97-5.333 9.805s-7.653 4.252-12.292 4.252c-3.291 0-6.375-.792-9.254-2.379zm30.003 0l6.092-4.979c2.297 2.439 5.182 3.657 8.656 3.657 4.237 0 6.357-2.042 6.357-6.124 0-2.263-1.945-5.421-5.835-9.476l-2.519-2.598c-3.683-3.847-5.526-6.962-5.526-9.343 0-3.407 1.477-6.27 4.429-8.591s6.588-3.482 10.906-3.482c2.35 0 4.92.44 7.711 1.322l-5.288 4.89c-2.233-1.673-4.714-2.511-7.446-2.511-3.203 0-4.803 1.338-4.803 4.01 0 1.911 1.777 4.716 5.331 8.417l2.732 2.907c4.055 4.232 6.08 7.639 6.08 10.223 0 3.703-1.776 6.97-5.33 9.805s-7.653 4.252-12.294 4.252c-3.292 0-6.376-.792-9.253-2.379zm64.633-32.962l-7.183 6.874c-.675-2.291-1.013-4.539-1.013-6.741 0-8.079 3.363-14.615 10.09-19.61 5.023-3.729 11.943-5.596 20.756-5.596h26.306c10.9 0 16.349-3.363 16.349-10.09 0-2.349-.809-4.523-2.425-6.522l5.554-5.286c1.292 1.762 1.939 4.024 1.939 6.785 0 5.789-2.61 10.641-7.826 14.563s-11.662 5.883-19.333 5.883h-12.254l-3.301 29.787-.529 4.892c-.498 4.171-1.4 7.181-2.702 9.033s-3.822 3.657-7.549 5.419l12.807.661-5.282 5.112-21.493-.971 5.684-5.463 4.802.529c3.554-2.261 5.759-6.888 6.61-13.88l.44-4.274 3.418-30.845h-7.486c-12.301 0-18.451 4.069-18.451 12.206 0 2.467.691 4.979 2.072 7.534zm69.31 9.872c3.438-5.17 7.219-9.437 11.346-12.801s7.659-5.045 10.598-5.045c2.85 0 4.274 1.981 4.274 5.941 0 1.176-.171 2.98-.512 5.413l-2.349 16.417c-.488 3.287-.733 5.885-.733 7.792 0 1.525.411 2.289 1.239 2.289 2.03 0 4.519-2.689 7.465-8.065.735.442 1.101.898 1.101 1.366 0 1.911-1.638 4.414-4.917 7.514s-5.947 4.648-8.005 4.648c-2.292 0-3.44-1.644-3.44-4.935 0-2.409.308-5.742.925-10.002l1.527-10.665c.498-3.496.749-6.271.749-8.328 0-2.26-.806-3.392-2.419-3.392-3.753 0-7.549 2.548-11.386 7.646s-6.096 10.568-6.771 16.413l-1.172 10.576-6.592 2.687.135-1.234.351-3.263.354-3.082 4.28-38.625c1.026-9.112 4.404-16.894 10.13-23.345s12.126-9.679 19.202-9.679c1.469 0 2.893.163 4.274.484l-6.472 6.346c-1.674-.499-3.259-.748-4.756-.748-8.718 0-13.841 6.821-15.368 20.464l-3.058 27.213zm40.932 3.789c.849.294 1.627.44 2.332.44 3.643 0 6.832-1.115 9.562-3.347s4.099-4.848 4.099-7.844c0-3.438-1.748-5.156-5.242-5.156-2.528 0-4.812 1.505-6.854 4.515s-3.341 6.809-3.897 11.392zm20.311 6.522c.733.5 1.101 1.087 1.101 1.762 0 .91-.938 2.468-2.821 4.672-5.021 5.816-9.986 8.724-14.89 8.724-2.998 0-5.465-1.19-7.404-3.569s-2.91-5.421-2.91-9.122c0-6.698 2.536-13.475 7.601-20.335s10.084-10.289 15.049-10.289c3.583 0 5.375 1.925 5.375 5.772 0 4.318-2.094 8.534-6.277 12.646s-9.291 6.978-15.312 8.594c.586 7.048 3.377 10.574 8.37 10.574 4.935 0 8.973-3.142 12.118-9.429zm19.782 10.223c3.378 0 6.203-1.879 8.481-5.64s3.414-8.445 3.414-14.056c0-9.166-2.849-13.749-8.547-13.749-3.348 0-6.163 1.888-8.439 5.662s-3.414 8.454-3.414 14.036c0 9.164 2.833 13.747 8.505 13.747zm-5.332 4.935c-6.611 0-9.916-4.376-9.916-13.131 0-7.05 2.586-13.843 7.754-20.379s10.532-9.805 16.086-9.805c6.696 0 10.046 4.378 10.046 13.132 0 7.079-2.584 13.88-7.756 20.402s-10.574 9.781-16.214 9.781zm44.725-14.101c.848.412 1.272.94 1.272 1.587 0 2.114-1.579 4.73-4.738 7.842-3.158 3.117-5.808 4.672-7.952 4.672-2.439 0-3.657-1.762-3.657-5.289 0-2.143.133-4.331.394-6.566l.486-3.92 3.398-30.668c1.059-9.343 4.265-17.143 9.628-23.4s11.533-9.385 18.525-9.385c1.702 0 3.144.147 4.318.44l-6.249 6.39c-1.38-.469-2.992-.706-4.84-.706-4.4 0-7.695 1.551-9.881 4.648s-3.689 8.344-4.509 15.742l-4.091 36.901c-.321 2.849-.484 4.889-.484 6.122 0 2.642.452 3.962 1.36 3.962 1.083 0 2.355-.87 3.818-2.608a16.92 16.92 0 0 0 3.202-5.764zm19.204 9.166c3.378 0 6.205-1.879 8.481-5.64s3.414-8.445 3.414-14.056c0-9.166-2.849-13.749-8.545-13.749-3.35 0-6.165 1.888-8.441 5.662s-3.414 8.454-3.414 14.036c0 9.164 2.833 13.747 8.505 13.747zm-5.332 4.935c-6.61 0-9.916-4.376-9.916-13.131 0-7.05 2.586-13.843 7.756-20.379s10.532-9.805 16.084-9.805c6.697 0 10.046 4.378 10.046 13.132 0 7.079-2.584 13.88-7.756 20.402s-10.574 9.781-16.214 9.781zm55.88-36.088c-2.116-1.499-4.776-2.246-7.981-2.246-4.026 0-7.428 2.525-10.206 7.578s-4.166 11.266-4.166 18.64c0 3.817 1.132 5.728 3.396 5.728 2.584 0 5.744-1.999 9.479-5.993 5.172-5.552 8.14-11.839 8.905-18.861l.573-4.846zm-1.965 17.651c-7.928 12.118-15.105 18.173-21.535 18.173-.263 0-.735-.028-1.408-.088-6.846 6.865-10.269 12.981-10.269 18.35 0 3.665 1.304 6.737 3.905 9.218s5.831 3.717 9.687 3.717c5.941 0 10.502-2.614 13.679-7.839 2.411-4.023 4.086-13.609 5.029-28.758l.912-12.773zm9.532-23.158l-.266.968-.484 2.335-.617 2.821-1.762 16.128c-.293 2.702-.602 7.446-.924 14.231-.412 8.491-1.22 14.778-2.425 18.861s-3.335 7.727-6.389 10.928c-6.992 7.374-14.439 11.061-22.341 11.061-3.817 0-6.99-1.292-9.518-3.874s-3.789-5.811-3.789-9.685c0-7.892 4.832-15.682 14.499-23.367-2.06-1.617-3.089-4.47-3.089-8.559 0-8.881 2.926-16.6 8.771-23.158s12.75-9.838 20.711-9.838c3.377 0 5.919.384 7.623 1.148zm15.945-7.404l3.701-9.122c3.293-1.35 5.994-3.217 8.109-5.596.296.412.442.838.442 1.278 0 3.938-4.084 8.417-12.252 13.44zm8.821 35.031c.787.47 1.183.926 1.183 1.366 0 1.057-1.276 3.144-3.834 6.257-3.435 4.231-6.624 6.345-9.561 6.345-2.144 0-3.215-1.423-3.215-4.268 0-1.203.438-4.9 1.32-11.093l1.718-11.969.442-3.038.351-2.421c.149-1.028.221-1.892.221-2.598 0-1.466-.409-2.2-1.229-2.2-2.279 0-4.736 2.512-7.368 7.535-.555-.498-.834-.997-.834-1.497 0-1.792 1.654-4.201 4.959-7.227s5.941-4.539 7.908-4.539c2.204 0 3.305 1.527 3.305 4.577 0 .589-.116 1.79-.351 3.611l-.396 2.947-.486 3.564-1.807 12.588-.442 2.819c-.381 2.787-.57 4.651-.57 5.59 0 1.262.363 1.89 1.095 1.89 2.457 0 4.987-2.746 7.591-8.239zm33.961-28.202l-5.021 6.038c-2.351-.971-4.599-1.455-6.743-1.455-3.85 0-6.883 1.63-9.1 4.891s-3.327 7.727-3.327 13.395c0 3.996.8 7.213 2.403 9.65s3.693 3.657 6.277 3.657c4.378 0 7.814-2.863 10.313-8.591.645.705.967 1.366.967 1.983 0 2.439-1.901 5.147-5.704 8.129s-7.294 4.473-10.467 4.473c-3.056 0-5.559-1.226-7.512-3.679s-2.931-5.634-2.931-9.54c0-7.609 2.585-14.527 7.755-20.755s10.914-9.341 17.229-9.341c2.293 0 4.246.382 5.861 1.145zm31.642 6.078c-2.67-1.497-5.37-2.244-8.11-2.244-4.11 0-7.57 2.509-10.36 7.524s-4.186 11.236-4.186 18.658c0 3.813 1.126 5.72 3.396 5.72 2.61 0 5.77-1.993 9.47-5.983 5-5.369 8.03-11.678 9.09-18.923l.7-4.752zm-2.51 17.452c-3.32 5.465-6.96 9.938-10.94 13.418-3.97 3.482-7.43 5.222-10.362 5.222-4.018 0-6.029-3.245-6.029-9.739 0-8.929 2.931-16.662 8.791-23.198s12.8-9.805 20.82-9.805c3.06 0 5.66.381 7.8 1.145l-.26.966-.53 2.333c-.36 1.613-.55 2.554-.57 2.817l-2.82 19.453-.4 2.817c-.38 2.789-.58 4.651-.58 5.59 0 1.264.37 1.892 1.1 1.892 2.46 0 4.97-2.746 7.55-8.239.79.47 1.18.94 1.18 1.41 0 1.029-1.26 3.1-3.79 6.213-3.44 4.229-6.62 6.345-9.56 6.345-2.15 0-3.22-1.439-3.22-4.318 0-.882.11-2.1.31-3.657l.45-3.526.57-3.878.49-3.261zm34.76 4.539c.85.412 1.27.94 1.27 1.587 0 2.114-1.58 4.73-4.74 7.842-3.15 3.117-5.81 4.672-7.95 4.672-2.44 0-3.66-1.762-3.66-5.289 0-2.143.13-4.331.4-6.566l.48-3.92 3.4-30.668c1.06-9.343 4.27-17.143 9.63-23.4s11.53-9.385 18.52-9.385c1.71 0 3.15.147 4.32.44l-6.25 6.39c-1.38-.469-2.99-.706-4.84-.706-4.4 0-7.69 1.551-9.88 4.648-2.18 3.096-3.69 8.344-4.51 15.742l-4.09 36.901c-.32 2.849-.48 4.889-.48 6.122 0 2.642.45 3.962 1.36 3.962 1.08 0 2.35-.87 3.81-2.608a16.89 16.89 0 0 0 3.21-5.764zm26.2 5.158l7.5-4.539c1.18 7.225 5.52 10.839 13.02 10.839 3.64 0 6.63-.992 8.96-2.973 2.32-1.985 3.48-4.533 3.48-7.647 0-4.258-2.57-8.489-7.72-12.69l-5.34-4.318c-4.3-3.526-7.17-6.309-8.61-8.351-1.45-2.041-2.17-4.34-2.17-6.895 0-4.818 1.93-8.799 5.78-11.941 3.84-3.144 8.71-4.716 14.58-4.716 4.67 0 9.09 1.117 13.26 3.35l-2.55 5.859-1.15 2.6c-.64 1.529-1.41 2.292-2.29 2.292-.38 0-.78-.149-1.19-.442.5-1.533.75-2.759.75-3.673 0-1.887-1.03-3.466-3.11-4.734-2.07-1.269-4.63-1.902-7.68-1.902-6.94 0-10.4 2.865-10.4 8.597 0 2.06.77 4.037 2.31 5.931s4.75 4.831 9.63 8.799l4.27 3.526c5.44 4.41 8.15 9.041 8.15 13.892 0 5.35-2.25 9.807-6.76 13.361s-10.14 5.336-16.9 5.336c-8.23 0-13.5-3.188-15.82-9.561zm52.7-12.737c.85.294 1.63.44 2.33.44 3.64 0 6.83-1.115 9.56-3.347 2.74-2.232 4.1-4.848 4.1-7.844 0-3.438-1.75-5.156-5.24-5.156-2.53 0-4.81 1.505-6.85 4.515s-3.34 6.809-3.9 11.392zm20.31 6.522c.73.5 1.1 1.087 1.1 1.762 0 .91-.94 2.468-2.82 4.672-5.02 5.816-9.99 8.724-14.89 8.724-3 0-5.46-1.19-7.4-3.569s-2.91-5.421-2.91-9.122c0-6.698 2.53-13.475 7.6-20.335s10.08-10.289 15.05-10.289c3.58 0 5.37 1.925 5.37 5.772 0 4.318-2.09 8.534-6.28 12.646-4.18 4.113-9.29 6.978-15.31 8.594.59 7.048 3.38 10.574 8.37 10.574 4.94 0 8.98-3.142 12.12-9.429zm39.12 12.471l-6.55 2.687.13-1.234.35-3.261.31-3.084 2.22-19.785.31-2.246.18-3.438c0-2.849-.87-4.274-2.61-4.274-2.7 0-5.85 2.761-9.45 8.284s-5.68 10.782-6.24 15.775l-1.13 10.576-6.59 2.687.13-1.234.35-3.261.36-3.084 2.26-20.446.26-2.335c.21-1.822.31-3.289.31-4.406 0-1.88-.47-2.821-1.41-2.821-2.21 0-4.6 2.498-7.16 7.491-.67-.557-1.01-1.041-1.01-1.453 0-1.764 1.61-4.165 4.83-7.205s5.77-4.561 7.65-4.561c2.53 0 3.8 1.615 3.8 4.848 0 .822-.08 1.923-.22 3.303l-.36 3.571-.36 2.995-.36 3.129 1.23-1.939c6.59-10.605 12.71-15.907 18.38-15.907 2.73 0 4.1 1.969 4.1 5.905 0 .677-.12 2.1-.35 4.274l-.44 4.054-.61 5.508c2.73-5.668 5.97-10.378 9.71-14.121s7.08-5.62 10.02-5.62c2.91 0 4.36 1.881 4.36 5.64 0 1.617-.17 3.54-.51 5.772l-2.34 16.349c-.52 3.378-.78 5.992-.78 7.844 0 1.557.43 2.335 1.29 2.335 1 0 2.26-.836 3.79-2.512 1.52-1.675 2.74-3.57 3.65-5.684.8.529 1.2 1.013 1.2 1.453 0 1.851-1.65 4.334-4.93 7.448-3.29 3.115-5.91 4.67-7.86 4.67-2.5 0-3.75-1.674-3.75-5.023 0-2.114.32-5.389.97-9.825l1.57-10.621.31-2.512a131.58 131.58 0 0 1 .3-2.688c.15-1.262.22-2.23.22-2.907 0-2.498-.82-3.746-2.46-3.746-2.75 0-5.96 2.761-9.6 8.284-3.65 5.524-5.75 10.782-6.3 15.775l-1.17 10.576zm47.24-46.312l3.7-9.122c3.29-1.35 5.99-3.217 8.11-5.596.29.412.44.838.44 1.278 0 3.938-4.09 8.417-12.25 13.44zm8.82 35.031c.78.47 1.18.926 1.18 1.366 0 1.057-1.28 3.144-3.83 6.257-3.44 4.231-6.63 6.345-9.56 6.345-2.15 0-3.22-1.423-3.22-4.268 0-1.203.44-4.9 1.32-11.093l1.72-11.969.44-3.038.35-2.421c.15-1.028.22-1.892.22-2.598 0-1.466-.41-2.2-1.23-2.2-2.28 0-4.73 2.512-7.36 7.535-.56-.498-.84-.997-.84-1.497 0-1.792 1.66-4.201 4.96-7.227s5.94-4.539 7.91-4.539c2.2 0 3.3 1.527 3.3 4.577 0 .589-.11 1.79-.35 3.611l-.4 2.947-.48 3.564-1.81 12.588-.44 2.819c-.38 2.787-.57 4.651-.57 5.59 0 1.262.37 1.89 1.1 1.89 2.45 0 4.98-2.746 7.59-8.239zm15.17 11.281l-6.59 2.687.14-1.234.35-3.261.35-3.084 2.3-20.446.26-2.335.27-4.406c0-1.88-.47-2.821-1.41-2.821-2.21 0-4.58 2.498-7.11 7.491-.67-.557-1.01-1.041-1.01-1.453 0-1.764 1.61-4.165 4.83-7.205s5.75-4.561 7.61-4.561c2.53 0 3.79 1.615 3.79 4.848 0 .822-.07 1.923-.22 3.303l-.35 3.571-.36 2.995-.36 3.129c3.46-5.17 7.26-9.437 11.38-12.801 4.13-3.363 7.65-5.045 10.56-5.045 2.85 0 4.27 1.981 4.27 5.941 0 1.204-.15 3.01-.46 5.415l-2.4 16.415c-.49 3.287-.73 5.885-.73 7.792 0 1.525.41 2.289 1.24 2.289 2.03 0 4.53-2.687 7.51-8.065.7.442 1.06.898 1.06 1.366 0 1.911-1.64 4.416-4.92 7.514s-5.95 4.648-8.01 4.648c-2.29 0-3.44-1.644-3.44-4.935 0-2.407.31-5.742.92-10.002l1.56-10.665c.5-3.466.75-6.212.75-8.24 0-2.318-.81-3.48-2.42-3.48-3.76 0-7.57 2.548-11.43 7.646-3.85 5.095-6.11 10.568-6.75 16.413l-1.18 10.576zm66.83-33.405c-2.68-1.497-5.38-2.244-8.11-2.244-4.12 0-7.57 2.509-10.36 7.524-2.8 5.017-4.19 11.236-4.19 18.658 0 3.813 1.13 5.72 3.39 5.72 2.62 0 5.78-1.993 9.48-5.983 5-5.369 8.02-11.678 9.08-18.923l.71-4.752zm-2.52 17.452c-3.31 5.465-6.96 9.938-10.93 13.418-3.98 3.482-7.43 5.222-10.37 5.222-4.02 0-6.03-3.245-6.03-9.739 0-8.929 2.93-16.662 8.8-23.198 5.85-6.538 12.8-9.805 20.81-9.805 3.06 0 5.66.381 7.8 1.145l-.26.966-.53 2.333-.57 2.817-2.82 19.453-.4 2.817c-.38 2.789-.57 4.651-.57 5.59 0 1.264.36 1.892 1.1 1.892 2.45 0 4.97-2.746 7.54-8.239.79.47 1.19.94 1.19 1.41 0 1.029-1.27 3.1-3.79 6.213-3.44 4.229-6.63 6.345-9.57 6.345-2.14 0-3.21-1.439-3.21-4.318 0-.882.1-2.1.31-3.657l.44-3.526.58-3.878.48-3.261zm31.29-6.124c6.51-12.367 12.93-18.551 19.24-18.551 1.65 0 3.29.382 4.94 1.145l-6.21 6.787c-.94-.53-2.15-.793-3.61-.793-3.06 0-6.28 2.475-9.67 7.424s-5.38 10.098-5.96 15.445l-1.19 10.751-6.56 2.204.14-1.322.31-2.863.35-2.865 2.31-20.975.27-2.292c.2-1.732.3-3.143.3-4.23 0-1.792-.5-2.688-1.5-2.688-2.35 0-4.69 2.512-7.01 7.535-.74-.557-1.09-1.13-1.06-1.718.09-1.792 1.73-4.163 4.92-7.117 3.2-2.951 5.72-4.428 7.57-4.428 2.5 0 3.76 1.645 3.76 4.934 0 .794-.08 1.867-.23 3.217l-.31 3.084-.4 3.703-.4 3.613zm53.4 6.08c-2.97 5.405-6.08 9.869-9.32 13.395-3.25 3.527-5.91 5.289-7.96 5.289-2.83 0-4.39-2.964-4.68-8.891l-.31-6.118-.57-12.455-.13-3.567c-.27-4.723-1.13-7.086-2.6-7.086-2.3 0-4.53 2.16-6.7 6.477-.76-.528-1.14-1.101-1.14-1.717 0-1.588 1.42-3.643 4.27-6.169 2.86-2.527 5.18-3.791 6.98-3.791 1.85 0 3.16.832 3.92 2.489.77 1.662 1.27 4.724 1.5 9.188l.81 15.423c.3 5.877 1.23 8.813 2.82 8.813 2.37 0 5.32-2.725 8.84-8.174 3.51-5.449 5.78-10.801 6.77-16.062l1.71-8.989 7.85-2.73c-1 2.584-2.03 6.487-3.09 11.713l-5.9 29.552c-2.32 11.567-5.91 20.11-10.75 25.632-7.26 8.219-15.66 12.33-25.21 12.33-1.99 0-4.24-.444-6.74-1.33l5.42-5.985c2.77 1.233 5.65 1.85 8.65 1.85 6.11 0 10.7-1.979 13.75-5.937 3.06-3.96 5.62-11.218 7.68-21.774l4.13-21.376zM859.298 128.709c-.08-.057-.204-.057-.308-.08-3.152-.697-5.632-3.503-9.197-2.927-.17.028-.387-.16-.567-.272-1.407-.878-2.744-1.064-4.06.224-.481.471-1.201.335-1.837.344-3.742.05-7.312 1.187-10.942 1.863-3.205.597-6.481.847-9.632 1.864-2.706.873-5.602 1.157-8.322 2.004-2.066.641-4.11.788-6.466.943.371-1.635 1.451-1.734 2.3-1.998 1.044-.325 1.912-.876 2.807-1.468 3.473-2.294 6.701-4.906 9.601-7.866 3.191-3.255 6.02-6.766 8.402-10.75 2.706-4.528 4.193-9.789 8.045-13.645.535-.535.788-1.424.196-2.053-1.788-1.897-3.308-4.237-6.489-3.955-1.808.161-3.647.04-5.346-.688-1.336-.572-2.696-.372-4.061-.483-1.775-.145-2.935 1.076-4.463 1.447-4.593 1.115-9.234 2.175-13.668 3.78-5.816 2.105-11.648 4.072-17.672 5.485-1.152.271-2.957-.372-3.304 1.194-.306 1.385 1.435 1.985 2.307 2.765 2.747 2.456 5.503 4.987 9.205 6.031 2.648.748 5.354 1.242 8.01 1.985 2.501.7 5.252.879 7.729-.728.928-.601 2.024-.503 2.932.257-.605 3.832-1.811 7.466-3.288 10.944-1.743 4.103-4.621 7.532-8.948 9.018-3.773 1.296-7.828 1.674-11.691 2.805-2.825.827-5.772 1.284-8.517 2.367-.659.258-2.039-.062-2.144.813-1.299.429-2.943.94-4.635 1.567 4.596-.218 5.679-.551 7.171-.76 1.057-.054 2.099-.358 3.155-.49.661-.082 1.406-.581 2.238.594-5.338 1.776-10.49 3.593-15.93 4.392-.496-1.795 1.582-1.886 1.756-3.234-2.11-.334-4.032-.662-5.93-1.502-2.466-1.09-4.998.63-5.556 3.357-.22 1.079-.552 2.099-1.338 2.839-1.582 1.49-1.538 3.125-.572 4.848 1.017 1.813 1.29 4.236 3.518 5.113 2.832 1.117 5.84 1.601 8.646.077 2.596-1.409 5.197-2.785 7.909-3.95 5.225-2.247 10.596-4.076 16.055-5.667 3.12-.911 6.169-2.035 9.316-2.891 2.422-.658 4.792-1.537 7.266-2.088 1.819-.405 3.563-1.144 5.347-1.712 2.664-.848 5.164-2.328 8.133-1.998.607.068 1.252-.176 1.876-.298l11.176-2.184c.416-.08.858-.142 1.272-.094 5.958.704 11.714-1.691 17.659-1.14.104.009.211-.032.317-.04 1.259-.1 2.527-.554 2.662-1.85.12-1.164-1.296-1.5-2.123-2.109zm508.322-72.897l1.42-.309c2.3-.38 4.4.239 6.32 1.428l6.4 4.153c3 1.925 3.6 5.237 4.28 8.249.48 2.119-3.75 4.391-5.75 3.119-2.86-1.815-5.98-3.144-8.82-4.975-2.67-1.723-3.45-4.732-4.83-7.316-.33-.625-.53-1.333-.91-1.981-1.17-1.963-.89-2.357 1.89-2.368zm54.68 86.072c1.67 3.521 2.74 6.401 2.05 9.713-.56 2.679-1.51 5.329-.76 8.159.24.89-.37 1.662-1.02 2.23-3.19 2.799-6.31 5.718-10.31 7.376-.59.243-1.22.531-1.84.528-3.42-.017-6.53 1.588-9.98 1.732-2.37.098-4.76.891-7.21 1.019-2.68.14-5.32.081-7.93-.66-1.12-.32-2.27-.525-3.46-.565-4.03-.135-7.59-1.712-10.72-4.072-2.78-2.091-4.21-4.92-5.07-8.503-1.23-5.137.16-9.931.67-14.813.31-2.963 1.84-5.798 2.83-8.687.07-.199.23-.365.29-.565.33-1.067 1.12-2.358-.15-3.108-1.08-.64-1.92.422-2.66 1.21-4.24 4.484-8.38 9.078-13.17 12.994-3.76 3.082-7.54 6.178-11.71 8.726-3.16 1.932-5.99 4.366-9.34 6.018-1.94.953-3.77 2.1-5.68 3.112-.22.116-.6-.078-1.35-.199 1.4-1.18 2.52-2.197 3.72-3.128 6.81-5.3 13.24-11.048 19.31-17.151 3.82-3.837 7.11-8.193 10.64-12.321.42-.487.92-1.021.56-1.696-.42-.767-1.13-.237-1.72-.225-1.7.036-3.41.033-4.98.904-.87.484-1.86.412-2.82.337-1.09-.085-2.2-.036-3.08.593-1.71 1.211-3.53.311-5.29.46-.55.048-.98-.352-1.32-.789-1.18-1.527-.8-5.613.83-6.628 1.56-.972 2.59-2.879 4.72-2.92.12.295.28.493.27.679-.08.909-1.2 1.798-.4 2.665.83.896 2.02.463 3.02.124 6.01-2.035 11.92-4.288 17.67-6.991 1.71-.802 2.92-1.793 3.67-3.68 1.24-3.096 4.44-3.838 7.21-1.905 1.31.915 3.01 1.107 4.13 2.343.55.612 1.37 1.076 1.14 2.124-.23 1.028-1.06 1.113-1.89 1.401-3.26 1.128-6.32 2.597-7.79 6.052a1.66 1.66 0 0 1-.16.279c-.79 1.236-2.42 2.004-2.49 3.604-.07 1.79 1.96 2.072 2.8 3.258 1.25 1.787 1.3 3.855.96 5.806-.55 3.104-1.02 6.193-2.62 9.109-1.91 3.492-1.23 7.483-.69 11.263.33 2.314 2.24 3.437 4.37 3.493 3.79.099 7.63.919 11.38-.593.84-.342 1.89-.254 2.84-.24 1.72.025 3.43-.011 4.99-.843.9-.483 1.9-.2 2.8-.412 4.48-1.041 9.15-1.416 13.29-3.62 2.16-1.149 4.09-2.613 5.51-4.689 1.83-2.675 4.54-4.663 5.94-8.308zm-108.99 11.102l.01 8.946c.04 1.51-.44 2.678-1.62 3.616-1.88 1.486-3.51 1.136-4.73-.874-2.03-3.344-1.99-7.03-1.95-10.718.05-5.108.54-10.166 1.45-15.21.36-1.986.93-3.925 1.39-5.86 1.2-5.03 1.62-10.201 3.29-15.177.83-2.491 1.35-5.291 1.71-8.032.37-2.925 1.27-5.784 1.97-8.664.65-2.674 1.63-5.285 1.62-8.079-.01-1.233.63-1.767 1.69-1.899 1.66-.208 3.38.028 4.85-1.156.55-.44 1.21.013 1.52.68.04.095.06.203.09.305.91 2.964 2.21 5.764-.86 8.579-1.57 1.439-.61 5.844.87 6.99.51.395 1.1.946 1.71.723 2.38-.881 4.88-1.721 6.21-4.139.53-.964.41-2.158-.17-3.082-1.32-2.089-1.88-4.495-2.98-6.668-.72-1.429-.76-2.871.26-4.211 2.45-3.233 2.47-6.335-.15-9.577-1.18-1.464-1.97-3.276-2.77-5.004-.69-1.483-.18-2.292 1.48-2.211 1.76.085 3.37-.157 4.96-.905 1.11-.523 2.29-.485 3.42-.02 3.16 1.3 6.15 2.791 8.24 5.705 1.45 2.016 1.65 2.021-.33 3.359-3.23 2.181-5.64 5.14-8.09 8.08-.6.729-1.08 1.569-1.57 2.389-.57.965-.49 1.88.54 2.468 2.81 1.601 3.72 4.513 5.03 7.151.51 1.01.37 2.082.37 3.138.02 2.711-.73 5.316-1.69 7.771-1.22 3.153-4.12 4.537-7.26 4.908-3.05.36-6.14.221-9.14-.903-1.96-.736-2.89-.084-3.45 2.008-2 7.463-3.74 14.979-5.25 22.567-.86 4.367-.39 8.687-.67 13.005zm47.57-42.604c1.37-.516 1.92-2.637 3.54-3.654.67-.42.48-1.104.09-1.687l-2.3-3.449c-.77-1.084-.16-1.826.78-1.742 4.02.359 7.66-1.507 11.51-1.792 1.71-.127 3.51.732 5.26-.165.34-.171.8.221 1.09-.344 2.31-4.637 6.78-7.752 8.91-12.544.26-.579.79-1.011.32-1.66-.39-.537-.96-.392-1.45-.187-4.43 1.86-9.06 1.343-13.47.439-3.48-.715-6.02.229-8.42 2.324-1.91 1.675-3.64 3.559-5.49 5.307-2.05 1.936-2.27 4.611-3.1 7.083-1.19 3.523-1.26 7.508-4.09 10.388-.45.459-.81.992-.85 1.671-.07 1.109-.23 2.309-1.59 2.389-1.33.079-2.74.114-3.82-1.078-1.98-2.178-2.66-7.672-1.81-10.52 1.29-4.352 2.76-8.632 4.32-12.888.62-1.683 1.07-3.432 1.77-5.075.36-.844.52-2.249 2.14-1.699 2.11.719 3.27 1.895 2.62 3.313-.89 1.967-.86 4.176-1.74 6.02-.85 1.777-.23 3.856-1.5 5.452-.12.144.03.645.21.847.33.373.77.205 1.13-.033 1.96-1.283 3.2-3.44 3.86-5.329 1.31-3.729 4.22-5.457 7.08-7.381 4.88-3.277 10.39-4.893 16.1-6.051 3.4-.689 6.7-1.927 10.12-2.52 6.4-1.111 11.94 1.068 15.16 6.647.66 1.144.71 2.067-.4 3.087-1.84 1.679-3.73 3.141-6.29 3.437-2.19.253-3.88 1.669-5.62 2.747-2.46 1.533-5.17 2.397-7.83 3.233-1.96.617-3.53 1.923-5.49 2.4-1.48.363-.93 1.231-.3 1.805.69.625 1.62.974 2.41 1.502 1.13.759 2 1.826 1.56 3.207-.38 1.22-1.31 2.265-2.68 2.481-3.67.578-7.3 1.252-10.91 2.207-1.42.377-3.06.044-4.63.187-2.38.217-4.38 1.376-6.2 1.626zM923.826 71.02c-.274-2.123-.214-4.432-1.565-6.353-.729-1.036-.636-1.763.068-2.82.684-1.029.853-2.389 1.343-3.565.88-2.108 1.622-2.26 3.442-.956 1.644 1.177 3.406 2.131 3.54 4.573.051.915 1.16 1.437 2.058 1.851 1.836.847 2.518 2.399 2.798 4.324.752 5.189-.23 10.109-1.916 14.992-3.812 11.047-8.378 21.735-14.813 31.539-1.279 1.949-2.895 3.676-4.332 5.524-4.304 5.528-8.233 11.402-12.988 16.51-5.688 6.111-11.176 12.516-18.551 16.902-3.902 2.321-7.613 4.993-11.545 7.294-1.645.964-3.309 1.907-5.328 1.859-.88-.021-1.596.547-2.392.829-1.905.674-3.717.667-5.389-.76-2.042-1.742-2.035-1.898-.814-4.425.687-1.421 1.015-3.013 1.524-4.521.503-1.487 1.754-2.266 2.884-1.44 3.662 2.673 6.874.761 9.886-.99 4.589-2.668 8.698-6.073 12.88-9.341 3.462-2.705 6.417-5.896 8.998-9.459 1.871-2.58 4.139-4.837 6.019-7.438 4.864-6.727 9.019-13.856 12.875-21.186 3.457-6.573 6.013-13.525 8.501-20.478 1.416-3.959 2.445-8.12 2.817-12.464zm8.125 58.537c7.022.292 12.951 2.436 18.75 5.124 5.917 2.743 11.193 6.483 16.409 10.317 7.481 5.5 12.685 12.696 15.677 21.483.244.716.442 1.535-.2 2.092-.58.505-1.168-.012-1.728-.312-3.25-1.741-6.404-3.62-9.88-4.995-2.286-.904-4.189-2.873-6.137-4.516-2.76-2.326-5.916-4.14-8.652-6.42-2.727-2.273-6.012-3.49-8.776-5.637-1.96-1.521-4.599-2.015-6.659-3.54-5.196-3.848-11.34-6.211-16.348-10.365-.394-.328-.98-.418-1.197-.979-.3-.777-.452-1.507.704-1.607l8.037-.645z"/><path d="M719.864 78.618c-2.7 6.019-1.412 5.307-8.428 5.165l-2.239-.001v.093c-1.92 0-3.84.04-5.759-.009-2.392-.064-2.569-.333-2.136-2.611.871-4.583 3.254-8.461 5.836-12.203 1.438-2.083 3.908-2.451 6.218-2.699 1.785-.193 3.516-.141 5.284-.873 2.418-1.003 3.745.188 3.842 2.84.135 3.7-1.158 7.041-2.618 10.297zm-72.784 7.42c-.592.281-1.347.744-2.326-.113 1.12-1.957 2.604-3.732 4.172-5.381 3.587-3.773 7.614-7.005 12.287-9.387.836-.425 1.643-.917 2.397-1.532 1.514-1.232 2.27-1.104 3.504.272.282.315.504.681.746 1.032 1.961 2.853 1.777 3.795-1.227 5.452-6.371 3.515-12.987 6.537-19.553 9.657zm15.113 3.208c-.481.904-1.103 1.243-2.043.6-.524-.359-1.08-.669-1.612-1.016s-1.301-.051-1.896-.905c1.159-1.789 3.311-1.801 4.836-2.864.203-.14.643-.081.904.036.723.327.592 2.685-.189 4.149zm77.743 4.708c-1.72-3.404-4.151-6.149-7.499-7.981-1.131-.62-1.505-1.199-1.153-2.504 1.382-5.12.248-10.34.456-15.512.02-.497-.29-1.015-.47-1.515-1.676-4.659-5.858-6.547-9.946-7.66-4.842-1.317-10.007-2.149-15.03-.185-2.814 1.101-6.154 1.276-7.945 4.231-.768 1.265-1.616 2.471-2.305 3.804-2.586 5-5.386 9.889-8.698 14.457-1.781 2.456-1.826 2.463-4.662 1.567-1.166-.368-2.244-.447-3.422-.007-3.166 1.181-6.32 2.331-8.753 4.853-.836.865-1.889 1.42-3.261.516 1.101-4.204 2.766-7.955 7.158-9.808 1.163-.491 2.344-1.037 3.352-1.781 2.283-1.683 5.223-2.309 7.223-4.399-.597-1.567-1.657-2.077-3.183-2.36-2.35-.435-2.52-1.232-1.772-3.544.679-2.103 1.779-4.112 1.66-6.441-.037-.74.206-1.453.891-1.952 1.695-1.235 3.376-2.492 5.599-2.545.969-.023 2.013.089 2.409-1.075.441-1.295-.205-2.229-1.157-3.048-1.6-1.376-3.532-1.467-5.448-1.276-1.508.151-2.522-.328-3.082-1.663-1.61-3.84-5.256-5.755-8.025-8.491-.581-.573-1.403-.913-2.317-.963-3.067-.164-6.139-.32-9.074-1.377-.426-.153-.869-.04-1.152.311-.38.473-.252 1.005.012 1.492.26.481.682.771 1.172 1.029 3.914 2.067 4.518 6.036 4.28 9.592-.281 4.229-.774 8.448-.625 12.699.053 1.524-.489 2.529-1.639 3.553-2.554 2.275-5.624 3.793-8.273 5.897-5.24 4.161-10.627 8.141-15.584 12.659-1.719 1.567-3.567 3.095-5.597 4.196-3.962 2.149-3.675 5.36-2.196 8.368 1.034 2.107 2.256 2.325 4.474 1.405 1.523-.631 2.578-1.84 3.916-2.68.834-.523 1.571-.684 2.186.272 1.142 1.776 2.413 3.425 2.63 5.705.323 3.394 1.791 6.28 4.715 8.256.969.655 1.996 1.228 2.94 1.918.908.662 1.619.682 2.544-.086 1.527-1.268 3.184-2.152 5.2-.734.611.43 1.485.318 2.056-.312 1.067-1.18 2.003-2.474 3.581-3.088.53-.206.668-.866.562-1.391-.415-2.039.758-3.476 1.854-4.899 3.4-4.413 5.746-9.398 7.93-14.466.641-1.489 1.353-3.148 2.989-3.231 1.844-.093 2.896 1.516 3.696 3.105.345.684.585 1.335.489 2.124-.07.575.247 1.204.844 1.113 1.758-.267 2.622 1.188 3.902 1.828 2.713 1.356 5.364 3.383 8.477.848.147-.12.408-.143.616-.14 3.411.048 6.831-.025 10.228.217 1.867.133 2.34 1.529 1.041 2.904-2.697 2.857-5.352 5.893-9.202 7.2-2.35.796-4.744 2.001-7.375 1.181-.897-.28-1.772-1.124-2.589-1.042-1.198.118-.616 1.617-1.127 2.382-.563.844-1.516 1.142-2.277 1.706-2.528 1.878-3.042 4.518-1.454 7.258.772 1.335 1.486 2.704 2.355 4.298 2.148-2.752 5.111-3.472 8.115-4.078 2.554-.514 4.765 1.038 4.588 3.42-.3 4.022-.706 8.043-1.284 12.034-.792 5.458-2.398 10.768-3.171 16.241-.191 1.348-.789 2.641-1.228 3.952-.337 1.008-1.068 1.263-2.027.925-.801-.282-1.617-.545-2.377-.918-1.155-.568-1.231-1.418-.308-2.252.697-.632 1.349-1.351 2.368-1.562 1.2-.249 1.931-1.285 2.912-1.91.973-.622 1.079-1.547.556-2.512-1.216-2.25-2.472-4.43-4.893-5.706-2.17-1.144-2.332-1.669-.863-3.64.857-1.152 1.043-2.298.983-3.572-.162-3.429-2.284-5.793-5.711-6.644-1.164-.289-2.321-.252-3.484-.354-2.592-.226-4.952-.951-6.549-3.514-1.134.74-1.606 1.706-2.22 2.566-2.316 3.245-3.435 7.072-4.736 10.717-1.874 5.251-3.491 10.621-4.579 16.14-1.223 6.195.639 11.031 5.527 14.872.706.555 1.234.677 1.916.035 2.757-2.602 4.665-5.844 5.878-9.308.647-1.844 1.052-3.856 1.75-5.738.598-1.613.834-3.3 1.109-4.981.067-.416.077-.913-.375-1.101-.674-.282-.956.269-1.142.757-1.074 2.809-2.946 5.156-4.443 7.719-.479.82-.977 1.658-1.847 2.168-.358.21-.688.565-1.141.389-.633-.245-.647-.887-.524-1.357.756-2.895.476-5.919 1.313-8.83.786-2.729 1.666-5.644 1.451-8.396-.283-3.636.617-6.938 1.351-10.341.129-.599.182-1.361.901-1.565.884-.251 1.369.445 1.793 1.049l3.975 5.787c.384.561.467 1.166.332 1.824-.757 3.701.736 6.882 2.467 9.94 1.68 2.968 1.742 3.041-1.162 4.494-.281.14-.668.123-.896.312-1.369 1.135-3.06 2.168-2.677 4.306.423 2.36.12 4.756 1.195 7.12 1.548 3.41 2.062 4.19 5.832 4.06 2.773-.098 4.97.798 6.75 2.873.832.969 1.607 2.06 2.79 2.592 1.882.848 3.72 2.351 5.901 1.689 2.019-.613 3.772-1.785 5.204-3.516 2.345-2.832 1.755-6.441 2.752-9.62.692-2.208.917-4.784 1.012-7.188.109-2.824 1.677-5.25 1.657-8.082-.028-3.903-.466-7.802-.756-11.658-.416-5.549-1.885-11.065-4.686-16.066-1.103-1.967-1.023-2.078 1.114-2.915 2.255-.885 4.79-1.329 6.619-2.944 3.255-2.872 7.377-4.663 10.076-8.224.896-1.183 2.139-1.632 3.687-1.016 3.833 1.525 7.716.443 11.58.087.497-.045.718-.444.794-.876.151-.849.1-1.652-.314-2.473zm-156.812 68.708c-1.29-.698-2.714-1.272-4.148-1.55-4.272-.834-8.626-.42-12.85.12-4.241.542-8.365 2.006-12.537 3.081-.605.156-1.255.585-1.775-.005-.633-.722-.082-1.356.324-1.983 1.387-2.137 2.528-4.396 3.604-6.711 1.086-2.337 2.699-4.316 5.134-5.478 2.444-1.17 4.348-3.012 6.114-5.019 1.486-1.687 1.718-4.609.138-6.073-1.69-1.566-3.48-3.336-5.987-3.338-2.329 0-3.657-1.03-4.797-2.952-1.442-2.428-4.472-2.742-6.628-.933-.739.62-1.123 1.199-.175 2.061 1.232 1.122 1.271 2.318-.025 3.546-1.084 1.025-1.136 2.077-.056 3.328.984 1.138.934 2.628-.016 3.814-2.407 3.007-7.086 3.467-10.292 1.083-.526-.391-.979-.848-1.716-.307-.196 1.946.626 3.468 2.088 4.682 2.122 1.762 4.277 3.452 6.897 4.502 2.471.991 2.509 1.414 1.839 3.851-.779 2.825-2.488 4.351-5.328 5.283-1.124.368-2.394.517-3.536.968-.014-.002-.062.021-.131.057-.44.185-.859.417-1.241.731-.41.244-.766.452-.81.452-.216.001-.434.014-.63.056-.49.104-4.662 1.604-4.499 2.272.201.833 5.028-.786 5.695-1.044.109-.042.749-.183 1.26-.316.493-.002 1.057-.024 1.201.481.249.873-.633 1.028-1.175 1.153-1.35.31-2.682.64-3.978 1.151-1.12.441-2.24.409-3.402-.087-1.494-.638-5.621.066-6.161 1.116-.976 1.898 1.011 2.984 1.487 4.502.06.193.234.353.368.518 1.44 1.772 2.557 2.082 4.752 1.314 2.072-.724 4.102-1.57 6.168-2.31 3.256-1.164 6.372-2.641 9.778-3.509 5.992-1.527 11.768-3.791 17.82-5.209 4.359-1.022 8.49-1.354 12.743.201 1.059.387 2.312.341 3.473.323.792-.014 1.85.105 2.088-1.026.236-1.124-.094-2.264-1.078-2.796zM562.47 62.83c-3.259 1.727-6.785 2.801-10.116 4.344-1.205.559-1.707.076-1.603-1.419.41-2.215 1.087-4.473.824-6.852-.048-.441.206-.811.562-1.081 3.664-2.788 7.758-3.731 12.28-2.863.821.157 1.336.599 1.484 1.431.413 2.315-1.311 5.317-3.431 6.44zm1.569 17.475c-.572.128-.946-.331-1.234-.817-1.091-1.839-2.788-2.851-4.786-3.427-1.076-.311-2.145-.435-2.78.78-.552 1.059.106 1.76.768 2.512 1.818 2.064 1.831 2.112.29 4.229-1.744 2.396-3.454 4.76-5.962 6.557-2.826 2.025-2.541 6.391.314 8.917 1.453 1.288 3.07 2.295 5.17 2.067.371-.04.85-.146 1.203.574-.628.907-1.6 1.588-2.743 1.59-1.596.001-2.612.862-3.498 1.912-1.294 1.529-3.188 2.061-4.784 3.076-.879.557-1.684-.136-1.5-1.175.072-.407.284-.796.473-1.173.825-1.646 1.075-3.147.523-5.126-.636-2.285.02-4.837.561-7.22 1.08-4.76 2.132-9.524 2.756-14.371.2-1.547 1.029-2.577 2.52-2.947 3.499-.869 6.868-2.048 10.131-3.601 2.36-1.124 3.088-.587 3.141 1.931l.099 4.147c.009.612.172 1.379-.662 1.564zm.654 10.589h-.078c0 1.481.035 2.963-.013 4.443-.031.931-.524 1.936-1.501 1.491-2.154-.981-4.566-.924-6.682-1.923-1.358-.643-1.622-1.292-.586-2.404 2.302-2.475 4.729-4.839 7.184-7.165.801-.759 1.618-.333 1.661.803.06 1.583.015 3.171.015 4.756zm56.221 53.499c-5.888-4.131-12.043-7.812-18.563-10.873-9.378-4.406-19.189-7.704-28.857-11.372-2.003-.76-4.053-1.218-6.08-1.819-.589-.173-1.253-.431-1.265-1.212-.008-.619.521-1.049.982-1.117 1.968-.292 2.595-1.924 3-3.354.599-2.116 1.972-2.558 3.807-2.592 1.597-.029 3.2 0 4.789-.122 3.91-.302 7.816-.471 11.651-1.576 2.209-.638 4.62-.618 6.763-1.614.94-.437 2.164-.786 2.222-2.041.063-1.344-.562-2.559-1.824-3.137-2.882-1.324-5.756-3.41-8.948-.572-.36.32-.958.433-1.466.517-2.703.452-5.236 1.553-7.892 2.109-2.415.507-4.536 2.547-7.211 1.49-.42-.47-.42-1.015-.351-1.542.804-6.122-.142-12.305.906-18.458.726-4.268.321-8.715.757-13.049.309-3.079.349-6.328 3.469-8.472 4.564-3.136 4.75-4.991.856-8.667-1.909-1.804-2.516-3.787-2.31-6.223.116-1.379.37-2.761.33-4.136-.105-3.62 1.434-7.057.998-10.74-.191-1.619.077-3.369 1.773-4.528 1.109-.76.851-1.895-.103-2.704-.966-.82-1.97-1.651-3.088-2.224-1.997-1.025-3.65.361-5.357 1.083-1.403.592-1.019 1.945-1.091 3.064-.256 4 .126 8.016-1.174 11.977-.638 1.94-.135 4.229-.304 6.348-.296 3.703-1.403 4.76-5.01 4.701-3.484-.057-6.845-1.088-10.205-1.815-3.868-.837-6.839.317-8.401 4.024-1.339 3.176-1.75 6.553-2.392 9.875-.292 1.515-.547 2.616-2.42 2.707-1.33.063-1.322 1.131-.436 1.668 1.453.883 1.645 2.136 1.566 3.551-.065 1.167-.273 2.325-.417 3.488-.313 2.525-.831 5.045-.896 7.577-.12 4.683.203 9.381-.004 14.057-.145 3.316.864 6.3 1.877 9.295.927 2.737.919 3.021-1.677 4.429-5.259 2.851-10.839 5.078-16.093 8.214.561.581 1.189.937 1.777.588 2.201-1.311 4.903-1.159 7.064-2.334 2.3-1.249 5.049-.59 7.219-2.098.53-.37 1.321-.448 1.674.232.316.605-.02 1.349-.576 1.657-1.48.817-2.989 1.613-4.564 2.217-3.937 1.512-7.957 2.814-11.866 4.388a328.73 328.73 0 0 1-12.386 4.716c-4.241 1.514-8.206 3.835-12.958 3.659-1.295-.048-2.011 1.14-1.948 2.471.068 1.456 1.224 1.41 2.308 1.618 2.501.48 4.602-.877 6.613-1.732 6.685-2.84 13.6-5.094 20.221-8.101 1.767-.803 3.74-2.105 6.128-1.084-.248 1.765-1.542 2.772-2.62 3.868-5.821 5.927-11.346 12.14-17.385 17.853-1.083 1.026-1.647 2.535-2.969 3.316-3.488 2.062-6.303 5-9.603 7.294-2.531 1.76-4.784 3.865-7.303 5.617-2.162 1.504-2.218 2.111-.065 3.508.784.508 1.567.58 2.42.604 5.069.144 9.747-.828 14.228-3.516 4.237-2.541 8.732-4.597 11.839-8.649.314-.411.762-.84 1.234-.99 2.259-.716 3.742-2.416 5.239-4.062 2.431-2.675 4.692-5.51 7.181-8.127 5.127-5.391 10.819-10.276 15.043-16.471 2.751-4.034 6.697-6.797 10.172-10.062a3.95 3.95 0 0 1 2.601-1.075c1.083-.028 1.847 1.436 1.019 1.969-1.813 1.172-.812 1.94-.005 2.982.973 1.256 1.834 2.598 2.709 3.926 1.412 2.143 2.952 4.175 5.008 5.748 3.277 2.508 6.513 5.059 10.119 7.128 5.23 3.003 10.781 5.264 16.402 7.343 3.054 1.129 6.226 2.252 9.427 2.585 4.113.43 8.308.064 12.468.038.76-.006 1.476-.167 2.131-.582 1.35-.854 1.432-1.717.093-2.657zM1037.89 70.28c-1.05-.031-2.11.041-3.16.241-.51.095-1.11.26-1.29-.496-.13-.589.1-1.095.66-1.287 2.08-.705 1.5-2.169 1.18-3.657-.34-1.567-1.4-2.901-1.43-4.549-.02-1.044-.23-2.229.83-2.9 1.12-.703 2.05.016 2.87.707 2.59 2.165 5.66 3.251 8.86 4.073.11.027.23.019.31.069 1.44.808 3.26 1.26 3.56 3.239.1.621-3.38 3.173-4.3 3.324-2.69.44-5.21 1.956-8.09 1.236zm-40.189 28.613c0-1.383-.131-2.468.026-3.509.306-2.012 1.763-2.597 3.523-1.515.27.167.57.345.73.599 2.03 3.064 5.27 3.545 8.51 4.013.11.015.24-.029.32.021 4.19 2.842 7.73-.115 11.24-1.551 3.78-1.547 7.23-3.899 10.87-5.805 1.39-.724 2.53-1.637 3.13-3.051 1.28-2.969 4.11-3.355 6.65-3.551 1.71-.132 3.58.067 5.37.231 1.96.179 3.64 1.493 3.98 3.096.25 1.165.19 2.119-1.34 2.32-2.41.316-3.34 2.221-3.87 4.173-1.54 5.672-3.71 11.045-7 15.937-.37.551-.65 1.086-.68 1.744-.04 1.048.34 1.644 1.51 1.427.63-.117 1.26-.267 1.89-.312 2.7-.193 4.64 1.239 5.39 3.924.37 1.308-1.16 4.883-2.48 5.597-.85.456-1.75.775-2.72.168-1.97-1.234-4.37-1.7-6.15-3.296-.86-.78-1.9-1.218-2.91-.718-1.27.63-1.03 1.982-.91 3.138.16 1.747 1.55 3.003 1.95 4.679.17.7.62 1.259.29 2.103-1.61 4.146-1.04 8.602-1.72 12.885-.12.749.24 1.473.65 2.104.77 1.179.91 2.487 1.16 3.839.28 1.524.14 2.252-1.32 3.014-1.51.786-2.44.31-3.35-.704-1.74-1.956-4.01-3.573-4.36-6.473-.01-.1-.08-.209-.15-.281-2.91-2.892-1.73-5.956-.27-8.94.74-1.52.81-3.066.8-4.664-.01-.727.15-1.594-.76-1.91-.68-.238-1.17.236-1.65.704l-5.49 5.336c-1.29 1.303-2.56 2.583-4.53 2.712-.75.05-1.14.42-1.24 1.175-.27 1.981-1.98 2.885-3.41 3.508-1.75.764-3.47 2.289-5.87.941-1.11-.624-2.9-.265-4.34.346-1.376.584-2.256-.066-2.685-1.399-.918-2.851-.155-5.708.052-8.555.048-.674.793-1.076 1.468-.945 3.625.697 5.875-1.916 8.565-3.467.36-.208.6-.613.96-.828 3.82-2.308 6.88-5.453 10.03-8.56 3.12-3.062 6.01-6.328 9.12-9.385.96-.949 1.15-1.947.97-3.176-.21-1.428.1-2.445 1.82-2.745 1.3-.227 2.13-1.35 2.99-2.303.38-.427.45-.969.27-1.496-.22-.644-.78-.593-1.31-.524-4.25.547-8.24 1.437-11.36 4.879-1.44 1.593-3.6 2.605-5.56 3.649-2.9 1.543-6.09 1.669-9.29 1.465-2.64-.169-4.61-1.342-5.908-3.736-1.135-2.097-2.049-4.194-1.601-6.329zm100.349-2.359c-1.82 4.064-3.84 8.034-6.4 11.694-.4.569-.54 1.652-1.48 1.356-.82-.258-.69-1.196-.61-1.943l.18-1.824c-.61-3.527 1.33-6.527 2.93-9.644.73-1.431 2.2-1.731 3.45-1.929 1.01-.161 1.77-1.853 2.78-.78 1.09 1.167-.42 2.101-.85 3.071zm-17.12 28.812c-.99.6-2.06 1.078-3.11 1.611-.33-.141-.67-.199-.88-.396-.34-.324-.33-.764-.05-1.144.71-.956 1.57-1.724 2.7-2.167.75-.293 1.23.079 1.57.67.28.501.28 1.118-.23 1.426zm33.21-38.861c-3.54-3.623-8.2-3.423-12.72-3.58-.47-.016-1.06.319-1.42.669-1.83 1.781-4.39 2.023-6.52 3.173-1.17.635-2.13.255-2.32-1.16-.23-1.764-.8-3.523.17-5.307.81-1.476.35-3.357 1.52-4.823.48-.613.29-1.696-.28-2.413-1.12-1.415-.46-2.561.42-3.728.63-.829 1.2-1.575 1.22-2.809.04-2.817-.45-5.715.76-8.44.12-.268.2-.683.07-.913-1.1-2.047-1.74-4.675-3.96-5.613-1.9-.801-3.35-2.165-5.16-3.045-2.85-1.393-3.38-1.223-3.53 1.879-.04.744-.01 1.493.03 2.236.18 3.077.21 6.139.04 9.231-.13 2.283-.33 4.625.18 6.967.39 1.853.32 3.84-.07 5.725-.61 2.977-.42 5.929-.05 8.9.1.841.19 1.695.18 2.54-.07 4.672-.08 4.664-4.63 6.383-.48.184-.87.669-1.36.795-2.75.705-5.38 2.057-8.36 1.58-.73-.117-1.5-.077-2.24.001-1.55.165-1.86.851-.79 2.071 1.12 1.269 2.38 2.432 3.7 3.487.62.497 1.48 1.075 2.36.721 2.64-1.057 5.52-.401 8.17-1.269 1.26-.411 1.83.119 1.87 1.349l.1 4.148c.07 2.046 0 2.046-2.04 2.282-3 .348-5.98.826-8.96 1.249 2.31 2.567 2.31 2.565 4.84 2.576.85.003 1.72-.129 2.51.315.72.41 1.16.993.68 1.83-2.05 3.507-4.78 6.511-7.21 9.736-.32.43-.88.628-1.42.311-.56-.327-.66-.973-.36-1.381 1.23-1.671.14-3.063-.5-4.45-.62-1.34-1.54-2.54-2.2-3.864-1.8-3.59-3.1-7.397-4.86-11.018-1.01-2.078-1.92-4.434-1.2-7.084.55-2.015-.66-3.744-2.63-4.595-.76-.332-1.63-.373-2.29-1.012-.5-.471-1.17-.617-1.72-.081-.54.523-.48 1.331-.07 1.765 1.77 1.892.62 3.629-.36 5.177-.69 1.073-1.23 2.22-1.88 3.303-1.7 2.831-2.45 6.003-1.42 9.165.82 2.496 1.4 5.08 2.43 7.5 1.13 2.639 2.3 5.26 4.53 7.242 1.43 1.27 2.74 2.101 4.78 1.042 1.99-1.028 4.19.047 6.26.18 1.3.083.12 2.143 1.1 3.032.43.383.51 1.136.77 1.714 1.11 2.478 2.96 3.44 5.64 2.982 1.36-.233 2.74-.374 4.1-.606.95-.162 1.48.189 1.47 1.134-.04 2.338.3 4.794-.31 6.983-.82 2.941-.99 5.852-1 8.831-.01.853.02 1.714-.42 2.492-.83 1.45-.88 3.058-.88 4.654 0 3.411-.07 6.827.11 10.228.2 3.842-.35 7.636-.56 11.444-.09 1.639-.94 3.208.03 4.855.12.212-.04.619-.12.92-1.28 4.648-1.04 9.213.56 13.76.48 1.329.97 2.336 2.58 2.311 1.51-.023 1.58-1.272 1.84-2.222.82-2.941 1.59-5.852 2.81-8.704.99-2.313 2.47-4.585 2.89-6.949.62-3.536 1.27-7.129 1.49-10.731.24-4.034.03-8.094.17-12.137.15-3.967-2.33-7.783-.62-11.831.1-.237-.11-.616-.21-.921-.22-.743-.26-1.488.13-2.175.82-1.49.64-3.106.61-4.693l-.23-7.66c-.04-1.419.02-2.639 1.76-3.312 1.23-.48 2.55-1.532 2.9-2.832.76-2.823 2.81-4.711 4.42-6.915 2.88-3.941 5.62-7.961 7.9-12.292 2.36-4.504 4.54-9.106 7.46-13.31 1.62-2.331 1.27-4.991-.68-6.991zm103.55 8.199c-.34.513-.78 1.055-1.55.637-.68-.373-.81-1.119-.53-1.639 1.1-1.98 1.43-4.387 3.66-6.472.3 3.145-.23 5.408-1.58 7.473zm50.89 15.142c-1.86-4.52-5.67-6.701-9.84-8.494-.82-.35-1.6-.048-1.86.728-.49 1.457-1.55 1.52-2.79 1.486-.94-.025-1.93-.165-2.79.427-1.73 1.195-3.71.696-5.6.796-1.28.068-1.7-.625-1.53-1.809.59-4.131-.12-8.306.4-12.436.45-3.547.24-7.28 2.85-10.236.27-.313.48-.716.32-1.173-.81-2.176.39-4.084.9-6.041 1-3.741 3.26-7.023 3.68-11.033.31-2.979-.26-4.387-3.18-4.92-.42-.076-.91-.051-1.25-.26-2.09-1.288-3.61-.456-5.01 1.175-.69.803-1.55 1.459-2.28 2.229s-1.41 1.588-2.09 2.407a.58.58 0 0 0 .1.847c.23.175.65.361.85.264.65-.308 1.2-.823 1.85-1.119 1.53-.693 3.01-2.044 4.85-.792-.36 2.972-2.2 5.351-2.3 8.272-.04.943-.79 2.421-2.03 1.956-3.12-1.168-6.06.277-9.09.264-1.59-.007-1.99 1.06-.99 2.332.65.829 1.53 1.483 2.27 2.243 1.62 1.649 1.79 2.157.07 3.643-1.6 1.38-1.79 2.877-1.11 4.521.7 1.652 1.62 3.161 3.87 3.28 2.09.111 2.66.915 1.98 2.844-.69 1.932-1.19 3.792-1.14 5.879.05 1.835-1.2 2.479-3.01 1.844-3.22-1.133-6.03-2.947-8.7-5.06-1.14-.901-1.51-1.796-1.6-3.195-.22-3.232.76-6.623-1.15-9.668-.21-.32-.18-.845-.12-1.255.16-1.113.25-2-1.35-2.056-1.03-.036-1.53-.975-1.16-1.867 1.06-2.491 1.59-5.527 4.61-6.493 2.26-.724 4.03-2.325 6.31-2.981 1.13-.325 1.97-1.308 2.51-2.349.59-1.139.58-2.276-.79-2.981-.57-.292-1.1-.661-1.68-.939-2.34-1.125-2.87-2.684-1.64-4.957.21-.373.48-.713.74-1.045 2.9-3.587.71-8.359-2.43-10.493-3.11-2.112-4.63-1.749-7.02 1.216-1.29 1.608-1.42 2.717.08 4.185 1.84 1.799 1.67 3.808 1.08 5.896-.61 2.132-1.11 4.405-2.25 6.248-1.08 1.752-.45 4.665-3.39 5.276-.47.099-.35.943-.26 1.467.32 2.057-.21 3.979-.7 5.967-.59 2.456-1.01 4.976.27 7.472 1.44 2.807 1.33 3.328-.86 5.613-2.21 2.311-4.35 4.664-6.25 7.245-.66.893-1.11 2.533-2.38 2.231-1.4-.332-.86-1.991-.9-3.06-.17-4.363.53-8.633 1.1-12.959.73-5.547.27-11.273.05-16.912-.14-3.396-2.62-5.319-5.71-4.965-2.79.32-6.39 5.549-5.7 8.232.2.788.69.987 1.38.988 1.07.001 2.14.033 3.2 0 1.1-.036 1.53.499 1.51 1.547-.06 2.125.1 4.276-.17 6.372-.92 6.979-1.38 13.965-1.2 21.009.07 2.659.77 5.002 2.29 7.125.64.892 1.45 1.711 2.68 1.161 1.17-.525 1.84-1.434 1.39-2.826-.1-.303-.2-.608-.25-.922-.09-.546 0-1.092.47-1.421.52-.371 1.01-.036 1.45.268 1.3.916 2.53 1.932 3.88 2.771 4.4 2.736 7.91 1.436 9.81-2.455.42-.859.72-2.015 1.82-1.896 1.09.115.56 1.435.98 2.109a15.77 15.77 0 0 0 1.5 2.05c.98 1.124 2.02 2.19 3.03 3.292 1.63 1.797 1.36 3.01-1.04 3.546-1.86.416-3.67 1.22-5.47 1.47-4.21.582-8.14 2.184-12.29 3.01-4.66.927-9.25 2.28-14.03 2.42-3.05.091-6.19.194-9.07-1.109-2.5-1.127-4.92-2.403-7.36-3.648-.59-.3-1.12-.639-2.01-.032.79 1.864 2.63 2.7 3.43 4.271 1.25 2.456 3.34 4.113 5.21 5.976a7.4 7.4 0 0 0 4.51 2.122c3.64.347 7.37.16 10.63-1.505 4.57-2.341 9.36-4.036 14.19-5.609 1.6-.519 3.1-1.346 4.76-1.623 3.77-.628 7.34-2.007 10.98-3.064 2.29-.668 4.07-.797 5.96.537 1.47 1.04 2.81.536 3.54-.788 1.19-2.15 2.99-2.836 5.24-3.03.94-.082 1.85-.475 2.78-.711.77-.196 1.64-1.061 2.31-.141.6.821-.11 1.629-.68 2.241-4.26 4.583-7.31 10.219-12.38 14.103-.49.377-1 .896-.6 1.624.38.681 1.1.473 1.72.546 1.22.147 1.8-1.068 2.84-1.281 4.39-.892 8.27-3.147 12.46-4.591 1.08-.372 2.27-.493 3.18-1.389 1.92-1.897 4.4-2.923 6.77-4.077 1.61-.782 2.74-1.983 3.74-3.384.48-.672.44-1.168.1-1.99zm-44.85 57.888c.4-2.992-.3-5.946-.21-8.933.06-2.044-.31-2.327-2.48-2.304-3.8.041-7.22 1.575-10.63 2.963-3.25 1.324-6.64 2.126-9.98 3.057-4.08 1.137-9.53-2.152-11.12-6.216-.36-.919.09-1.385.63-1.923.56-.56 1.07-.924 1.93-.416 2.3 1.354 4.59 1.075 6.94-.018 1.61-.752 3.45-1.09 5.13-1.434 1.97-.401 3.72-1.465 5.77-1.552 1.95-.082 2.14-1.857 2.47-3.257.47-1.953.61-3.961 1.77-5.743.66-.997 1.18-1.933 2.34-2.469 2.09-.965 2.94-2.968 3.77-4.94.2-.496.34-1.045-.07-1.492-.53-.592-1.16-.344-1.74-.055-3.61 1.79-7.46 1.55-11.23 1.016-2.25-.318-3.7-2.322-5.3-3.829-.57-.537-.23-1.199.48-1.505.28-.123.63-.166.94-.128 4.44.54 8.19-1.664 12.17-2.999 2.72-.916 5.43-1.777 6.98-4.551.38-.674 1.16-1.229 2.19-.754 2.79 1.268 5.66 2.342 7.91 4.545 1.8 1.763 2.12 2.248.69 4.352-1.69 2.469-3.29 5.167-6.16 6.565-1.07.522-1.43 1.503-1.96 2.416-.6 1.006-.46 1.74.42 2.498 1.61 1.388 3.26 2.742 4.56 4.446.69.906 1.64.88 2.61.792a29.46 29.46 0 0 1 5.75.035c1.41.147 2.18.735 2.22 2.16.12 4.331 1.36 4.861-3.97 4.707-.11-.003-.22-.012-.32-.011-4.17.076-4.49.181-4.17 4.305.37 4.994.24 9.946-.09 14.924-.34 4.936-1.92 9.467-4.03 13.858-1.07 2.217-3.56 2.434-5.38 2.761-3.39.611-6.95.881-10.4-.351-1.17-.42-2.51-.465-3.78-.52-3.29-.138-5.84-2.237-8.81-3.225-.75-.249-1.47-.857-1.62-1.836-.23-1.527-1.1-2.761-1.99-3.948-.54-.711-.59-1.303-.08-2.012.49-.689 1.15-.997 1.94-.749 1 .318 1.97.777 2.95 1.153 3 1.139 6.17 1.764 9.3 1.775 3.37.012 6.77-.379 10.16-.527 1.48-.064 2.3-1.259 2.77-2.716.83-2.599.66-5.268.73-7.915zm-55.2-52.82c.09.006.64-.032 1.15.075.81.165 1.06.784.67 1.432-1.35 2.259-2.35 4.721-3.98 6.821l-4.74 6.307c-1.35 1.705-2.17 3.616-2.65 5.705-.36 1.54.16 2.291 1.66 1.964 1.43-.308 2.77-1.009 4.14-1.57.48-.196.89-.578 1.38-.716.53-.15 1.07.038 1.44.477.37.447.45 1.023.12 1.476-2.17 3.003-4.87 5.263-8.68 5.807-1.66.237-3.06-.184-4.22-1.598-1.47-1.781-3.84-2.673-4.9-4.913-.32-.673-.87-1.267-.6-2.055.81-2.337.26-4.798.8-7.202.78-3.488 2.07-5.903 5.69-7.535 2.93-1.321 5.76-2.893 8.85-3.943 1.14-.389 2.27-.49 3.87-.532zm13.05-27.262c.64-2.861-1.02-6.203-5.05-8.417-.19-.103-.38-.211-.53-.357-.59-.587-1.45-1.197-.99-2.113.51-1.007 1.4-.428 2.23-.26 4 .8 7.57 2.547 11.06 4.561.49.283.83.553 1.08 1.056 2.21 4.524 4.02 9.117 2.69 14.307-.43 1.673-.09 3.388-.24 5.077-.2 2.271-1.39 3.043-3.44 2.128-2.15-.96-3.75-2.315-4.95-4.581-1.68-3.141-2.52-6.231-1.86-11.4z"/></g><path d="M325.483 0l-7.13 35.487-47.925.055-4.432 22.409h47.844l-23.901 118.964h25.053l23.9-118.964 46.256.02 4.445-22.425-46.184-.076L350.535 0h-25.052z" fill="#ee2722"/><path d="M395.934 35.488l-5.34 26.239s3.108-3.091 10.956-3.557l53.257-.219 4.516-22.479-63.389.016zm37.64 72.812c-7.871-8.48-20.675-14.436-25.078-16.525-1.844-.875-14.962-7.569-18.51-8.957-4.952-1.936-6.36-6.157-6.652-9.468s1.432-6.527 2.256-7.773c.294-.445.676-.82 1.044-1.119h-40.992s-1.108 3.272-1.664 9.58c-.382 15.348 11.521 22.709 11.521 22.709l38.335 22.553s13.881 6.905 12.984 18.579c-1.05 13.63-21.826 11.902-21.826 11.902h-55.997l-5.383 27.134h68.455c16.905 0 27.801-3.484 35.584-9.94 10.776-8.938 14.609-20.272 15.059-31.914.609-15.845-5.515-22.86-9.136-26.761zM262.789 64.457h29.856l-55.426 112.458h-22.287l-12.837-91.443-45.068 91.443H138l-16.981-118.8-37.643-.164s-7.833-.305-13.537 1.596c-4.476 1.492-9.091 3.088-13.765 5.857-6.261 3.711-11.625 7.909-18.86 16.808-5.796 7.128-10.496 17.796-11.785 27.589-1.451 11.015 4.059 22.775 10.333 30.388 5.295 6.422 14.417 9.61 21.723 10.79 10.912 1.764 23.032.852 31.613-1.572 16.642-4.699 30.502-12.942 30.502-12.942l-5.337 29.695s-16.55 10.499-48.226 11.596-48.619-13.959-56.839-26.343-11.273-33.396-7.763-49.802c2.388-11.156 6.777-20.879 12.747-29.339 3.427-4.856 7.373-9.296 11.761-13.353 5.511-5.096 13.063-11.167 20.243-14.885 8.499-4.4 19.317-8.544 31.713-8.544l67.78.088 12.455 87.13L201.12 35.49l21.739-.016 12.188 85.271 27.741-56.287z" fill="#fff"/></svg>