<svg width="1425" height="325" viewBox="0 0 1425 325" fill="none" xmlns="http://www.w3.org/2000/svg">
<path d="M45.2094 271.788C45.8845 272.111 46.2241 272.581 46.2241 273.198C46.2241 275.137 44.4459 277.693 40.8916 280.865C34.87 286.242 28.0246 288.928 20.3574 288.928C14.159 288.928 9.21829 286.688 5.53138 282.208C1.84446 277.729 0 271.715 0 264.165C0 253.383 3.45184 244.352 10.3555 237.065C17.2592 229.781 25.8225 226.136 36.0454 226.136C41.2452 226.136 46.634 227.123 52.2176 229.09L49.264 235.568L48.4282 237.462C47.7229 238.959 46.855 239.709 45.8262 239.709C45.6213 239.709 45.3139 239.666 44.902 239.578C45.3139 238.672 45.5188 237.926 45.5188 237.342C45.5188 235.381 44.2028 233.671 41.5707 232.208C38.9386 230.748 35.8726 230.014 32.3725 230.014C25.1956 230.014 19.3648 232.847 14.8803 238.511C10.3957 244.177 8.1514 251.545 8.1514 260.615C8.1514 267.631 9.72462 273.22 12.8731 277.39C16.0195 281.559 20.2248 283.64 25.4889 283.64C29.2844 283.64 33.0697 282.503 36.8491 280.227C40.6284 277.95 43.4152 275.137 45.2094 271.788Z" fill="white"/>
<path d="M63.889 262.843C67.3268 257.673 71.1081 253.406 75.2351 250.042C79.362 246.679 82.8942 244.997 85.8317 244.997C88.6807 244.997 90.1053 246.978 90.1053 250.938C90.1053 252.114 89.9345 253.918 89.5949 256.351L87.2462 272.768C86.7579 276.055 86.5148 278.653 86.5148 280.56C86.5148 282.085 86.9267 282.849 87.7505 282.849C89.7818 282.849 92.2712 280.16 95.2147 274.784C95.9521 275.226 96.3198 275.682 96.3198 276.15C96.3198 278.061 94.6803 280.564 91.4012 283.664C88.1222 286.763 85.4539 288.312 83.3965 288.312C81.102 288.312 79.9567 286.668 79.9567 283.377C79.9567 280.968 80.2641 277.635 80.881 273.375L82.408 262.71C82.9063 259.214 83.1574 256.439 83.1574 254.382C83.1574 252.122 82.3497 250.99 80.7383 250.99C76.9871 250.99 73.1917 253.538 69.3501 258.636C65.5125 263.731 63.2561 269.204 62.581 275.049L61.4096 285.625L54.8174 288.312L54.95 287.078L55.3036 283.815L55.6552 280.733L59.9349 242.108C60.9616 232.996 64.3391 225.214 70.0653 218.763C75.7916 212.311 82.193 209.084 89.2694 209.084C90.7382 209.084 92.1627 209.247 93.5431 209.568L87.0714 215.914C85.3957 215.415 83.8124 215.166 82.3155 215.166C73.5975 215.166 68.474 221.987 66.947 235.63L63.889 262.843Z" fill="white"/>
<path d="M112.762 263.548C119.28 251.181 125.697 244.997 132.008 244.997C133.651 244.997 135.297 245.379 136.943 246.142L130.734 252.929C129.794 252.399 128.59 252.136 127.122 252.136C124.07 252.136 120.849 254.611 117.457 259.56C114.068 264.51 112.079 269.658 111.492 275.005L110.3 285.756L103.75 287.96L103.883 286.638L104.19 283.775L104.544 280.91L106.855 259.935L107.12 257.643C107.325 255.911 107.429 254.5 107.429 253.413C107.429 251.621 106.929 250.725 105.93 250.725C103.575 250.725 101.237 253.237 98.9141 258.26C98.1787 257.703 97.8271 257.13 97.8573 256.542C97.9457 254.75 99.5852 252.379 102.778 249.425C105.972 246.474 108.494 244.997 110.349 244.997C112.85 244.997 114.102 246.642 114.102 249.931C114.102 250.725 114.027 251.798 113.881 253.148L113.571 256.232L113.165 259.935L112.762 263.548Z" fill="white"/>
<path d="M146.412 239.313L150.113 230.191C153.402 228.841 156.106 226.974 158.222 224.595C158.513 225.007 158.662 225.433 158.662 225.873C158.662 229.811 154.577 234.29 146.412 239.313ZM155.23 274.344C156.018 274.814 156.414 275.27 156.414 275.71C156.414 276.767 155.136 278.854 152.58 281.967C149.144 286.198 145.956 288.312 143.018 288.312C140.874 288.312 139.801 286.889 139.801 284.044C139.801 282.841 140.243 279.144 141.123 272.951L142.843 260.982L143.283 257.944L143.635 255.523C143.782 254.495 143.856 253.631 143.856 252.925C143.856 251.459 143.446 250.725 142.626 250.725C140.348 250.725 137.891 253.237 135.259 258.26C134.704 257.762 134.427 257.263 134.427 256.763C134.427 254.971 136.078 252.562 139.384 249.536C142.689 246.51 145.325 244.997 147.294 244.997C149.496 244.997 150.597 246.524 150.597 249.574C150.597 250.163 150.48 251.364 150.245 253.185L149.85 256.132C149.819 256.367 149.657 257.555 149.363 259.696L147.557 272.284L147.117 275.103C146.735 277.89 146.544 279.754 146.544 280.693C146.544 281.955 146.91 282.583 147.639 282.583C150.099 282.583 152.626 279.837 155.23 274.344Z" fill="white"/>
<path d="M155.704 285.933L161.798 280.954C164.093 283.393 166.978 284.611 170.452 284.611C174.691 284.611 176.811 282.569 176.811 278.487C176.811 276.224 174.866 273.066 170.976 269.011L168.457 266.413C164.772 262.566 162.931 259.451 162.931 257.07C162.931 253.663 164.408 250.8 167.358 248.479C170.311 246.158 173.946 244.997 178.266 244.997C180.614 244.997 183.184 245.437 185.977 246.319L180.689 251.209C178.454 249.536 175.973 248.698 173.241 248.698C170.04 248.698 168.439 250.036 168.439 252.708C168.439 254.619 170.215 257.424 173.771 261.125L176.502 264.032C180.556 268.264 182.583 271.671 182.583 274.255C182.583 277.958 180.805 281.225 177.251 284.06C173.697 286.895 169.598 288.312 164.957 288.312C161.667 288.312 158.583 287.52 155.704 285.933Z" fill="white"/>
<path d="M202.288 251.254L200.154 270.731C199.773 274.227 199.582 276.811 199.582 278.485C199.582 281.806 200.709 283.465 202.965 283.465C205.396 283.465 207.914 281.468 210.518 277.472C210.958 278.031 211.177 278.529 211.177 278.971C211.177 280.616 209.73 282.583 206.837 284.874C203.944 287.166 201.452 288.312 199.369 288.312C195.196 288.312 193.11 285.639 193.11 280.293C193.11 278.324 193.359 275.137 193.859 270.731L195.973 251.254H186.721L191.848 246.142H196.54L197.472 238.123L203.964 235.964L202.893 246.142H221.577L216.413 251.254H202.288Z" fill="white"/>
<path d="M230.913 239.313L234.614 230.191C237.903 228.841 240.606 226.974 242.721 224.595C243.015 225.007 243.161 225.433 243.161 225.873C243.161 229.811 239.079 234.29 230.913 239.313ZM239.73 274.344C240.519 274.814 240.915 275.27 240.915 275.71C240.915 276.767 239.637 278.854 237.082 281.967C233.644 286.198 230.457 288.312 227.52 288.312C225.374 288.312 224.303 286.889 224.303 284.044C224.303 282.841 224.743 279.144 225.625 272.951L227.343 260.982L227.785 257.944L228.137 255.523C228.283 254.495 228.358 253.631 228.358 252.925C228.358 251.459 227.948 250.725 227.128 250.725C224.847 250.725 222.392 253.237 219.76 258.26C219.206 257.762 218.926 257.263 218.926 256.763C218.926 254.971 220.58 252.562 223.883 249.536C227.19 246.51 229.824 244.997 231.793 244.997C233.997 244.997 235.098 246.524 235.098 249.574C235.098 250.163 234.98 251.364 234.747 253.185L234.349 256.132C234.319 256.367 234.158 257.555 233.865 259.696L232.059 272.284L231.619 275.103C231.235 277.89 231.044 279.754 231.044 280.693C231.044 281.955 231.41 282.583 232.141 282.583C234.598 282.583 237.128 279.837 239.73 274.344Z" fill="white"/>
<path d="M272.87 252.22C270.196 250.723 267.491 249.976 264.759 249.976C260.642 249.976 257.19 252.485 254.397 257.5C251.604 262.517 250.208 268.736 250.208 276.158C250.208 279.971 251.339 281.878 253.603 281.878C256.219 281.878 259.38 279.885 263.083 275.895C268.08 270.526 271.106 264.217 272.165 256.972L272.87 252.22ZM270.354 269.672C267.039 275.137 263.394 279.61 259.418 283.09C255.444 286.572 251.988 288.312 249.057 288.312C245.036 288.312 243.027 285.067 243.027 278.573C243.027 269.644 245.956 261.911 251.817 255.375C257.676 248.837 264.618 245.57 272.637 245.57C275.693 245.57 278.293 245.951 280.436 246.715C280.29 247.243 280.201 247.565 280.171 247.681L279.643 250.014C279.291 251.627 279.098 252.568 279.07 252.831L276.251 272.284L275.853 275.101C275.472 277.89 275.281 279.752 275.281 280.691C275.281 281.955 275.647 282.583 276.378 282.583C278.835 282.583 281.349 279.837 283.922 274.344C284.712 274.814 285.108 275.284 285.108 275.754C285.108 276.783 283.844 278.854 281.319 281.967C277.881 286.196 274.692 288.312 271.757 288.312C269.611 288.312 268.54 286.873 268.54 283.994C268.54 283.112 268.642 281.894 268.849 280.337L269.293 276.811L269.868 272.933L270.354 269.672Z" fill="white"/>
<path d="M299.149 285.625L292.554 288.312L292.687 287.078L293.041 283.817L293.394 280.733L295.691 260.287L295.956 257.952C296.133 256.13 296.219 254.663 296.219 253.546C296.219 251.666 295.749 250.725 294.809 250.725C292.601 250.725 290.232 253.223 287.702 258.216C287.025 257.659 286.689 257.175 286.689 256.763C286.689 254.999 288.299 252.598 291.52 249.558C294.738 246.516 297.276 244.997 299.129 244.997C301.658 244.997 302.922 246.612 302.922 249.845C302.922 250.667 302.85 251.768 302.701 253.148L302.349 256.719L301.988 259.714L301.626 262.843C305.092 257.673 308.889 253.406 313.016 250.042C317.145 246.679 320.661 244.997 323.571 244.997C326.42 244.997 327.844 246.978 327.844 250.938C327.844 252.142 327.69 253.948 327.378 256.353L324.983 272.768C324.495 276.055 324.254 278.653 324.254 280.56C324.254 282.085 324.666 282.849 325.489 282.849C327.521 282.849 330.024 280.162 332.998 274.784C333.705 275.226 334.057 275.682 334.057 276.15C334.057 278.061 332.417 280.566 329.138 283.664C325.859 286.763 323.189 288.312 321.131 288.312C318.837 288.312 317.69 286.668 317.69 283.377C317.69 280.97 317.999 277.635 318.616 273.375L320.173 262.71C320.671 259.244 320.923 256.498 320.923 254.47C320.923 252.152 320.115 250.99 318.499 250.99C314.742 250.99 310.935 253.538 307.077 258.636C303.217 263.731 300.965 269.204 300.318 275.049L299.149 285.625Z" fill="white"/>
<path d="M376.395 288.928C376.893 285.404 377.142 280.132 377.142 273.11C377.142 259.126 376.519 248.905 375.27 242.441C374.022 235.98 372.031 232.747 369.3 232.747C367.536 232.747 365.832 233.673 364.189 235.523C362.543 237.374 361.515 239.518 361.105 241.957C359.899 241.692 359.296 241.163 359.296 240.37C359.296 237.374 360.747 234.252 363.644 231.005C366.544 227.76 369.332 226.136 372.011 226.136C374.717 226.136 376.771 227.173 378.167 229.243C379.565 231.316 380.781 235.126 381.81 240.679C383.369 248.933 384.148 258.451 384.148 269.232L384.193 272.316L390.524 259.978L393.337 254.559L397.423 246.496C399.768 241.913 401.335 238.24 402.127 235.479L408.884 229.046C408.679 231.278 408.576 233.187 408.576 234.774C408.576 239.769 409.577 247.743 411.58 258.7L412.107 261.565L412.987 266.148C413.573 269.29 414.16 272.702 414.747 276.379C415.613 274.757 416.151 273.713 416.36 273.242L419.929 265.838L424.248 257.07C427.831 249.638 429.623 243.836 429.623 239.664C429.623 236.845 428.462 234.702 426.143 233.231L432.621 226.136C435.617 228.105 437.115 230.47 437.115 233.231C437.115 236.904 434.023 244.806 427.841 256.938C426.812 258.965 425.574 261.432 424.134 264.34L422.233 268.217L420.29 272.668L417.73 278.396C417.524 278.896 417.053 280.072 416.318 281.924L409.575 289.105L409.398 287.166C408.814 280.996 407.715 273.699 406.105 265.266L405.579 262.622L404.831 258.7C404.275 255.851 403.907 253.765 403.732 252.443L402.898 246.407C402.838 245.965 402.693 244.939 402.458 243.321L396.515 255.131L394.096 259.933C389.664 268.629 386.274 275.871 383.927 281.659L376.395 288.928Z" fill="white"/>
<path d="M450.593 239.313L454.296 230.191C457.585 228.841 460.288 226.974 462.404 224.595C462.697 225.007 462.844 225.433 462.844 225.873C462.844 229.811 458.761 234.29 450.593 239.313ZM459.412 274.344C460.201 274.814 460.597 275.27 460.597 275.71C460.597 276.767 459.319 278.854 456.764 281.967C453.326 286.198 450.137 288.312 447.202 288.312C445.056 288.312 443.985 286.889 443.985 284.044C443.985 282.841 444.425 279.144 445.307 272.951L447.025 260.982L447.465 257.944L447.819 255.523C447.965 254.495 448.038 253.631 448.038 252.925C448.038 251.459 447.628 250.725 446.81 250.725C444.53 250.725 442.074 253.237 439.442 258.26C438.886 257.762 438.608 257.263 438.608 256.763C438.608 254.971 440.262 252.562 443.565 249.536C446.87 246.51 449.506 244.997 451.475 244.997C453.68 244.997 454.781 246.524 454.781 249.574C454.781 250.163 454.662 251.364 454.427 253.185L454.031 256.132C454.001 256.367 453.84 257.555 453.547 259.696L451.741 272.284L451.299 275.103C450.917 277.89 450.726 279.754 450.726 280.693C450.726 281.955 451.092 282.583 451.823 282.583C454.28 282.583 456.81 279.837 459.412 274.344Z" fill="white"/>
<path d="M476.466 251.254L474.334 270.731C473.95 274.227 473.759 276.811 473.759 278.485C473.759 281.806 474.887 283.465 477.145 283.465C479.574 283.465 482.092 281.468 484.696 277.472C485.136 278.031 485.355 278.529 485.355 278.971C485.355 280.616 483.908 282.583 481.015 284.874C478.121 287.166 475.632 288.312 473.546 288.312C469.375 288.312 467.29 285.639 467.29 280.293C467.29 278.324 467.539 275.137 468.037 270.731L470.153 251.254H460.9L466.028 246.142H470.717L471.65 238.123L478.141 235.964L477.071 246.142H495.754L490.591 251.254H476.466Z" fill="white"/>
<path d="M504.465 285.625L497.87 288.312L498.003 287.078L498.359 283.817L498.71 280.733L501.007 260.287L501.272 257.952C501.449 256.13 501.537 254.663 501.537 253.546C501.537 251.666 501.067 250.725 500.125 250.725C497.916 250.725 495.55 253.223 493.018 258.216C492.343 257.659 492.005 257.175 492.005 256.763C492.005 254.999 493.615 252.598 496.836 249.558C500.056 246.516 502.592 244.997 504.446 244.997C506.974 244.997 508.238 246.612 508.238 249.845C508.238 250.667 508.166 251.768 508.019 253.148L507.665 256.719L507.306 259.714L506.944 262.843C510.408 257.673 514.207 253.406 518.332 250.042C522.461 246.679 525.979 244.997 528.887 244.997C531.736 244.997 533.16 246.978 533.16 250.938C533.16 252.142 533.005 253.948 532.694 256.353L530.301 272.768C529.813 276.055 529.57 278.653 529.57 280.56C529.57 282.085 529.982 282.849 530.805 282.849C532.837 282.849 535.34 280.162 538.314 274.784C539.021 275.226 539.375 275.682 539.375 276.15C539.375 278.061 537.735 280.566 534.454 283.664C531.175 286.763 528.505 288.312 526.447 288.312C524.153 288.312 523.008 286.668 523.008 283.377C523.008 280.97 523.315 277.635 523.932 273.375L525.489 262.71C525.987 259.244 526.238 256.498 526.238 254.47C526.238 252.152 525.431 250.99 523.815 250.99C520.058 250.99 516.253 253.538 512.393 258.636C508.533 263.731 506.281 269.204 505.636 275.049L504.465 285.625Z" fill="white"/>
<path d="M547.874 266.632C548.725 266.926 549.503 267.072 550.208 267.072C553.851 267.072 557.04 265.957 559.77 263.725C562.503 261.493 563.869 258.877 563.869 255.881C563.869 252.443 562.121 250.725 558.625 250.725C556.097 250.725 553.815 252.23 551.773 255.24C549.732 258.254 548.43 262.049 547.874 266.632ZM568.187 273.154C568.92 273.654 569.288 274.241 569.288 274.916C569.288 275.826 568.347 277.384 566.469 279.588C561.446 285.404 556.481 288.312 551.574 288.312C548.579 288.312 546.111 287.122 544.173 284.743C542.234 282.364 541.263 279.322 541.263 275.621C541.263 268.923 543.799 262.146 548.864 255.286C553.933 248.427 558.948 244.997 563.913 244.997C567.496 244.997 569.288 246.922 569.288 250.769C569.288 255.087 567.194 259.303 563.009 263.415C558.822 267.528 553.718 270.393 547.697 272.009C548.283 279.057 551.074 282.583 556.069 282.583C561.004 282.583 565.042 279.441 568.187 273.154Z" fill="white"/>
<path d="M570.078 285.933L576.172 280.954C578.468 283.393 581.351 284.611 584.825 284.611C589.065 284.611 591.184 282.569 591.184 278.487C591.184 276.224 589.24 273.066 585.35 269.011L582.83 266.413C579.145 262.566 577.305 259.451 577.305 257.07C577.305 253.663 578.782 250.8 581.733 248.479C584.685 246.158 588.321 244.997 592.639 244.997C594.988 244.997 597.558 245.437 600.351 246.319L595.062 251.209C592.83 249.536 590.347 248.698 587.616 248.698C584.413 248.698 582.812 250.036 582.812 252.708C582.812 254.619 584.59 257.424 588.145 261.125L590.875 264.032C594.93 268.264 596.957 271.671 596.957 274.255C596.957 277.958 595.179 281.225 591.624 284.06C588.07 286.895 583.971 288.312 579.332 288.312C576.041 288.312 572.957 287.52 570.078 285.933Z" fill="white"/>
<path d="M600.081 285.933L606.173 280.954C608.47 283.393 611.355 284.611 614.829 284.611C619.066 284.611 621.186 282.569 621.186 278.487C621.186 276.224 619.241 273.066 615.351 269.011L612.832 266.413C609.149 262.566 607.306 259.451 607.306 257.07C607.306 253.663 608.783 250.8 611.735 248.479C614.688 246.158 618.323 244.997 622.641 244.997C624.991 244.997 627.561 245.437 630.352 246.319L625.064 251.209C622.831 249.536 620.35 248.698 617.618 248.698C614.415 248.698 612.815 250.036 612.815 252.708C612.815 254.619 614.592 257.424 618.146 261.125L620.878 264.032C624.933 268.264 626.958 271.671 626.958 274.255C626.958 277.958 625.182 281.225 621.628 284.06C618.074 286.895 613.975 288.312 609.334 288.312C606.042 288.312 602.958 287.52 600.081 285.933Z" fill="white"/>
<path d="M664.714 252.971L657.531 259.845C656.856 257.554 656.518 255.306 656.518 253.104C656.518 245.025 659.881 238.489 666.608 233.494C671.631 229.765 678.551 227.898 687.364 227.898H713.67C724.57 227.898 730.019 224.535 730.019 217.808C730.019 215.459 729.21 213.285 727.594 211.286L733.148 206C734.44 207.762 735.087 210.024 735.087 212.785C735.087 218.574 732.477 223.426 727.261 227.348C722.043 231.27 715.599 233.231 707.928 233.231H695.674L692.373 263.018L691.844 267.91C691.346 272.081 690.444 275.091 689.142 276.943C687.836 278.794 685.32 280.6 681.593 282.362L694.4 283.023L689.118 288.135L667.625 287.164L673.309 281.701L678.111 282.23C681.665 279.969 683.87 275.342 684.721 268.35L685.161 264.076L688.579 233.231H681.093C668.792 233.231 662.642 237.3 662.642 245.437C662.642 247.904 663.333 250.416 664.714 252.971Z" fill="white"/>
<path d="M734.024 262.843C737.462 257.673 741.243 253.406 745.37 250.042C749.497 246.679 753.029 244.997 755.968 244.997C758.818 244.997 760.242 246.978 760.242 250.938C760.242 252.114 760.071 253.918 759.73 256.351L757.381 272.768C756.893 276.055 756.648 278.653 756.648 280.56C756.648 282.085 757.059 282.849 757.887 282.849C759.917 282.849 762.406 280.16 765.352 274.784C766.087 275.226 766.453 275.682 766.453 276.15C766.453 278.061 764.815 280.564 761.536 283.664C758.257 286.763 755.589 288.312 753.531 288.312C751.239 288.312 750.091 286.668 750.091 283.377C750.091 280.968 750.399 277.635 751.016 273.375L752.543 262.71C753.041 259.214 753.292 256.439 753.292 254.382C753.292 252.122 752.486 250.99 750.873 250.99C747.12 250.99 743.324 253.538 739.487 258.636C735.647 263.731 733.391 269.204 732.716 275.049L731.544 285.625L724.952 288.312L725.087 287.078L725.438 283.815L725.792 280.733L730.072 242.108C731.098 232.996 734.476 225.214 740.202 218.763C745.928 212.311 752.328 209.084 759.404 209.084C760.873 209.084 762.297 209.247 763.678 209.568L757.206 215.914C755.532 215.415 753.947 215.166 752.45 215.166C743.732 215.166 738.609 221.987 737.082 235.63L734.024 262.843Z" fill="white"/>
<path d="M774.956 266.632C775.805 266.926 776.583 267.072 777.288 267.072C780.931 267.072 784.12 265.957 786.85 263.725C789.585 261.493 790.949 258.877 790.949 255.881C790.949 252.443 789.201 250.725 785.707 250.725C783.179 250.725 780.895 252.23 778.853 255.24C776.812 258.254 775.512 262.049 774.956 266.632ZM795.267 273.154C796 273.654 796.368 274.241 796.368 274.916C796.368 275.826 795.43 277.384 793.547 279.588C788.526 285.404 783.561 288.312 778.657 288.312C775.659 288.312 773.192 287.122 771.253 284.743C769.314 282.364 768.343 279.322 768.343 275.621C768.343 268.923 770.879 262.146 775.944 255.286C781.013 248.427 786.028 244.997 790.993 244.997C794.576 244.997 796.368 246.922 796.368 250.769C796.368 255.087 794.274 259.303 790.091 263.415C785.904 267.528 780.8 270.393 774.779 272.009C775.365 279.057 778.156 282.583 783.149 282.583C788.084 282.583 792.122 279.441 795.267 273.154Z" fill="white"/>
<path d="M815.049 283.377C818.427 283.377 821.252 281.498 823.53 277.737C825.807 273.978 826.944 269.292 826.944 263.681C826.944 254.515 824.095 249.932 818.397 249.932C815.049 249.932 812.234 251.82 809.958 255.594C807.681 259.369 806.544 264.048 806.544 269.63C806.544 278.794 809.377 283.377 815.049 283.377ZM809.717 288.312C803.106 288.312 799.801 283.936 799.801 275.181C799.801 268.131 802.387 261.338 807.555 254.802C812.727 248.266 818.087 244.997 823.641 244.997C830.337 244.997 833.687 249.375 833.687 258.129C833.687 265.208 831.103 272.009 825.931 278.531C820.761 285.051 815.357 288.312 809.717 288.312Z" fill="white"/>
<path d="M854.442 274.211C855.29 274.623 855.714 275.151 855.714 275.798C855.714 277.912 854.135 280.528 850.976 283.64C847.818 286.757 845.168 288.312 843.024 288.312C840.585 288.312 839.367 286.55 839.367 283.023C839.367 280.88 839.5 278.692 839.761 276.457L840.247 272.537L843.645 241.869C844.704 232.526 847.91 224.726 853.273 218.469C858.632 212.213 864.806 209.084 871.798 209.084C873.5 209.084 874.942 209.231 876.116 209.524L869.867 215.914C868.487 215.445 866.875 215.208 865.027 215.208C860.627 215.208 857.332 216.759 855.146 219.856C852.962 222.952 851.457 228.2 850.637 235.598L846.546 272.499C846.225 275.348 846.062 277.388 846.062 278.621C846.062 281.263 846.514 282.583 847.422 282.583C848.505 282.583 849.777 281.713 851.24 279.975C852.702 278.235 853.767 276.315 854.442 274.211Z" fill="white"/>
<path d="M873.646 283.377C877.024 283.377 879.851 281.498 882.127 277.737C884.404 273.978 885.541 269.292 885.541 263.681C885.541 254.515 882.692 249.932 876.996 249.932C873.646 249.932 870.831 251.82 868.555 255.594C866.279 259.369 865.141 264.048 865.141 269.63C865.141 278.794 867.974 283.377 873.646 283.377ZM868.314 288.312C861.704 288.312 858.398 283.936 858.398 275.181C858.398 268.131 860.984 261.338 866.154 254.802C871.324 248.266 876.686 244.997 882.238 244.997C888.935 244.997 892.284 249.375 892.284 258.129C892.284 265.208 889.7 272.009 884.528 278.531C879.359 285.051 873.954 288.312 868.314 288.312Z" fill="white"/>
<path d="M924.194 252.224C922.078 250.725 919.418 249.978 916.213 249.978C912.187 249.978 908.785 252.503 906.007 257.556C903.23 262.61 901.841 268.822 901.841 276.196C901.841 280.013 902.973 281.924 905.237 281.924C907.821 281.924 910.981 279.925 914.716 275.931C919.888 270.379 922.856 264.092 923.621 257.07L924.194 252.224ZM922.229 269.875C914.301 281.993 907.124 288.048 900.694 288.048C900.431 288.048 899.959 288.02 899.286 287.96C892.44 294.825 889.017 300.941 889.017 306.31C889.017 309.975 890.321 313.047 892.922 315.528C895.526 318.006 898.753 319.245 902.609 319.245C908.55 319.245 913.111 316.631 916.288 311.406C918.699 307.383 920.374 297.797 921.317 282.648C921.666 276.921 921.97 272.666 922.229 269.875ZM931.761 246.717C931.614 247.245 931.526 247.569 931.495 247.685L931.011 250.02C930.629 251.726 930.423 252.664 930.394 252.841L928.632 268.969C928.339 271.671 928.03 276.415 927.708 283.2C927.296 291.691 926.488 297.978 925.283 302.061C924.077 306.143 921.948 309.788 918.894 312.989C911.902 320.363 904.455 324.05 896.553 324.05C892.736 324.05 889.563 322.758 887.035 320.176C884.508 317.594 883.246 314.365 883.246 310.491C883.246 302.599 888.078 294.809 897.745 287.124C895.685 285.507 894.656 282.654 894.656 278.565C894.656 269.684 897.582 261.965 903.427 255.407C909.271 248.848 916.177 245.569 924.138 245.569C927.515 245.569 930.057 245.953 931.761 246.717Z" fill="white"/>
<path d="M947.706 239.313L951.407 230.191C954.7 228.841 957.401 226.974 959.516 224.595C959.812 225.007 959.958 225.433 959.958 225.873C959.958 229.811 955.874 234.29 947.706 239.313ZM956.527 274.344C957.314 274.814 957.71 275.27 957.71 275.71C957.71 276.767 956.434 278.854 953.876 281.967C950.441 286.198 947.252 288.312 944.315 288.312C942.171 288.312 941.1 286.889 941.1 284.044C941.1 282.841 941.538 279.144 942.42 272.951L944.138 260.982L944.58 257.944L944.931 255.523C945.08 254.495 945.152 253.631 945.152 252.925C945.152 251.459 944.743 250.725 943.923 250.725C941.644 250.725 939.187 253.237 936.555 258.26C936 257.762 935.721 257.263 935.721 256.763C935.721 254.971 937.375 252.562 940.68 249.536C943.985 246.51 946.621 244.997 948.588 244.997C950.792 244.997 951.893 246.524 951.893 249.574C951.893 250.163 951.777 251.364 951.542 253.185L951.146 256.132C951.116 256.367 950.953 257.555 950.66 259.696L948.853 272.284L948.411 275.103C948.03 277.89 947.841 279.754 947.841 280.693C947.841 281.955 948.204 282.583 948.936 282.583C951.393 282.583 953.923 279.837 956.527 274.344Z" fill="white"/>
<path d="M990.488 246.142L985.467 252.18C983.116 251.209 980.868 250.725 978.724 250.725C974.874 250.725 971.841 252.355 969.624 255.616C967.406 258.877 966.297 263.343 966.297 269.011C966.297 273.007 967.097 276.224 968.7 278.661C970.299 281.103 972.393 282.318 974.977 282.318C979.355 282.318 982.791 279.455 985.29 273.727C985.935 274.432 986.257 275.093 986.257 275.71C986.257 278.149 984.356 280.857 980.553 283.839C976.747 286.821 973.259 288.312 970.086 288.312C967.03 288.312 964.527 287.086 962.574 284.633C960.621 282.18 959.643 278.999 959.643 275.093C959.643 267.484 962.228 260.566 967.398 254.338C972.568 248.111 978.312 244.997 984.627 244.997C986.92 244.997 988.873 245.379 990.488 246.142Z" fill="white"/>
<path d="M1022.13 252.22C1019.46 250.723 1016.76 249.976 1014.02 249.976C1009.91 249.976 1006.45 252.485 1003.66 257.5C1000.87 262.517 999.474 268.736 999.474 276.158C999.474 279.971 1000.6 281.878 1002.87 281.878C1005.48 281.878 1008.64 279.885 1012.34 275.895C1017.34 270.526 1020.37 264.217 1021.43 256.972L1022.13 252.22ZM1019.62 269.672C1016.3 275.137 1012.66 279.61 1008.68 283.09C1004.71 286.572 1001.25 288.312 998.318 288.312C994.3 288.312 992.289 285.067 992.289 278.573C992.289 269.644 995.22 261.911 1001.08 255.375C1006.94 248.837 1013.88 245.57 1021.9 245.57C1024.96 245.57 1027.56 245.951 1029.7 246.715C1029.55 247.243 1029.47 247.565 1029.44 247.681L1028.91 250.014C1028.55 251.627 1028.36 252.568 1028.34 252.831L1025.52 272.284L1025.12 275.101C1024.74 277.89 1024.54 279.752 1024.54 280.691C1024.54 281.955 1024.91 282.583 1025.64 282.583C1028.1 282.583 1030.61 279.837 1033.19 274.344C1033.98 274.814 1034.37 275.284 1034.37 275.754C1034.37 276.783 1033.11 278.854 1030.58 281.967C1027.14 286.196 1023.96 288.312 1021.02 288.312C1018.87 288.312 1017.8 286.873 1017.8 283.994C1017.8 283.112 1017.91 281.894 1018.11 280.337L1018.56 276.811L1019.13 272.933L1019.62 269.672Z" fill="white"/>
<path d="M1054.38 274.211C1055.23 274.623 1055.65 275.151 1055.65 275.798C1055.65 277.912 1054.07 280.528 1050.91 283.64C1047.76 286.757 1045.1 288.312 1042.96 288.312C1040.52 288.312 1039.3 286.55 1039.3 283.023C1039.3 280.88 1039.43 278.692 1039.7 276.457L1040.18 272.537L1043.58 241.869C1044.64 232.526 1047.85 224.726 1053.21 218.469C1058.57 212.213 1064.74 209.084 1071.73 209.084C1073.44 209.084 1074.88 209.231 1076.05 209.524L1069.8 215.914C1068.42 215.445 1066.81 215.208 1064.96 215.208C1060.56 215.208 1057.27 216.759 1055.08 219.856C1052.9 222.952 1051.39 228.2 1050.57 235.598L1046.48 272.499C1046.16 275.348 1046 277.388 1046 278.621C1046 281.263 1046.45 282.583 1047.36 282.583C1048.44 282.583 1049.71 281.713 1051.17 279.975C1052.64 278.235 1053.7 276.315 1054.38 274.211Z" fill="white"/>
<path d="M1080.58 279.369L1088.08 274.83C1089.26 282.055 1093.6 285.669 1101.1 285.669C1104.74 285.669 1107.73 284.677 1110.06 282.696C1112.38 280.711 1113.54 278.163 1113.54 275.049C1113.54 270.791 1110.97 266.56 1105.82 262.359L1100.48 258.041C1096.18 254.515 1093.31 251.732 1091.87 249.69C1090.42 247.649 1089.7 245.35 1089.7 242.795C1089.7 237.977 1091.63 233.996 1095.48 230.854C1099.32 227.71 1104.19 226.138 1110.06 226.138C1114.73 226.138 1119.15 227.255 1123.32 229.488L1120.77 235.347L1119.62 237.947C1118.98 239.476 1118.21 240.239 1117.33 240.239C1116.95 240.239 1116.55 240.09 1116.14 239.797C1116.64 238.264 1116.89 237.038 1116.89 236.124C1116.89 234.237 1115.86 232.658 1113.78 231.39C1111.71 230.121 1109.15 229.488 1106.1 229.488C1099.16 229.488 1095.7 232.353 1095.7 238.085C1095.7 240.145 1096.47 242.122 1098.01 244.016C1099.55 245.913 1102.76 248.847 1107.64 252.815L1111.91 256.341C1117.35 260.751 1120.06 265.382 1120.06 270.233C1120.06 275.583 1117.81 280.04 1113.3 283.594C1108.79 287.152 1103.16 288.93 1096.4 288.93C1088.17 288.93 1082.9 285.742 1080.58 279.369Z" fill="white"/>
<path d="M1133.28 266.632C1134.13 266.926 1134.91 267.072 1135.61 267.072C1139.25 267.072 1142.44 265.957 1145.17 263.725C1147.91 261.493 1149.27 258.877 1149.27 255.881C1149.27 252.443 1147.52 250.725 1144.03 250.725C1141.5 250.725 1139.22 252.23 1137.18 255.24C1135.14 258.254 1133.84 262.049 1133.28 266.632ZM1153.59 273.154C1154.32 273.654 1154.69 274.241 1154.69 274.916C1154.69 275.826 1153.75 277.384 1151.87 279.588C1146.85 285.404 1141.88 288.312 1136.98 288.312C1133.98 288.312 1131.52 287.122 1129.58 284.743C1127.64 282.364 1126.67 279.322 1126.67 275.621C1126.67 268.923 1129.2 262.146 1134.27 255.286C1139.34 248.427 1144.35 244.997 1149.32 244.997C1152.9 244.997 1154.69 246.922 1154.69 250.769C1154.69 255.087 1152.6 259.303 1148.41 263.415C1144.23 267.528 1139.12 270.393 1133.1 272.009C1133.69 279.057 1136.48 282.583 1141.47 282.583C1146.41 282.583 1150.45 279.441 1153.59 273.154Z" fill="white"/>
<path d="M1192.71 285.625L1186.16 288.312L1186.29 287.078L1186.64 283.817L1186.95 280.733L1189.17 260.948L1189.48 258.702C1189.6 257.526 1189.66 256.381 1189.66 255.264C1189.66 252.415 1188.79 250.99 1187.05 250.99C1184.35 250.99 1181.2 253.751 1177.6 259.274C1174 264.798 1171.92 270.056 1171.36 275.049L1170.23 285.625L1163.64 288.312L1163.77 287.078L1164.12 283.817L1164.48 280.733L1166.74 260.287L1167 257.952C1167.21 256.13 1167.31 254.663 1167.31 253.546C1167.31 251.666 1166.84 250.725 1165.9 250.725C1163.69 250.725 1161.3 253.223 1158.74 258.216C1158.07 257.659 1157.73 257.175 1157.73 256.763C1157.73 254.999 1159.34 252.598 1162.56 249.558C1165.78 246.516 1168.33 244.997 1170.21 244.997C1172.74 244.997 1174.01 246.612 1174.01 249.845C1174.01 250.667 1173.93 251.768 1173.79 253.148L1173.43 256.719L1173.07 259.714L1172.71 262.843L1173.94 260.904C1180.53 250.299 1186.65 244.997 1192.32 244.997C1195.05 244.997 1196.42 246.966 1196.42 250.902C1196.42 251.579 1196.3 253.002 1196.07 255.176L1195.63 259.23L1195.02 264.738C1197.75 259.07 1200.99 254.36 1204.73 250.617C1208.47 246.87 1211.81 244.997 1214.75 244.997C1217.66 244.997 1219.11 246.878 1219.11 250.637C1219.11 252.254 1218.94 254.177 1218.6 256.409L1216.26 272.758C1215.74 276.136 1215.48 278.75 1215.48 280.602C1215.48 282.159 1215.91 282.937 1216.77 282.937C1217.77 282.937 1219.03 282.101 1220.56 280.425C1222.08 278.75 1223.3 276.855 1224.21 274.741C1225.01 275.27 1225.41 275.754 1225.41 276.194C1225.41 278.045 1223.76 280.528 1220.48 283.642C1217.19 286.757 1214.57 288.312 1212.62 288.312C1210.12 288.312 1208.87 286.638 1208.87 283.289C1208.87 281.175 1209.19 277.9 1209.84 273.464L1211.41 262.843C1211.46 262.463 1211.57 261.625 1211.72 260.331C1211.77 259.803 1211.87 258.907 1212.02 257.643C1212.17 256.381 1212.24 255.413 1212.24 254.736C1212.24 252.238 1211.42 250.99 1209.78 250.99C1207.03 250.99 1203.82 253.751 1200.18 259.274C1196.53 264.798 1194.43 270.056 1193.88 275.049L1192.71 285.625Z" fill="white"/>
<path d="M1239.95 239.313L1243.65 230.191C1246.94 228.841 1249.64 226.974 1251.76 224.595C1252.05 225.007 1252.2 225.433 1252.2 225.873C1252.2 229.811 1248.11 234.29 1239.95 239.313ZM1248.77 274.344C1249.55 274.814 1249.95 275.27 1249.95 275.71C1249.95 276.767 1248.67 278.854 1246.12 281.967C1242.68 286.198 1239.49 288.312 1236.56 288.312C1234.41 288.312 1233.34 286.889 1233.34 284.044C1233.34 282.841 1233.78 279.144 1234.66 272.951L1236.38 260.982L1236.82 257.944L1237.17 255.523C1237.32 254.495 1237.39 253.631 1237.39 252.925C1237.39 251.459 1236.98 250.725 1236.16 250.725C1233.88 250.725 1231.43 253.237 1228.8 258.26C1228.24 257.762 1227.96 257.263 1227.96 256.763C1227.96 254.971 1229.62 252.562 1232.92 249.536C1236.22 246.51 1238.86 244.997 1240.83 244.997C1243.03 244.997 1244.13 246.524 1244.13 249.574C1244.13 250.163 1244.02 251.364 1243.78 253.185L1243.38 256.132C1243.35 256.367 1243.19 257.555 1242.9 259.696L1241.09 272.284L1240.65 275.103C1240.27 277.89 1240.08 279.754 1240.08 280.693C1240.08 281.955 1240.45 282.583 1241.18 282.583C1243.63 282.583 1246.16 279.837 1248.77 274.344Z" fill="white"/>
<path d="M1263.94 285.625L1257.35 288.312L1257.49 287.078L1257.84 283.817L1258.19 280.733L1260.49 260.287L1260.75 257.952C1260.93 256.13 1261.02 254.663 1261.02 253.546C1261.02 251.666 1260.55 250.725 1259.61 250.725C1257.4 250.725 1255.03 253.223 1252.5 258.216C1251.83 257.659 1251.49 257.175 1251.49 256.763C1251.49 254.999 1253.1 252.598 1256.32 249.558C1259.54 246.516 1262.07 244.997 1263.93 244.997C1266.46 244.997 1267.72 246.612 1267.72 249.845C1267.72 250.667 1267.65 251.768 1267.5 253.148L1267.15 256.719L1266.79 259.714L1266.43 262.843C1269.89 257.673 1273.69 253.406 1277.81 250.042C1281.94 246.679 1285.46 244.997 1288.37 244.997C1291.22 244.997 1292.64 246.978 1292.64 250.938C1292.64 252.142 1292.49 253.948 1292.18 256.353L1289.78 272.768C1289.29 276.055 1289.05 278.653 1289.05 280.56C1289.05 282.085 1289.46 282.849 1290.29 282.849C1292.32 282.849 1294.82 280.162 1297.8 274.784C1298.5 275.226 1298.86 275.682 1298.86 276.15C1298.86 278.061 1297.22 280.566 1293.94 283.664C1290.66 286.763 1287.99 288.312 1285.93 288.312C1283.64 288.312 1282.49 286.668 1282.49 283.377C1282.49 280.97 1282.8 277.635 1283.41 273.375L1284.97 262.71C1285.47 259.244 1285.72 256.498 1285.72 254.47C1285.72 252.152 1284.91 250.99 1283.3 250.99C1279.54 250.99 1275.73 253.538 1271.87 258.636C1268.02 263.731 1265.76 269.204 1265.12 275.049L1263.94 285.625Z" fill="white"/>
<path d="M1330.77 252.22C1328.09 250.723 1325.39 249.976 1322.66 249.976C1318.54 249.976 1315.09 252.485 1312.3 257.5C1309.5 262.517 1308.11 268.736 1308.11 276.158C1308.11 279.971 1309.24 281.878 1311.5 281.878C1314.12 281.878 1317.28 279.885 1320.98 275.895C1325.98 270.526 1329 264.217 1330.06 256.972L1330.77 252.22ZM1328.25 269.672C1324.94 275.137 1321.29 279.61 1317.32 283.09C1313.34 286.572 1309.89 288.312 1306.95 288.312C1302.93 288.312 1300.92 285.067 1300.92 278.573C1300.92 269.644 1303.85 261.911 1309.72 255.375C1315.57 248.837 1322.52 245.57 1330.53 245.57C1333.59 245.57 1336.19 245.951 1338.33 246.715C1338.19 247.243 1338.1 247.565 1338.07 247.681L1337.54 250.014C1337.19 251.627 1337 252.568 1336.97 252.831L1334.15 272.284L1333.75 275.101C1333.37 277.89 1333.18 279.752 1333.18 280.691C1333.18 281.955 1333.54 282.583 1334.28 282.583C1336.73 282.583 1339.25 279.837 1341.82 274.344C1342.61 274.814 1343.01 275.284 1343.01 275.754C1343.01 276.783 1341.74 278.854 1339.22 281.967C1335.78 286.196 1332.59 288.312 1329.65 288.312C1327.51 288.312 1326.44 286.873 1326.44 283.994C1326.44 283.112 1326.54 281.894 1326.75 280.337L1327.19 276.811L1327.77 272.933L1328.25 269.672Z" fill="white"/>
<path d="M1359.54 263.548C1366.05 251.181 1372.47 244.997 1378.78 244.997C1380.43 244.997 1382.07 245.379 1383.72 246.142L1377.51 252.929C1376.57 252.399 1375.36 252.136 1373.9 252.136C1370.84 252.136 1367.62 254.611 1364.23 259.56C1360.84 264.51 1358.85 269.658 1358.27 275.005L1357.08 285.756L1350.52 287.96L1350.66 286.638L1350.97 283.775L1351.32 280.91L1353.63 259.935L1353.9 257.643C1354.1 255.911 1354.2 254.5 1354.2 253.413C1354.2 251.621 1353.7 250.725 1352.7 250.725C1350.35 250.725 1348.01 253.237 1345.69 258.26C1344.95 257.703 1344.6 257.13 1344.63 256.542C1344.72 254.75 1346.36 252.379 1349.55 249.425C1352.75 246.474 1355.27 244.997 1357.12 244.997C1359.62 244.997 1360.88 246.642 1360.88 249.931C1360.88 250.725 1360.8 251.798 1360.65 253.148L1360.34 256.232L1359.94 259.935L1359.54 263.548Z" fill="white"/>
<path d="M1412.94 269.628C1409.97 275.033 1406.86 279.497 1403.62 283.023C1400.37 286.55 1397.71 288.312 1395.66 288.312C1392.83 288.312 1391.27 285.348 1390.98 279.421L1390.67 273.303L1390.1 260.848L1389.97 257.281C1389.7 252.558 1388.84 250.195 1387.37 250.195C1385.07 250.195 1382.84 252.355 1380.67 256.672C1379.91 256.144 1379.53 255.571 1379.53 254.955C1379.53 253.367 1380.95 251.312 1383.8 248.786C1386.66 246.259 1388.98 244.995 1390.78 244.995C1392.63 244.995 1393.94 245.827 1394.7 247.484C1395.47 249.146 1395.97 252.208 1396.2 256.672L1397.01 272.095C1397.31 277.972 1398.24 280.908 1399.83 280.908C1402.2 280.908 1405.15 278.183 1408.67 272.734C1412.18 267.285 1414.45 261.933 1415.44 256.672L1417.15 247.683L1425 244.953C1424 247.537 1422.97 251.44 1421.91 256.666L1416.01 286.218C1413.69 297.785 1410.1 306.328 1405.26 311.85C1398 320.069 1389.6 324.18 1380.05 324.18C1378.06 324.18 1375.81 323.736 1373.31 322.85L1378.73 316.865C1381.5 318.098 1384.38 318.715 1387.38 318.715C1393.49 318.715 1398.08 316.736 1401.13 312.778C1404.19 308.818 1406.75 301.56 1408.81 291.004L1412.94 269.628Z" fill="white"/>
<path d="M859.298 128.709C859.218 128.652 859.094 128.652 858.99 128.629C855.838 127.932 853.358 125.126 849.793 125.702C849.623 125.73 849.406 125.542 849.226 125.43C847.819 124.552 846.482 124.366 845.166 125.654C844.685 126.125 843.965 125.989 843.329 125.998C839.587 126.048 836.017 127.185 832.387 127.861C829.182 128.458 825.906 128.708 822.755 129.725C820.049 130.598 817.153 130.882 814.433 131.729C812.367 132.37 810.323 132.517 807.967 132.672C808.338 131.037 809.418 130.938 810.267 130.674C811.311 130.349 812.179 129.798 813.074 129.206C816.547 126.912 819.775 124.3 822.675 121.34C825.866 118.085 828.695 114.574 831.077 110.59C833.783 106.062 835.27 100.801 839.122 96.945C839.657 96.4103 839.91 95.521 839.318 94.8916C837.53 92.9943 836.01 90.6543 832.829 90.937C831.021 91.0983 829.182 90.977 827.483 90.249C826.147 89.677 824.787 89.877 823.422 89.7663C821.647 89.621 820.487 90.8423 818.959 91.213C814.366 92.3276 809.725 93.3876 805.291 94.993C799.475 97.0983 793.643 99.065 787.619 100.478C786.467 100.749 784.662 100.106 784.315 101.672C784.009 103.057 785.75 103.657 786.622 104.437C789.369 106.893 792.125 109.424 795.827 110.468C798.475 111.216 801.181 111.71 803.837 112.453C806.338 113.153 809.089 113.332 811.566 111.725C812.494 111.124 813.59 111.222 814.498 111.982C813.893 115.814 812.687 119.448 811.21 122.926C809.467 127.029 806.589 130.458 802.262 131.944C798.489 133.24 794.434 133.618 790.571 134.749C787.746 135.576 784.799 136.033 782.054 137.116C781.395 137.374 780.015 137.054 779.91 137.929C778.611 138.358 776.967 138.869 775.275 139.496C779.871 139.278 780.954 138.945 782.446 138.736C783.503 138.682 784.545 138.378 785.601 138.246C786.262 138.164 787.007 137.665 787.839 138.84C782.501 140.616 777.349 142.433 771.909 143.232C771.413 141.437 773.491 141.346 773.665 139.998C771.555 139.664 769.633 139.336 767.735 138.496C765.269 137.406 762.737 139.126 762.179 141.853C761.959 142.932 761.627 143.952 760.841 144.692C759.259 146.182 759.303 147.817 760.269 149.54C761.286 151.353 761.559 153.776 763.787 154.653C766.619 155.77 769.627 156.254 772.433 154.73C775.029 153.321 777.63 151.945 780.342 150.78C785.567 148.533 790.938 146.704 796.397 145.113C799.517 144.202 802.566 143.078 805.713 142.222C808.135 141.564 810.505 140.685 812.979 140.134C814.798 139.729 816.542 138.99 818.326 138.422C820.99 137.574 823.49 136.094 826.459 136.424C827.066 136.492 827.711 136.248 828.335 136.126C832.061 135.4 835.785 134.662 839.511 133.942C839.927 133.862 840.369 133.8 840.783 133.848C846.741 134.552 852.497 132.157 858.442 132.708C858.546 132.717 858.653 132.676 858.759 132.668C860.018 132.568 861.286 132.114 861.421 130.818C861.541 129.654 860.125 129.318 859.298 128.709Z" fill="white"/>
<path d="M1367.62 55.8116C1367.81 55.7703 1368.42 55.6049 1369.04 55.5023C1371.34 55.1223 1373.44 55.7409 1375.36 56.9303C1377.53 58.2649 1379.62 59.7143 1381.76 61.0836C1384.76 63.0089 1385.36 66.3209 1386.04 69.3329C1386.52 71.4516 1382.29 73.7236 1380.29 72.4516C1377.43 70.6369 1374.31 69.3076 1371.47 67.4769C1368.8 65.7543 1368.02 62.7449 1366.64 60.1609C1366.31 59.5356 1366.11 58.8276 1365.73 58.1796C1364.56 56.2169 1364.84 55.8223 1367.62 55.8116Z" fill="white"/>
<path d="M1422.3 141.884C1423.97 145.405 1425.04 148.285 1424.35 151.597C1423.79 154.276 1422.84 156.926 1423.59 159.756C1423.83 160.646 1423.22 161.418 1422.57 161.986C1419.38 164.785 1416.26 167.704 1412.26 169.362C1411.67 169.605 1411.04 169.893 1410.42 169.89C1407 169.873 1403.89 171.478 1400.44 171.622C1398.07 171.72 1395.68 172.513 1393.23 172.641C1390.55 172.781 1387.91 172.722 1385.3 171.981C1384.18 171.661 1383.03 171.456 1381.84 171.416C1377.81 171.281 1374.25 169.704 1371.12 167.344C1368.34 165.253 1366.91 162.424 1366.05 158.841C1364.82 153.704 1366.21 148.91 1366.72 144.028C1367.03 141.065 1368.56 138.23 1369.55 135.341C1369.62 135.142 1369.78 134.976 1369.84 134.776C1370.17 133.709 1370.96 132.418 1369.69 131.668C1368.61 131.028 1367.77 132.09 1367.03 132.878C1362.79 137.362 1358.65 141.956 1353.86 145.872C1350.1 148.954 1346.32 152.05 1342.15 154.598C1338.99 156.53 1336.16 158.964 1332.81 160.616C1330.87 161.569 1329.04 162.716 1327.13 163.728C1326.91 163.844 1326.53 163.65 1325.78 163.529C1327.18 162.349 1328.3 161.332 1329.5 160.401C1336.31 155.101 1342.74 149.353 1348.81 143.25C1352.63 139.413 1355.92 135.057 1359.45 130.929C1359.87 130.442 1360.37 129.908 1360.01 129.233C1359.59 128.466 1358.88 128.996 1358.29 129.008C1356.59 129.044 1354.88 129.041 1353.31 129.912C1352.44 130.396 1351.45 130.324 1350.49 130.249C1349.4 130.164 1348.29 130.213 1347.41 130.842C1345.7 132.053 1343.88 131.153 1342.12 131.302C1341.57 131.35 1341.14 130.95 1340.8 130.513C1339.62 128.986 1340 124.9 1341.63 123.885C1343.19 122.913 1344.22 121.006 1346.35 120.965C1346.47 121.26 1346.63 121.458 1346.62 121.644C1346.54 122.553 1345.42 123.442 1346.22 124.309C1347.05 125.205 1348.24 124.772 1349.24 124.433C1355.25 122.398 1361.16 120.145 1366.91 117.442C1368.62 116.64 1369.83 115.649 1370.58 113.762C1371.82 110.666 1375.02 109.924 1377.79 111.857C1379.1 112.772 1380.8 112.964 1381.92 114.2C1382.47 114.812 1383.29 115.276 1383.06 116.324C1382.83 117.352 1382 117.437 1381.17 117.725C1377.91 118.853 1374.85 120.322 1373.38 123.777C1373.34 123.874 1373.28 123.966 1373.22 124.056C1372.43 125.292 1370.8 126.06 1370.73 127.66C1370.66 129.45 1372.69 129.732 1373.53 130.918C1374.78 132.705 1374.83 134.773 1374.49 136.724C1373.94 139.828 1373.47 142.917 1371.87 145.833C1369.96 149.325 1370.64 153.316 1371.18 157.096C1371.51 159.41 1373.42 160.533 1375.55 160.589C1379.34 160.688 1383.18 161.508 1386.93 159.996C1387.77 159.654 1388.82 159.742 1389.77 159.756C1391.49 159.781 1393.2 159.745 1394.76 158.913C1395.66 158.43 1396.66 158.713 1397.56 158.501C1402.04 157.46 1406.71 157.085 1410.85 154.881C1413.01 153.732 1414.94 152.268 1416.36 150.192C1418.19 147.517 1420.9 145.529 1422.3 141.884Z" fill="white"/>
<path d="M1313.31 152.986C1313.31 155.968 1313.26 158.952 1313.32 161.932C1313.36 163.442 1312.88 164.61 1311.7 165.548C1309.82 167.034 1308.19 166.684 1306.97 164.674C1304.94 161.33 1304.98 157.644 1305.02 153.956C1305.07 148.848 1305.56 143.79 1306.47 138.746C1306.83 136.76 1307.4 134.821 1307.86 132.886C1309.06 127.856 1309.48 122.685 1311.15 117.709C1311.98 115.218 1312.5 112.418 1312.86 109.677C1313.23 106.752 1314.13 103.893 1314.83 101.013C1315.48 98.3395 1316.46 95.7275 1316.45 92.9342C1316.44 91.7009 1317.08 91.1675 1318.14 91.0355C1319.8 90.8275 1321.52 91.0635 1322.99 89.8795C1323.54 89.4395 1324.2 89.8929 1324.51 90.5595C1324.55 90.6542 1324.57 90.7622 1324.6 90.8649C1325.51 93.8289 1326.81 96.6289 1323.74 99.4435C1322.17 100.882 1323.13 105.288 1324.61 106.434C1325.12 106.829 1325.71 107.38 1326.32 107.157C1328.7 106.276 1331.2 105.436 1332.53 103.018C1333.06 102.054 1332.94 100.86 1332.36 99.9355C1331.04 97.8462 1330.48 95.4409 1329.38 93.2675C1328.66 91.8382 1328.62 90.3969 1329.64 89.0569C1332.09 85.8235 1332.11 82.7222 1329.49 79.4795C1328.31 78.0155 1327.52 76.2035 1326.72 74.4755C1326.03 72.9929 1326.54 72.1835 1328.2 72.2649C1329.96 72.3502 1331.57 72.1075 1333.16 71.3595C1334.27 70.8369 1335.45 70.8742 1336.58 71.3395C1339.74 72.6395 1342.73 74.1302 1344.82 77.0449C1346.27 79.0609 1346.47 79.0662 1344.49 80.4035C1341.26 82.5849 1338.85 85.5435 1336.4 88.4835C1335.8 89.2129 1335.32 90.0529 1334.83 90.8729C1334.26 91.8382 1334.34 92.7529 1335.37 93.3409C1338.18 94.9422 1339.09 97.8542 1340.4 100.492C1340.91 101.502 1340.77 102.574 1340.77 103.63C1340.79 106.341 1340.04 108.946 1339.08 111.401C1337.86 114.554 1334.96 115.938 1331.82 116.309C1328.77 116.669 1325.68 116.53 1322.68 115.406C1320.72 114.67 1319.79 115.322 1319.23 117.414C1317.23 124.877 1315.49 132.393 1313.98 139.981C1313.12 144.348 1313.59 148.668 1313.31 152.986Z" fill="white"/>
<path d="M1360.88 110.382C1362.25 109.866 1362.8 107.745 1364.42 106.728C1365.09 106.308 1364.9 105.624 1364.51 105.041C1363.75 103.886 1363.01 102.72 1362.21 101.592C1361.44 100.508 1362.05 99.7663 1362.99 99.8503C1367.01 100.209 1370.65 98.3436 1374.5 98.0583C1376.21 97.9316 1378.01 98.7903 1379.76 97.893C1380.1 97.7223 1380.56 98.1143 1380.85 97.549C1383.16 92.9116 1387.63 89.797 1389.76 85.005C1390.02 84.4263 1390.55 83.9943 1390.08 83.345C1389.69 82.8076 1389.12 82.953 1388.63 83.1583C1384.2 85.0183 1379.57 84.501 1375.16 83.597C1371.68 82.8823 1369.14 83.8263 1366.74 85.921C1364.83 87.5956 1363.1 89.4796 1361.25 91.2276C1359.2 93.1636 1358.98 95.8383 1358.15 98.3103C1356.96 101.833 1356.89 105.818 1354.06 108.698C1353.61 109.157 1353.25 109.69 1353.21 110.369C1353.14 111.478 1352.98 112.678 1351.62 112.758C1350.29 112.837 1348.88 112.872 1347.8 111.68C1345.82 109.502 1345.14 104.008 1345.99 101.16C1347.28 96.8076 1348.75 92.5276 1350.31 88.2716C1350.93 86.589 1351.38 84.8396 1352.08 83.197C1352.44 82.353 1352.6 80.9476 1354.22 81.4983C1356.33 82.217 1357.49 83.393 1356.84 84.8116C1355.95 86.7783 1355.98 88.9876 1355.1 90.8316C1354.25 92.609 1354.87 94.6876 1353.6 96.2836C1353.48 96.4276 1353.63 96.929 1353.81 97.1303C1354.14 97.5036 1354.58 97.3356 1354.94 97.097C1356.9 95.8143 1358.14 93.657 1358.8 91.7676C1360.11 88.0383 1363.02 86.3103 1365.88 84.3863C1370.76 81.109 1376.27 79.493 1381.98 78.3356C1385.38 77.6463 1388.68 76.409 1392.1 75.8156C1398.5 74.705 1404.04 76.8836 1407.26 82.4623C1407.92 83.6063 1407.97 84.529 1406.86 85.549C1405.02 87.2276 1403.13 88.6903 1400.57 88.9863C1398.38 89.2396 1396.69 90.6556 1394.95 91.733C1392.49 93.2663 1389.78 94.1303 1387.12 94.9663C1385.16 95.5836 1383.59 96.889 1381.63 97.3663C1380.15 97.729 1380.7 98.597 1381.33 99.1716C1382.02 99.797 1382.95 100.146 1383.74 100.674C1384.87 101.433 1385.74 102.5 1385.3 103.881C1384.92 105.101 1383.99 106.146 1382.62 106.362C1378.95 106.94 1375.32 107.614 1371.71 108.569C1370.29 108.946 1368.65 108.613 1367.08 108.756C1364.7 108.973 1362.7 110.132 1360.88 110.382Z" fill="white"/>
<path d="M923.826 71.0195C923.552 68.8969 923.612 66.5875 922.261 64.6662C921.532 63.6302 921.625 62.9035 922.329 61.8462C923.013 60.8169 923.182 59.4569 923.672 58.2809C924.552 56.1729 925.294 56.0209 927.114 57.3249C928.758 58.5022 930.52 59.4555 930.654 61.8982C930.705 62.8129 931.814 63.3355 932.712 63.7489C934.548 64.5955 935.23 66.1475 935.51 68.0729C936.262 73.2622 935.28 78.1822 933.594 83.0649C929.782 94.1115 925.216 104.8 918.781 114.604C917.502 116.553 915.886 118.28 914.449 120.128C910.145 125.656 906.216 131.53 901.461 136.638C895.773 142.749 890.285 149.154 882.91 153.54C879.008 155.861 875.297 158.533 871.365 160.834C869.72 161.798 868.056 162.741 866.037 162.693C865.157 162.672 864.441 163.24 863.645 163.522C861.74 164.196 859.928 164.189 858.256 162.762C856.214 161.02 856.221 160.864 857.442 158.337C858.129 156.916 858.457 155.324 858.966 153.816C859.469 152.329 860.72 151.55 861.85 152.376C865.512 155.049 868.724 153.137 871.736 151.386C876.325 148.718 880.434 145.313 884.616 142.045C888.078 139.34 891.033 136.149 893.614 132.586C895.485 130.006 897.753 127.749 899.633 125.148C904.497 118.421 908.652 111.292 912.508 103.962C915.965 97.3889 918.521 90.4369 921.009 83.4835C922.425 79.5249 923.454 75.3635 923.826 71.0195Z" fill="white"/>
<path d="M931.951 129.557C938.973 129.849 944.902 131.993 950.701 134.681C956.618 137.424 961.894 141.164 967.11 144.998C974.591 150.498 979.795 157.694 982.787 166.481C983.031 167.197 983.229 168.016 982.587 168.573C982.007 169.078 981.419 168.561 980.859 168.261C977.609 166.52 974.455 164.641 970.979 163.266C968.693 162.362 966.79 160.393 964.842 158.75C962.082 156.424 958.926 154.61 956.19 152.33C953.463 150.057 950.178 148.84 947.414 146.693C945.454 145.172 942.815 144.678 940.755 143.153C935.559 139.305 929.415 136.942 924.407 132.788C924.013 132.46 923.427 132.37 923.21 131.809C922.91 131.032 922.758 130.302 923.914 130.202C926.774 129.956 929.637 129.741 931.951 129.557Z" fill="white"/>
<path d="M719.864 78.6182C717.164 84.6369 718.452 83.9249 711.436 83.7835C710.689 83.7689 709.944 83.7822 709.197 83.7822C709.197 83.8129 709.197 83.8449 709.197 83.8755C707.277 83.8755 705.357 83.9155 703.438 83.8662C701.046 83.8022 700.869 83.5329 701.302 81.2555C702.173 76.6729 704.556 72.7942 707.138 69.0529C708.576 66.9702 711.046 66.6022 713.356 66.3542C715.141 66.1609 716.872 66.2129 718.64 65.4809C721.058 64.4782 722.385 65.6689 722.482 68.3209C722.617 72.0209 721.324 75.3622 719.864 78.6182ZM647.08 86.0382C646.488 86.3195 645.733 86.7822 644.754 85.9249C645.874 83.9675 647.358 82.1929 648.926 80.5435C652.513 76.7702 656.54 73.5382 661.213 71.1569C662.049 70.7315 662.856 70.2395 663.61 69.6249C665.124 68.3929 665.88 68.5209 667.114 69.8969C667.396 70.2115 667.618 70.5782 667.86 70.9289C669.821 73.7822 669.637 74.7235 666.633 76.3809C660.262 79.8955 653.646 82.9182 647.08 86.0382ZM662.193 89.2462C661.712 90.1502 661.09 90.4889 660.15 89.8462C659.626 89.4875 659.07 89.1769 658.538 88.8302C658.009 88.4849 657.237 88.7795 656.642 87.9249C657.801 86.1355 659.953 86.1235 661.478 85.0609C661.681 84.9209 662.121 84.9795 662.382 85.0969C663.105 85.4235 662.974 87.7822 662.193 89.2462ZM739.936 93.9542C738.216 90.5502 735.785 87.8049 732.437 85.9729C731.306 85.3529 730.932 84.7742 731.284 83.4689C732.666 78.3489 731.532 73.1289 731.74 67.9569C731.76 67.4595 731.45 66.9422 731.27 66.4422C729.594 61.7835 725.412 59.8955 721.324 58.7822C716.482 57.4649 711.317 56.6329 706.294 58.5969C703.48 59.6982 700.14 59.8729 698.349 62.8275C697.581 64.0929 696.733 65.2982 696.044 66.6315C693.458 71.6315 690.658 76.5209 687.346 81.0889C685.565 83.5449 685.52 83.5515 682.684 82.6555C681.518 82.2875 680.44 82.2089 679.262 82.6489C676.096 83.8302 672.942 84.9795 670.509 87.5022C669.673 88.3675 668.62 88.9222 667.248 88.0182C668.349 83.8142 670.014 80.0635 674.406 78.2102C675.569 77.7195 676.75 77.1729 677.758 76.4289C680.041 74.7462 682.981 74.1195 684.981 72.0302C684.384 70.4635 683.324 69.9529 681.798 69.6702C679.448 69.2355 679.278 68.4382 680.026 66.1262C680.705 64.0235 681.805 62.0142 681.686 59.6849C681.649 58.9449 681.892 58.2315 682.577 57.7329C684.272 56.4982 685.953 55.2409 688.176 55.1875C689.145 55.1649 690.189 55.2769 690.585 54.1129C691.026 52.8182 690.38 51.8835 689.428 51.0649C687.828 49.6889 685.896 49.5982 683.98 49.7889C682.472 49.9395 681.458 49.4609 680.898 48.1262C679.288 44.2862 675.642 42.3715 672.873 39.6355C672.292 39.0622 671.47 38.7222 670.556 38.6729C667.489 38.5089 664.417 38.3529 661.482 37.2955C661.056 37.1422 660.613 37.2555 660.33 37.6062C659.95 38.0795 660.078 38.6115 660.342 39.0982C660.602 39.5795 661.024 39.8689 661.514 40.1275C665.428 42.1942 666.032 46.1635 665.794 49.7195C665.513 53.9489 665.02 58.1675 665.169 62.4182C665.222 63.9422 664.68 64.9475 663.53 65.9715C660.976 68.2462 657.906 69.7649 655.257 71.8689C650.017 76.0302 644.63 80.0102 639.673 84.5275C637.954 86.0942 636.106 87.6222 634.076 88.7235C630.114 90.8729 630.401 94.0835 631.88 97.0915C632.914 99.1982 634.136 99.4169 636.354 98.4969C637.877 97.8662 638.932 96.6569 640.27 95.8169C641.104 95.2942 641.841 95.1329 642.456 96.0889C643.598 97.8649 644.869 99.5142 645.086 101.794C645.409 105.188 646.877 108.074 649.801 110.05C650.77 110.705 651.797 111.278 652.741 111.968C653.649 112.63 654.36 112.65 655.285 111.882C656.812 110.614 658.469 109.73 660.485 111.148C661.096 111.578 661.97 111.466 662.541 110.836C663.608 109.656 664.544 108.362 666.122 107.748C666.652 107.542 666.79 106.882 666.684 106.357C666.269 104.318 667.442 102.881 668.538 101.458C671.938 97.0449 674.284 92.0595 676.468 86.9915C677.109 85.5022 677.821 83.8435 679.457 83.7609C681.301 83.6675 682.353 85.2769 683.153 86.8662C683.498 87.5502 683.738 88.2009 683.642 88.9902C683.572 89.5649 683.889 90.1942 684.486 90.1035C686.244 89.8369 687.108 91.2915 688.388 91.9315C691.101 93.2875 693.752 95.3142 696.865 92.7795C697.012 92.6595 697.273 92.6369 697.481 92.6395C700.892 92.6875 704.312 92.6142 707.709 92.8569C709.576 92.9902 710.049 94.3862 708.75 95.7609C706.053 98.6182 703.398 101.654 699.548 102.961C697.198 103.757 694.804 104.962 692.173 104.142C691.276 103.862 690.401 103.018 689.584 103.1C688.386 103.218 688.968 104.717 688.457 105.482C687.894 106.326 686.941 106.624 686.18 107.188C683.652 109.066 683.138 111.706 684.726 114.446C685.498 115.781 686.212 117.15 687.081 118.744C689.229 115.992 692.192 115.272 695.196 114.666C697.75 114.152 699.961 115.704 699.784 118.086C699.484 122.108 699.078 126.129 698.5 130.12C697.708 135.578 696.102 140.888 695.329 146.361C695.138 147.709 694.54 149.002 694.101 150.313C693.764 151.321 693.033 151.576 692.074 151.238C691.273 150.956 690.457 150.693 689.697 150.32C688.542 149.752 688.466 148.902 689.389 148.068C690.086 147.436 690.738 146.717 691.757 146.506C692.957 146.257 693.688 145.221 694.669 144.596C695.642 143.974 695.748 143.049 695.225 142.084C694.009 139.834 692.753 137.654 690.332 136.378C688.162 135.234 688 134.709 689.469 132.738C690.326 131.586 690.512 130.44 690.452 129.166C690.29 125.737 688.168 123.373 684.741 122.522C683.577 122.233 682.42 122.27 681.257 122.168C678.665 121.942 676.305 121.217 674.708 118.654C673.574 119.394 673.102 120.36 672.488 121.22C670.172 124.465 669.053 128.292 667.752 131.937C665.878 137.188 664.261 142.558 663.173 148.077C661.95 154.272 663.812 159.108 668.7 162.949C669.406 163.504 669.934 163.626 670.616 162.984C673.373 160.382 675.281 157.14 676.494 153.676C677.141 151.832 677.546 149.82 678.244 147.938C678.842 146.325 679.078 144.638 679.353 142.957C679.42 142.541 679.43 142.044 678.978 141.856C678.304 141.574 678.022 142.125 677.836 142.613C676.762 145.422 674.89 147.769 673.393 150.332C672.914 151.152 672.416 151.99 671.546 152.5C671.188 152.71 670.858 153.065 670.405 152.889C669.772 152.644 669.758 152.002 669.881 151.532C670.637 148.637 670.357 145.613 671.194 142.702C671.98 139.973 672.86 137.058 672.645 134.306C672.362 130.67 673.262 127.368 673.996 123.965C674.125 123.366 674.178 122.604 674.897 122.4C675.781 122.149 676.266 122.845 676.69 123.449C678.034 125.364 679.341 127.306 680.665 129.236C681.049 129.797 681.132 130.402 680.997 131.06C680.24 134.761 681.733 137.942 683.464 141C685.144 143.968 685.206 144.041 682.302 145.494C682.021 145.634 681.634 145.617 681.406 145.806C680.037 146.941 678.346 147.974 678.729 150.112C679.152 152.472 678.849 154.868 679.924 157.232C681.472 160.642 681.986 161.422 685.756 161.292C688.529 161.194 690.726 162.09 692.506 164.165C693.338 165.134 694.113 166.225 695.296 166.757C697.178 167.605 699.016 169.108 701.197 168.446C703.216 167.833 704.969 166.661 706.401 164.93C708.746 162.098 708.156 158.489 709.153 155.31C709.845 153.102 710.07 150.526 710.165 148.122C710.274 145.298 711.842 142.872 711.822 140.04C711.794 136.137 711.356 132.238 711.066 128.382C710.65 122.833 709.181 117.317 706.38 112.316C705.277 110.349 705.357 110.238 707.494 109.401C709.749 108.516 712.284 108.072 714.113 106.457C717.368 103.585 721.49 101.794 724.189 98.2329C725.085 97.0502 726.328 96.6009 727.876 97.2169C731.709 98.7422 735.592 97.6595 739.456 97.3035C739.953 97.2582 740.174 96.8595 740.25 96.4275C740.401 95.5782 740.35 94.7755 739.936 93.9542Z" fill="white"/>
<path d="M583.124 162.662C581.834 161.964 580.41 161.39 578.976 161.112C574.704 160.278 570.35 160.692 566.126 161.232C561.885 161.774 557.761 163.238 553.589 164.313C552.984 164.469 552.334 164.898 551.814 164.308C551.181 163.586 551.732 162.952 552.138 162.325C553.525 160.188 554.666 157.929 555.742 155.614C556.828 153.277 558.441 151.298 560.876 150.136C563.32 148.966 565.224 147.124 566.99 145.117C568.476 143.43 568.708 140.508 567.128 139.044C565.438 137.478 563.648 135.708 561.141 135.706C558.812 135.706 557.484 134.676 556.344 132.754C554.902 130.326 551.872 130.012 549.716 131.821C548.977 132.441 548.593 133.02 549.541 133.882C550.773 135.004 550.812 136.2 549.516 137.428C548.432 138.453 548.38 139.505 549.46 140.756C550.444 141.894 550.394 143.384 549.444 144.57C547.037 147.577 542.358 148.037 539.152 145.653C538.626 145.262 538.173 144.805 537.436 145.346C537.24 147.292 538.062 148.814 539.524 150.028C541.646 151.79 543.801 153.48 546.421 154.53C548.892 155.521 548.93 155.944 548.26 158.381C547.481 161.206 545.772 162.732 542.932 163.664C541.808 164.032 540.538 164.181 539.396 164.632C539.382 164.63 539.334 164.653 539.265 164.689C538.825 164.874 538.406 165.106 538.024 165.42C537.614 165.664 537.258 165.872 537.214 165.872C536.998 165.873 536.78 165.886 536.584 165.928C536.094 166.032 531.922 167.532 532.085 168.2C532.286 169.033 537.113 167.414 537.78 167.156C537.889 167.114 538.529 166.973 539.04 166.84C539.533 166.838 540.097 166.816 540.241 167.321C540.49 168.194 539.608 168.349 539.066 168.474C537.716 168.784 536.384 169.114 535.088 169.625C533.968 170.066 532.848 170.034 531.686 169.538C530.192 168.9 526.065 169.604 525.525 170.654C524.549 172.552 526.536 173.638 527.012 175.156C527.072 175.349 527.246 175.509 527.38 175.674C528.82 177.446 529.937 177.756 532.132 176.988C534.204 176.264 536.234 175.418 538.3 174.678C541.556 173.514 544.672 172.037 548.078 171.169C554.07 169.642 559.846 167.378 565.898 165.96C570.257 164.938 574.388 164.606 578.641 166.161C579.7 166.548 580.953 166.502 582.114 166.484C582.906 166.47 583.964 166.589 584.202 165.458C584.438 164.334 584.108 163.194 583.124 162.662Z" fill="white"/>
<path d="M562.47 62.8302C559.211 64.5569 555.685 65.6316 552.354 67.1742C551.149 67.7329 550.647 67.2502 550.751 65.7555C551.161 63.5409 551.838 61.2822 551.575 58.9035C551.527 58.4622 551.781 58.0929 552.137 57.8222C555.801 55.0342 559.895 54.0916 564.417 54.9596C565.238 55.1169 565.753 55.5582 565.901 56.3902C566.314 58.7049 564.59 61.7076 562.47 62.8302ZM564.039 80.3049C563.467 80.4329 563.093 79.9742 562.805 79.4876C561.714 77.6489 560.017 76.6369 558.019 76.0609C556.943 75.7502 555.874 75.6262 555.239 76.8409C554.687 77.8996 555.345 78.6009 556.007 79.3529C557.825 81.4169 557.838 81.4649 556.297 83.5822C554.553 85.9782 552.843 88.3422 550.335 90.1396C547.509 92.1649 547.794 96.5302 550.649 99.0569C552.102 100.345 553.719 101.352 555.819 101.124C556.19 101.084 556.669 100.978 557.022 101.698C556.394 102.605 555.422 103.286 554.279 103.288C552.683 103.289 551.667 104.15 550.781 105.2C549.487 106.729 547.593 107.261 545.997 108.276C545.118 108.833 544.313 108.14 544.497 107.101C544.569 106.694 544.781 106.305 544.97 105.928C545.795 104.282 546.045 102.781 545.493 100.802C544.857 98.5169 545.513 95.9649 546.054 93.5822C547.134 88.8222 548.186 84.0582 548.81 79.2116C549.01 77.6649 549.839 76.6342 551.33 76.2649C554.829 75.3956 558.198 74.2169 561.461 72.6636C563.821 71.5396 564.549 72.0769 564.602 74.5942C564.63 75.9769 564.682 77.3582 564.701 78.7409C564.71 79.3529 564.873 80.1196 564.039 80.3049ZM564.693 90.8942C564.667 90.8942 564.641 90.8942 564.615 90.8942C564.615 92.3756 564.65 93.8569 564.602 95.3369C564.571 96.2676 564.078 97.2729 563.101 96.8276C560.947 95.8462 558.535 95.9035 556.419 94.9049C555.061 94.2622 554.797 93.6129 555.833 92.5009C558.135 90.0262 560.562 87.6622 563.017 85.3356C563.818 84.5769 564.635 85.0022 564.678 86.1382C564.738 87.7209 564.693 89.3089 564.693 90.8942ZM620.914 144.393C615.026 140.262 608.871 136.581 602.351 133.52C592.973 129.114 583.162 125.816 573.494 122.148C571.491 121.388 569.441 120.93 567.414 120.329C566.825 120.156 566.161 119.898 566.149 119.117C566.141 118.498 566.67 118.068 567.131 118C569.099 117.708 569.726 116.076 570.131 114.646C570.73 112.53 572.103 112.088 573.938 112.054C575.535 112.025 577.138 112.054 578.727 111.932C582.637 111.63 586.543 111.461 590.378 110.356C592.587 109.718 594.998 109.738 597.141 108.742C598.081 108.305 599.305 107.956 599.363 106.701C599.426 105.357 598.801 104.142 597.539 103.564C594.657 102.24 591.783 100.154 588.591 102.992C588.231 103.312 587.633 103.425 587.125 103.509C584.422 103.961 581.889 105.062 579.233 105.618C576.818 106.125 574.697 108.165 572.022 107.108C571.602 106.638 571.602 106.093 571.671 105.566C572.475 99.4436 571.529 93.2609 572.577 87.1076C573.303 82.8396 572.898 78.3929 573.334 74.0582C573.643 70.9796 573.683 67.7302 576.803 65.5862C581.367 62.4502 581.553 60.5956 577.659 56.9196C575.75 55.1156 575.143 53.1329 575.349 50.6969C575.465 49.3182 575.719 47.9356 575.679 46.5609C575.574 42.9409 577.113 39.5036 576.677 35.8209C576.486 34.2022 576.754 32.4516 578.45 31.2929C579.559 30.5329 579.301 29.3982 578.347 28.5889C577.381 27.7689 576.377 26.9382 575.259 26.3649C573.262 25.3396 571.609 26.7262 569.902 27.4476C568.499 28.0396 568.883 29.3929 568.811 30.5116C568.555 34.5116 568.937 38.5276 567.637 42.4889C566.999 44.4289 567.502 46.7182 567.333 48.8369C567.037 52.5396 565.93 53.5969 562.323 53.5382C558.839 53.4809 555.478 52.4502 552.118 51.7236C548.25 50.8862 545.279 52.0409 543.717 55.7476C542.378 58.9236 541.967 62.3009 541.325 65.6222C541.033 67.1369 540.778 68.2382 538.905 68.3289C537.575 68.3915 537.583 69.4596 538.469 69.9969C539.922 70.8796 540.114 72.1329 540.035 73.5476C539.97 74.7142 539.762 75.8729 539.618 77.0356C539.305 79.5609 538.787 82.0809 538.722 84.6129C538.602 89.2956 538.925 93.9942 538.718 98.6702C538.573 101.986 539.582 104.97 540.595 107.965C541.522 110.702 541.514 110.986 538.918 112.394C533.659 115.245 528.079 117.472 522.825 120.608C523.386 121.189 524.014 121.545 524.602 121.196C526.803 119.885 529.505 120.037 531.666 118.862C533.966 117.613 536.715 118.272 538.885 116.764C539.415 116.394 540.206 116.316 540.559 116.996C540.875 117.601 540.539 118.345 539.983 118.653C538.503 119.47 536.994 120.266 535.419 120.87C531.482 122.382 527.462 123.684 523.553 125.258C519.451 126.91 515.331 128.489 511.167 129.974C506.926 131.488 502.961 133.809 498.209 133.633C496.914 133.585 496.198 134.773 496.261 136.104C496.329 137.56 497.485 137.514 498.569 137.722C501.07 138.202 503.171 136.845 505.182 135.99C511.867 133.15 518.782 130.896 525.403 127.889C527.17 127.086 529.143 125.784 531.531 126.805C531.283 128.57 529.989 129.577 528.911 130.673C523.09 136.6 517.565 142.813 511.526 148.526C510.443 149.552 509.879 151.061 508.557 151.842C505.069 153.904 502.254 156.842 498.954 159.136C496.423 160.896 494.17 163.001 491.651 164.753C489.489 166.257 489.433 166.864 491.586 168.261C492.37 168.769 493.153 168.841 494.006 168.865C499.075 169.009 503.753 168.037 508.234 165.349C512.471 162.808 516.966 160.752 520.073 156.7C520.387 156.289 520.835 155.86 521.307 155.71C523.566 154.994 525.049 153.294 526.546 151.648C528.977 148.973 531.238 146.138 533.727 143.521C538.854 138.13 544.546 133.245 548.77 127.05C551.521 123.016 555.467 120.253 558.942 116.988C559.647 116.324 560.574 115.938 561.543 115.913C562.626 115.885 563.39 117.349 562.562 117.882C560.749 119.054 561.75 119.822 562.557 120.864C563.53 122.12 564.391 123.462 565.266 124.79C566.678 126.933 568.218 128.965 570.274 130.538C573.551 133.046 576.787 135.597 580.393 137.666C585.623 140.669 591.174 142.93 596.795 145.009C599.849 146.138 603.021 147.261 606.222 147.594C610.335 148.024 614.53 147.658 618.69 147.632C619.45 147.626 620.166 147.465 620.821 147.05C622.171 146.196 622.253 145.333 620.914 144.393Z" fill="white"/>
<path d="M1037.89 70.2796C1036.84 70.2489 1035.78 70.3209 1034.73 70.5209C1034.22 70.6156 1033.62 70.7809 1033.44 70.0249C1033.31 69.4356 1033.54 68.9303 1034.1 68.7383C1036.18 68.0329 1035.6 66.5689 1035.28 65.0809C1034.94 63.5143 1033.88 62.1796 1033.85 60.5316C1033.83 59.4876 1033.62 58.3023 1034.68 57.6316C1035.8 56.9289 1036.73 57.6476 1037.55 58.3383C1040.14 60.5036 1043.21 61.5889 1046.41 62.4116C1046.52 62.4383 1046.64 62.4303 1046.72 62.4809C1048.16 63.2889 1049.98 63.7409 1050.28 65.7196C1050.38 66.3409 1046.9 68.8929 1045.98 69.0436C1043.29 69.4836 1040.77 70.9996 1037.89 70.2796Z" fill="white"/>
<path d="M997.701 98.893C997.701 97.5103 997.57 96.425 997.727 95.3837C998.033 93.3717 999.49 92.7863 1001.25 93.869C1001.52 94.0357 1001.82 94.2143 1001.98 94.4677C1004.01 97.5317 1007.25 98.013 1010.49 98.481C1010.6 98.4957 1010.73 98.4517 1010.81 98.5023C1015 101.344 1018.54 98.3876 1022.05 96.9516C1025.83 95.405 1029.28 93.053 1032.92 91.1463C1034.31 90.4223 1035.45 89.509 1036.05 88.0956C1037.33 85.1263 1040.16 84.741 1042.7 84.545C1044.41 84.413 1046.28 84.6116 1048.07 84.7757C1050.03 84.9543 1051.71 86.269 1052.05 87.8717C1052.3 89.037 1052.24 89.9903 1050.71 90.1917C1048.3 90.5076 1047.37 92.413 1046.84 94.365C1045.3 100.037 1043.13 105.41 1039.84 110.302C1039.47 110.853 1039.19 111.388 1039.16 112.046C1039.12 113.094 1039.5 113.69 1040.67 113.473C1041.3 113.356 1041.93 113.206 1042.56 113.161C1045.26 112.968 1047.2 114.4 1047.95 117.085C1048.32 118.393 1046.79 121.968 1045.47 122.682C1044.62 123.138 1043.72 123.457 1042.75 122.85C1040.78 121.616 1038.38 121.15 1036.6 119.554C1035.74 118.774 1034.7 118.336 1033.69 118.836C1032.42 119.466 1032.66 120.818 1032.78 121.974C1032.94 123.721 1034.33 124.977 1034.73 126.653C1034.9 127.353 1035.35 127.912 1035.02 128.756C1033.41 132.902 1033.98 137.358 1033.3 141.641C1033.18 142.39 1033.54 143.114 1033.95 143.745C1034.72 144.924 1034.86 146.232 1035.11 147.584C1035.39 149.108 1035.25 149.836 1033.79 150.598C1032.28 151.384 1031.35 150.908 1030.44 149.894C1028.7 147.938 1026.43 146.321 1026.08 143.421C1026.07 143.321 1026 143.212 1025.93 143.14C1023.02 140.248 1024.2 137.184 1025.66 134.2C1026.4 132.68 1026.47 131.134 1026.46 129.536C1026.45 128.809 1026.61 127.942 1025.7 127.626C1025.02 127.388 1024.53 127.862 1024.05 128.33C1022.23 130.118 1020.36 131.853 1018.56 133.666C1017.27 134.969 1016 136.249 1014.03 136.378C1013.28 136.428 1012.89 136.798 1012.79 137.553C1012.52 139.534 1010.81 140.438 1009.38 141.061C1007.63 141.825 1005.91 143.35 1003.51 142.002C1002.4 141.378 1000.61 141.737 999.17 142.348C997.794 142.932 996.914 142.282 996.485 140.949C995.567 138.098 996.33 135.241 996.537 132.394C996.585 131.72 997.33 131.318 998.005 131.449C1001.63 132.146 1003.88 129.533 1006.57 127.982C1006.93 127.774 1007.17 127.369 1007.53 127.154C1011.35 124.846 1014.41 121.701 1017.56 118.594C1020.68 115.532 1023.57 112.266 1026.68 109.209C1027.64 108.26 1027.83 107.262 1027.65 106.033C1027.44 104.605 1027.75 103.588 1029.47 103.288C1030.77 103.061 1031.6 101.938 1032.46 100.985C1032.84 100.558 1032.91 100.016 1032.73 99.489C1032.51 98.845 1031.95 98.8957 1031.42 98.965C1027.17 99.5117 1023.18 100.402 1020.06 103.844C1018.62 105.437 1016.46 106.449 1014.5 107.493C1011.6 109.036 1008.41 109.162 1005.21 108.958C1002.57 108.789 1000.6 107.616 999.302 105.222C998.167 103.125 997.253 101.028 997.701 98.893Z" fill="white"/>
<path d="M1098.05 96.5342C1096.23 100.598 1094.21 104.568 1091.65 108.228C1091.25 108.797 1091.11 109.88 1090.17 109.584C1089.35 109.326 1089.48 108.388 1089.56 107.641C1089.61 107.112 1089.66 106.584 1089.74 105.817C1089.13 102.29 1091.07 99.2902 1092.67 96.1729C1093.4 94.7422 1094.87 94.4422 1096.12 94.2436C1097.13 94.0822 1097.89 92.3902 1098.9 93.4636C1099.99 94.6302 1098.48 95.5649 1098.05 96.5342ZM1080.93 125.346C1079.94 125.946 1078.87 126.424 1077.82 126.957C1077.49 126.816 1077.15 126.758 1076.94 126.561C1076.6 126.237 1076.61 125.797 1076.89 125.417C1077.6 124.461 1078.46 123.693 1079.59 123.25C1080.34 122.957 1080.82 123.329 1081.16 123.92C1081.44 124.421 1081.44 125.038 1080.93 125.346ZM1114.14 86.4849C1110.6 82.8622 1105.94 83.0622 1101.42 82.9049C1100.95 82.8889 1100.36 83.2236 1100 83.5742C1098.17 85.3556 1095.61 85.5969 1093.48 86.7476C1092.31 87.3822 1091.35 87.0022 1091.16 85.5876C1090.93 83.8236 1090.36 82.0649 1091.33 80.2809C1092.14 78.8049 1091.68 76.9236 1092.85 75.4582C1093.33 74.8449 1093.14 73.7622 1092.57 73.0449C1091.45 71.6302 1092.11 70.4836 1092.99 69.3169C1093.62 68.4876 1094.19 67.7422 1094.21 66.5076C1094.25 63.6902 1093.76 60.7929 1094.97 58.0676C1095.09 57.7996 1095.17 57.3849 1095.04 57.1543C1093.94 55.1076 1093.3 52.4796 1091.08 51.5409C1089.18 50.7396 1087.73 49.3756 1085.92 48.4956C1083.07 47.1022 1082.54 47.2729 1082.39 50.3743C1082.35 51.1182 1082.38 51.8676 1082.42 52.6102C1082.6 55.6876 1082.63 58.7489 1082.46 61.8409C1082.33 64.1236 1082.13 66.4662 1082.64 68.8076C1083.03 70.6609 1082.96 72.6476 1082.57 74.5329C1081.96 77.5102 1082.15 80.4622 1082.52 83.4329C1082.62 84.2742 1082.71 85.1276 1082.7 85.9729C1082.63 90.6449 1082.62 90.6369 1078.07 92.3556C1077.59 92.5396 1077.2 93.0249 1076.71 93.1502C1073.96 93.8556 1071.33 95.2076 1068.35 94.7302C1067.62 94.6129 1066.85 94.6529 1066.11 94.7316C1064.56 94.8969 1064.25 95.5822 1065.32 96.8022C1066.44 98.0716 1067.7 99.2342 1069.02 100.289C1069.64 100.786 1070.5 101.364 1071.38 101.01C1074.02 99.9529 1076.9 100.609 1079.55 99.7409C1080.81 99.3302 1081.38 99.8596 1081.42 101.09C1081.46 102.473 1081.47 103.857 1081.52 105.238C1081.59 107.284 1081.52 107.284 1079.48 107.52C1076.48 107.868 1073.5 108.346 1070.52 108.769C1072.83 111.336 1072.83 111.334 1075.36 111.345C1076.21 111.348 1077.08 111.216 1077.87 111.66C1078.59 112.07 1079.03 112.653 1078.55 113.49C1076.5 116.997 1073.77 120.001 1071.34 123.226C1071.02 123.656 1070.46 123.854 1069.92 123.537C1069.36 123.21 1069.26 122.564 1069.56 122.156C1070.79 120.485 1069.7 119.093 1069.06 117.706C1068.44 116.366 1067.52 115.166 1066.86 113.842C1065.06 110.252 1063.76 106.445 1062 102.824C1060.99 100.746 1060.08 98.3902 1060.8 95.7396C1061.35 93.7249 1060.14 91.9956 1058.17 91.1449C1057.41 90.8129 1056.54 90.7716 1055.88 90.1329C1055.38 89.6622 1054.71 89.5156 1054.16 90.0516C1053.62 90.5742 1053.68 91.3822 1054.09 91.8169C1055.86 93.7089 1054.71 95.4462 1053.73 96.9942C1053.04 98.0676 1052.5 99.2142 1051.85 100.297C1050.15 103.128 1049.4 106.3 1050.43 109.462C1051.25 111.958 1051.83 114.542 1052.86 116.962C1053.99 119.601 1055.16 122.222 1057.39 124.204C1058.82 125.474 1060.13 126.305 1062.17 125.246C1064.16 124.218 1066.36 125.293 1068.43 125.426C1069.73 125.509 1068.55 127.569 1069.53 128.458C1069.96 128.841 1070.04 129.594 1070.3 130.172C1071.41 132.65 1073.26 133.612 1075.94 133.154C1077.3 132.921 1078.68 132.78 1080.04 132.548C1080.99 132.386 1081.52 132.737 1081.51 133.682C1081.47 136.02 1081.81 138.476 1081.2 140.665C1080.38 143.606 1080.21 146.517 1080.2 149.496C1080.19 150.349 1080.22 151.21 1079.78 151.988C1078.95 153.438 1078.9 155.046 1078.9 156.642C1078.9 160.053 1078.83 163.469 1079.01 166.87C1079.21 170.712 1078.66 174.506 1078.45 178.314C1078.36 179.953 1077.51 181.522 1078.48 183.169C1078.6 183.381 1078.44 183.788 1078.36 184.089C1077.08 188.737 1077.32 193.302 1078.92 197.849C1079.4 199.178 1079.89 200.185 1081.5 200.16C1083.01 200.137 1083.08 198.888 1083.34 197.938C1084.16 194.997 1084.93 192.086 1086.15 189.234C1087.14 186.921 1088.62 184.649 1089.04 182.285C1089.66 178.749 1090.31 175.156 1090.53 171.554C1090.77 167.52 1090.56 163.46 1090.7 159.417C1090.85 155.45 1088.37 151.634 1090.08 147.586C1090.18 147.349 1089.97 146.97 1089.87 146.665C1089.65 145.922 1089.61 145.177 1090 144.49C1090.82 143 1090.64 141.384 1090.61 139.797C1090.57 137.244 1090.45 134.69 1090.38 132.137C1090.34 130.718 1090.4 129.498 1092.14 128.825C1093.37 128.345 1094.69 127.293 1095.04 125.993C1095.8 123.17 1097.85 121.282 1099.46 119.078C1102.34 115.137 1105.08 111.117 1107.36 106.786C1109.72 102.282 1111.9 97.6796 1114.82 93.4756C1116.44 91.1449 1116.09 88.4849 1114.14 86.4849Z" fill="white"/>
<path d="M1217.69 94.6836C1217.35 95.197 1216.91 95.7383 1216.14 95.321C1215.46 94.9476 1215.33 94.2023 1215.61 93.6823C1216.71 91.7023 1217.04 89.2956 1219.27 87.2103C1219.57 90.3556 1219.04 92.6183 1217.69 94.6836ZM1268.58 109.826C1266.72 105.306 1262.91 103.125 1258.74 101.332C1257.92 100.982 1257.14 101.284 1256.88 102.06C1256.39 103.517 1255.33 103.58 1254.09 103.546C1253.15 103.521 1252.16 103.381 1251.3 103.973C1249.57 105.168 1247.59 104.669 1245.7 104.769C1244.42 104.837 1244 104.144 1244.17 102.96C1244.76 98.829 1244.05 94.6543 1244.57 90.5236C1245.02 86.977 1244.81 83.2436 1247.42 80.2876C1247.69 79.9743 1247.9 79.5716 1247.74 79.1143C1246.93 76.9383 1248.13 75.0303 1248.64 73.073C1249.64 69.3316 1251.9 66.0503 1252.32 62.0396C1252.63 59.061 1252.06 57.653 1249.14 57.1196C1248.72 57.0436 1248.23 57.069 1247.89 56.8596C1245.8 55.5716 1244.28 56.4036 1242.88 58.0343C1242.19 58.837 1241.33 59.493 1240.6 60.2636C1239.87 61.033 1239.19 61.8516 1238.51 62.6703C1238.28 62.9463 1238.35 63.321 1238.61 63.517C1238.84 63.6916 1239.26 63.8783 1239.46 63.781C1240.11 63.473 1240.66 62.9583 1241.31 62.6623C1242.84 61.969 1244.32 60.6183 1246.16 61.8703C1245.8 64.8423 1243.96 67.221 1243.86 70.1423C1243.82 71.085 1243.07 72.5636 1241.83 72.0983C1238.71 70.9303 1235.77 72.3756 1232.74 72.3623C1231.15 72.3556 1230.75 73.4223 1231.75 74.6943C1232.4 75.5236 1233.28 76.177 1234.02 76.937C1235.64 78.5863 1235.81 79.0943 1234.09 80.5796C1232.49 81.9596 1232.3 83.457 1232.98 85.101C1233.68 86.753 1234.6 88.2623 1236.85 88.381C1238.94 88.4916 1239.51 89.2956 1238.83 91.225C1238.14 93.157 1237.64 95.017 1237.69 97.1036C1237.74 98.9383 1236.49 99.5823 1234.68 98.9476C1231.46 97.8143 1228.65 96.001 1225.98 93.8876C1224.84 92.9863 1224.47 92.0916 1224.38 90.693C1224.16 87.461 1225.14 84.0703 1223.23 81.025C1223.02 80.705 1223.05 80.1796 1223.11 79.7703C1223.27 78.657 1223.36 77.7703 1221.76 77.7143C1220.73 77.6783 1220.23 76.7396 1220.6 75.8476C1221.66 73.357 1222.19 70.321 1225.21 69.3543C1227.47 68.6303 1229.24 67.029 1231.52 66.373C1232.65 66.0476 1233.49 65.065 1234.03 64.0236C1234.62 62.885 1234.61 61.7476 1233.24 61.0423C1232.67 60.7503 1232.14 60.381 1231.56 60.1036C1229.22 58.9783 1228.69 57.4196 1229.92 55.1463C1230.13 54.773 1230.4 54.433 1230.66 54.101C1233.56 50.5143 1231.37 45.7423 1228.23 43.6076C1225.12 41.4956 1223.6 41.8583 1221.21 44.8236C1219.92 46.4316 1219.79 47.541 1221.29 49.009C1223.13 50.8076 1222.96 52.817 1222.37 54.905C1221.76 57.037 1221.26 59.3103 1220.12 61.153C1219.04 62.905 1219.67 65.8183 1216.73 66.429C1216.26 66.5276 1216.38 67.3716 1216.47 67.8956C1216.79 69.953 1216.26 71.8743 1215.77 73.8623C1215.18 76.3183 1214.76 78.8383 1216.04 81.3343C1217.48 84.141 1217.37 84.6623 1215.18 86.9476C1212.97 89.2583 1210.83 91.6116 1208.93 94.193C1208.27 95.0863 1207.82 96.7263 1206.55 96.4236C1205.15 96.0916 1205.69 94.433 1205.65 93.3636C1205.48 89.001 1206.18 84.7303 1206.75 80.405C1207.48 74.8583 1207.02 69.1316 1206.8 63.493C1206.66 60.097 1204.18 58.1743 1201.09 58.5276C1198.3 58.8476 1194.7 64.077 1195.39 66.7596C1195.59 67.5476 1196.08 67.7463 1196.77 67.7476C1197.84 67.749 1198.91 67.781 1199.97 67.7476C1201.07 67.7116 1201.5 68.2463 1201.48 69.2943C1201.42 71.4196 1201.58 73.5703 1201.31 75.6663C1200.39 82.645 1199.93 89.6316 1200.11 96.6756C1200.18 99.3343 1200.88 101.678 1202.4 103.801C1203.04 104.693 1203.85 105.512 1205.08 104.962C1206.25 104.437 1206.92 103.528 1206.47 102.136C1206.37 101.833 1206.27 101.528 1206.22 101.214C1206.13 100.668 1206.22 100.122 1206.69 99.793C1207.21 99.4223 1207.7 99.757 1208.14 100.061C1209.44 100.977 1210.67 101.993 1212.02 102.832C1216.42 105.568 1219.93 104.268 1221.83 100.377C1222.25 99.5183 1222.55 98.3623 1223.65 98.481C1224.74 98.5956 1224.21 99.9156 1224.63 100.59C1225.07 101.309 1225.58 102.002 1226.13 102.64C1227.11 103.764 1228.15 104.83 1229.16 105.932C1230.79 107.729 1230.52 108.942 1228.12 109.478C1226.26 109.894 1224.45 110.698 1222.65 110.948C1218.44 111.53 1214.51 113.132 1210.36 113.958C1205.7 114.885 1201.11 116.238 1196.33 116.378C1193.28 116.469 1190.14 116.572 1187.26 115.269C1184.76 114.142 1182.34 112.866 1179.9 111.621C1179.31 111.321 1178.78 110.982 1177.89 111.589C1178.68 113.453 1180.52 114.289 1181.32 115.86C1182.57 118.316 1184.66 119.973 1186.53 121.836C1187.76 123.056 1189.36 123.8 1191.04 123.958C1194.68 124.305 1198.41 124.118 1201.67 122.453C1206.24 120.112 1211.03 118.417 1215.86 116.844C1217.46 116.325 1218.96 115.498 1220.62 115.221C1224.39 114.593 1227.96 113.214 1231.6 112.157C1233.89 111.489 1235.67 111.36 1237.56 112.694C1239.03 113.734 1240.37 113.23 1241.1 111.906C1242.29 109.756 1244.09 109.07 1246.34 108.876C1247.28 108.794 1248.19 108.401 1249.12 108.165C1249.89 107.969 1250.76 107.104 1251.43 108.024C1252.03 108.845 1251.32 109.653 1250.75 110.265C1246.49 114.848 1243.44 120.484 1238.37 124.368C1237.88 124.745 1237.37 125.264 1237.77 125.992C1238.15 126.673 1238.87 126.465 1239.49 126.538C1240.71 126.685 1241.29 125.47 1242.33 125.257C1246.72 124.365 1250.6 122.11 1254.79 120.666C1255.87 120.294 1257.06 120.173 1257.97 119.277C1259.89 117.38 1262.37 116.354 1264.74 115.2C1266.35 114.418 1267.48 113.217 1268.48 111.816C1268.96 111.144 1268.92 110.648 1268.58 109.826Z" fill="white"/>
<path d="M1223.73 167.714C1224.13 164.722 1223.43 161.768 1223.52 158.781C1223.58 156.737 1223.21 156.454 1221.04 156.477C1217.24 156.518 1213.82 158.052 1210.41 159.44C1207.16 160.764 1203.77 161.566 1200.43 162.497C1196.35 163.634 1190.9 160.345 1189.31 156.281C1188.95 155.362 1189.4 154.896 1189.94 154.358C1190.5 153.798 1191.01 153.434 1191.87 153.942C1194.17 155.296 1196.46 155.017 1198.81 153.924C1200.42 153.172 1202.26 152.834 1203.94 152.49C1205.91 152.089 1207.66 151.025 1209.71 150.938C1211.66 150.856 1211.85 149.081 1212.18 147.681C1212.65 145.728 1212.79 143.72 1213.95 141.938C1214.61 140.941 1215.13 140.005 1216.29 139.469C1218.38 138.504 1219.23 136.501 1220.06 134.529C1220.26 134.033 1220.4 133.484 1219.99 133.037C1219.46 132.445 1218.83 132.693 1218.25 132.982C1214.64 134.772 1210.79 134.532 1207.02 133.998C1204.77 133.68 1203.32 131.676 1201.72 130.169C1201.15 129.632 1201.49 128.97 1202.2 128.664C1202.48 128.541 1202.83 128.498 1203.14 128.536C1207.58 129.076 1211.33 126.872 1215.31 125.537C1218.03 124.621 1220.74 123.76 1222.29 120.986C1222.67 120.312 1223.45 119.757 1224.48 120.232C1227.27 121.5 1230.14 122.574 1232.39 124.777C1234.19 126.54 1234.51 127.025 1233.08 129.129C1231.39 131.598 1229.79 134.296 1226.92 135.694C1225.85 136.216 1225.49 137.197 1224.96 138.11C1224.36 139.116 1224.5 139.85 1225.38 140.608C1226.99 141.996 1228.64 143.35 1229.94 145.054C1230.63 145.96 1231.58 145.934 1232.55 145.846C1234.47 145.674 1236.38 145.678 1238.3 145.881C1239.71 146.028 1240.48 146.616 1240.52 148.041C1240.64 152.372 1241.88 152.902 1236.55 152.748C1236.44 152.745 1236.33 152.736 1236.23 152.737C1232.06 152.813 1231.74 152.918 1232.06 157.042C1232.43 162.036 1232.3 166.988 1231.97 171.966C1231.63 176.902 1230.05 181.433 1227.94 185.824C1226.87 188.041 1224.38 188.258 1222.56 188.585C1219.17 189.196 1215.61 189.466 1212.16 188.234C1210.99 187.814 1209.65 187.769 1208.38 187.714C1205.09 187.576 1202.54 185.477 1199.57 184.489C1198.82 184.24 1198.1 183.632 1197.95 182.653C1197.72 181.126 1196.85 179.892 1195.96 178.705C1195.42 177.994 1195.37 177.402 1195.88 176.693C1196.37 176.004 1197.03 175.696 1197.82 175.944C1198.82 176.262 1199.79 176.721 1200.77 177.097C1203.77 178.236 1206.94 178.861 1210.07 178.872C1213.44 178.884 1216.84 178.493 1220.23 178.345C1221.71 178.281 1222.53 177.086 1223 175.629C1223.83 173.03 1223.66 170.361 1223.73 167.714Z" fill="white"/>
<path d="M1168.53 114.894C1168.62 114.9 1169.17 114.862 1169.68 114.969C1170.49 115.134 1170.74 115.753 1170.35 116.401C1169 118.66 1168 121.122 1166.37 123.222C1164.75 125.296 1163.26 127.469 1161.63 129.529C1160.28 131.234 1159.46 133.145 1158.98 135.234C1158.62 136.774 1159.14 137.525 1160.64 137.198C1162.07 136.89 1163.41 136.189 1164.78 135.628C1165.26 135.432 1165.67 135.05 1166.16 134.912C1166.69 134.762 1167.23 134.95 1167.6 135.389C1167.97 135.836 1168.05 136.412 1167.72 136.865C1165.55 139.868 1162.85 142.128 1159.04 142.672C1157.38 142.909 1155.98 142.488 1154.82 141.074C1153.35 139.293 1150.98 138.401 1149.92 136.161C1149.6 135.488 1149.05 134.894 1149.32 134.106C1150.13 131.769 1149.58 129.308 1150.12 126.904C1150.9 123.416 1152.19 121.001 1155.81 119.369C1158.74 118.048 1161.57 116.476 1164.66 115.426C1165.8 115.037 1166.93 114.936 1168.53 114.894Z" fill="white"/>
<path d="M1181.58 87.6316C1182.22 84.7703 1180.56 81.4289 1176.53 79.2143C1176.34 79.1116 1176.15 79.0036 1176 78.8569C1175.41 78.2703 1174.55 77.6596 1175.01 76.7436C1175.52 75.7369 1176.41 76.3156 1177.24 76.4836C1181.24 77.2836 1184.81 79.0303 1188.3 81.0449C1188.79 81.3276 1189.13 81.5983 1189.38 82.1009C1191.59 86.6249 1193.4 91.2183 1192.07 96.4076C1191.64 98.0809 1191.98 99.7956 1191.83 101.485C1191.63 103.756 1190.44 104.528 1188.39 103.613C1186.24 102.653 1184.64 101.298 1183.44 99.0316C1181.76 95.8903 1180.92 92.8009 1181.58 87.6316Z" fill="white"/>
<path d="M325.483 0L318.353 35.4867L270.428 35.5413L265.996 57.9507H313.84L289.939 176.915H314.992L338.892 57.9507L385.148 57.9707L389.593 35.5453L343.409 35.4693L350.535 0H325.483Z" fill="#EE2722"/>
<path d="M395.934 35.4881L390.594 61.7268C390.594 61.7268 393.702 58.6361 401.55 58.1695L454.807 57.9508L459.323 35.4721L395.934 35.4881Z" fill="white"/>
<path d="M433.574 108.3C425.703 99.82 412.899 93.864 408.496 91.7747C406.652 90.9 393.534 84.2053 389.986 82.8173C385.034 80.8813 383.626 76.66 383.334 73.3493C383.042 70.0387 384.766 66.8227 385.59 65.576C385.884 65.1307 386.266 64.756 386.634 64.4573H345.642C345.642 64.4573 344.534 67.7293 343.978 74.0373C343.596 89.3853 355.499 96.7467 355.499 96.7467L393.834 119.3C393.834 119.3 407.715 126.205 406.818 137.879C405.768 151.509 384.992 149.781 384.992 149.781H328.995L323.612 176.915H392.067C408.972 176.915 419.868 173.431 427.651 166.975C438.427 158.037 442.26 146.703 442.71 135.061C443.319 119.216 437.195 112.201 433.574 108.3Z" fill="white"/>
<path d="M262.789 64.4574H292.645L237.219 176.915H214.932L202.095 85.4721L157.027 176.915H138L121.019 58.1147L83.3762 57.9507C83.3762 57.9507 75.5428 57.6454 69.8388 59.5467C65.3628 61.0387 60.7481 62.6348 56.0735 65.4041C49.8121 69.1147 44.4481 73.3134 37.2135 82.2121C31.4175 89.3401 26.7175 100.008 25.4282 109.801C23.9775 120.816 29.4868 132.576 35.7615 140.189C41.0562 146.611 50.1788 149.799 57.4841 150.979C68.3961 152.743 80.5162 151.831 89.0975 149.407C105.739 144.708 119.6 136.465 119.6 136.465L114.263 166.16C114.263 166.16 97.7135 176.659 66.0375 177.756C34.3628 178.855 17.4188 163.797 9.19883 151.413C0.97883 139.031 -2.07451 118.017 1.43616 101.611C3.82416 90.4547 8.21348 80.7321 14.1828 72.2721C17.6095 67.4161 21.5561 62.9761 25.9441 58.9187C31.4548 53.8227 39.0068 47.7521 46.1868 44.0334C54.6855 39.6334 65.5041 35.4894 77.9001 35.4894L145.68 35.5774L158.135 122.707L201.121 35.4894L222.86 35.4734L235.048 120.744L262.789 64.4574Z" fill="white"/>
</svg>
