<svg viewBox="0 0 100.095 99.988" xmlns="http://www.w3.org/2000/svg"><path style="stroke:none;fill-rule:evenodd;fill:#000;fill-opacity:1" d="M43.902 9.215h-.082c-.668 0-1.234-.438-1.273-1.008l-.512-7.07c-.039-.594.496-1.098 1.2-1.137.71-.027 1.312.414 1.355 1.004l.512 7.074c.043.59-.497 1.098-1.2 1.133Zm6.391 7.543c.145.047.293.066.437.066.524 0 1.016-.27 1.204-.707l5.5-12.644c.242-.555-.102-1.168-.766-1.371-.664-.204-1.398.082-1.637.64l-5.504 12.64c-.238.56.102 1.173.766 1.376Zm-12.992-1.863c-.434 0-.856-.184-1.098-.52l-5.371-7.5c-.363-.508-.168-1.168.438-1.473.609-.3 1.394-.136 1.757.368l5.371 7.503c.364.508.168 1.165-.437 1.47-.207.1-.43.152-.66.152ZM76 65.34l16.754 23.039c.367.504.18 1.164-.426 1.469-.601.312-1.39.152-1.758-.356L74.488 67.38 54.016 78.035l10.218 14.203c.364.508.168 1.164-.437 1.473-.203.102-.43.152-.66.152-.43 0-.852-.183-1.094-.515l-10.871-15.11c-.363-.504-.176-1.156.418-1.465l2.976-1.55-8.074-12.45c-.535 1.094-1.02 1.993-1.433 2.59L37.5 76.332l2.074 1.23c.281.165.473.422.524.711a.955.955 0 0 1-.243.813L22.457 98.262c-.25.277-.633.425-1.02.425-.25 0-.5-.062-.722-.187L.758 87.145c-.578-.329-.73-.985-.352-1.477l15.989-20.465c.19-.242.492-.41.832-.465.34-.05.695.012.976.18l1.961 1.16c1.254-5.164 1.688-9.808 1.273-13.8-.34-4.348-2.246-8.247-6.003-12.294-.196-.187-.391-.375-.59-.558-2.035-1.906-3.059-2.969-3.235-3.739a2.347 2.347 0 0 1 1.024-2.578c.758-.48 2.137-.832 4.437.246 1.016.497 1.961 1.04 2.832 1.602l-3.777-5.883c-1.098-1.3-.75-3.004.832-4 1.586-1 3.863-.789 5.184.473a1.4 1.4 0 0 1 .101.113l2.73 3.45-2.538-6.383a2.799 2.799 0 0 1-.278-2.532c.332-.89 1.086-1.613 2.078-1.992 1.024-.43 2.29-.492 3.43-.156 1.059.316 1.918.957 2.356 1.762l3.804 8.734-.363-4.14c-.34-1.696 1.125-3.368 3.352-3.708 2.277-.172 4.257 1.153 4.445 2.887l1.992 21.527 2.16-3.015c.817-1.078 3.254-4.285 7-2.403l.64.32c1.208.61 1.75 1.786 1.321 2.868-.883 2.559-4.039 11.277-6.684 17.293l.016.02.016.011c.015.012.031.024.039.04l8.984 13.847L69.2 67.605l-5.332-11.277c-1.383-2.832-.414-6.078 2.41-8.074l10.496-7.29c.454-.327.438-.804.266-1.136-.086-.164-.426-.7-1.234-.617-1.797.176-4.934 1.5-5.989 1.941l-.011.004-4.817 2.02c-.531.222-1.18.11-1.554-.274a.936.936 0 0 1-.04-1.332l12.282-13.605c.402-.399.402-.988.047-1.336a1.213 1.213 0 0 0-.899-.379c-.414 0-.82.172-1.094.457l-9.593 10.07c-.438.465-1.242.543-1.797.168-.399-.261-.543-.687-.438-1.078a.875.875 0 0 1 .051-.59l7.422-15.218c.137-.258.145-.47.031-.664-.152-.262-.508-.477-.949-.57-.543-.102-1.367.198-1.617.62l-7.903 15.059c-.285.539-1.035.789-1.687.55-.516-.19-.793-.636-.738-1.085-.004-.02-.004-.04-.008-.059a.232.232 0 0 1-.004-.09l2.047-12.644a.9.9 0 0 1 .05-.196.51.51 0 0 0-.074-.492.944.944 0 0 0-.625-.367c-.578-.105-1.164.156-1.343.461l-3.942 13.637a1.03 1.03 0 0 1-.16.312l-.004.004c0 .004-.004.008-.004.012l-.004.004c-.082.11-.191.199-.316.273a.282.282 0 0 1-.078.035l-.024.012c-.101.055-.21.094-.32.117l-.031.012c-.012.004-.024.012-.035.012-.02.004-.04.004-.059.004a.111.111 0 0 0-.05 0c-.02 0-.04.004-.06.007a.394.394 0 0 1-.097.012.854.854 0 0 1-.14-.012l-.024-.003h-.023c-.012-.004-.024-.004-.036-.004l-.043-.004c-.003-.004-.011-.004-.015-.004h-.02a.363.363 0 0 1-.101-.04l-.063-.023-.039-.015a.832.832 0 0 1-.219-.09.666.666 0 0 1-.132-.102l-.043-.035c-.012-.012-.024-.02-.035-.031a.672.672 0 0 1-.133-.125.795.795 0 0 1-.09-.172c-.008-.016-.016-.027-.02-.043a.164.164 0 0 0-.035-.055.342.342 0 0 1-.039-.086l-2.047-8.039a.829.829 0 0 1-.031-.222c0-.172-.215-.426-.508-.426a.816.816 0 0 0-.637.32l.254 11.555c.012.59-.55 1.078-1.257 1.09h-.024c-.695 0-1.266-.469-1.277-1.055l-.258-11.785a.877.877 0 0 1 .066-.36c.446-1.124 1.735-1.91 3.133-1.91 1.61 0 2.98 1.106 3.063 2.442l.851 3.344L54.094 20c.011-.043.027-.082.043-.125.601-1.344 2.531-2.18 4.289-1.848.96.16 1.812.668 2.312 1.391.453.652.57 1.426.328 2.137l-.836 5.164 4.297-8.184c.805-1.351 2.77-2.12 4.516-1.793 1.223.254 2.184.883 2.668 1.723.445.773.45 1.64.012 2.445l-4.47 9.16 4.477-4.699c.77-.805 1.895-1.262 3.094-1.262 1.125 0 2.172.418 2.871 1.153 1.14 1.113 1.14 2.902-.027 4.043L68.73 39.21c2.13-.895 4.81-1.934 6.793-2.129 1.68-.145 3.2.598 3.868 1.898.668 1.301.289 2.723-.97 3.622l-10.5 7.3c-1.968 1.387-2.644 3.649-1.679 5.625l5.172 10.926 2.816-1.465c.301-.152.641-.199.973-.133.332.067.617.243.797.485Zm-40.602 9.75 7.446-10.797c2.258-3.285 7.453-17.313 9.09-22.05.082-.2-.094-.34-.196-.391l-.64-.32c-.72-.36-1.61-.805-3.508 1.69l-4.203 5.872c-.285.402-.848.597-1.39.492-.544-.106-.938-.496-.981-.961l-2.305-24.86c-.035-.335-.324-.57-.492-.675a1.734 1.734 0 0 0-1.059-.266c-.601.094-1.293.637-1.156 1.324l1.039 11.778c0 .027-.004.05-.012.074a.229.229 0 0 0-.008.05c.032.462-.273.903-.82 1.071-.66.203-1.398-.086-1.637-.64l-6.91-15.86c-.113-.2-.433-.426-.84-.55a2.228 2.228 0 0 0-1.476.07c-.492.187-.672.515-.738.695a.955.955 0 0 0 .109.902c.047.067.086.137.117.211l5.57 14.008.165.207c.39.492.23 1.156-.36 1.484a1.42 1.42 0 0 1-.687.157l-.059.011c-.031.004-.059.012-.09.012-.535 0-1.035-.285-1.21-.734l-.079-.192-7.906-9.988c-.442-.375-1.18-.437-1.676-.125-.375.238-.64.64-.258 1.07.04.047.075.09.102.137l8.187 12.75c.02.031.028.063.035.094.008.035.024.07.04.105.023.051.043.102.054.157.008.058.004.113 0 .171v.059a1.355 1.355 0 0 1-.023.176.96.96 0 0 1-.074.156l-.02.035-.02.031a.573.573 0 0 1-.093.145.759.759 0 0 1-.145.129l-.035.027a.495.495 0 0 0-.05.043.308.308 0 0 1-.079.067.062.062 0 0 1-.031.011c-.012.004-.02.004-.027.008-.008.008-.016.012-.024.02a.36.36 0 0 0-.031.02c-.117.05-.242.085-.367.1l-.035.005-.04.004a.742.742 0 0 1-.285.004l-.054-.008-.04-.004h-.027l-.015-.004h-.004l-.008-.004a1.318 1.318 0 0 1-.402-.133.14.14 0 0 1-.04-.027 1.172 1.172 0 0 1-.296-.238c-.008-.008-.016-.016-.024-.02-.008-.008-.02-.012-.023-.023-.035-.04-3.371-4.122-8.54-6.637-1.058-.5-1.55-.442-1.613-.406-.066.046-.125.265-.082.398.012.035.02.074.024.11.195.41 2.015 2.113 2.617 2.675l.004.004c.297.277.535.504.68.645 4.113 4.43 6.187 8.703 6.558 13.472.461 4.422-.058 9.582-1.539 15.317ZM5.45 54.54c2.961 0 5.371-2.017 5.371-4.5 0-2.481-2.41-4.5-5.37-4.5-2.966 0-5.376 2.019-5.376 4.5 0 2.483 2.41 4.5 5.375 4.5Zm0-6.856c1.551 0 2.813 1.054 2.813 2.355 0 1.3-1.262 2.36-2.813 2.36-1.55 0-2.816-1.06-2.816-2.36 0-1.297 1.265-2.355 2.816-2.355Zm75.489.773c.074-.305.277-.562.558-.707.29-.16.649-.215.992-.148l5.848 1.136 1.043-4.992c.125-.582.789-.973 1.484-.871.696.105 1.16.66 1.04 1.242l-1.282 6.11a1.078 1.078 0 0 1-.555.707 1.47 1.47 0 0 1-.996.148l-5.851-1.137-.914 4.25c-.11.516-.649.88-1.258.88-.074 0-.149-.005-.227-.016-.695-.106-1.156-.664-1.035-1.246ZM4.555 25.609c1.695 0 3.07-1.152 3.07-2.57 0-1.422-1.375-2.57-3.07-2.57-1.7 0-3.07 1.148-3.07 2.57 0 1.418 1.374 2.57 3.07 2.57ZM84.117 16.5c0 1.184-1.144 2.145-2.558 2.145S79 17.684 79 16.5c0-1.184 1.145-2.14 2.559-2.14 1.414 0 2.558.956 2.558 2.14Zm0 0" transform="translate(3.54 .65)"/></svg>