<svg viewBox="0 0 99.953 100.318" xmlns="http://www.w3.org/2000/svg"><path style="stroke:none;fill-rule:nonzero;fill:#000;fill-opacity:1" d="M94.77 96.188H84.063v-10.95l5.011-4.523a1.22 1.22 0 0 0 .031-1.68 1.24 1.24 0 0 0-1.687-.129l-3.356 3.031v-7.015c0-.676-.55-1.223-1.23-1.223-.68 0-1.23.547-1.23 1.223V87.23l-5.567-6.84a1.234 1.234 0 0 0-1.715-.167 1.219 1.219 0 0 0-.199 1.703l7.48 9.195v5.067h-7.656c-1.054-6.415-6.617-11.122-13.39-11.122-1.407 0-2.805.235-4.184.672V75.29h10.832c.324 0 .637-.129.867-.36L80.38 62.708c.23-.227.363-.539.363-.863 0-.324-.133-.633-.363-.864L68.07 48.758a1.23 1.23 0 0 0-.87-.36H56.37v-8.675h16.984c.68 0 1.23-.547 1.23-1.223V14.055c0-.676-.55-1.223-1.23-1.223H56.371V1.222A1.23 1.23 0 0 0 55.137 0H42.34c-.68 0-1.23.547-1.23 1.223v11.609H29.046c-.328 0-.64.129-.871.36L15.867 25.413a1.218 1.218 0 0 0 0 1.727l12.309 12.222c.23.23.543.36.87.36H41.11v8.675H22.891c-.68 0-1.23.547-1.23 1.223v24.445c0 .676.55 1.223 1.23 1.223h18.218v8.836a14.685 14.685 0 0 0-6.523-1.504c-5.559 0-10.707 3.203-13.188 8.09-1.199-.496-2.55-.754-4.043-.754-4.3 0-8.117 2.43-9.996 6.234H1.355c-.68 0-1.23.547-1.23 1.223 0 .672.55 1.219 1.23 1.219H94.77c.68 0 1.23-.547 1.23-1.223 0-.672-.55-1.222-1.23-1.222Zm-34.215-8.676c5.402 0 9.863 3.648 10.886 8.68h-15.07v-7.856c1.379-.54 2.781-.824 4.184-.824ZM18.48 26.277l11.075-11h42.57v22h-42.57Zm5.645 24.567h42.566l11.075 11-11.075 11H24.125Zm10.46 34.222c2.368 0 4.61.653 6.524 1.88v9.242H22.33c.093-1.032.339-2.043.73-3.122l.011-.011c.09-.149.153-.313.176-.48 1.887-4.497 6.418-7.509 11.34-7.509Zm-17.23 7.332c1.18 0 2.23.196 3.137.579a14.496 14.496 0 0 0-.625 3.214h-9.676c1.602-2.34 4.239-3.793 7.164-3.793Zm0 0" transform="translate(1.914 .843)"/></svg>