<svg viewBox="0 0 100.13 99.659" xmlns="http://www.w3.org/2000/svg"><path style="stroke:none;fill-rule:evenodd;fill:#000;fill-opacity:1" d="M81.836 67.023V9.38c0-5.102-4.172-9.25-9.305-9.25H11.074A9.187 9.187 0 0 0 9.614 0H9.48C4.633 0 .7 3.906.7 8.727v17.847h14.94v53.668c0 .305.11.602.31.836l6.683 7.95c.25.296.617.464 1.004.464h.004c.39 0 .761-.176 1.007-.472l5.153-6.211 5.277 6.34c.25.3.621.472 1.012.472h.004c.39 0 .758-.176 1.008-.473l5.152-6.207 5.148 6.207c.246.297.614.47 1.004.473h.008c.387 0 .75-.168 1-.46l5.281-6.235 5.29 6.355c.25.297.62.469 1.011.469.371.05.766-.176 1.016-.477l2.945-3.585c1.402 7.285 7.832 12.792 15.57 12.792 8.762 0 15.864-7.058 15.864-15.761 0-8.266-6.407-15.035-14.551-15.696ZM64.71 81.871l-3.723 4.527-5.273-6.335a1.317 1.317 0 0 0-1.004-.473h-.008c-.387 0-.754.172-1 .465l-5.281 6.226-5.16-6.215a1.314 1.314 0 0 0-2.02 0l-5.152 6.207-5.281-6.34c-.25-.3-.618-.472-1.008-.472h-.004c-.39 0-.762.176-1.008.473l-5.16 6.214-5.367-6.378V26.574h.133V8.727c0-2.23-.86-4.375-2.407-5.993h56.543c3.688 0 6.688 2.98 6.688 6.645v57.64c-7.867.641-14.09 6.977-14.508 14.852Zm23.43-2.793L78.965 88.2a1.332 1.332 0 0 1-.93.383c-.347 0-.68-.14-.926-.383l-4.324-4.3a1.294 1.294 0 0 1 0-1.84 1.308 1.308 0 0 1 1.852 0l3.398 3.375 8.25-8.196a1.313 1.313 0 0 1 1.856 0 1.294 1.294 0 0 1 0 1.84ZM63.355 15.762H30.453c-.723 0-1.308.582-1.308 1.304 0 .72.585 1.301 1.308 1.301h32.902c.723 0 1.313-.582 1.313-1.3 0-.723-.59-1.305-1.313-1.305Zm0 21.883H30.453c-.723 0-1.308.585-1.308 1.304 0 .719.585 1.301 1.308 1.301h32.902c.723 0 1.313-.582 1.313-1.3 0-.72-.59-1.305-1.313-1.305Zm-13.238-8.336H30.453a1.305 1.305 0 0 1-1.308-1.301c0-.719.585-1.305 1.308-1.305h19.664c.723 0 1.309.586 1.309 1.305s-.586 1.3-1.309 1.3Zm3.34 18.742a1.317 1.317 0 0 1 1.656-.832c.688.226 1.063.96.836 1.644-3.672 11.094-5.922 12.426-7.812 12.223-2.086-.129-2.434-2.59-2.715-4.57l-.004-.032c-.074-.511-.18-1.261-.309-1.726-.644.547-1.683 2.152-2.222 2.992l-.004.004c-1.246 1.937-2.078 3.223-3.399 3.07-1.648-.183-1.703-2.05-1.765-4.21-.028-.864-.078-2.54-.32-3.239-.993.594-2.962 3.035-5.86 7.277a1.315 1.315 0 0 1-1.82.348 1.3 1.3 0 0 1-.348-1.813c4.129-6.035 6.613-9 8.742-8.476 2.07.55 2.153 3.352 2.227 5.824v.004l.004.133.004.183.215-.332c.042-.062.082-.12.12-.18 1.383-2.148 2.817-4.366 4.715-4.366 2.028 0 2.356 2.316 2.622 4.175.09.66.253 1.82.476 2.285.469-.265 2.117-1.792 4.961-10.386Zm0 0" transform="translate(1.52 .59)"/></svg>