<svg viewBox="0 -0.147 99.92 99.736" xmlns="http://www.w3.org/2000/svg"><path style="stroke:none;fill-rule:evenodd;fill:#000;fill-opacity:1" d="M67.473 64.285h5.312c3.57 0 6.473 2.883 6.473 6.43v21.469c0 3.546-2.903 6.43-6.473 6.43H33.672c-3.57 0-6.477-2.884-6.477-6.43v-1.157H10.88C4.879 91.027 0 86.184 0 80.23V10.8C0 4.845 4.879 0 10.879 0h40.793c.363 0 .707.148.953.414l14.473 15.52c.242.242.375.57.375.91ZM2.59 80.23c.008 4.543 3.715 8.223 8.289 8.227h16.316V70.715c0-3.547 2.907-6.43 6.477-6.43h14.504v-1.539c0-1.418 1.168-2.574 2.59-2.574h5.05a2.587 2.587 0 0 1 2.59 2.574v1.54h6.477V18h-13.34a1.288 1.288 0 0 1-1.293-1.285V2.575H10.879c-4.574.003-8.285 3.683-8.29 8.226Zm70.195 15.813c2.14 0 3.883-1.73 3.883-3.856V70.715c0-2.13-1.742-3.86-3.883-3.86H33.672c-2.14 0-3.887 1.73-3.887 3.86v21.472c0 2.126 1.746 3.856 3.887 3.856Zm-60.48-71.484h31.21c.715 0 1.294-.579 1.294-1.29a1.29 1.29 0 0 0-1.293-1.285H12.305c-.715 0-1.297.578-1.297 1.286 0 .71.582 1.289 1.297 1.289Zm0 11.054h19.297c.714 0 1.293-.574 1.293-1.285 0-.71-.579-1.285-1.293-1.285H12.305c-.715 0-1.297.574-1.297 1.285s.582 1.285 1.297 1.285Zm35.87 46.672h-8.804c-1.555 0-2.851 1.156-3.11 2.7l-.906 5.53h16.836l-.906-5.53c-.258-1.544-1.555-2.7-3.11-2.7Zm-.386-5.015c-.258 1.93-1.941 3.343-3.887 3.343-2.199 0-3.882-1.8-3.882-3.855v-.645c.257-1.925 1.94-3.343 3.882-3.343h.391c.645.128 1.422.515 2.07 1.03.778.77 1.426 1.802 1.426 2.958Zm22.273-2.57H58.407a1.29 1.29 0 0 0-1.293 1.284c0 .711.578 1.286 1.293 1.286h11.657c.714 0 1.296-.575 1.296-1.286 0-.707-.582-1.285-1.296-1.285ZM58.407 81h11.657c.714 0 1.296.574 1.296 1.285s-.582 1.285-1.296 1.285H58.406a1.288 1.288 0 0 1-1.293-1.285c0-.71.578-1.285 1.293-1.285Zm11.657 6.3H58.406c-.715 0-1.293.575-1.293 1.286 0 .71.578 1.285 1.293 1.285h11.657c.714 0 1.296-.574 1.296-1.285s-.582-1.285-1.296-1.285ZM29.328 55.173c-.113 0-.223-.008-.332-.02-1.992-.265-2.308-2.605-2.558-4.484-.067-.508-.168-1.266-.297-1.742-.578.547-1.536 2.015-2.036 2.785-1.253 1.926-2.09 3.203-3.398 3.055-.055-.008-.113-.016-.168-.032-1.402-.347-1.43-1.898-1.469-4.039-.015-.898-.047-2.664-.308-3.332-.953.512-2.895 2.899-5.774 7.102a1.305 1.305 0 0 1-1.8.34 1.28 1.28 0 0 1-.344-1.785c4.113-6.004 6.586-8.918 8.734-8.211 1.988.523 2.04 3.343 2.082 5.836v.078c.07-.102.137-.203.2-.297l.07-.11c1.39-2.14 2.707-4.16 4.488-4.16 2.031 0 2.34 2.317 2.59 4.176.082.625.226 1.719.43 2.191.44-.304 2.058-1.898 4.82-10.117.23-.664.96-1.015 1.633-.793.672.223 1.039.938.824 1.61-3.426 10.195-5.594 11.949-7.387 11.949Zm0 0" transform="translate(10.331 .414)"/></svg>